<svg id="Szene_1" data-name="Szene 1" xmlns="http://www.w3.org/2000/svg" viewBox="0 0 1866 1447.55"><defs><style>.cls-1{fill:#e3d979;}.cls-2{fill:#2e363f;}.cls-3{opacity:0.35;}.cls-4{fill:#0f1116;}.cls-5{fill:#242938;}.cls-6,.cls-7{fill:#2a3340;}.cls-14,.cls-6{opacity:0.5;}.cls-8{fill:#1c222b;}.cls-9{fill:#2a3042;}.cls-10{fill:#394256;}.cls-11{fill:#13151c;}.cls-12{fill:#222733;}.cls-13{fill:#2e354a;}.cls-15{fill:#1e222b;}.cls-16{fill:#1e1e1e;}.cls-17{fill:#282828;}.cls-18{fill:#93a3a3;}.cls-19{fill:#14161c;}.cls-20,.cls-24{fill:#be392d;}.cls-21{fill:#2d3e50;}.cls-22{fill:#297fb6;}.cls-23{fill:#e8e9e4;opacity:0.64;}.cls-24{opacity:0.6;}</style></defs><title>Energieversorgungsgrad_1</title><g id="Hintergrund_Kopie" data-name="Hintergrund Kopie"><path class="cls-1" d="M454.07,244.4a126.85,126.85,0,0,1,107.6-95.84A127.84,127.84,0,1,0,513.45,384,126.82,126.82,0,0,1,454.07,244.4Z" transform="translate(-72 -118.24)"/><path class="cls-2" d="M897.59,440.14a25.89,25.89,0,0,0,25.78-22A61,61,0,0,0,863,348.38c-1.29,0-2.57.06-3.85.14a135.75,135.75,0,0,0-239.24-54.47,105,105,0,0,0-126.31,69.61,61,61,0,0,0-76.86,53.54c0,.2,0,.41-.05.61a20.91,20.91,0,0,0,20.91,22.33Z" transform="translate(-72 -118.24)"/><ellipse class="cls-3" cx="933" cy="1223.62" rx="933" ry="223.93"/><path class="cls-4" d="M87.46,1381.85c36.18,45.78,130.43,86.63,263.66,118H1657c133.23-31.33,227.48-72.18,263.66-118Z" transform="translate(-72 -118.24)"/><rect class="cls-5" x="706" y="1311.59" width="78" height="12" rx="1.58"/><rect class="cls-5" x="862" y="1311.59" width="78" height="12" rx="1.58"/><rect class="cls-5" x="1018" y="1311.59" width="78" height="12" rx="1.58"/><rect class="cls-5" x="1174" y="1311.59" width="78" height="12" rx="1.58"/><rect class="cls-5" x="1330" y="1311.59" width="78" height="12" rx="1.58"/><rect class="cls-5" x="1486" y="1311.59" width="78" height="12" rx="1.58"/><rect class="cls-5" x="1642" y="1311.59" width="78" height="12" rx="1.58"/><rect class="cls-5" x="394" y="1311.59" width="78" height="12" rx="1.58"/><rect class="cls-5" x="550" y="1311.59" width="78" height="12" rx="1.58"/><rect class="cls-5" x="238" y="1311.59" width="78" height="12" rx="1.58"/><rect class="cls-5" x="394" y="1311.59" width="78" height="12" rx="1.58"/><path class="cls-5" d="M225.82,1429.84h-66a6,6,0,0,0-5.11,2.89q8.76,4.61,18.34,9.1h52.77a6,6,0,1,0,0-12Z" transform="translate(-72 -118.24)"/><path class="cls-2" d="M1333.83,306.18a19.07,19.07,0,0,1-19-16.19,44.91,44.91,0,0,1,44.44-51.38c1,0,1.9,0,2.84.1A100,100,0,0,1,1538.3,198.6a77.32,77.32,0,0,1,93,51.26,44.88,44.88,0,0,1,56.6,39.43c0,.15,0,.3,0,.45a15.39,15.39,0,0,1-15.4,16.44Z" transform="translate(-72 -118.24)"/><circle class="cls-1" cx="697" cy="9" r="9"/><circle class="cls-1" cx="911" cy="182.94" r="9"/><circle class="cls-1" cx="1487" cy="11" r="9"/><circle class="cls-1" cx="1425" cy="320.9" r="9"/><circle class="cls-1" cx="1129" cy="90.97" r="9"/><circle class="cls-1" cx="1759" cy="362.89" r="9"/><circle class="cls-1" cx="1733" cy="62.98" r="9"/><circle class="cls-1" cx="295" cy="450.86" r="9"/><circle class="cls-1" cx="145" cy="614.81" r="9"/><circle class="cls-1" cx="157.69" cy="216.01" r="9"/><circle class="cls-1" cx="213" cy="40.99" r="9"/><circle class="cls-1" cx="1711" cy="576.82" r="9"/><circle class="cls-1" cx="1171" cy="278.91" r="9"/></g><g id="Horizont_Kopie" data-name="Horizont Kopie"><path class="cls-6" d="M355.65,628.57c0-5.2,3.48-9.41,7.76-9.41H603.89c4.28,0,7.76,4.21,7.76,9.41V645.5s0,.08-.06.08h.06v467.63H502.71v6.56s0,0,0,0h-37a0,0,0,0,1,0,0v-6.57h-110V645.58h0s0,0,0,0Z" transform="translate(-72 -118.24)"/><path class="cls-6" d="M1177.39,617.41c0-5.19,3.48-9.41,7.76-9.41h240.48c4.28,0,7.76,4.22,7.76,9.41v16.94a.07.07,0,0,1-.06.07h.06v467.64H1324.45v6.55s0,.05,0,.05h-37a0,0,0,0,1,0,0v-6.56h-110V634.42h0Z" transform="translate(-72 -118.24)"/><path class="cls-7" d="M1342,515.54c0-5.2,3.48-9.42,7.76-9.42h240.48c4.28,0,7.76,4.22,7.76,9.42v16.93a.07.07,0,0,1-.06.07h.06v467.64H1489.06v6.55s0,0,0,0h-37a0,0,0,0,1,0,0v-6.56H1342V532.54h0Z" transform="translate(-72 -118.24)"/><path class="cls-6" d="M649.69,561.78c0-5.2,3.48-9.41,7.77-9.41H897.93c4.29,0,7.76,4.21,7.76,9.41v16.94s0,.07-.06.07h.06v467.63H796.76V1053a0,0,0,0,1,0,0h-37s0,0,0,0v-6.57h-110V578.79h0Z" transform="translate(-72 -118.24)"/><path class="cls-7" d="M959.69,465.81c0-5.2,3.48-9.41,7.77-9.41h240.47c4.29,0,7.76,4.21,7.76,9.41v16.94s0,.07-.06.07h.06V950.45H1106.76V957a0,0,0,0,1,0,0h-37s0,0,0,0v-6.57h-110V482.82h0Z" transform="translate(-72 -118.24)"/><path class="cls-7" d="M491.69,679.75c0-5.2,3.48-9.42,7.77-9.42H739.93c4.29,0,7.76,4.22,7.76,9.42v16.93s0,.07-.06.07h.06v467.64H638.76v6.55a0,0,0,0,1,0,0h-37s0,0,0,0v-6.56h-110V696.75h0Z" transform="translate(-72 -118.24)"/><path class="cls-8" d="M300.47,818.78c0-3.4,3.47-6.16,7.76-6.16H548.7c4.29,0,7.77,2.76,7.77,6.16v11.07a.06.06,0,0,1-.06,0h.06v305.71H447.53v4.28a0,0,0,0,1,0,0h-37a0,0,0,0,1,0,0v-4.29h-110V829.9h0Z" transform="translate(-72 -118.24)"/></g><g id="Hochhaus_Nacht_2_Kopie" data-name="Hochhaus Nacht 2 Kopie"><g id="Hochhaus_Nacht_5_Kopie" data-name="Hochhaus Nacht 5 Kopie"><rect class="cls-9" x="612" y="713.78" width="282" height="424.64"/><path class="cls-10" d="M734.19,1076.44h36.42a2.19,2.19,0,0,1,2.19,2.19v65.77a0,0,0,0,1,0,0H732a0,0,0,0,1,0,0v-65.77A2.19,2.19,0,0,1,734.19,1076.44Z"/><rect class="cls-11" x="737.33" y="1082.35" width="30.4" height="56.16" rx="0.95"/><rect class="cls-10" x="842" y="1075.67" width="32" height="45.99" rx="2.19"/><rect class="cls-11" x="846" y="1079.67" width="24" height="37.99" rx="0.95"/><path class="cls-12" d="M616.28,689.79H889.72a4.28,4.28,0,0,1,4.28,4.28v19.71a0,0,0,0,1,0,0H612a0,0,0,0,1,0,0V694.06A4.28,4.28,0,0,1,616.28,689.79Z"/><rect class="cls-10" x="790" y="1075.67" width="32" height="45.99" rx="2.19"/><rect class="cls-11" x="794" y="1079.67" width="24" height="37.99" rx="0.95"/><rect class="cls-10" x="684" y="1075.67" width="32" height="45.99" rx="2.19"/><rect class="cls-11" x="688" y="1079.67" width="24" height="37.99" rx="0.95"/><rect class="cls-10" x="632" y="1075.67" width="32" height="45.99" rx="2.19"/><rect class="cls-11" x="636" y="1079.67" width="24" height="37.99" rx="0.95"/><rect class="cls-10" x="842" y="1005.69" width="32" height="45.99" rx="2.19"/><rect class="cls-11" x="846" y="1009.69" width="24" height="37.99" rx="0.95"/><rect class="cls-10" x="790" y="1005.69" width="32" height="45.99" rx="2.19"/><rect class="cls-11" x="794" y="1009.69" width="24" height="37.99" rx="0.95"/><rect class="cls-10" x="684" y="1005.69" width="32" height="45.99" rx="2.19"/><rect class="cls-11" x="688" y="1009.69" width="24" height="37.99" rx="0.95"/><rect class="cls-10" x="632" y="1005.69" width="32" height="45.99" rx="2.19"/><rect class="cls-11" x="636" y="1009.69" width="24" height="37.99" rx="0.95"/><rect class="cls-10" x="736" y="1005.69" width="32" height="45.99" rx="2.19"/><rect class="cls-11" x="740" y="1009.69" width="24" height="37.99" rx="0.95"/><rect class="cls-10" x="842" y="935.71" width="32" height="45.99" rx="2.19"/><rect class="cls-11" x="846" y="939.71" width="24" height="37.99" rx="0.95"/><rect class="cls-10" x="790" y="935.71" width="32" height="45.99" rx="2.19"/><rect class="cls-11" x="794" y="939.71" width="24" height="37.99" rx="0.95"/><rect class="cls-10" x="684" y="935.71" width="32" height="45.99" rx="2.19"/><rect class="cls-11" x="688" y="939.71" width="24" height="37.99" rx="0.95"/><rect class="cls-10" x="632" y="935.71" width="32" height="45.99" rx="2.19"/><rect class="cls-11" x="636" y="939.71" width="24" height="37.99" rx="0.95"/><rect class="cls-10" x="736" y="935.71" width="32" height="45.99" rx="2.19"/><rect class="cls-11" x="740" y="939.71" width="24" height="37.99" rx="0.95"/><rect class="cls-10" x="842" y="865.73" width="32" height="45.99" rx="2.19"/><rect class="cls-11" x="846" y="869.73" width="24" height="37.99" rx="0.95"/><rect class="cls-10" x="790" y="865.73" width="32" height="45.99" rx="2.19"/><rect class="cls-11" x="794" y="869.73" width="24" height="37.99" rx="0.95"/><rect class="cls-10" x="684" y="865.73" width="32" height="45.99" rx="2.19"/><rect class="cls-11" x="688" y="869.73" width="24" height="37.99" rx="0.95"/><rect class="cls-10" x="632" y="865.73" width="32" height="45.99" rx="2.19"/><rect class="cls-11" x="636" y="869.73" width="24" height="37.99" rx="0.95"/><rect class="cls-10" x="736" y="865.73" width="32" height="45.99" rx="2.19"/><rect class="cls-11" x="740" y="869.73" width="24" height="37.99" rx="0.95"/><rect class="cls-10" x="842" y="795.75" width="32" height="45.99" rx="2.19"/><rect class="cls-11" x="846" y="799.75" width="24" height="37.99" rx="0.95"/><rect class="cls-10" x="790" y="795.75" width="32" height="45.99" rx="2.19"/><rect class="cls-11" x="794" y="799.75" width="24" height="37.99" rx="0.95"/><rect class="cls-10" x="684" y="795.75" width="32" height="45.99" rx="2.19"/><rect class="cls-11" x="688" y="799.75" width="24" height="37.99" rx="0.95"/><rect class="cls-10" x="632" y="795.75" width="32" height="45.99" rx="2.19"/><rect class="cls-11" x="636" y="799.75" width="24" height="37.99" rx="0.95"/><rect class="cls-10" x="736" y="795.75" width="32" height="45.99" rx="2.19"/><rect class="cls-11" x="740" y="799.75" width="24" height="37.99" rx="0.95"/><rect class="cls-10" x="842" y="725.78" width="32" height="45.99" rx="2.19"/><rect class="cls-11" x="846" y="729.77" width="24" height="37.99" rx="0.95"/><rect class="cls-10" x="790" y="725.78" width="32" height="45.99" rx="2.19"/><rect class="cls-11" x="794" y="729.77" width="24" height="37.99" rx="0.95"/><rect class="cls-10" x="684" y="725.78" width="32" height="45.99" rx="2.19"/><rect class="cls-11" x="688" y="729.77" width="24" height="37.99" rx="0.95"/><rect class="cls-10" x="632" y="725.78" width="32" height="45.99" rx="2.19"/><rect class="cls-11" x="636" y="729.77" width="24" height="37.99" rx="0.95"/><rect class="cls-10" x="736" y="725.78" width="32" height="45.99" rx="2.19"/><rect class="cls-11" x="740" y="729.77" width="24" height="37.99" rx="0.95"/><path class="cls-10" d="M612,779.76H894a0,0,0,0,1,0,0v10a0,0,0,0,1,0,0H612a0,0,0,0,1,0,0v-10A0,0,0,0,1,612,779.76Z"/><path class="cls-10" d="M612,849.74H894a0,0,0,0,1,0,0v10a0,0,0,0,1,0,0H612a0,0,0,0,1,0,0v-10A0,0,0,0,1,612,849.74Z"/><path class="cls-10" d="M612,919.72H894a0,0,0,0,1,0,0v10a0,0,0,0,1,0,0H612a0,0,0,0,1,0,0v-10A0,0,0,0,1,612,919.72Z"/><path class="cls-10" d="M612,989.69H894a0,0,0,0,1,0,0v10a0,0,0,0,1,0,0H612a0,0,0,0,1,0,0v-10A0,0,0,0,1,612,989.69Z"/><path class="cls-10" d="M612,1059.67H894a0,0,0,0,1,0,0v10a0,0,0,0,1,0,0H612a0,0,0,0,1,0,0v-10A0,0,0,0,1,612,1059.67Z"/><path class="cls-13" d="M808,808H706a0,0,0,0,1,0,0V797.69a3.66,3.66,0,0,1,3.65-3.66h94.7a3.66,3.66,0,0,1,3.65,3.66V808Z" transform="translate(-72 -118.24)"/><path class="cls-13" d="M942,808H840a0,0,0,0,1,0,0V797.69a3.66,3.66,0,0,1,3.65-3.66h94.7a3.66,3.66,0,0,1,3.65,3.66V808Z" transform="translate(-72 -118.24)"/></g><path class="cls-14" d="M785.18,808.23a6.76,6.76,0,0,0,6.76-6.76V794H744v462.62h33.94v-58.54h7.24a6.76,6.76,0,0,0,6.76-6.76v-34.47a6.76,6.76,0,0,0-6.76-6.76h-7.24v-32h7.24a6.75,6.75,0,0,0,6.76-6.76V1090.9a6.76,6.76,0,0,0-6.76-6.76h-7.24v-28h7.24a6.75,6.75,0,0,0,6.76-6.76v-20.47a6.76,6.76,0,0,0-6.76-6.76h-7.24v-28h7.24a6.76,6.76,0,0,0,6.76-6.76V966.94a6.76,6.76,0,0,0-6.76-6.76h-7.24v-28h7.24a6.76,6.76,0,0,0,6.76-6.76V905a6.76,6.76,0,0,0-6.76-6.76h-7.24v-28h7.24a6.76,6.76,0,0,0,6.76-6.76V843a6.76,6.76,0,0,0-6.76-6.76h-7.24v-28Z" transform="translate(-72 -118.24)"/><rect class="cls-5" x="283.02" y="672.85" width="394" height="487.1"/><rect class="cls-10" x="297.02" y="824.05" width="60" height="45.99" rx="2.19"/><rect class="cls-11" x="301.02" y="828.05" width="24" height="37.99" rx="0.95"/><rect class="cls-11" x="329.02" y="828.05" width="24" height="37.99" rx="0.95"/><rect class="cls-10" x="297.02" y="760.07" width="60" height="45.99" rx="2.19"/><rect class="cls-11" x="301.02" y="764.07" width="24" height="37.99" rx="0.95"/><rect class="cls-11" x="329.02" y="764.07" width="24" height="37.99" rx="0.95"/><rect class="cls-10" x="401.02" y="696.09" width="60" height="45.99" rx="2.19"/><rect class="cls-11" x="405.02" y="700.09" width="24" height="37.99" rx="0.95"/><rect class="cls-11" x="433.02" y="700.09" width="24" height="37.99" rx="0.95"/><rect class="cls-10" x="401.02" y="820.05" width="60" height="45.99" rx="2.19"/><rect class="cls-11" x="405.02" y="824.05" width="24" height="37.99" rx="0.95"/><rect class="cls-11" x="433.02" y="824.05" width="24" height="37.99" rx="0.95"/><rect class="cls-10" x="401.02" y="758.07" width="60" height="45.99" rx="2.19"/><rect class="cls-11" x="405.02" y="762.07" width="24" height="37.99" rx="0.95"/><rect class="cls-11" x="433.02" y="762.07" width="24" height="37.99" rx="0.95"/><rect class="cls-10" x="297.02" y="698.09" width="60" height="45.99" rx="2.19"/><rect class="cls-11" x="301.02" y="702.09" width="24" height="37.99" rx="0.95"/><rect class="cls-11" x="329.02" y="702.09" width="24" height="37.99" rx="0.95"/><rect class="cls-10" x="297.02" y="1011.99" width="60" height="45.99" rx="2.19"/><rect class="cls-11" x="301.02" y="1015.99" width="24" height="37.99" rx="0.95"/><rect class="cls-11" x="329.02" y="1015.99" width="24" height="37.99" rx="0.95"/><rect class="cls-10" x="297.02" y="950.01" width="60" height="45.99" rx="2.19"/><rect class="cls-11" x="301.02" y="954.01" width="24" height="37.99" rx="0.95"/><rect class="cls-11" x="329.02" y="954.01" width="24" height="37.99" rx="0.95"/><rect class="cls-10" x="297.02" y="886.03" width="60" height="45.99" rx="2.19"/><rect class="cls-11" x="301.02" y="890.03" width="24" height="37.99" rx="0.95"/><rect class="cls-11" x="329.02" y="890.03" width="24" height="37.99" rx="0.95"/><rect class="cls-10" x="297.02" y="824.05" width="60" height="45.99" rx="2.19"/><rect class="cls-11" x="301.02" y="828.05" width="24" height="37.99" rx="0.95"/><rect class="cls-11" x="329.02" y="828.05" width="24" height="37.99" rx="0.95"/><rect class="cls-10" x="400.17" y="882.51" width="60" height="45.99" rx="2.19"/><rect class="cls-11" x="404.17" y="886.51" width="24" height="37.99" rx="0.95"/><rect class="cls-11" x="432.17" y="886.51" width="24" height="37.99" rx="0.95"/><rect class="cls-10" x="400.17" y="1006.47" width="60" height="45.99" rx="2.19"/><rect class="cls-11" x="404.17" y="1010.47" width="24" height="37.99" rx="0.95"/><rect class="cls-11" x="432.17" y="1010.47" width="24" height="37.99" rx="0.95"/><rect class="cls-10" x="400.17" y="944.49" width="60" height="45.99" rx="2.19"/><rect class="cls-11" x="404.17" y="948.49" width="24" height="37.99" rx="0.95"/><rect class="cls-11" x="432.17" y="948.49" width="24" height="37.99" rx="0.95"/><rect class="cls-10" x="503" y="695.78" width="60" height="45.99" rx="2.19"/><rect class="cls-11" x="507" y="699.78" width="24" height="37.99" rx="0.95"/><rect class="cls-11" x="535" y="699.78" width="24" height="37.99" rx="0.95"/><rect class="cls-10" x="503" y="819.74" width="60" height="45.99" rx="2.19"/><rect class="cls-11" x="507" y="823.74" width="24" height="37.99" rx="0.95"/><rect class="cls-11" x="535" y="823.74" width="24" height="37.99" rx="0.95"/><rect class="cls-10" x="503" y="757.76" width="60" height="45.99" rx="2.19"/><rect class="cls-11" x="507" y="761.76" width="24" height="37.99" rx="0.95"/><rect class="cls-11" x="535" y="761.76" width="24" height="37.99" rx="0.95"/><rect class="cls-10" x="502.15" y="882.2" width="60" height="45.99" rx="2.19"/><rect class="cls-11" x="506.15" y="886.2" width="24" height="37.99" rx="0.95"/><rect class="cls-11" x="534.15" y="886.2" width="24" height="37.99" rx="0.95"/><rect class="cls-10" x="502.15" y="1006.16" width="60" height="45.99" rx="2.19"/><rect class="cls-11" x="506.15" y="1010.16" width="24" height="37.99" rx="0.95"/><rect class="cls-11" x="534.15" y="1010.16" width="24" height="37.99" rx="0.95"/><rect class="cls-10" x="502.15" y="944.18" width="60" height="45.99" rx="2.19"/><rect class="cls-11" x="506.15" y="948.18" width="24" height="37.99" rx="0.95"/><rect class="cls-11" x="534.15" y="948.18" width="24" height="37.99" rx="0.95"/><rect class="cls-10" x="503.02" y="696.09" width="60" height="45.99" rx="2.19"/><rect class="cls-11" x="507.02" y="700.09" width="24" height="37.99" rx="0.95"/><rect class="cls-11" x="535.02" y="700.09" width="24" height="37.99" rx="0.95"/><rect class="cls-10" x="503.02" y="820.05" width="60" height="45.99" rx="2.19"/><rect class="cls-11" x="507.02" y="824.05" width="24" height="37.99" rx="0.95"/><rect class="cls-11" x="535.02" y="824.05" width="24" height="37.99" rx="0.95"/><rect class="cls-10" x="503.02" y="758.07" width="60" height="45.99" rx="2.19"/><rect class="cls-11" x="507.02" y="762.07" width="24" height="37.99" rx="0.95"/><rect class="cls-11" x="535.02" y="762.07" width="24" height="37.99" rx="0.95"/><rect class="cls-10" x="502.17" y="882.51" width="60" height="45.99" rx="2.19"/><rect class="cls-11" x="506.17" y="886.51" width="24" height="37.99" rx="0.95"/><rect class="cls-11" x="534.17" y="886.51" width="24" height="37.99" rx="0.95"/><rect class="cls-10" x="502.17" y="1006.47" width="60" height="45.99" rx="2.19"/><rect class="cls-11" x="506.17" y="1010.47" width="24" height="37.99" rx="0.95"/><rect class="cls-11" x="534.17" y="1010.47" width="24" height="37.99" rx="0.95"/><rect class="cls-10" x="502.17" y="944.49" width="60" height="45.99" rx="2.19"/><rect class="cls-11" x="506.17" y="948.49" width="24" height="37.99" rx="0.95"/><rect class="cls-11" x="534.17" y="948.49" width="24" height="37.99" rx="0.95"/><rect class="cls-10" x="605" y="695.78" width="60" height="45.99" rx="2.19"/><rect class="cls-11" x="609" y="699.78" width="24" height="37.99" rx="0.95"/><rect class="cls-11" x="637" y="699.78" width="24" height="37.99" rx="0.95"/><rect class="cls-10" x="605" y="819.74" width="60" height="45.99" rx="2.19"/><rect class="cls-11" x="609" y="823.74" width="24" height="37.99" rx="0.95"/><rect class="cls-11" x="637" y="823.74" width="24" height="37.99" rx="0.95"/><rect class="cls-10" x="605" y="757.76" width="60" height="45.99" rx="2.19"/><rect class="cls-11" x="609" y="761.76" width="24" height="37.99" rx="0.95"/><rect class="cls-11" x="637" y="761.76" width="24" height="37.99" rx="0.95"/><rect class="cls-10" x="604.15" y="882.2" width="60" height="45.99" rx="2.19"/><rect class="cls-11" x="608.15" y="886.2" width="24" height="37.99" rx="0.95"/><rect class="cls-11" x="636.15" y="886.2" width="24" height="37.99" rx="0.95"/><rect class="cls-10" x="604.15" y="1006.16" width="60" height="45.99" rx="2.19"/><rect class="cls-11" x="608.15" y="1010.16" width="24" height="37.99" rx="0.95"/><rect class="cls-11" x="636.15" y="1010.16" width="24" height="37.99" rx="0.95"/><rect class="cls-10" x="604.15" y="944.18" width="60" height="45.99" rx="2.19"/><rect class="cls-11" x="608.15" y="948.18" width="24" height="37.99" rx="0.95"/><rect class="cls-11" x="636.15" y="948.18" width="24" height="37.99" rx="0.95"/><rect class="cls-13" x="269.02" y="642.11" width="422" height="47.99" rx="3.38"/><rect class="cls-13" x="269.02" y="1031.99" width="422" height="47.99" rx="3.38"/><rect class="cls-13" x="269.02" y="718.08" width="422" height="33.99" rx="3.38"/><rect class="cls-13" x="269.02" y="780.06" width="422" height="33.99" rx="3.38"/><rect class="cls-13" x="269.02" y="842.04" width="422" height="33.99" rx="3.38"/><rect class="cls-13" x="269.02" y="904.03" width="422" height="33.99" rx="3.38"/><rect class="cls-13" x="269.02" y="966.01" width="422" height="33.99" rx="3.38"/><path class="cls-10" d="M443.21,1096h71.62a2.19,2.19,0,0,1,2.19,2.19v65.77a0,0,0,0,1,0,0H441a0,0,0,0,1,0,0v-65.77A2.19,2.19,0,0,1,443.21,1096Z"/><rect class="cls-11" x="446.09" y="1101.88" width="30.4" height="56.16" rx="0.95"/><rect class="cls-11" x="481.55" y="1101.88" width="30.4" height="56.16" rx="0.95"/><rect class="cls-10" x="603.02" y="1095.97" width="32" height="45.99" rx="2.19"/><rect class="cls-11" x="607.02" y="1099.96" width="24" height="37.99" rx="0.95"/><rect class="cls-10" x="323.02" y="1095.97" width="32" height="45.99" rx="2.19"/><rect class="cls-11" x="327.02" y="1099.96" width="24" height="37.99" rx="0.95"/><path class="cls-5" d="M324.3,618.11H455.74a4.28,4.28,0,0,1,4.28,4.28V642.1a0,0,0,0,1,0,0h-140a0,0,0,0,1,0,0V622.39A4.28,4.28,0,0,1,324.3,618.11Z"/><path class="cls-5" d="M506.3,618.11H637.74a4.28,4.28,0,0,1,4.28,4.28V642.1a0,0,0,0,1,0,0h-140a0,0,0,0,1,0,0V622.39A4.28,4.28,0,0,1,506.3,618.11Z"/><rect class="cls-10" x="548.02" y="1095.97" width="32" height="45.99" rx="2.19"/><rect class="cls-11" x="552.02" y="1099.96" width="24" height="37.99" rx="0.95"/><rect class="cls-10" x="382.02" y="1095.97" width="32" height="45.99" rx="2.19"/><rect class="cls-11" x="386.02" y="1099.96" width="24" height="37.99" rx="0.95"/></g><g id="Hochhaus_Nacht_4_Kopie" data-name="Hochhaus Nacht 4 Kopie"><path class="cls-15" d="M1342.24,625.95h153.35a.44.44,0,0,1,.44.44v536.95a.44.44,0,0,1-.44.44H1338.68a.44.44,0,0,1-.44-.44V629.95A4,4,0,0,1,1342.24,625.95Z"/><path class="cls-15" d="M1490.87,625.95h153.42a4.37,4.37,0,0,1,4.37,4.37v529.1a4.37,4.37,0,0,1-4.37,4.37H1490.87a0,0,0,0,1,0,0V626A0,0,0,0,1,1490.87,625.95Z"/><rect class="cls-10" x="1281.33" y="789.89" width="108.65" height="373.88"/><rect class="cls-10" x="1594.33" y="789.89" width="108.65" height="373.88"/><rect class="cls-10" x="1382.21" y="497.99" width="108.65" height="127.96"/><rect class="cls-10" x="1490.86" y="497.99" width="108.65" height="127.96"/><path class="cls-12" d="M1277.73,771.9h115.84a1.58,1.58,0,0,1,1.58,1.58v4.42a0,0,0,0,1,0,0h-119a0,0,0,0,1,0,0v-4.42a1.58,1.58,0,0,1,1.58-1.58Z"/><rect class="cls-12" x="1276.15" y="777.9" width="118.99" height="12"/><path class="cls-12" d="M1590.74,771.9h115.84a1.58,1.58,0,0,1,1.58,1.58v4.42a0,0,0,0,1,0,0h-119a0,0,0,0,1,0,0v-4.42a1.58,1.58,0,0,1,1.58-1.58Z"/><rect class="cls-12" x="1589.16" y="777.9" width="118.99" height="12"/><path class="cls-12" d="M1490.86,480h117.42a1.58,1.58,0,0,1,1.58,1.58V486a0,0,0,0,1,0,0h-119a0,0,0,0,1,0,0v-6A0,0,0,0,1,1490.86,480Z"/><rect class="cls-12" x="1490.86" y="485.99" width="118.99" height="12"/><path class="cls-12" d="M1373.29,480h117.42a.15.15,0,0,1,.15.15v5.7a.15.15,0,0,1-.15.15H1372a.15.15,0,0,1-.15-.15v-4.42A1.43,1.43,0,0,1,1373.29,480Z"/><rect class="cls-12" x="1371.87" y="485.99" width="118.99" height="12"/><rect class="cls-10" x="1417.64" y="458" width="73.22" height="21.99"/><rect class="cls-10" x="1490.86" y="458" width="73.22" height="21.99"/><path class="cls-12" d="M1490.86,440h78.61a1.58,1.58,0,0,1,1.58,1.58V446a0,0,0,0,1,0,0h-80.19a0,0,0,0,1,0,0v-6A0,0,0,0,1,1490.86,440Z"/><rect class="cls-12" x="1490.86" y="446" width="80.19" height="12"/><path class="cls-12" d="M1412.1,440h78.61a.15.15,0,0,1,.15.15v5.7a.15.15,0,0,1-.15.15h-79.89a.15.15,0,0,1-.15-.15v-4.42a1.43,1.43,0,0,1,1.43-1.43Z"/><rect class="cls-12" x="1410.67" y="446" width="80.19" height="12"/><path class="cls-11" d="M1300.31,1074.68h24.47a1.77,1.77,0,0,1,1.77,1.77v32a.17.17,0,0,1-.17.17h-27.43a.17.17,0,0,1-.17-.17v-32.26a1.54,1.54,0,0,1,1.54-1.54Z"/><path class="cls-12" d="M1298.77,1108.07h27.78a0,0,0,0,1,0,0v15.18a1.42,1.42,0,0,1-1.42,1.42h-24.94a1.42,1.42,0,0,1-1.42-1.42v-15.18A0,0,0,0,1,1298.77,1108.07Z"/><path class="cls-11" d="M1346.67,1074.74h24.47a1.77,1.77,0,0,1,1.77,1.77v32a.17.17,0,0,1-.17.17H1345.3a.17.17,0,0,1-.17-.17v-32.26a1.54,1.54,0,0,1,1.54-1.54Z"/><path class="cls-12" d="M1345.13,1108.13h27.78a0,0,0,0,1,0,0v15.18a1.42,1.42,0,0,1-1.42,1.42h-24.94a1.42,1.42,0,0,1-1.42-1.42v-15.18A0,0,0,0,1,1345.13,1108.13Z"/><path class="cls-11" d="M1300.31,1012.7h24.47a1.77,1.77,0,0,1,1.77,1.77v32a.17.17,0,0,1-.17.17h-27.43a.17.17,0,0,1-.17-.17v-32.26a1.54,1.54,0,0,1,1.54-1.54Z"/><path class="cls-12" d="M1298.77,1046.09h27.78a0,0,0,0,1,0,0v15.18a1.42,1.42,0,0,1-1.42,1.42h-24.94a1.42,1.42,0,0,1-1.42-1.42v-15.18A0,0,0,0,1,1298.77,1046.09Z"/><path class="cls-11" d="M1346.67,1012.76h24.47a1.77,1.77,0,0,1,1.77,1.77v32a.17.17,0,0,1-.17.17H1345.3a.17.17,0,0,1-.17-.17V1014.3A1.54,1.54,0,0,1,1346.67,1012.76Z"/><path class="cls-12" d="M1345.13,1046.14h27.78a0,0,0,0,1,0,0v15.18a1.42,1.42,0,0,1-1.42,1.42h-24.94a1.42,1.42,0,0,1-1.42-1.42v-15.18A0,0,0,0,1,1345.13,1046.14Z"/><path class="cls-11" d="M1299.63,950.94h24.47a1.77,1.77,0,0,1,1.77,1.77v32a.17.17,0,0,1-.17.17h-27.43a.17.17,0,0,1-.17-.17V952.47a1.54,1.54,0,0,1,1.54-1.54Z"/><path class="cls-12" d="M1298.09,984.32h27.78a0,0,0,0,1,0,0V999.5a1.42,1.42,0,0,1-1.42,1.42h-24.94a1.42,1.42,0,0,1-1.42-1.42V984.32A0,0,0,0,1,1298.09,984.32Z"/><path class="cls-11" d="M1346,951h24.47a1.77,1.77,0,0,1,1.77,1.77v32a.17.17,0,0,1-.17.17h-27.43a.17.17,0,0,1-.17-.17V952.53A1.54,1.54,0,0,1,1346,951Z"/><path class="cls-12" d="M1344.45,984.38h27.78a0,0,0,0,1,0,0v15.18a1.42,1.42,0,0,1-1.42,1.42h-24.94a1.42,1.42,0,0,1-1.42-1.42V984.38A0,0,0,0,1,1344.45,984.38Z"/><path class="cls-11" d="M1300,888.73h24.47a1.77,1.77,0,0,1,1.77,1.77v32a.17.17,0,0,1-.17.17H1298.6a.17.17,0,0,1-.17-.17V890.26A1.54,1.54,0,0,1,1300,888.73Z"/><path class="cls-12" d="M1298.43,922.11h27.78a0,0,0,0,1,0,0v15.18a1.42,1.42,0,0,1-1.42,1.42h-24.94a1.42,1.42,0,0,1-1.42-1.42V922.11A0,0,0,0,1,1298.43,922.11Z"/><path class="cls-11" d="M1346.32,888.78h24.47a1.77,1.77,0,0,1,1.77,1.77v32a.17.17,0,0,1-.17.17H1345a.17.17,0,0,1-.17-.17V890.32A1.54,1.54,0,0,1,1346.32,888.78Z"/><path class="cls-12" d="M1344.78,922.17h27.78a0,0,0,0,1,0,0v15.18a1.42,1.42,0,0,1-1.42,1.42H1346.2a1.42,1.42,0,0,1-1.42-1.42V922.17A0,0,0,0,1,1344.78,922.17Z"/><path class="cls-11" d="M1299.28,827h24.47a1.77,1.77,0,0,1,1.77,1.77v32a.17.17,0,0,1-.17.17h-27.43a.17.17,0,0,1-.17-.17V828.5a1.54,1.54,0,0,1,1.54-1.54Z"/><path class="cls-12" d="M1297.75,860.35h27.78a0,0,0,0,1,0,0v15.18a1.42,1.42,0,0,1-1.42,1.42h-24.94a1.42,1.42,0,0,1-1.42-1.42V860.35A0,0,0,0,1,1297.75,860.35Z"/><path class="cls-11" d="M1345.64,827h24.47a1.77,1.77,0,0,1,1.77,1.77v32a.17.17,0,0,1-.17.17h-27.43a.17.17,0,0,1-.17-.17V828.56a1.54,1.54,0,0,1,1.54-1.54Z"/><path class="cls-12" d="M1344.1,860.41h27.78a0,0,0,0,1,0,0v15.18a1.42,1.42,0,0,1-1.42,1.42h-24.94a1.42,1.42,0,0,1-1.42-1.42V860.41A0,0,0,0,1,1344.1,860.41Z"/><path class="cls-11" d="M1615.14,1075.81h24.47a1.77,1.77,0,0,1,1.77,1.77v32a.17.17,0,0,1-.17.17h-27.43a.17.17,0,0,1-.17-.17v-32.26A1.54,1.54,0,0,1,1615.14,1075.81Z"/><path class="cls-12" d="M1613.6,1109.19h27.78a0,0,0,0,1,0,0v15.18a1.42,1.42,0,0,1-1.42,1.42H1615a1.42,1.42,0,0,1-1.42-1.42v-15.18A0,0,0,0,1,1613.6,1109.19Z"/><path class="cls-11" d="M1661.49,1075.87H1686a1.77,1.77,0,0,1,1.77,1.77v32a.17.17,0,0,1-.17.17h-27.43a.17.17,0,0,1-.17-.17V1077.4a1.54,1.54,0,0,1,1.54-1.54Z"/><path class="cls-12" d="M1660,1109.25h27.78a0,0,0,0,1,0,0v15.18a1.42,1.42,0,0,1-1.42,1.42h-24.94a1.42,1.42,0,0,1-1.42-1.42v-15.18A0,0,0,0,1,1660,1109.25Z"/><path class="cls-11" d="M1615.14,1013.83h24.47a1.77,1.77,0,0,1,1.77,1.77v32a.17.17,0,0,1-.17.17h-27.43a.17.17,0,0,1-.17-.17v-32.26A1.54,1.54,0,0,1,1615.14,1013.83Z"/><path class="cls-12" d="M1613.6,1047.21h27.78a0,0,0,0,1,0,0v15.18a1.42,1.42,0,0,1-1.42,1.42H1615a1.42,1.42,0,0,1-1.42-1.42v-15.18A0,0,0,0,1,1613.6,1047.21Z"/><path class="cls-11" d="M1661.49,1013.88H1686a1.77,1.77,0,0,1,1.77,1.77v32a.17.17,0,0,1-.17.17h-27.43a.17.17,0,0,1-.17-.17v-32.26a1.54,1.54,0,0,1,1.54-1.54Z"/><path class="cls-12" d="M1660,1047.27h27.78a0,0,0,0,1,0,0v15.18a1.42,1.42,0,0,1-1.42,1.42h-24.94a1.42,1.42,0,0,1-1.42-1.42v-15.18A0,0,0,0,1,1660,1047.27Z"/><path class="cls-11" d="M1614.46,952.06h24.47a1.77,1.77,0,0,1,1.77,1.77v32a.17.17,0,0,1-.17.17h-27.43a.17.17,0,0,1-.17-.17V953.6A1.54,1.54,0,0,1,1614.46,952.06Z"/><path class="cls-12" d="M1612.92,985.45h27.78a0,0,0,0,1,0,0v15.18a1.42,1.42,0,0,1-1.42,1.42h-24.94a1.42,1.42,0,0,1-1.42-1.42V985.45A0,0,0,0,1,1612.92,985.45Z"/><path class="cls-11" d="M1660.82,952.12h24.47a1.77,1.77,0,0,1,1.77,1.77v32a.17.17,0,0,1-.17.17h-27.43a.17.17,0,0,1-.17-.17V953.66a1.54,1.54,0,0,1,1.54-1.54Z"/><path class="cls-12" d="M1659.27,985.51h27.78a0,0,0,0,1,0,0v15.18a1.42,1.42,0,0,1-1.42,1.42h-24.94a1.42,1.42,0,0,1-1.42-1.42V985.51A0,0,0,0,1,1659.27,985.51Z"/><path class="cls-11" d="M1614.79,889.85h24.47a1.77,1.77,0,0,1,1.77,1.77v32a.17.17,0,0,1-.17.17h-27.43a.17.17,0,0,1-.17-.17V891.39a1.54,1.54,0,0,1,1.54-1.54Z"/><path class="cls-12" d="M1613.25,923.24H1641a0,0,0,0,1,0,0v15.18a1.42,1.42,0,0,1-1.42,1.42h-24.94a1.42,1.42,0,0,1-1.42-1.42V923.24A0,0,0,0,1,1613.25,923.24Z"/><path class="cls-11" d="M1661.14,889.91h24.47a1.77,1.77,0,0,1,1.77,1.77v32a.17.17,0,0,1-.17.17h-27.43a.17.17,0,0,1-.17-.17V891.45a1.54,1.54,0,0,1,1.54-1.54Z"/><path class="cls-12" d="M1659.61,923.3h27.78a0,0,0,0,1,0,0v15.18a1.42,1.42,0,0,1-1.42,1.42H1661a1.42,1.42,0,0,1-1.42-1.42V923.3A0,0,0,0,1,1659.61,923.3Z"/><path class="cls-11" d="M1614.11,828.09h24.47a1.77,1.77,0,0,1,1.77,1.77v32a.17.17,0,0,1-.17.17h-27.43a.17.17,0,0,1-.17-.17V829.63A1.54,1.54,0,0,1,1614.11,828.09Z"/><path class="cls-12" d="M1612.57,861.47h27.78a0,0,0,0,1,0,0v15.18a1.42,1.42,0,0,1-1.42,1.42H1614a1.42,1.42,0,0,1-1.42-1.42V861.47A0,0,0,0,1,1612.57,861.47Z"/><path class="cls-11" d="M1660.47,828.15h24.47a1.77,1.77,0,0,1,1.77,1.77v32a.17.17,0,0,1-.17.17H1659.1a.17.17,0,0,1-.17-.17V829.69A1.54,1.54,0,0,1,1660.47,828.15Z"/><path class="cls-12" d="M1658.93,861.53h27.78a0,0,0,0,1,0,0v15.18a1.42,1.42,0,0,1-1.42,1.42h-24.94a1.42,1.42,0,0,1-1.42-1.42V861.53A0,0,0,0,1,1658.93,861.53Z"/><path class="cls-10" d="M1443,1073.81h47.8a0,0,0,0,1,0,0v93.72a0,0,0,0,1,0,0h-49.67a0,0,0,0,1,0,0v-91.87A1.86,1.86,0,0,1,1443,1073.81Z"/><path class="cls-10" d="M1562.68,1192h49.67a0,0,0,0,1,0,0v93.72a0,0,0,0,1,0,0h-47.8a1.86,1.86,0,0,1-1.86-1.86V1192A0,0,0,0,1,1562.68,1192Z" transform="translate(3103.04 2359.59) rotate(180)"/><path class="cls-11" d="M1496.71,1080.32h35.54a1.51,1.51,0,0,1,1.51,1.51v77.69a1.28,1.28,0,0,1-1.28,1.28h-35.78a1.28,1.28,0,0,1-1.28-1.28V1081.6A1.28,1.28,0,0,1,1496.71,1080.32Z"/><path class="cls-11" d="M1448.93,1080.46h35.54A1.51,1.51,0,0,1,1486,1082v77.69a1.28,1.28,0,0,1-1.28,1.28h-35.78a1.28,1.28,0,0,1-1.28-1.28v-77.92A1.28,1.28,0,0,1,1448.93,1080.46Z"/><path class="cls-11" d="M1402.08,567.49h24.47a1.77,1.77,0,0,1,1.77,1.77v32a.17.17,0,0,1-.17.17h-27.43a.17.17,0,0,1-.17-.17V569a1.54,1.54,0,0,1,1.54-1.54Z"/><path class="cls-12" d="M1400.55,600.87h27.78a0,0,0,0,1,0,0v15.18a1.42,1.42,0,0,1-1.42,1.42H1402a1.42,1.42,0,0,1-1.42-1.42V600.87A0,0,0,0,1,1400.55,600.87Z"/><path class="cls-11" d="M1448.44,567.55h24.47a1.77,1.77,0,0,1,1.77,1.77v32a.17.17,0,0,1-.17.17h-27.43a.17.17,0,0,1-.17-.17V569.08a1.54,1.54,0,0,1,1.54-1.54Z"/><path class="cls-12" d="M1446.9,600.93h27.78a0,0,0,0,1,0,0v15.18a1.42,1.42,0,0,1-1.42,1.42h-24.94a1.42,1.42,0,0,1-1.42-1.42V600.93A0,0,0,0,1,1446.9,600.93Z"/><path class="cls-11" d="M1401.41,505.72h24.47a1.77,1.77,0,0,1,1.77,1.77v32a.17.17,0,0,1-.17.17H1400a.17.17,0,0,1-.17-.17V507.26a1.54,1.54,0,0,1,1.54-1.54Z"/><path class="cls-12" d="M1399.86,539.11h27.78a0,0,0,0,1,0,0v15.18a1.42,1.42,0,0,1-1.42,1.42h-24.94a1.42,1.42,0,0,1-1.42-1.42V539.11A0,0,0,0,1,1399.86,539.11Z"/><path class="cls-11" d="M1447.76,505.78h24.47a1.77,1.77,0,0,1,1.77,1.77v32a.17.17,0,0,1-.17.17H1446.4a.17.17,0,0,1-.17-.17V507.32a1.54,1.54,0,0,1,1.54-1.54Z"/><path class="cls-12" d="M1446.22,539.17H1474a0,0,0,0,1,0,0v15.18a1.42,1.42,0,0,1-1.42,1.42h-24.94a1.42,1.42,0,0,1-1.42-1.42V539.17A0,0,0,0,1,1446.22,539.17Z"/><path class="cls-11" d="M1509.57,566.24H1534a1.77,1.77,0,0,1,1.77,1.77v32a.17.17,0,0,1-.17.17H1508.2a.17.17,0,0,1-.17-.17V567.78a1.54,1.54,0,0,1,1.54-1.54Z"/><path class="cls-12" d="M1508,599.63h27.78a0,0,0,0,1,0,0v15.18a1.42,1.42,0,0,1-1.42,1.42h-24.94a1.42,1.42,0,0,1-1.42-1.42V599.63A0,0,0,0,1,1508,599.63Z"/><path class="cls-11" d="M1555.92,566.3h24.47a1.77,1.77,0,0,1,1.77,1.77v32a.17.17,0,0,1-.17.17h-27.43a.17.17,0,0,1-.17-.17V567.84a1.54,1.54,0,0,1,1.54-1.54Z"/><path class="cls-12" d="M1554.38,599.69h27.78a0,0,0,0,1,0,0v15.18a1.42,1.42,0,0,1-1.42,1.42H1555.8a1.42,1.42,0,0,1-1.42-1.42V599.69A0,0,0,0,1,1554.38,599.69Z"/><path class="cls-11" d="M1508.89,504.48h24.47a1.77,1.77,0,0,1,1.77,1.77v32a.17.17,0,0,1-.17.17h-27.43a.17.17,0,0,1-.17-.17V506A1.54,1.54,0,0,1,1508.89,504.48Z"/><path class="cls-12" d="M1507.35,537.86h27.78a0,0,0,0,1,0,0V553a1.42,1.42,0,0,1-1.42,1.42h-24.94a1.42,1.42,0,0,1-1.42-1.42V537.86A0,0,0,0,1,1507.35,537.86Z"/><path class="cls-11" d="M1555.24,504.53h24.47a1.77,1.77,0,0,1,1.77,1.77v32a.17.17,0,0,1-.17.17h-27.43a.17.17,0,0,1-.17-.17V506.07a1.54,1.54,0,0,1,1.54-1.54Z"/><path class="cls-12" d="M1553.71,537.92h27.78a0,0,0,0,1,0,0V553.1a1.42,1.42,0,0,1-1.42,1.42h-24.94a1.42,1.42,0,0,1-1.42-1.42V537.92A0,0,0,0,1,1553.71,537.92Z"/><path class="cls-11" d="M1404.46,1073.83h24.47a1.77,1.77,0,0,1,1.77,1.77v32a.17.17,0,0,1-.17.17H1403.1a.17.17,0,0,1-.17-.17v-32.26A1.54,1.54,0,0,1,1404.46,1073.83Z"/><path class="cls-10" d="M1402.92,1107.21h27.78a0,0,0,0,1,0,0v15.18a1.42,1.42,0,0,1-1.42,1.42h-24.94a1.42,1.42,0,0,1-1.42-1.42v-15.18A0,0,0,0,1,1402.92,1107.21Z"/><path class="cls-11" d="M1404.46,1011.85h24.47a1.77,1.77,0,0,1,1.77,1.77v32a.17.17,0,0,1-.17.17H1403.1a.17.17,0,0,1-.17-.17v-32.26A1.54,1.54,0,0,1,1404.46,1011.85Z"/><path class="cls-10" d="M1402.92,1045.23h27.78a0,0,0,0,1,0,0v15.18a1.42,1.42,0,0,1-1.42,1.42h-24.94a1.42,1.42,0,0,1-1.42-1.42v-15.18A0,0,0,0,1,1402.92,1045.23Z"/><path class="cls-11" d="M1450.82,1011.9h24.47a1.77,1.77,0,0,1,1.77,1.77v32a.17.17,0,0,1-.17.17h-27.43a.17.17,0,0,1-.17-.17v-32.26a1.54,1.54,0,0,1,1.54-1.54Z"/><path class="cls-10" d="M1449.28,1045.29h27.78a0,0,0,0,1,0,0v15.18a1.42,1.42,0,0,1-1.42,1.42H1450.7a1.42,1.42,0,0,1-1.42-1.42v-15.18A0,0,0,0,1,1449.28,1045.29Z"/><path class="cls-11" d="M1403.78,950.08h24.47a1.77,1.77,0,0,1,1.77,1.77v32a.17.17,0,0,1-.17.17h-27.43a.17.17,0,0,1-.17-.17V951.62a1.54,1.54,0,0,1,1.54-1.54Z"/><path class="cls-10" d="M1402.25,983.47H1430a0,0,0,0,1,0,0v15.18a1.42,1.42,0,0,1-1.42,1.42h-24.94a1.42,1.42,0,0,1-1.42-1.42V983.47A0,0,0,0,1,1402.25,983.47Z"/><path class="cls-11" d="M1450.14,950.14h24.47a1.77,1.77,0,0,1,1.77,1.77v32a.17.17,0,0,1-.17.17h-27.43a.17.17,0,0,1-.17-.17V951.68a1.54,1.54,0,0,1,1.54-1.54Z"/><path class="cls-10" d="M1448.6,983.52h27.78a0,0,0,0,1,0,0V998.7a1.42,1.42,0,0,1-1.42,1.42H1450a1.42,1.42,0,0,1-1.42-1.42V983.52A0,0,0,0,1,1448.6,983.52Z"/><path class="cls-11" d="M1404.11,887.87h24.47a1.77,1.77,0,0,1,1.77,1.77v32a.17.17,0,0,1-.17.17h-27.43a.17.17,0,0,1-.17-.17V889.41a1.54,1.54,0,0,1,1.54-1.54Z"/><path class="cls-10" d="M1402.57,921.26h27.78a0,0,0,0,1,0,0v15.18a1.42,1.42,0,0,1-1.42,1.42H1404a1.42,1.42,0,0,1-1.42-1.42V921.26A0,0,0,0,1,1402.57,921.26Z"/><path class="cls-11" d="M1450.47,887.93h24.47a1.77,1.77,0,0,1,1.77,1.77v32a.17.17,0,0,1-.17.17H1449.1a.17.17,0,0,1-.17-.17V889.47a1.54,1.54,0,0,1,1.54-1.54Z"/><path class="cls-10" d="M1448.93,921.32h27.78a0,0,0,0,1,0,0V936.5a1.42,1.42,0,0,1-1.42,1.42h-24.94a1.42,1.42,0,0,1-1.42-1.42V921.32A0,0,0,0,1,1448.93,921.32Z"/><path class="cls-11" d="M1403.43,826.11h24.47a1.77,1.77,0,0,1,1.77,1.77v32a.17.17,0,0,1-.17.17h-27.43a.17.17,0,0,1-.17-.17V827.65A1.54,1.54,0,0,1,1403.43,826.11Z"/><path class="cls-10" d="M1401.9,859.49h27.78a0,0,0,0,1,0,0v15.18a1.42,1.42,0,0,1-1.42,1.42h-24.94a1.42,1.42,0,0,1-1.42-1.42V859.49A0,0,0,0,1,1401.9,859.49Z"/><path class="cls-11" d="M1449.79,826.17h24.47a1.77,1.77,0,0,1,1.77,1.77v32a.17.17,0,0,1-.17.17h-27.43a.17.17,0,0,1-.17-.17V827.71a1.54,1.54,0,0,1,1.54-1.54Z"/><path class="cls-10" d="M1448.25,859.55H1476a0,0,0,0,1,0,0v15.18a1.42,1.42,0,0,1-1.42,1.42h-24.94a1.42,1.42,0,0,1-1.42-1.42V859.55A0,0,0,0,1,1448.25,859.55Z"/><path class="cls-11" d="M1403.06,764h24.47a1.77,1.77,0,0,1,1.77,1.77v32a.17.17,0,0,1-.17.17h-27.43a.17.17,0,0,1-.17-.17V765.53a1.54,1.54,0,0,1,1.54-1.54Z"/><path class="cls-10" d="M1401.52,797.37h27.78a0,0,0,0,1,0,0v15.18a1.42,1.42,0,0,1-1.42,1.42h-24.94a1.42,1.42,0,0,1-1.42-1.42V797.37A0,0,0,0,1,1401.52,797.37Z"/><path class="cls-11" d="M1449.42,764h24.47a1.77,1.77,0,0,1,1.77,1.77v32a.17.17,0,0,1-.17.17h-27.43a.17.17,0,0,1-.17-.17V765.58a1.54,1.54,0,0,1,1.54-1.54Z"/><path class="cls-10" d="M1447.88,797.43h27.78a0,0,0,0,1,0,0v15.18a1.42,1.42,0,0,1-1.42,1.42H1449.3a1.42,1.42,0,0,1-1.42-1.42V797.43A0,0,0,0,1,1447.88,797.43Z"/><path class="cls-11" d="M1403.39,701.78h24.47a1.77,1.77,0,0,1,1.77,1.77v32a.17.17,0,0,1-.17.17H1402a.17.17,0,0,1-.17-.17V703.32a1.54,1.54,0,0,1,1.54-1.54Z"/><path class="cls-10" d="M1401.85,735.16h27.78a0,0,0,0,1,0,0v15.18a1.42,1.42,0,0,1-1.42,1.42h-24.94a1.42,1.42,0,0,1-1.42-1.42V735.16A0,0,0,0,1,1401.85,735.16Z"/><path class="cls-11" d="M1449.74,701.84h24.47a1.77,1.77,0,0,1,1.77,1.77v32a.17.17,0,0,1-.17.17h-27.43a.17.17,0,0,1-.17-.17V703.38A1.54,1.54,0,0,1,1449.74,701.84Z"/><path class="cls-10" d="M1448.21,735.22H1476a0,0,0,0,1,0,0V750.4a1.42,1.42,0,0,1-1.42,1.42h-24.94a1.42,1.42,0,0,1-1.42-1.42V735.22A0,0,0,0,1,1448.21,735.22Z"/><path class="cls-11" d="M1402.71,640h24.47a1.77,1.77,0,0,1,1.77,1.77v32a.17.17,0,0,1-.17.17h-27.43a.17.17,0,0,1-.17-.17V641.55A1.54,1.54,0,0,1,1402.71,640Z"/><path class="cls-11" d="M1449.07,640.07h24.47a1.77,1.77,0,0,1,1.77,1.77v32a.17.17,0,0,1-.17.17H1447.7a.17.17,0,0,1-.17-.17V641.61A1.54,1.54,0,0,1,1449.07,640.07Z"/><path class="cls-10" d="M1447.53,673.46h27.78a0,0,0,0,1,0,0v15.18a1.42,1.42,0,0,1-1.42,1.42h-24.94a1.42,1.42,0,0,1-1.42-1.42V673.46A0,0,0,0,1,1447.53,673.46Z"/><path class="cls-10" d="M1401,673.33h27.78a0,0,0,0,1,0,0v15.18a1.42,1.42,0,0,1-1.42,1.42h-24.94a1.42,1.42,0,0,1-1.42-1.42V673.33A0,0,0,0,1,1401,673.33Z"/><path class="cls-11" d="M1357,702.26h24.47a1.77,1.77,0,0,1,1.77,1.77v32a.17.17,0,0,1-.17.17h-27.43a.17.17,0,0,1-.17-.17V703.8A1.54,1.54,0,0,1,1357,702.26Z"/><path class="cls-10" d="M1355.46,735.65h27.78a0,0,0,0,1,0,0v15.18a1.42,1.42,0,0,1-1.42,1.42h-24.94a1.42,1.42,0,0,1-1.42-1.42V735.65A0,0,0,0,1,1355.46,735.65Z"/><path class="cls-11" d="M1356.32,640.5h24.47a1.77,1.77,0,0,1,1.77,1.77v32a.17.17,0,0,1-.17.17H1355a.17.17,0,0,1-.17-.17V642A1.54,1.54,0,0,1,1356.32,640.5Z"/><path class="cls-10" d="M1354.61,673.82h27.78a0,0,0,0,1,0,0V689a1.42,1.42,0,0,1-1.42,1.42H1356a1.42,1.42,0,0,1-1.42-1.42V673.82A0,0,0,0,1,1354.61,673.82Z"/><path class="cls-11" d="M1623.4,1192h27.43a.17.17,0,0,1,.17.17v32a1.77,1.77,0,0,1-1.77,1.77h-24.47a1.54,1.54,0,0,1-1.54-1.54V1192.2A.17.17,0,0,1,1623.4,1192Z" transform="translate(3202.23 2299.78) rotate(180)"/><path class="cls-10" d="M1624.64,1225.41h24.94a1.42,1.42,0,0,1,1.42,1.42V1242a0,0,0,0,1,0,0h-27.78a0,0,0,0,1,0,0v-15.18a1.42,1.42,0,0,1,1.42-1.42Z" transform="matrix(-1, 0, 0, -1, 3202.22, 2349.17)"/><path class="cls-11" d="M1623.39,1130h27.43a.17.17,0,0,1,.17.17v32a1.77,1.77,0,0,1-1.77,1.77h-24.47a1.54,1.54,0,0,1-1.54-1.54v-32.26A.17.17,0,0,1,1623.39,1130Z" transform="translate(3202.22 2175.82) rotate(180)"/><path class="cls-10" d="M1624.64,1163.43h24.94a1.42,1.42,0,0,1,1.42,1.42V1180a0,0,0,0,1,0,0h-27.78a0,0,0,0,1,0,0v-15.18A1.42,1.42,0,0,1,1624.64,1163.43Z" transform="matrix(-1, 0, 0, -1, 3202.22, 2225.21)"/><path class="cls-11" d="M1577,1130.1h27.43a.17.17,0,0,1,.17.17v32a1.77,1.77,0,0,1-1.77,1.77H1578.4a1.54,1.54,0,0,1-1.54-1.54v-32.26A.17.17,0,0,1,1577,1130.1Z" transform="translate(3109.51 2175.93) rotate(180)"/><path class="cls-10" d="M1578.28,1163.49h24.94a1.42,1.42,0,0,1,1.42,1.42v15.18a0,0,0,0,1,0,0h-27.78a0,0,0,0,1,0,0V1164.9a1.42,1.42,0,0,1,1.42-1.42Z" transform="matrix(-1, 0, 0, -1, 3109.51, 2225.33)"/><path class="cls-11" d="M1624.07,1068.28h27.43a.17.17,0,0,1,.17.17v32a1.77,1.77,0,0,1-1.77,1.77h-24.47a1.54,1.54,0,0,1-1.54-1.54v-32.26A.17.17,0,0,1,1624.07,1068.28Z" transform="translate(3203.58 2052.28) rotate(180)"/><path class="cls-10" d="M1625.32,1101.66h24.94a1.42,1.42,0,0,1,1.42,1.42v15.18a0,0,0,0,1,0,0H1623.9a0,0,0,0,1,0,0v-15.18A1.42,1.42,0,0,1,1625.32,1101.66Z" transform="matrix(-1, 0, 0, -1, 3203.58, 2101.68)"/><path class="cls-11" d="M1577.72,1068.33h27.43a.17.17,0,0,1,.17.17v32a1.77,1.77,0,0,1-1.77,1.77h-24.47a1.54,1.54,0,0,1-1.54-1.54v-32.26A.17.17,0,0,1,1577.72,1068.33Z" transform="translate(3110.87 2052.4) rotate(180)"/><path class="cls-10" d="M1579,1101.72h24.94a1.42,1.42,0,0,1,1.42,1.42v15.18a0,0,0,0,1,0,0h-27.78a0,0,0,0,1,0,0v-15.18A1.42,1.42,0,0,1,1579,1101.72Z" transform="matrix(-1, 0, 0, -1, 3110.87, 2101.8)"/><path class="cls-11" d="M1623.74,1006.07h27.43a.17.17,0,0,1,.17.17v32a1.77,1.77,0,0,1-1.77,1.77h-24.47a1.54,1.54,0,0,1-1.54-1.54v-32.26A.17.17,0,0,1,1623.74,1006.07Z" transform="translate(3202.92 1927.87) rotate(180)"/><path class="cls-10" d="M1625,1039.45h24.94a1.42,1.42,0,0,1,1.42,1.42v15.18a0,0,0,0,1,0,0h-27.78a0,0,0,0,1,0,0v-15.18A1.42,1.42,0,0,1,1625,1039.45Z" transform="matrix(-1, 0, 0, -1, 3202.92, 1977.27)"/><path class="cls-11" d="M1577.39,1006.13h27.43a.17.17,0,0,1,.17.17v32a1.77,1.77,0,0,1-1.77,1.77h-24.47a1.54,1.54,0,0,1-1.54-1.54V1006.3A.17.17,0,0,1,1577.39,1006.13Z" transform="translate(3110.21 1927.99) rotate(180)"/><path class="cls-10" d="M1578.63,1039.51h24.94a1.42,1.42,0,0,1,1.42,1.42v15.18a0,0,0,0,1,0,0h-27.78a0,0,0,0,1,0,0v-15.18a1.42,1.42,0,0,1,1.42-1.42Z" transform="translate(3110.21 1977.38) rotate(-180)"/><path class="cls-11" d="M1624.42,944.3h27.43a.17.17,0,0,1,.17.17v32a1.77,1.77,0,0,1-1.77,1.77h-24.47a1.54,1.54,0,0,1-1.54-1.54V944.48A.17.17,0,0,1,1624.42,944.3Z" transform="translate(3204.28 1804.34) rotate(180)"/><path class="cls-10" d="M1625.67,977.69h24.94a1.42,1.42,0,0,1,1.42,1.42v15.18a0,0,0,0,1,0,0h-27.78a0,0,0,0,1,0,0V979.11A1.42,1.42,0,0,1,1625.67,977.69Z" transform="matrix(-1, 0, 0, -1, 3204.28, 1853.74)"/><path class="cls-11" d="M1578.07,944.36h27.43a.17.17,0,0,1,.17.17v32a1.77,1.77,0,0,1-1.77,1.77h-24.47a1.54,1.54,0,0,1-1.54-1.54V944.54A.17.17,0,0,1,1578.07,944.36Z" transform="translate(3111.57 1804.46) rotate(180)"/><path class="cls-10" d="M1579.31,977.75h24.94a1.42,1.42,0,0,1,1.42,1.42v15.18a0,0,0,0,1,0,0h-27.78a0,0,0,0,1,0,0V979.17a1.42,1.42,0,0,1,1.42-1.42Z" transform="matrix(-1, 0, 0, -1, 3111.57, 1853.86)"/><path class="cls-11" d="M1624.8,882.18h27.43a.17.17,0,0,1,.17.17v32a1.77,1.77,0,0,1-1.77,1.77h-24.47a1.54,1.54,0,0,1-1.54-1.54V882.36A.17.17,0,0,1,1624.8,882.18Z" transform="translate(3205.03 1680.1) rotate(180)"/><path class="cls-10" d="M1626,915.57H1651a1.42,1.42,0,0,1,1.42,1.42v15.18a0,0,0,0,1,0,0h-27.78a0,0,0,0,1,0,0V917a1.42,1.42,0,0,1,1.42-1.42Z" transform="matrix(-1, 0, 0, -1, 3205.03, 1729.49)"/><path class="cls-11" d="M1578.44,882.24h27.43a.17.17,0,0,1,.17.17v32a1.77,1.77,0,0,1-1.77,1.77h-24.47a1.54,1.54,0,0,1-1.54-1.54V882.41A.17.17,0,0,1,1578.44,882.24Z" transform="translate(3112.32 1680.21) rotate(180)"/><path class="cls-10" d="M1579.69,915.63h24.94A1.42,1.42,0,0,1,1606,917v15.18a0,0,0,0,1,0,0h-27.78a0,0,0,0,1,0,0V917a1.42,1.42,0,0,1,1.42-1.42Z" transform="matrix(-1, 0, 0, -1, 3112.31, 1729.61)"/><path class="cls-11" d="M1624.47,820h27.43a.17.17,0,0,1,.17.17v32a1.77,1.77,0,0,1-1.77,1.77h-24.47a1.54,1.54,0,0,1-1.54-1.54V820.15A.17.17,0,0,1,1624.47,820Z" transform="translate(3204.38 1555.68) rotate(180)"/><path class="cls-10" d="M1625.71,853.36h24.94a1.42,1.42,0,0,1,1.42,1.42V870a0,0,0,0,1,0,0h-27.78a0,0,0,0,1,0,0V854.78a1.42,1.42,0,0,1,1.42-1.42Z" transform="matrix(-1, 0, 0, -1, 3204.37, 1605.08)"/><path class="cls-11" d="M1578.11,820h27.43a.17.17,0,0,1,.17.17v32A1.77,1.77,0,0,1,1604,854h-24.47a1.54,1.54,0,0,1-1.54-1.54V820.21A.17.17,0,0,1,1578.11,820Z" transform="translate(3111.66 1555.8) rotate(180)"/><path class="cls-10" d="M1579.36,853.42h24.94a1.42,1.42,0,0,1,1.42,1.42V870a0,0,0,0,1,0,0h-27.78a0,0,0,0,1,0,0V854.84A1.42,1.42,0,0,1,1579.36,853.42Z" transform="translate(3111.66 1605.19) rotate(-180)"/><path class="cls-11" d="M1625.15,758.21h27.43a.17.17,0,0,1,.17.17v32a1.77,1.77,0,0,1-1.77,1.77h-24.47a1.54,1.54,0,0,1-1.54-1.54V758.38A.17.17,0,0,1,1625.15,758.21Z" transform="translate(3205.73 1432.15) rotate(180)"/><path class="cls-11" d="M1578.79,758.27h27.43a.17.17,0,0,1,.17.17v32a1.77,1.77,0,0,1-1.77,1.77h-24.47a1.54,1.54,0,0,1-1.54-1.54V758.44A.17.17,0,0,1,1578.79,758.27Z" transform="translate(3113.01 1432.27) rotate(180)"/><path class="cls-10" d="M1580,791.65H1605a1.42,1.42,0,0,1,1.42,1.42v15.18a0,0,0,0,1,0,0h-27.78a0,0,0,0,1,0,0V793.07A1.42,1.42,0,0,1,1580,791.65Z" transform="translate(3113.01 1481.66) rotate(180)"/><path class="cls-10" d="M1626.57,791.53h24.94a1.42,1.42,0,0,1,1.42,1.42v15.18a0,0,0,0,1,0,0h-27.78a0,0,0,0,1,0,0V792.95A1.42,1.42,0,0,1,1626.57,791.53Z" transform="matrix(-1, 0, 0, -1, 3206.07, 1481.41)"/><path class="cls-11" d="M1670.86,820.45h27.43a.17.17,0,0,1,.17.17v32a1.77,1.77,0,0,1-1.77,1.77h-24.47a1.54,1.54,0,0,1-1.54-1.54V820.63A.17.17,0,0,1,1670.86,820.45Z" transform="translate(3297.15 1556.64) rotate(180)"/><path class="cls-10" d="M1672.1,853.84H1697a1.42,1.42,0,0,1,1.42,1.42v15.18a0,0,0,0,1,0,0h-27.78a0,0,0,0,1,0,0V855.26A1.42,1.42,0,0,1,1672.1,853.84Z" transform="matrix(-1, 0, 0, -1, 3297.14, 1606.04)"/><path class="cls-11" d="M1671.54,758.69H1699a.17.17,0,0,1,.17.17v32a1.77,1.77,0,0,1-1.77,1.77H1672.9a1.54,1.54,0,0,1-1.54-1.54V758.86A.17.17,0,0,1,1671.54,758.69Z" transform="translate(3298.51 1433.11) rotate(180)"/><path class="cls-10" d="M1673,792h24.94a1.42,1.42,0,0,1,1.42,1.42v15.18a0,0,0,0,1,0,0h-27.78a0,0,0,0,1,0,0V793.43A1.42,1.42,0,0,1,1673,792Z" transform="matrix(-1, 0, 0, -1, 3298.85, 1482.38)"/></g><g id="Hochhaus_Nacht_3_Kopie" data-name="Hochhaus Nacht 3 Kopie"><path class="cls-14" d="M1560.89,851.46a8.46,8.46,0,0,0-8.55-8.37H1472v438.79h88.89V866.56h0Z" transform="translate(-72 -118.24)"/><rect class="cls-13" x="1160.92" y="749.23" width="282" height="424.64"/><path class="cls-10" d="M1283.11,1111.89h36.42a2.19,2.19,0,0,1,2.19,2.19v65.77a0,0,0,0,1,0,0h-40.76a0,0,0,0,1,0,0v-65.77A2.19,2.19,0,0,1,1283.11,1111.89Z"/><rect class="cls-11" x="1286.26" y="1117.8" width="30.4" height="56.16" rx="0.95"/><rect class="cls-10" x="1390.92" y="1111.12" width="32" height="45.99" rx="2.19"/><rect class="cls-11" x="1394.92" y="1115.11" width="24" height="37.99" rx="0.95"/><path class="cls-12" d="M1165.2,725.24h273.45a4.28,4.28,0,0,1,4.28,4.28v19.71a0,0,0,0,1,0,0H1161a0,0,0,0,1,0,0V729.51A4.28,4.28,0,0,1,1165.2,725.24Z"/><rect class="cls-10" x="1338.92" y="1111.12" width="32" height="45.99" rx="2.19"/><rect class="cls-11" x="1342.92" y="1115.11" width="24" height="37.99" rx="0.95"/><rect class="cls-10" x="1232.92" y="1111.12" width="32" height="45.99" rx="2.19"/><rect class="cls-11" x="1236.92" y="1115.11" width="24" height="37.99" rx="0.95"/><rect class="cls-10" x="1180.92" y="1111.12" width="32" height="45.99" rx="2.19"/><rect class="cls-11" x="1184.92" y="1115.11" width="24" height="37.99" rx="0.95"/><rect class="cls-10" x="1390.92" y="1041.14" width="32" height="45.99" rx="2.19"/><rect class="cls-11" x="1394.92" y="1045.14" width="24" height="37.99" rx="0.95"/><rect class="cls-10" x="1338.92" y="1041.14" width="32" height="45.99" rx="2.19"/><rect class="cls-11" x="1342.92" y="1045.14" width="24" height="37.99" rx="0.95"/><rect class="cls-10" x="1232.92" y="1041.14" width="32" height="45.99" rx="2.19"/><rect class="cls-11" x="1236.92" y="1045.14" width="24" height="37.99" rx="0.95"/><rect class="cls-10" x="1180.92" y="1041.14" width="32" height="45.99" rx="2.19"/><rect class="cls-11" x="1184.92" y="1045.14" width="24" height="37.99" rx="0.95"/><rect class="cls-10" x="1284.92" y="1041.14" width="32" height="45.99" rx="2.19"/><rect class="cls-11" x="1288.92" y="1045.14" width="24" height="37.99" rx="0.95"/><rect class="cls-10" x="1390.92" y="971.16" width="32" height="45.99" rx="2.19"/><rect class="cls-11" x="1394.92" y="975.16" width="24" height="37.99" rx="0.95"/><rect class="cls-10" x="1338.92" y="971.16" width="32" height="45.99" rx="2.19"/><rect class="cls-11" x="1342.92" y="975.16" width="24" height="37.99" rx="0.95"/><rect class="cls-10" x="1232.92" y="971.16" width="32" height="45.99" rx="2.19"/><rect class="cls-11" x="1236.92" y="975.16" width="24" height="37.99" rx="0.95"/><rect class="cls-10" x="1180.92" y="971.16" width="32" height="45.99" rx="2.19"/><rect class="cls-11" x="1184.92" y="975.16" width="24" height="37.99" rx="0.95"/><rect class="cls-10" x="1284.92" y="971.16" width="32" height="45.99" rx="2.19"/><rect class="cls-11" x="1288.92" y="975.16" width="24" height="37.99" rx="0.95"/><rect class="cls-10" x="1390.92" y="901.18" width="32" height="45.99" rx="2.19"/><rect class="cls-11" x="1394.92" y="905.18" width="24" height="37.99" rx="0.95"/><rect class="cls-10" x="1338.92" y="901.18" width="32" height="45.99" rx="2.19"/><rect class="cls-11" x="1342.92" y="905.18" width="24" height="37.99" rx="0.95"/><rect class="cls-10" x="1232.92" y="901.18" width="32" height="45.99" rx="2.19"/><rect class="cls-11" x="1236.92" y="905.18" width="24" height="37.99" rx="0.95"/><rect class="cls-10" x="1180.92" y="901.18" width="32" height="45.99" rx="2.19"/><rect class="cls-11" x="1184.92" y="905.18" width="24" height="37.99" rx="0.95"/><rect class="cls-10" x="1284.92" y="901.18" width="32" height="45.99" rx="2.19"/><rect class="cls-11" x="1288.92" y="905.18" width="24" height="37.99" rx="0.95"/><rect class="cls-10" x="1390.92" y="831.2" width="32" height="45.99" rx="2.19"/><rect class="cls-11" x="1394.92" y="835.2" width="24" height="37.99" rx="0.95"/><rect class="cls-10" x="1338.92" y="831.2" width="32" height="45.99" rx="2.19"/><rect class="cls-11" x="1342.92" y="835.2" width="24" height="37.99" rx="0.95"/><rect class="cls-10" x="1232.92" y="831.2" width="32" height="45.99" rx="2.19"/><rect class="cls-11" x="1236.92" y="835.2" width="24" height="37.99" rx="0.95"/><rect class="cls-10" x="1180.92" y="831.2" width="32" height="45.99" rx="2.19"/><rect class="cls-11" x="1184.92" y="835.2" width="24" height="37.99" rx="0.95"/><rect class="cls-10" x="1284.92" y="831.2" width="32" height="45.99" rx="2.19"/><rect class="cls-11" x="1288.92" y="835.2" width="24" height="37.99" rx="0.95"/><rect class="cls-10" x="1390.92" y="761.22" width="32" height="45.99" rx="2.19"/><rect class="cls-11" x="1394.92" y="765.22" width="24" height="37.99" rx="0.95"/><rect class="cls-10" x="1338.92" y="761.22" width="32" height="45.99" rx="2.19"/><rect class="cls-11" x="1342.92" y="765.22" width="24" height="37.99" rx="0.95"/><rect class="cls-10" x="1232.92" y="761.22" width="32" height="45.99" rx="2.19"/><rect class="cls-11" x="1236.92" y="765.22" width="24" height="37.99" rx="0.95"/><rect class="cls-10" x="1180.92" y="761.22" width="32" height="45.99" rx="2.19"/><rect class="cls-11" x="1184.92" y="765.22" width="24" height="37.99" rx="0.95"/><rect class="cls-10" x="1284.92" y="761.22" width="32" height="45.99" rx="2.19"/><rect class="cls-11" x="1288.92" y="765.22" width="24" height="37.99" rx="0.95"/><path class="cls-12" d="M1160.92,817.21h282a0,0,0,0,1,0,0v6a0,0,0,0,1,0,0h-282a0,0,0,0,1,0,0v-6A0,0,0,0,1,1160.92,817.21Z"/><path class="cls-12" d="M1160.92,887.19h282a0,0,0,0,1,0,0v6a0,0,0,0,1,0,0h-282a0,0,0,0,1,0,0v-6A0,0,0,0,1,1160.92,887.19Z"/><path class="cls-12" d="M1160.92,957.16h282a0,0,0,0,1,0,0v6a0,0,0,0,1,0,0h-282a0,0,0,0,1,0,0v-6A0,0,0,0,1,1160.92,957.16Z"/><path class="cls-12" d="M1160.92,1027.14h282a0,0,0,0,1,0,0v6a0,0,0,0,1,0,0h-282a0,0,0,0,1,0,0v-6A0,0,0,0,1,1160.92,1027.14Z"/><path class="cls-12" d="M1160.92,1097.12h282a0,0,0,0,1,0,0v6a0,0,0,0,1,0,0h-282a0,0,0,0,1,0,0v-6A0,0,0,0,1,1160.92,1097.12Z"/></g><g id="Hochhaus_Nacht_1_Kopie" data-name="Hochhaus Nacht 1 Kopie"><path class="cls-14" d="M860.67,794v3.76h-7.24a6.76,6.76,0,0,0-6.76,6.76V825a6.76,6.76,0,0,0,6.76,6.76h7.24v28h-7.24a6.76,6.76,0,0,0-6.76,6.76V887a6.76,6.76,0,0,0,6.76,6.76h7.24v28h-7.24a6.76,6.76,0,0,0-6.76,6.76V949a6.76,6.76,0,0,0,6.76,6.76h7.24v28h-7.24a6.76,6.76,0,0,0-6.76,6.76V1011a6.76,6.76,0,0,0,6.76,6.76h7.24v28h-7.24a6.76,6.76,0,0,0-6.76,6.76v20.47a6.76,6.76,0,0,0,6.76,6.76h7.24v28h-7.24a6.76,6.76,0,0,0-6.76,6.76v20.47a6.76,6.76,0,0,0,6.76,6.76h7.24v32h-7.24a6.76,6.76,0,0,0-6.76,6.76v34.47a6.76,6.76,0,0,0,6.76,6.76h7.24v34.93H952v45h18V794Z" transform="translate(-72 -118.24)"/><path class="cls-14" d="M1245,1292.08h103V1221.9h7.24a6.76,6.76,0,0,0,6.76-6.76v-34.46a6.76,6.76,0,0,0-6.76-6.76H1348v-32h7.24a6.76,6.76,0,0,0,6.76-6.76V1114.7a6.76,6.76,0,0,0-6.76-6.76H1348v-28h7.24a6.76,6.76,0,0,0,6.76-6.76v-20.47a6.76,6.76,0,0,0-6.76-6.76H1348v-28h7.24a6.76,6.76,0,0,0,6.76-6.76V990.73a6.76,6.76,0,0,0-6.76-6.76H1348V956h7.24a6.76,6.76,0,0,0,6.76-6.76V928.75a6.76,6.76,0,0,0-6.76-6.76H1348V894h7.24a6.76,6.76,0,0,0,6.76-6.76V866.77a6.76,6.76,0,0,0-6.76-6.76H1348V843.48H1226v458.4h19Z" transform="translate(-72 -118.24)"/><rect class="cls-5" x="834.03" y="550.32" width="394" height="633.8"/><rect class="cls-10" x="848.03" y="848.23" width="60" height="45.99" rx="2.19"/><rect class="cls-11" x="852.03" y="852.23" width="24" height="37.99" rx="0.95"/><rect class="cls-11" x="880.03" y="852.23" width="24" height="37.99" rx="0.95"/><rect class="cls-10" x="848.03" y="784.25" width="60" height="45.99" rx="2.19"/><rect class="cls-11" x="852.03" y="788.25" width="24" height="37.99" rx="0.95"/><rect class="cls-11" x="880.03" y="788.25" width="24" height="37.99" rx="0.95"/><rect class="cls-10" x="952.03" y="720.27" width="60" height="45.99" rx="2.19"/><rect class="cls-11" x="956.03" y="724.27" width="24" height="37.99" rx="0.95"/><rect class="cls-11" x="984.03" y="724.27" width="24" height="37.99" rx="0.95"/><rect class="cls-10" x="952.03" y="658.29" width="60" height="45.99" rx="2.19"/><rect class="cls-11" x="956.03" y="662.29" width="24" height="37.99" rx="0.95"/><rect class="cls-11" x="984.03" y="662.29" width="24" height="37.99" rx="0.95"/><rect class="cls-10" x="952.03" y="844.23" width="60" height="45.99" rx="2.19"/><rect class="cls-11" x="956.03" y="848.23" width="24" height="37.99" rx="0.95"/><rect class="cls-11" x="984.03" y="848.23" width="24" height="37.99" rx="0.95"/><rect class="cls-10" x="952.03" y="782.25" width="60" height="45.99" rx="2.19"/><rect class="cls-11" x="956.03" y="786.25" width="24" height="37.99" rx="0.95"/><rect class="cls-11" x="984.03" y="786.25" width="24" height="37.99" rx="0.95"/><rect class="cls-10" x="848.03" y="722.27" width="60" height="45.99" rx="2.19"/><rect class="cls-11" x="852.03" y="726.27" width="24" height="37.99" rx="0.95"/><rect class="cls-11" x="880.03" y="726.27" width="24" height="37.99" rx="0.95"/><rect class="cls-10" x="952.03" y="596.31" width="60" height="45.99" rx="2.19"/><rect class="cls-11" x="956.03" y="600.31" width="24" height="37.99" rx="0.95"/><rect class="cls-11" x="984.03" y="600.31" width="24" height="37.99" rx="0.95"/><rect class="cls-10" x="848.03" y="658.29" width="60" height="45.99" rx="2.19"/><rect class="cls-11" x="852.03" y="662.29" width="24" height="37.99" rx="0.95"/><rect class="cls-11" x="880.03" y="662.29" width="24" height="37.99" rx="0.95"/><rect class="cls-10" x="848.03" y="596.31" width="60" height="45.99" rx="2.19"/><rect class="cls-11" x="852.03" y="600.31" width="24" height="37.99" rx="0.95"/><rect class="cls-11" x="880.03" y="600.31" width="24" height="37.99" rx="0.95"/><rect class="cls-10" x="848.03" y="1036.17" width="60" height="45.99" rx="2.19"/><rect class="cls-11" x="852.03" y="1040.17" width="24" height="37.99" rx="0.95"/><rect class="cls-11" x="880.03" y="1040.17" width="24" height="37.99" rx="0.95"/><rect class="cls-10" x="848.03" y="974.19" width="60" height="45.99" rx="2.19"/><rect class="cls-11" x="852.03" y="978.19" width="24" height="37.99" rx="0.95"/><rect class="cls-11" x="880.03" y="978.19" width="24" height="37.99" rx="0.95"/><rect class="cls-10" x="848.03" y="910.21" width="60" height="45.99" rx="2.19"/><rect class="cls-11" x="852.03" y="914.21" width="24" height="37.99" rx="0.95"/><rect class="cls-11" x="880.03" y="914.21" width="24" height="37.99" rx="0.95"/><rect class="cls-10" x="848.03" y="848.23" width="60" height="45.99" rx="2.19"/><rect class="cls-11" x="852.03" y="852.23" width="24" height="37.99" rx="0.95"/><rect class="cls-11" x="880.03" y="852.23" width="24" height="37.99" rx="0.95"/><rect class="cls-10" x="951.18" y="906.69" width="60" height="45.99" rx="2.19"/><rect class="cls-11" x="955.18" y="910.69" width="24" height="37.99" rx="0.95"/><rect class="cls-11" x="983.18" y="910.69" width="24" height="37.99" rx="0.95"/><rect class="cls-10" x="951.18" y="1030.65" width="60" height="45.99" rx="2.19"/><rect class="cls-11" x="955.18" y="1034.65" width="24" height="37.99" rx="0.95"/><rect class="cls-11" x="983.18" y="1034.65" width="24" height="37.99" rx="0.95"/><rect class="cls-10" x="951.18" y="968.67" width="60" height="45.99" rx="2.19"/><rect class="cls-11" x="955.18" y="972.67" width="24" height="37.99" rx="0.95"/><rect class="cls-11" x="983.18" y="972.67" width="24" height="37.99" rx="0.95"/><rect class="cls-10" x="1054.02" y="719.96" width="60" height="45.99" rx="2.19"/><rect class="cls-11" x="1058.02" y="723.96" width="24" height="37.99" rx="0.95"/><rect class="cls-11" x="1086.02" y="723.96" width="24" height="37.99" rx="0.95"/><rect class="cls-10" x="1054.02" y="657.98" width="60" height="45.99" rx="2.19"/><rect class="cls-11" x="1058.02" y="661.98" width="24" height="37.99" rx="0.95"/><rect class="cls-11" x="1086.02" y="661.98" width="24" height="37.99" rx="0.95"/><rect class="cls-10" x="1054.02" y="843.93" width="60" height="45.99" rx="2.19"/><rect class="cls-11" x="1058.02" y="847.93" width="24" height="37.99" rx="0.95"/><rect class="cls-11" x="1086.02" y="847.93" width="24" height="37.99" rx="0.95"/><rect class="cls-10" x="1054.02" y="781.95" width="60" height="45.99" rx="2.19"/><rect class="cls-11" x="1058.02" y="785.94" width="24" height="37.99" rx="0.95"/><rect class="cls-11" x="1086.02" y="785.94" width="24" height="37.99" rx="0.95"/><rect class="cls-10" x="1054.02" y="596" width="60" height="45.99" rx="2.19"/><rect class="cls-11" x="1058.02" y="600" width="24" height="37.99" rx="0.95"/><rect class="cls-11" x="1086.02" y="600" width="24" height="37.99" rx="0.95"/><rect class="cls-10" x="1053.16" y="906.38" width="60" height="45.99" rx="2.19"/><rect class="cls-11" x="1057.16" y="910.38" width="24" height="37.99" rx="0.95"/><rect class="cls-11" x="1085.16" y="910.38" width="24" height="37.99" rx="0.95"/><rect class="cls-10" x="1053.16" y="1030.34" width="60" height="45.99" rx="2.19"/><rect class="cls-11" x="1057.16" y="1034.34" width="24" height="37.99" rx="0.95"/><rect class="cls-11" x="1085.16" y="1034.34" width="24" height="37.99" rx="0.95"/><rect class="cls-10" x="1053.16" y="968.36" width="60" height="45.99" rx="2.19"/><rect class="cls-11" x="1057.16" y="972.36" width="24" height="37.99" rx="0.95"/><rect class="cls-11" x="1085.16" y="972.36" width="24" height="37.99" rx="0.95"/><rect class="cls-13" x="820.03" y="540.33" width="422" height="47.99" rx="3.38"/><rect class="cls-13" x="820.03" y="1056.17" width="422" height="47.99" rx="3.38"/><rect class="cls-13" x="820.03" y="618.3" width="422" height="33.99" rx="3.38"/><rect class="cls-13" x="820.03" y="680.28" width="422" height="33.99" rx="3.38"/><rect class="cls-13" x="820.03" y="742.27" width="422" height="33.99" rx="3.38"/><rect class="cls-13" x="820.03" y="804.25" width="422" height="33.99" rx="3.38"/><rect class="cls-13" x="820.03" y="866.23" width="422" height="33.99" rx="3.38"/><rect class="cls-13" x="820.03" y="928.21" width="422" height="33.99" rx="3.38"/><rect class="cls-13" x="820.03" y="990.19" width="422" height="33.99" rx="3.38"/><path class="cls-10" d="M1133.93,452.35h86.21a7.9,7.9,0,0,1,7.9,7.9v723.33a.55.55,0,0,1-.55.55H1126.43a.39.39,0,0,1-.39-.39V460.25A7.9,7.9,0,0,1,1133.93,452.35Z"/><rect class="cls-10" x="922.03" y="540.33" width="10" height="563.83"/><rect class="cls-10" x="1034.03" y="540.33" width="10" height="563.83"/><rect class="cls-13" x="1184.03" y="596.31" width="32" height="45.99" rx="2.19"/><rect class="cls-11" x="1188.03" y="600.31" width="24" height="37.99" rx="0.95"/><rect class="cls-13" x="1184.03" y="658.29" width="32" height="45.99" rx="2.19"/><rect class="cls-11" x="1188.03" y="662.29" width="24" height="37.99" rx="0.95"/><rect class="cls-13" x="1184.03" y="720.27" width="32" height="45.99" rx="2.19"/><rect class="cls-11" x="1188.03" y="724.27" width="24" height="37.99" rx="0.95"/><rect class="cls-13" x="1184.03" y="782.25" width="32" height="45.99" rx="2.19"/><rect class="cls-11" x="1188.03" y="786.25" width="24" height="37.99" rx="0.95"/><rect class="cls-13" x="1184.03" y="844.23" width="32" height="45.99" rx="2.19"/><rect class="cls-11" x="1188.03" y="848.23" width="24" height="37.99" rx="0.95"/><rect class="cls-13" x="1184.03" y="906.21" width="32" height="45.99" rx="2.19"/><rect class="cls-11" x="1188.03" y="910.21" width="24" height="37.99" rx="0.95"/><rect class="cls-13" x="1184.03" y="968.2" width="32" height="45.99" rx="2.19"/><rect class="cls-11" x="1188.03" y="972.19" width="24" height="37.99" rx="0.95"/><rect class="cls-13" x="1184.03" y="1030.18" width="32" height="45.99" rx="2.19"/><rect class="cls-11" x="1188.03" y="1034.17" width="24" height="37.99" rx="0.95"/><path class="cls-10" d="M950.22,1120.15h71.62a2.19,2.19,0,0,1,2.19,2.19v65.77a0,0,0,0,1,0,0h-76a0,0,0,0,1,0,0v-65.77A2.19,2.19,0,0,1,950.22,1120.15Z"/><rect class="cls-11" x="953.1" y="1126.06" width="30.4" height="56.16" rx="0.95"/><rect class="cls-11" x="988.57" y="1126.06" width="30.4" height="56.16" rx="0.95"/><rect class="cls-10" x="1064.03" y="1120.15" width="32" height="45.99" rx="2.19"/><rect class="cls-11" x="1068.03" y="1124.15" width="24" height="37.99" rx="0.95"/><rect class="cls-10" x="874.03" y="1120.15" width="32" height="45.99" rx="2.19"/><rect class="cls-11" x="878.03" y="1124.15" width="24" height="37.99" rx="0.95"/></g><g id="Pappel_Nacht_Kopie" data-name="Pappel Nacht Kopie"><path class="cls-5" d="M301.31,1254.14c43.64-2.38,67.28-31.57,70.86-59.79,5-39.52-44.26-124.95-70.86-127.86Z" transform="translate(-72 -118.24)"/><path class="cls-10" d="M323.75,1214.47l-.14.11s-17.78,15.46-22.35,20.15l-.11,19.36a89.68,89.68,0,0,0,23.58-4.36v-34.15Z" transform="translate(-72 -118.24)"/><path class="cls-10" d="M301.21,1254.23c-43.64-2.38-67.28-31.58-70.86-59.79-5-39.53,44.26-125,70.86-127.87Z" transform="translate(-72 -118.24)"/><path class="cls-5" d="M278.29,1214.52l.14.11s17.78,15.46,22.35,20.15l.11,19.36a89.68,89.68,0,0,1-23.58-4.36v-34.15Z" transform="translate(-72 -118.24)"/><rect class="cls-11" x="224.29" y="1111.8" width="9.39" height="65.84"/><rect class="cls-11" x="225.7" y="1072.91" width="7.13" height="40.61" rx="0.94"/><path class="cls-11" d="M324.28,1216.74l-18.9,18.47-2.65-2.71a1.74,1.74,0,0,1,.08-2.47l17.62-17.23a1.75,1.75,0,0,1,2.48,0l1.44,1.49A1.75,1.75,0,0,1,324.28,1216.74Z" transform="translate(-72 -118.24)"/><path class="cls-11" d="M277.65,1216.87l18.67,18.25a.17.17,0,0,0,.24,0l2.6-2.67a2,2,0,0,0,.06-2.87l-17.37-17a2,2,0,0,0-2.88.13l-1.25,1.29A2,2,0,0,0,277.65,1216.87Z" transform="translate(-72 -118.24)"/><path class="cls-5" d="M1745.16,1300c47.93-2.61,73.89-34.67,77.82-65.66,5.5-43.4-48.61-137.23-77.82-140.42Z" transform="translate(-72 -118.24)"/><path class="cls-10" d="M1769.8,1256.47l-.15.12s-19.53,17-24.55,22.13L1745,1300a98.7,98.7,0,0,0,25.9-4.79v-37.5Z" transform="translate(-72 -118.24)"/><path class="cls-10" d="M1745.05,1300.13c-47.93-2.61-73.89-34.67-77.82-65.66-5.5-43.4,48.61-137.23,77.82-140.42Z" transform="translate(-72 -118.24)"/><path class="cls-5" d="M1719.88,1256.53l.15.12s19.53,17,24.55,22.13l.12,21.26a98.14,98.14,0,0,1-25.89-4.79v-37.5Z" transform="translate(-72 -118.24)"/><rect class="cls-11" x="1667.65" y="1155.33" width="10.31" height="72.3"/><rect class="cls-11" x="1669.19" y="1112.63" width="7.83" height="44.59" rx="1.03"/><path class="cls-11" d="M1770.38,1259l-20.76,20.3-2.9-3a1.92,1.92,0,0,1,.08-2.71l19.36-18.92a1.92,1.92,0,0,1,2.72,0l1.58,1.63A1.92,1.92,0,0,1,1770.38,1259Z" transform="translate(-72 -118.24)"/><path class="cls-11" d="M1719.18,1259.11l20.5,20a.19.19,0,0,0,.26,0l2.85-2.94a2.24,2.24,0,0,0,.08-3.15l-19.09-18.66a2.23,2.23,0,0,0-3.15.15l-1.38,1.42A2.23,2.23,0,0,0,1719.18,1259.11Z" transform="translate(-72 -118.24)"/><path class="cls-5" d="M1496.25,1295.4c47.92-2.61,73.88-34.68,77.81-65.66,5.5-43.41-48.6-137.23-77.81-140.43Z" transform="translate(-72 -118.24)"/><path class="cls-10" d="M1520.89,1251.83l-.16.12s-19.53,17-24.55,22.13l-.11,21.26a98.3,98.3,0,0,0,25.89-4.79v-37.5Z" transform="translate(-72 -118.24)"/><path class="cls-10" d="M1496.13,1295.49c-47.93-2.61-73.89-34.68-77.81-65.66-5.51-43.41,48.6-137.23,77.81-140.43Z" transform="translate(-72 -118.24)"/><path class="cls-5" d="M1471,1251.88l.15.12s19.54,17,24.55,22.14l.12,21.26a98.63,98.63,0,0,1-25.89-4.79v-37.5Z" transform="translate(-72 -118.24)"/><rect class="cls-11" x="1418.73" y="1150.69" width="10.31" height="72.3"/><rect class="cls-11" x="1420.27" y="1107.98" width="7.83" height="44.59" rx="1.03"/><path class="cls-11" d="M1521.46,1254.32l-20.75,20.29-2.91-3a1.94,1.94,0,0,1,.08-2.72l19.36-18.92a1.93,1.93,0,0,1,2.72,0l1.58,1.62A1.93,1.93,0,0,1,1521.46,1254.32Z" transform="translate(-72 -118.24)"/><path class="cls-11" d="M1470.26,1254.46l20.5,20a.19.19,0,0,0,.26,0l2.86-2.93a2.24,2.24,0,0,0,.07-3.15l-19.09-18.66a2.22,2.22,0,0,0-3.15.15l-1.38,1.41A2.23,2.23,0,0,0,1470.26,1254.46Z" transform="translate(-72 -118.24)"/><path class="cls-5" d="M1181.92,1290.94c47.93-2.62,73.89-34.68,77.82-65.67,5.5-43.4-48.61-137.23-77.82-140.42Z" transform="translate(-72 -118.24)"/><path class="cls-10" d="M1206.56,1247.36l-.15.12s-19.53,17-24.55,22.14l-.12,21.26a98.7,98.7,0,0,0,25.9-4.79v-37.5Z" transform="translate(-72 -118.24)"/><path class="cls-10" d="M1181.81,1291c-47.93-2.62-73.89-34.68-77.82-65.67-5.5-43.4,48.61-137.22,77.82-140.42Z" transform="translate(-72 -118.24)"/><path class="cls-5" d="M1156.64,1247.42l.15.12s19.53,17,24.55,22.13l.12,21.26a98.3,98.3,0,0,1-25.9-4.78v-37.51Z" transform="translate(-72 -118.24)"/><rect class="cls-11" x="1104.41" y="1146.23" width="10.31" height="72.3"/><rect class="cls-11" x="1105.95" y="1103.52" width="7.83" height="44.59" rx="1.03"/><path class="cls-11" d="M1207.14,1249.85l-20.76,20.3-2.9-3a1.92,1.92,0,0,1,.08-2.71l19.36-18.92a1.93,1.93,0,0,1,2.72,0l1.58,1.63A1.92,1.92,0,0,1,1207.14,1249.85Z" transform="translate(-72 -118.24)"/><path class="cls-11" d="M1155.94,1250l20.5,20a.18.18,0,0,0,.26,0l2.85-2.93a2.24,2.24,0,0,0,.08-3.15l-19.09-18.66a2.22,2.22,0,0,0-3.15.14l-1.38,1.42A2.23,2.23,0,0,0,1155.94,1250Z" transform="translate(-72 -118.24)"/><path class="cls-5" d="M715.38,1282c47.92-2.62,73.88-34.68,77.81-65.67,5.5-43.4-48.6-137.22-77.81-140.42Z" transform="translate(-72 -118.24)"/><path class="cls-10" d="M740,1238.38l-.15.12s-19.53,17-24.55,22.14l-.11,21.26a98.7,98.7,0,0,0,25.89-4.79v-37.5Z" transform="translate(-72 -118.24)"/><path class="cls-10" d="M715.26,1282.05c-47.93-2.62-73.89-34.68-77.81-65.67-5.51-43.4,48.6-137.22,77.81-140.42Z" transform="translate(-72 -118.24)"/><path class="cls-5" d="M690.09,1238.44l.15.12s19.54,17,24.55,22.13l.12,21.27a98.63,98.63,0,0,1-25.89-4.79v-37.5Z" transform="translate(-72 -118.24)"/><rect class="cls-11" x="637.86" y="1137.25" width="10.31" height="72.3"/><rect class="cls-11" x="639.4" y="1094.54" width="7.83" height="44.59" rx="1.03"/><path class="cls-11" d="M740.59,1240.88l-20.75,20.29-2.91-3a1.94,1.94,0,0,1,.08-2.72l19.36-18.92a1.93,1.93,0,0,1,2.72,0l1.58,1.63A1.93,1.93,0,0,1,740.59,1240.88Z" transform="translate(-72 -118.24)"/><path class="cls-11" d="M689.39,1241l20.5,20a.18.18,0,0,0,.26,0l2.86-2.93a2.24,2.24,0,0,0,.07-3.15L694,1236.31a2.22,2.22,0,0,0-3.15.15l-1.38,1.41A2.23,2.23,0,0,0,689.39,1241Z" transform="translate(-72 -118.24)"/><path class="cls-5" d="M414.65,1278.45c47.92-2.61,73.89-34.67,77.81-65.66,5.5-43.4-48.6-137.23-77.81-140.42Z" transform="translate(-72 -118.24)"/><path class="cls-10" d="M439.29,1234.88l-.15.12s-19.54,17-24.55,22.14l-.12,21.26a98.7,98.7,0,0,0,25.89-4.79v-37.5Z" transform="translate(-72 -118.24)"/><path class="cls-10" d="M414.53,1278.55c-47.92-2.62-73.88-34.68-77.81-65.67-5.5-43.4,48.6-137.23,77.81-140.42Z" transform="translate(-72 -118.24)"/><path class="cls-5" d="M389.36,1234.94l.16.12s19.53,17,24.55,22.13l.11,21.26a98.3,98.3,0,0,1-25.89-4.78v-37.51Z" transform="translate(-72 -118.24)"/><rect class="cls-11" x="337.13" y="1133.74" width="10.31" height="72.3"/><rect class="cls-11" x="338.68" y="1091.04" width="7.83" height="44.59" rx="1.03"/><path class="cls-11" d="M439.87,1237.37l-20.76,20.3-2.9-3a1.92,1.92,0,0,1,.08-2.71l19.35-18.92a1.92,1.92,0,0,1,2.72,0l1.59,1.63A1.92,1.92,0,0,1,439.87,1237.37Z" transform="translate(-72 -118.24)"/><path class="cls-11" d="M388.67,1237.52l20.49,20a.19.19,0,0,0,.26,0l2.86-2.94a2.23,2.23,0,0,0,.07-3.15l-19.08-18.66a2.25,2.25,0,0,0-3.16.15l-1.37,1.42A2.23,2.23,0,0,0,388.67,1237.52Z" transform="translate(-72 -118.24)"/><path class="cls-5" d="M196.32,1284c47.92-2.61,73.88-34.67,77.81-65.66,5.5-43.4-48.6-137.23-77.81-140.43Z" transform="translate(-72 -118.24)"/><path class="cls-10" d="M221,1240.46l-.16.12s-19.53,17-24.54,22.13l-.12,21.27a98.7,98.7,0,0,0,25.89-4.79v-37.5Z" transform="translate(-72 -118.24)"/><path class="cls-10" d="M196.2,1284.12c-47.92-2.61-73.88-34.67-77.81-65.66-5.5-43.4,48.6-137.23,77.81-140.42Z" transform="translate(-72 -118.24)"/><path class="cls-5" d="M171,1240.52l.16.12s19.53,17,24.54,22.13l.12,21.26a98.3,98.3,0,0,1-25.89-4.79v-37.5Z" transform="translate(-72 -118.24)"/><rect class="cls-11" x="118.8" y="1139.32" width="10.31" height="72.3"/><rect class="cls-11" x="120.35" y="1096.62" width="7.83" height="44.59" rx="1.03"/><path class="cls-11" d="M221.54,1243l-20.76,20.29-2.9-3a1.92,1.92,0,0,1,.08-2.71l19.35-18.92a1.92,1.92,0,0,1,2.72,0l1.59,1.63A1.92,1.92,0,0,1,221.54,1243Z" transform="translate(-72 -118.24)"/><path class="cls-11" d="M170.34,1243.1l20.49,20a.19.19,0,0,0,.26,0l2.86-2.94A2.23,2.23,0,0,0,194,1257l-19.08-18.66a2.25,2.25,0,0,0-3.16.15l-1.37,1.42A2.23,2.23,0,0,0,170.34,1243.1Z" transform="translate(-72 -118.24)"/><path class="cls-5" d="M921.54,1290.34c47.92-2.61,73.88-34.68,77.81-65.66,5.5-43.41-48.6-137.23-77.81-140.43Z" transform="translate(-72 -118.24)"/><path class="cls-10" d="M946.17,1246.77l-.15.12s-19.53,17-24.55,22.13l-.11,21.26a98.3,98.3,0,0,0,25.89-4.78V1248Z" transform="translate(-72 -118.24)"/><path class="cls-10" d="M921.42,1290.43c-47.93-2.61-73.89-34.67-77.81-65.66-5.51-43.41,48.6-137.23,77.81-140.43Z" transform="translate(-72 -118.24)"/><path class="cls-5" d="M896.25,1246.82l.15.12s19.53,17,24.55,22.14l.12,21.26a98.63,98.63,0,0,1-25.89-4.79v-37.5Z" transform="translate(-72 -118.24)"/><rect class="cls-11" x="844.02" y="1145.63" width="10.31" height="72.3"/><rect class="cls-11" x="845.56" y="1102.92" width="7.83" height="44.59" rx="1.03"/><path class="cls-11" d="M946.75,1249.26,926,1269.55l-2.91-3a1.92,1.92,0,0,1,.08-2.71l19.36-18.93a1.93,1.93,0,0,1,2.72,0l1.58,1.63A1.92,1.92,0,0,1,946.75,1249.26Z" transform="translate(-72 -118.24)"/><path class="cls-11" d="M895.55,1249.4l20.5,20a.18.18,0,0,0,.26,0l2.86-2.93a2.24,2.24,0,0,0,.07-3.15l-19.09-18.66a2.22,2.22,0,0,0-3.15.15l-1.38,1.41A2.23,2.23,0,0,0,895.55,1249.4Z" transform="translate(-72 -118.24)"/></g><g id="Laterne_Kopie" data-name="Laterne Kopie"><path class="cls-16" d="M1625.83,1317.4a1.78,1.78,0,0,0-.42-3.33,3.1,3.1,0,0,0,1.43-3l-1.81-14.8a3.12,3.12,0,0,0,0-5.65v-58.49h0a.45.45,0,0,0,.44-.45v-2l6.72-3.35h-18.36l6.27,3.34v2a.45.45,0,0,0,.44.45h0v58.49a3.13,3.13,0,0,0,0,5.65l-1.8,14.78a3.08,3.08,0,0,0,1.44,3,1.79,1.79,0,0,0-.44,3.34,5.74,5.74,0,0,0-4.11,5.51v30.92a0,0,0,0,0,0,0h14.27a0,0,0,0,0,0,0v-30.92A5.74,5.74,0,0,0,1625.83,1317.4Z" transform="translate(-72 -118.24)"/><polygon class="cls-11" points="1551 1080.74 1536.9 1080.74 1541.74 1108.05 1551 1108.05 1551 1080.74"/><polygon class="cls-11" points="1551 1080.74 1565.1 1080.74 1560.26 1108.05 1551 1108.05 1551 1080.74"/><rect class="cls-16" x="1536" y="1076.71" width="30" height="4.48"/><path class="cls-11" d="M1547.86,1094.17h6.27a1.12,1.12,0,0,1,1.12,1.12V1108a0,0,0,0,1,0,0h-8.49a0,0,0,0,1,0,0v-12.74a1.12,1.12,0,0,1,1.12-1.12Z"/><path class="cls-17" d="M1627,1187.17c0-.09,0-.18,0-.27a3.14,3.14,0,0,0-3.13-3.14h-1.8a3.14,3.14,0,0,0-3.13,3.14c0,.09,0,.18,0,.27l-11,7.78h30Z" transform="translate(-72 -118.24)"/><path class="cls-16" d="M1437.31,1318.71a1.78,1.78,0,0,0-.43-3.33,3.06,3.06,0,0,0,1.43-3l-1.8-14.8a3.13,3.13,0,0,0,0-5.65v-58.49h0a.45.45,0,0,0,.44-.45v-2l6.72-3.35H1425.3l6.27,3.34v2a.45.45,0,0,0,.44.45h0v58.49a3.12,3.12,0,0,0,0,5.65l-1.8,14.78a3.08,3.08,0,0,0,1.43,3,1.79,1.79,0,0,0-.43,3.34,5.74,5.74,0,0,0-4.11,5.51v30.92a0,0,0,0,0,0,0h14.27a0,0,0,0,0,0,0v-30.92A5.74,5.74,0,0,0,1437.31,1318.71Z" transform="translate(-72 -118.24)"/><polygon class="cls-11" points="1362.48 1082.05 1348.37 1082.05 1353.22 1109.36 1362.48 1109.36 1362.48 1082.05"/><polygon class="cls-11" points="1362.48 1082.05 1376.58 1082.05 1371.73 1109.36 1362.48 1109.36 1362.48 1082.05"/><rect class="cls-16" x="1347.48" y="1078.02" width="30" height="4.48"/><path class="cls-11" d="M1359.34,1095.48h6.27a1.12,1.12,0,0,1,1.12,1.12v12.75a0,0,0,0,1,0,0h-8.49a0,0,0,0,1,0,0V1096.6a1.12,1.12,0,0,1,1.12-1.12Z"/><path class="cls-17" d="M1438.49,1188.48a2.45,2.45,0,0,0,0-.27,3.15,3.15,0,0,0-3.14-3.14h-1.79a3.14,3.14,0,0,0-3.13,3.14,2.44,2.44,0,0,0,0,.27l-11,7.78h30Z" transform="translate(-72 -118.24)"/><path class="cls-16" d="M1248.76,1320.07a1.77,1.77,0,0,0,1-1.58,1.79,1.79,0,0,0-1.4-1.75,3.06,3.06,0,0,0,1.43-3l-1.8-14.79a3.13,3.13,0,0,0,0-5.65v-58.5h0a.44.44,0,0,0,.44-.44v-2l6.72-3.36h-18.36l6.27,3.34v2a.44.44,0,0,0,.44.44h0v58.5a3.12,3.12,0,0,0,0,5.65l-1.8,14.78a3.08,3.08,0,0,0,1.43,3,1.78,1.78,0,0,0-.43,3.33,5.75,5.75,0,0,0-4.11,5.51v30.92a0,0,0,0,0,0,0h14.27s0,0,0,0v-30.93A5.75,5.75,0,0,0,1248.76,1320.07Z" transform="translate(-72 -118.24)"/><polygon class="cls-11" points="1173.93 1083.41 1159.82 1083.41 1164.67 1110.72 1173.93 1110.72 1173.93 1083.41"/><polygon class="cls-11" points="1173.93 1083.41 1188.03 1083.41 1183.18 1110.72 1173.93 1110.72 1173.93 1083.41"/><rect class="cls-16" x="1158.93" y="1079.39" width="30" height="4.48"/><path class="cls-11" d="M1170.79,1096.84h6.27a1.12,1.12,0,0,1,1.12,1.12v12.75a0,0,0,0,1,0,0h-8.49a0,0,0,0,1,0,0V1098A1.12,1.12,0,0,1,1170.79,1096.84Z"/><path class="cls-17" d="M1249.94,1189.84a2.45,2.45,0,0,0,0-.27,3.14,3.14,0,0,0-3.14-3.13H1245a3.13,3.13,0,0,0-3.13,3.13,2.44,2.44,0,0,0,0,.27l-11,7.79h30Z" transform="translate(-72 -118.24)"/><path class="cls-16" d="M1060.06,1319.86a1.78,1.78,0,0,0-.42-3.33,3.1,3.1,0,0,0,1.43-3l-1.81-14.8a3.13,3.13,0,0,0,0-5.65v-58.49h0a.44.44,0,0,0,.44-.45v-2l6.72-3.36h-18.36l6.27,3.34v2a.45.45,0,0,0,.45.45h0v58.49a3.13,3.13,0,0,0,0,5.65l-1.8,14.78a3.11,3.11,0,0,0,1.44,3,1.78,1.78,0,0,0-.44,3.33,5.76,5.76,0,0,0-4.11,5.51v30.92a0,0,0,0,0,0,0h14.27a0,0,0,0,0,0,0v-30.92A5.74,5.74,0,0,0,1060.06,1319.86Z" transform="translate(-72 -118.24)"/><polygon class="cls-11" points="985.23 1083.2 971.13 1083.2 975.98 1110.51 985.23 1110.51 985.23 1083.2"/><polygon class="cls-11" points="985.23 1083.2 999.34 1083.2 994.49 1110.51 985.23 1110.51 985.23 1083.2"/><rect class="cls-16" x="970.23" y="1079.17" width="30" height="4.48"/><path class="cls-11" d="M982.1,1096.63h6.27a1.12,1.12,0,0,1,1.12,1.12v12.75a0,0,0,0,1,0,0H981a0,0,0,0,1,0,0v-12.74a1.12,1.12,0,0,1,1.12-1.12Z"/><path class="cls-17" d="M1061.25,1189.63a2.44,2.44,0,0,0,0-.27,3.14,3.14,0,0,0-3.13-3.14h-1.79a3.15,3.15,0,0,0-3.14,3.14,2.45,2.45,0,0,0,0,.27l-11,7.78h30Z" transform="translate(-72 -118.24)"/><path class="cls-16" d="M871.51,1321.22a1.78,1.78,0,0,0-.42-3.33,3.1,3.1,0,0,0,1.43-3l-1.81-14.79a3.13,3.13,0,0,0,0-5.65v-58.5h0a.44.44,0,0,0,.44-.44v-2l6.72-3.36H859.5l6.27,3.34v2a.45.45,0,0,0,.45.44h0v58.5a3.13,3.13,0,0,0,0,5.65l-1.8,14.78a3.08,3.08,0,0,0,1.44,3,1.78,1.78,0,0,0-.44,3.33,5.77,5.77,0,0,0-4.11,5.51v30.92a0,0,0,0,0,0,0h14.27a0,0,0,0,0,0,0v-30.93A5.75,5.75,0,0,0,871.51,1321.22Z" transform="translate(-72 -118.24)"/><polygon class="cls-11" points="796.7 1084.59 782.6 1084.59 787.45 1111.89 796.7 1111.89 796.7 1084.59"/><polygon class="cls-11" points="796.68 1084.57 810.79 1084.57 805.94 1111.87 796.68 1111.87 796.68 1084.57"/><rect class="cls-16" x="781.68" y="1080.54" width="30" height="4.48"/><path class="cls-11" d="M793.55,1098h6.27a1.12,1.12,0,0,1,1.12,1.12v12.75a0,0,0,0,1,0,0h-8.49a0,0,0,0,1,0,0v-12.74a1.12,1.12,0,0,1,1.12-1.12Z"/><path class="cls-17" d="M872.7,1191a2.44,2.44,0,0,0,0-.27,3.13,3.13,0,0,0-3.13-3.13h-1.79a3.14,3.14,0,0,0-3.14,3.13,2.45,2.45,0,0,0,0,.27l-11,7.79h30Z" transform="translate(-72 -118.24)"/><path class="cls-16" d="M683.28,1322.53a1.77,1.77,0,0,0-.42-3.32,3.11,3.11,0,0,0,1.43-3l-1.81-14.8a3.12,3.12,0,0,0,0-5.65v-58.5h0a.44.44,0,0,0,.44-.44v-2l6.72-3.35H671.27l6.27,3.34v2a.44.44,0,0,0,.44.44h0v58.5a3.13,3.13,0,0,0,0,5.65l-1.8,14.78a3.1,3.1,0,0,0,1.43,3,1.79,1.79,0,0,0-1.4,1.75,1.76,1.76,0,0,0,1,1.58,5.75,5.75,0,0,0-4.11,5.51V1359l0,0h14.27a0,0,0,0,0,0,0V1328A5.75,5.75,0,0,0,683.28,1322.53Z" transform="translate(-72 -118.24)"/><polygon class="cls-11" points="608.45 1085.88 594.35 1085.88 599.19 1113.18 608.45 1113.18 608.45 1085.88"/><polygon class="cls-11" points="608.45 1085.88 622.55 1085.88 617.71 1113.18 608.45 1113.18 608.45 1085.88"/><rect class="cls-16" x="593.45" y="1081.85" width="30" height="4.48"/><path class="cls-11" d="M605.31,1099.31h6.27a1.12,1.12,0,0,1,1.12,1.12v12.75a0,0,0,0,1,0,0h-8.49a0,0,0,0,1,0,0v-12.74a1.12,1.12,0,0,1,1.12-1.12Z"/><path class="cls-17" d="M684.47,1192.3c0-.08,0-.17,0-.27a3.13,3.13,0,0,0-3.13-3.13h-1.8a3.13,3.13,0,0,0-3.13,3.13c0,.1,0,.19,0,.27l-11,7.79h30Z" transform="translate(-72 -118.24)"/><path class="cls-16" d="M494.73,1323.9a1.78,1.78,0,0,0-.42-3.33,3.1,3.1,0,0,0,1.43-3l-1.81-14.8a3.12,3.12,0,0,0,0-5.64v-58.5h0a.44.44,0,0,0,.44-.44v-2l6.72-3.36H482.72l6.27,3.34v2a.44.44,0,0,0,.44.44h0v58.5a3.12,3.12,0,0,0,0,5.64l-1.8,14.78a3.1,3.1,0,0,0,1.43,3,1.78,1.78,0,0,0-.43,3.33,5.74,5.74,0,0,0-4.11,5.51v30.92a0,0,0,0,0,0,0h14.27a0,0,0,0,0,0,0v-30.92A5.74,5.74,0,0,0,494.73,1323.9Z" transform="translate(-72 -118.24)"/><polygon class="cls-11" points="419.91 1087.26 405.81 1087.26 410.66 1114.56 419.91 1114.56 419.91 1087.26"/><polygon class="cls-11" points="419.9 1087.24 434 1087.24 429.15 1114.55 419.9 1114.55 419.9 1087.24"/><rect class="cls-16" x="404.9" y="1083.21" width="30" height="4.48"/><path class="cls-11" d="M416.76,1100.67H423a1.12,1.12,0,0,1,1.12,1.12v12.75a0,0,0,0,1,0,0h-8.49a0,0,0,0,1,0,0v-12.74a1.12,1.12,0,0,1,1.12-1.12Z"/><path class="cls-17" d="M495.92,1193.67c0-.09,0-.18,0-.27a3.13,3.13,0,0,0-3.13-3.13H491a3.13,3.13,0,0,0-3.13,3.13c0,.09,0,.18,0,.27l-11,7.79h30Z" transform="translate(-72 -118.24)"/><path class="cls-16" d="M306,1323.69a1.81,1.81,0,0,0,1-1.59,1.78,1.78,0,0,0-1.4-1.74,3.11,3.11,0,0,0,1.43-3l-1.81-14.8a3.13,3.13,0,0,0,0-5.65V1238.4h0a.45.45,0,0,0,.45-.45v-2l6.71-3.35H294l6.27,3.34v2a.45.45,0,0,0,.45.45h0v58.49a3.13,3.13,0,0,0,0,5.65l-1.8,14.78a3.1,3.1,0,0,0,1.44,3,1.79,1.79,0,0,0-.44,3.34,5.75,5.75,0,0,0-4.11,5.51v30.92s0,0,0,0h14.26a0,0,0,0,0,0,0V1329.2A5.74,5.74,0,0,0,306,1323.69Z" transform="translate(-72 -118.24)"/><polygon class="cls-11" points="231.22 1087.04 217.11 1087.04 221.96 1114.35 231.22 1114.35 231.22 1087.04"/><polygon class="cls-11" points="231.2 1087.03 245.31 1087.03 240.46 1114.33 231.2 1114.33 231.2 1087.03"/><rect class="cls-16" x="216.2" y="1083" width="30" height="4.48"/><path class="cls-11" d="M228.07,1100.46h6.27a1.12,1.12,0,0,1,1.12,1.12v12.75a0,0,0,0,1,0,0H227a0,0,0,0,1,0,0v-12.74a1.12,1.12,0,0,1,1.12-1.12Z"/><path class="cls-17" d="M307.22,1193.45a2.17,2.17,0,0,0,0-.26,3.14,3.14,0,0,0-3.13-3.14h-1.79a3.15,3.15,0,0,0-3.14,3.14,2.11,2.11,0,0,0,0,.26l-11,7.79h30Z" transform="translate(-72 -118.24)"/></g><g id="Auto_Kopie" data-name="Auto Kopie"><path class="cls-15" d="M591.06,1413H615s3.11-.62,3.73-4.65A113,113,0,0,0,619,1391c-.31-1.24-1.55-8.38-10.56-14.27s-25.76-8.38-25.76-8.38-11.79-1.86-15.21-1.86H562.2s-33.22-22-48.43-24.83-39.73-1.86-39.73-1.86-19.55,0-27.93.93-12.42,1.87-20.8,7.14-19.24,12.41-25.14,17.38-6.21,4.65-6.21,8.38v12.72l-4,4.34v11.17s4.65,8.69,19.55,8.69H588.27Z" transform="translate(-72 -118.24)"/><ellipse class="cls-15" cx="356.93" cy="1288.02" rx="19.24" ry="19.24"/><ellipse class="cls-10" cx="356.88" cy="1288.09" rx="15.52" ry="15.51"/><ellipse class="cls-15" cx="356.88" cy="1288.4" rx="13.97" ry="13.96"/><circle class="cls-18" cx="356.88" cy="1288.09" r="3.1"/><rect class="cls-10" x="355.02" y="1273.82" width="3.72" height="28.86"/><polygon class="cls-10" points="370.39 1294.01 368.53 1297.24 343.53 1282.78 345.39 1279.55 370.39 1294.01"/><polygon class="cls-10" points="368.53 1279.24 370.39 1282.47 345.39 1296.93 343.53 1293.69 368.53 1279.24"/><circle class="cls-10" cx="356.88" cy="1288.24" r="3.57"/><ellipse class="cls-15" cx="500.97" cy="1288.08" rx="19.24" ry="19.24"/><ellipse class="cls-10" cx="500.93" cy="1288.15" rx="15.52" ry="15.51"/><ellipse class="cls-15" cx="500.93" cy="1288.46" rx="13.97" ry="13.96"/><circle class="cls-18" cx="500.93" cy="1288.15" r="3.1"/><rect class="cls-10" x="499.06" y="1273.88" width="3.72" height="28.86"/><polygon class="cls-10" points="514.43 1294.07 512.57 1297.3 487.57 1282.84 489.44 1279.61 514.43 1294.07"/><polygon class="cls-10" points="512.57 1279.3 514.43 1282.53 489.44 1296.99 487.57 1293.76 512.57 1279.3"/><circle class="cls-10" cx="500.93" cy="1288.31" r="3.57"/><path class="cls-19" d="M572.78,1383.83A22.81,22.81,0,0,0,550,1406.64a24.17,24.17,0,0,0,.3,3.73h3.85a19.24,19.24,0,1,1,37.09,2.48h3.52a22.81,22.81,0,0,0-22-29Z" transform="translate(-72 -118.24)"/><path class="cls-19" d="M428.52,1383.83a22.81,22.81,0,0,0-22.81,22.81,23.74,23.74,0,0,0,.33,3.89c1,.09,2.1.15,3.24.15h.8a19.24,19.24,0,1,1,37.6,0H451a22.4,22.4,0,0,0,.36-4A22.81,22.81,0,0,0,428.52,1383.83Z" transform="translate(-72 -118.24)"/><path class="cls-1" d="M431.48,1364.52l48.29.82a1.84,1.84,0,0,0,1.88-1.84v-14.83a2.86,2.86,0,0,0-2.84-2.87l-21-.18a28.47,28.47,0,0,0-20.24,8.18l-7.42,7.29A2,2,0,0,0,431.48,1364.52Z" transform="translate(-72 -118.24)"/><path class="cls-1" d="M541.45,1367.72l-47.75-1.32a4.58,4.58,0,0,1-4.37-3.7l-2.72-14a2.5,2.5,0,0,1,2.62-3l7.94.54A74.37,74.37,0,0,1,535,1359.71l7.39,5.22A1.54,1.54,0,0,1,541.45,1367.72Z" transform="translate(-72 -118.24)"/><path class="cls-1" d="M553.8,1366.84l8.44-.4c-.47-.31-19.5-12.89-35.22-20.13l-3.92-.09a1.05,1.05,0,0,0-.5,1.94L550.78,1366A5.2,5.2,0,0,0,553.8,1366.84Z" transform="translate(-72 -118.24)"/><path class="cls-1" d="M400.84,1364.75l10.34.17a4.06,4.06,0,0,0,2.65-.92L429,1351.55a1,1,0,0,0-.13-1.55l-3.65-2.06C417.08,1353.07,406.74,1359.87,400.84,1364.75Z" transform="translate(-72 -118.24)"/><path class="cls-20" d="M405,1372.54H393.92c0,.33,0,.68,0,1.09V1386l3.18.1a4.19,4.19,0,0,0,3.55-1.78l6.05-8.58A2,2,0,0,0,405,1372.54Z" transform="translate(-72 -118.24)"/><path class="cls-19" d="M619.3,1399.58h-8a4.77,4.77,0,0,0-4,2.2l-2.43,3.78a1.73,1.73,0,0,0,1.48,2.67l12.45-.15A78.12,78.12,0,0,0,619.3,1399.58Z" transform="translate(-72 -118.24)"/><path class="cls-1" d="M614.1,1388.67l-9.27.18a11.22,11.22,0,0,1-9.28-4.64l-3.19-4.42a1.09,1.09,0,0,1,1-1.73l13.44,1.91a10.37,10.37,0,0,1,8.43,7.12h0A1.21,1.21,0,0,1,614.1,1388.67Z" transform="translate(-72 -118.24)"/><rect class="cls-19" x="419.27" y="1254.58" width="10.55" height="4.03" rx="0.53"/><rect class="cls-19" x="372.71" y="1254.58" width="10.55" height="4.03" rx="0.53"/><path class="cls-15" d="M1398,1403.06c4.32,1.44-4.27,3.5,0,7.09.44.37,8.44,9.17,8.86,9.45,5,3.29,3,7.43,3,10.63,0,3.48,2.36,4.14,2.36,7.09v15.36a8.37,8.37,0,0,1-1.18,4.73l-.07.07a4.44,4.44,0,0,0-.85,1.17l-1.07,2.11s-4.35,8.12-18.27,8.12H1223.67l-2.61,2.32c-14.8,0-20.38-1.39-20.38-1.39s-4.74-1.54-5.32-5.31a66.85,66.85,0,0,1-.59-10.64c0-1.19-.73-12.8,7.69-18.31,2-1.3,1.82-3.73,4.13-4.73,7.45-3.21,12.41-4.13,20.09-5.31,6.16-1,15.72-2.36,18.91-2.36h8.86s24.79-18.07,39-20.68,37.23-2.36,37.23-2.36,15.36-.59,27.18,0" transform="translate(-72 -118.24)"/><ellipse class="cls-21" cx="1300.6" cy="1346.66" rx="17.99" ry="17.98"/><ellipse class="cls-18" cx="1300.64" cy="1346.73" rx="14.51" ry="14.5"/><ellipse class="cls-21" cx="1300.64" cy="1347.02" rx="13.06" ry="13.05"/><circle class="cls-18" cx="1300.64" cy="1346.73" r="2.9"/><rect class="cls-18" x="1370.9" y="1451.63" width="3.48" height="26.97" transform="translate(2673.29 2811.99) rotate(180)"/><polygon class="cls-18" points="1288.02 1352.26 1289.76 1355.28 1313.12 1341.77 1311.38 1338.74 1288.02 1352.26"/><polygon class="cls-18" points="1289.76 1338.45 1288.02 1341.47 1311.38 1354.99 1313.12 1351.97 1289.76 1338.45"/><circle class="cls-18" cx="1300.64" cy="1346.87" r="3.34"/><path class="cls-22" d="M1373,1443.94a21.33,21.33,0,0,1,21.33,21.32,20.68,20.68,0,0,1-.32,3.63c-1,.09-2,.14-3,.14h-.75a18,18,0,1,0-35.15,0H1352a21.3,21.3,0,0,1,21-25.09Z" transform="translate(-72 -118.24)"/><path class="cls-1" d="M1276.73,1426l36.37-.49a2.87,2.87,0,0,0,2.74-2.19l4-16.46a1.74,1.74,0,0,0-1.81-2.15l-9.27.63c-11,.74-17.45,4.31-26,10.22a36.42,36.42,0,0,0-4.37,3.55l-3.25,3.3A2.11,2.11,0,0,0,1276.73,1426Z" transform="translate(-72 -118.24)"/><path class="cls-23" d="M1219.47,1437.1" transform="translate(-72 -118.24)"/><path class="cls-1" d="M1223.19,1435.9a.38.38,0,0,0-.29-.68c-5.37.67-11.6,1.77-16.82,2.36-3.76.44-5.72,2-6.72,5.17-.12.39-.22.67-.32,1a.6.6,0,0,0,.58.8,23.72,23.72,0,0,0,8-1.17c2.64-.84,3.55-3,7.69-3.55C1218.37,1439.36,1219.8,1438.73,1223.19,1435.9Z" transform="translate(-72 -118.24)"/><rect class="cls-19" x="1226.77" y="1313.76" width="13.59" height="3.54" rx="1.77"/><path class="cls-1" d="M1379.31,1422h14.87a.67.67,0,0,0,.51-1.12l-10.59-12a5.14,5.14,0,0,0-3.58-1.74l-18.43-1a.76.76,0,0,0-.59,1.28l10.57,11.41A9.84,9.84,0,0,0,1379.31,1422Z" transform="translate(-72 -118.24)"/><rect class="cls-19" x="1273.23" y="1313.17" width="13.59" height="3.54" rx="1.77"/><path class="cls-1" d="M1326.52,1425.35l30.68-1a2,2,0,0,0,1.91-1.87l.43-7.78a3.39,3.39,0,0,0-.47-1.94l-4.13-6.36a2.25,2.25,0,0,0-1.86-1l-24.72,0a2.7,2.7,0,0,0-2.65,2.47l-1.35,15.3A2,2,0,0,0,1326.52,1425.35Z" transform="translate(-72 -118.24)"/><path class="cls-15" d="M1239.88,1445.5a19.34,19.34,0,1,0,19.78,19.34,19.56,19.56,0,0,0-19.78-19.34" transform="translate(-72 -118.24)"/><path class="cls-10" d="M1239.93,1449.32a15.6,15.6,0,1,0,15.94,15.59,15.77,15.77,0,0,0-15.94-15.59" transform="translate(-72 -118.24)"/><path class="cls-15" d="M1239.93,1451.19a14,14,0,1,0,14.35,14,14.19,14.19,0,0,0-14.35-14" transform="translate(-72 -118.24)"/><ellipse class="cls-18" cx="1167.93" cy="1346.67" rx="3.19" ry="3.12"/><polyline class="cls-10" points="1166.02 1332.32 1166.02 1361.33 1169.84 1361.33 1169.84 1332.32"/><polyline class="cls-10" points="1179.73 1338.09 1154.05 1352.62 1155.96 1355.86 1181.65 1341.33 1179.73 1338.09"/><polyline class="cls-10" points="1155.96 1337.77 1154.05 1341.02 1179.73 1355.55 1181.65 1352.3 1155.96 1337.77"/><ellipse class="cls-10" cx="1167.93" cy="1346.83" rx="3.67" ry="3.59"/><path class="cls-19" d="M1239.86,1445.77c-10.92,0-19.78,8.53-19.78,19.06a18.49,18.49,0,0,0,1.06,6.16h-3.62a21.87,21.87,0,0,1-.88-6.15c0-12.48,10.49-22.6,23.44-22.6" transform="translate(-72 -118.24)"/><path class="cls-19" d="M1240.08,1442.24c12.94,0,23.44,10.26,23.44,22.92a21.86,21.86,0,0,1-.32,3.74h-4a18.49,18.49,0,0,0,.38-3.75,19.55,19.55,0,0,0-19.77-19.33" transform="translate(-72 -118.24)"/><path class="cls-15" d="M1370.69,1445.63a19.34,19.34,0,1,0,19.77,19.34,19.57,19.57,0,0,0-19.77-19.34" transform="translate(-72 -118.24)"/><path class="cls-10" d="M1370.73,1449.44a15.6,15.6,0,1,0,16,15.6,15.78,15.78,0,0,0-16-15.6" transform="translate(-72 -118.24)"/><path class="cls-15" d="M1370.73,1451.32a14,14,0,1,0,14.35,14,14.2,14.2,0,0,0-14.35-14" transform="translate(-72 -118.24)"/><polyline class="cls-10" points="1296.82 1332.45 1296.82 1361.45 1300.65 1361.45 1300.65 1332.45"/><polyline class="cls-10" points="1310.54 1338.21 1284.85 1352.74 1286.77 1355.99 1312.45 1341.46 1310.54 1338.21"/><polyline class="cls-10" points="1286.77 1337.9 1284.85 1341.15 1310.54 1355.68 1312.45 1352.43 1286.77 1337.9"/><path class="cls-19" d="M1370.88,1442.36a23.19,23.19,0,0,1,23.44,22.93,22,22,0,0,1-.32,3.74h-3.94a19.31,19.31,0,0,0,.37-3.75,19.56,19.56,0,0,0-19.77-19.34" transform="translate(-72 -118.24)"/><path class="cls-24" d="M1396.13,1424.33h11.94c.42,0,1.23,0,2.09.05.29,2-.32,4.09-.32,5.85a6,6,0,0,0,.67,2.84l-8.15-1.93a9.46,9.46,0,0,1-4.26-3l-2.37-2.95A.51.51,0,0,1,1396.13,1424.33Z" transform="translate(-72 -118.24)"/><path class="cls-19" d="M1351.31,1468.87h-3.5a21.85,21.85,0,0,1-.37-3.9c0-12.48,10.5-22.61,23.44-22.61l-.22,3.53c-10.92,0-19.77,8.54-19.77,19.07A18,18,0,0,0,1351.31,1468.87Z" transform="translate(-72 -118.24)"/><path class="cls-15" d="M1202,1452.56a5.27,5.27,0,0,1,4.54,2.83l2.75,4.85c.84,1.5-.12,3.46-1.67,3.44l-12.35-.18a70.3,70.3,0,0,1-.47-9.75c0-.18,0-.6,0-1.19Z" transform="translate(-72 -118.24)"/><path class="cls-1" d="M1403.11,1421.06,1391.52,1409a.7.7,0,0,1,.51-1.19h4.83a2.57,2.57,0,0,0,1.2,2.36c.44.37,8.44,9.17,8.86,9.45a8.38,8.38,0,0,1,2.21,2.06l-3.91.23A2.69,2.69,0,0,1,1403.11,1421.06Z" transform="translate(-72 -118.24)"/><path class="cls-1" d="M1262.62,1423.59a6.09,6.09,0,0,1-3.54.56l-4.63-1c.57-.4,14.85-10.75,27.8-16.75l5-.13a1,1,0,0,1,.47,1.82l-23.2,14.49A20.23,20.23,0,0,1,1262.62,1423.59Z" transform="translate(-72 -118.24)"/></g></svg>