<svg id="Szene_4" data-name="Szene 4" xmlns="http://www.w3.org/2000/svg" viewBox="0 0 1866 1448"><defs><style>.cls-1{fill:#e3d979;}.cls-2{fill:#36404c;}.cls-3{opacity:0.35;}.cls-4{fill:#0f1116;}.cls-5{fill:#242938;}.cls-6,.cls-7{fill:#2a3340;}.cls-15,.cls-6{opacity:0.5;}.cls-8{fill:#1c222b;}.cls-9{fill:#2a3042;}.cls-10{fill:#394256;}.cls-11{fill:#13151c;}.cls-12{fill:#d2cc83;}.cls-13{fill:#222733;}.cls-14{fill:#2e354a;}.cls-16{fill:#1e222b;}.cls-17{fill:#1e1e1e;}.cls-18{fill:#efe596;}.cls-19{fill:#282828;}.cls-20{fill:#93a3a3;}.cls-21{fill:#14161c;}.cls-22,.cls-26{fill:#be392d;}.cls-23{fill:#2d3e50;}.cls-24{fill:#297fb6;}.cls-25{fill:#e8e9e4;opacity:0.64;}.cls-26{opacity:0.6;}</style></defs><title>Energieversorgungsgrad_4</title><g id="Hintergrund_Kopie_2_Kopie" data-name="Hintergrund Kopie 2 Kopie"><path class="cls-1" d="M454.07,244.19a126.89,126.89,0,0,1,107.6-95.87,127.87,127.87,0,1,0-48.22,235.52A126.88,126.88,0,0,1,454.07,244.19Z" transform="translate(-72 -118)"/><path class="cls-2" d="M897.59,440a25.89,25.89,0,0,0,25.78-22A61,61,0,0,0,863,348.21c-1.29,0-2.57.06-3.85.14a135.74,135.74,0,0,0-239.24-54.49,105,105,0,0,0-126.31,69.63,61,61,0,0,0-76.86,53.56c0,.2,0,.41-.05.61A20.91,20.91,0,0,0,437.62,440Z" transform="translate(-72 -118)"/><ellipse class="cls-3" cx="933" cy="1224" rx="933" ry="224"/><path class="cls-4" d="M87.46,1382c36.18,45.8,130.43,86.66,263.66,118H1657c133.23-31.34,227.48-72.2,263.66-118Z" transform="translate(-72 -118)"/><rect class="cls-5" x="706" y="1312" width="78" height="12" rx="1.58"/><rect class="cls-5" x="862" y="1312" width="78" height="12" rx="1.58"/><rect class="cls-5" x="1018" y="1312" width="78" height="12" rx="1.58"/><rect class="cls-5" x="1174" y="1312" width="78" height="12" rx="1.58"/><rect class="cls-5" x="1330" y="1312" width="78" height="12" rx="1.58"/><rect class="cls-5" x="1486" y="1312" width="78" height="12" rx="1.58"/><rect class="cls-5" x="1642" y="1312" width="78" height="12" rx="1.58"/><rect class="cls-5" x="394" y="1312" width="78" height="12" rx="1.58"/><rect class="cls-5" x="550" y="1312" width="78" height="12" rx="1.58"/><rect class="cls-5" x="238" y="1312" width="78" height="12" rx="1.58"/><rect class="cls-5" x="394" y="1312" width="78" height="12" rx="1.58"/><path class="cls-5" d="M225.82,1430h-66a6,6,0,0,0-5.11,2.89q8.76,4.62,18.34,9.11h52.77a6,6,0,0,0,0-12Z" transform="translate(-72 -118)"/><path class="cls-2" d="M1333.83,306a19.07,19.07,0,0,1-19-16.2,44.92,44.92,0,0,1,44.44-51.4c1,0,1.9,0,2.84.1a100,100,0,0,1,176.18-40.12,77.36,77.36,0,0,1,93,51.28,44.88,44.88,0,0,1,56.6,39.44c0,.15,0,.3,0,.45a15.4,15.4,0,0,1-15.4,16.45Z" transform="translate(-72 -118)"/><circle class="cls-1" cx="697" cy="9" r="9"/><circle class="cls-1" cx="911" cy="183" r="9"/><circle class="cls-1" cx="1487" cy="11" r="9"/><circle class="cls-1" cx="1425" cy="321" r="9"/><circle class="cls-1" cx="1129" cy="91" r="9"/><circle class="cls-1" cx="1759" cy="363" r="9"/><circle class="cls-1" cx="1733" cy="63" r="9"/><circle class="cls-1" cx="295" cy="451" r="9"/><circle class="cls-1" cx="145" cy="615" r="9"/><circle class="cls-1" cx="157.69" cy="216.07" r="9"/><circle class="cls-1" cx="213" cy="41" r="9"/><circle class="cls-1" cx="1711" cy="577" r="9"/><circle class="cls-1" cx="1171" cy="279" r="9"/></g><g id="Horizont_Kopie_2_Kopie" data-name="Horizont Kopie 2 Kopie"><path class="cls-6" d="M355.65,628.49c0-5.21,3.48-9.42,7.76-9.42H603.89c4.28,0,7.76,4.21,7.76,9.42v16.94a.07.07,0,0,1-.06.07h.06v467.78H502.71v6.55s0,.05,0,.05h-37s0,0,0,0v-6.57h-110V645.5h0Z" transform="translate(-72 -118)"/><path class="cls-6" d="M1177.39,617.33c0-5.2,3.48-9.42,7.76-9.42h240.48c4.28,0,7.76,4.22,7.76,9.42v16.94a.07.07,0,0,1-.06.07h.06v467.78H1324.45v6.56s0,0,0,0h-37a0,0,0,0,1,0,0v-6.57h-110V634.34h0Z" transform="translate(-72 -118)"/><path class="cls-7" d="M1342,515.42c0-5.2,3.48-9.42,7.76-9.42h240.48c4.28,0,7.76,4.22,7.76,9.42v16.94a.07.07,0,0,1-.06.07h.06v467.78H1489.06v6.56s0,.05,0,.05h-37a0,0,0,0,1,0,0v-6.57H1342V532.43h0Z" transform="translate(-72 -118)"/><path class="cls-6" d="M649.69,561.68c0-5.2,3.48-9.42,7.77-9.42H897.93c4.29,0,7.76,4.22,7.76,9.42v16.94s0,.07-.06.07h.06v467.78H796.76V1053s0,0,0,0h-37s0,0,0,0v-6.57h-110V578.69h0Z" transform="translate(-72 -118)"/><path class="cls-7" d="M959.69,465.68c0-5.2,3.48-9.42,7.77-9.42h240.47c4.29,0,7.76,4.22,7.76,9.42v16.94s0,.07-.06.07h.06V950.47H1106.76V957s0,.05,0,.05h-37s0,0,0,0v-6.57h-110V482.69h0Z" transform="translate(-72 -118)"/><path class="cls-7" d="M491.69,679.68c0-5.2,3.48-9.42,7.77-9.42H739.93c4.29,0,7.76,4.22,7.76,9.42v16.94s0,.07-.06.07h.06v467.78H638.76V1171s0,0,0,0h-37s0,0,0,0v-6.57h-110V696.69h0Z" transform="translate(-72 -118)"/><path class="cls-8" d="M300.47,818.75c0-3.4,3.47-6.15,7.76-6.15H548.7c4.29,0,7.77,2.75,7.77,6.15v11.08s0,0-.06,0h.06v305.81H447.53V1140s0,0,0,0h-37a0,0,0,0,1,0,0v-4.29h-110V829.87h0Z" transform="translate(-72 -118)"/></g><g id="Hochhaus_Nacht_2_Kopie_2_Kopie" data-name="Hochhaus Nacht 2 Kopie 2 Kopie"><g id="Hochhaus_Nacht_5_Kopie_2_Kopie" data-name="Hochhaus Nacht 5 Kopie 2 Kopie"><rect class="cls-9" x="612" y="714" width="282" height="424.78"/><path class="cls-10" d="M734.19,1076.78h36.42a2.19,2.19,0,0,1,2.19,2.19v65.79a0,0,0,0,1,0,0H732a0,0,0,0,1,0,0V1079A2.19,2.19,0,0,1,734.19,1076.78Z"/><rect class="cls-11" x="737.33" y="1082.69" width="30.4" height="56.17" rx="0.95"/><rect class="cls-10" x="842" y="1076" width="32" height="46" rx="2.19"/><rect class="cls-12" x="846" y="1080" width="24" height="38" rx="0.95"/><path class="cls-13" d="M616.28,690H889.72a4.28,4.28,0,0,1,4.28,4.28V714a0,0,0,0,1,0,0H612a0,0,0,0,1,0,0V694.28A4.28,4.28,0,0,1,616.28,690Z"/><rect class="cls-10" x="790" y="1076" width="32" height="46" rx="2.19"/><rect class="cls-12" x="794" y="1080" width="24" height="38" rx="0.95"/><rect class="cls-10" x="684" y="1076" width="32" height="46" rx="2.19"/><rect class="cls-12" x="688" y="1080" width="24" height="38" rx="0.95"/><rect class="cls-10" x="632" y="1076" width="32" height="46" rx="2.19"/><rect class="cls-12" x="636" y="1080" width="24" height="38" rx="0.95"/><rect class="cls-10" x="842" y="1006" width="32" height="46" rx="2.19"/><rect class="cls-12" x="846" y="1010" width="24" height="38" rx="0.95"/><rect class="cls-10" x="790" y="1006" width="32" height="46" rx="2.19"/><rect class="cls-11" x="794" y="1010" width="24" height="38" rx="0.95"/><rect class="cls-10" x="684" y="1006" width="32" height="46" rx="2.19"/><rect class="cls-12" x="688" y="1010" width="24" height="38" rx="0.95"/><rect class="cls-10" x="632" y="1006" width="32" height="46" rx="2.19"/><rect class="cls-12" x="636" y="1010" width="24" height="38" rx="0.95"/><rect class="cls-10" x="736" y="1006" width="32" height="46" rx="2.19"/><rect class="cls-12" x="740" y="1010" width="24" height="38" rx="0.95"/><rect class="cls-10" x="842" y="936" width="32" height="46" rx="2.19"/><rect class="cls-11" x="846" y="940" width="24" height="38" rx="0.95"/><rect class="cls-10" x="790" y="936" width="32" height="46" rx="2.19"/><rect class="cls-12" x="794" y="940" width="24" height="38" rx="0.95"/><rect class="cls-10" x="684" y="936" width="32" height="46" rx="2.19"/><rect class="cls-12" x="688" y="940" width="24" height="38" rx="0.95"/><rect class="cls-10" x="632" y="936" width="32" height="46" rx="2.19"/><rect class="cls-12" x="636" y="940" width="24" height="38" rx="0.95"/><rect class="cls-10" x="736" y="936" width="32" height="46" rx="2.19"/><rect class="cls-12" x="740" y="940" width="24" height="38" rx="0.95"/><rect class="cls-10" x="842" y="866" width="32" height="46" rx="2.19"/><rect class="cls-12" x="846" y="870" width="24" height="38" rx="0.95"/><rect class="cls-10" x="790" y="866" width="32" height="46" rx="2.19"/><rect class="cls-12" x="794" y="870" width="24" height="38" rx="0.95"/><rect class="cls-10" x="684" y="866" width="32" height="46" rx="2.19"/><rect class="cls-12" x="688" y="870" width="24" height="38" rx="0.95"/><rect class="cls-10" x="632" y="866" width="32" height="46" rx="2.19"/><rect class="cls-12" x="636" y="870" width="24" height="38" rx="0.95"/><rect class="cls-10" x="736" y="866" width="32" height="46" rx="2.19"/><rect class="cls-12" x="740" y="870" width="24" height="38" rx="0.95"/><rect class="cls-10" x="842" y="796" width="32" height="46" rx="2.19"/><rect class="cls-12" x="846" y="800" width="24" height="38" rx="0.95"/><rect class="cls-10" x="790" y="796" width="32" height="46" rx="2.19"/><rect class="cls-12" x="794" y="800" width="24" height="38" rx="0.95"/><rect class="cls-10" x="684" y="796" width="32" height="46" rx="2.19"/><rect class="cls-12" x="688" y="800" width="24" height="38" rx="0.95"/><rect class="cls-10" x="632" y="796" width="32" height="46" rx="2.19"/><rect class="cls-12" x="636" y="800" width="24" height="38" rx="0.95"/><rect class="cls-10" x="736" y="796" width="32" height="46" rx="2.19"/><rect class="cls-11" x="740" y="800" width="24" height="38" rx="0.95"/><rect class="cls-10" x="842" y="726" width="32" height="46" rx="2.19"/><rect class="cls-12" x="846" y="730" width="24" height="38" rx="0.95"/><rect class="cls-10" x="790" y="726" width="32" height="46" rx="2.19"/><rect class="cls-12" x="794" y="730" width="24" height="38" rx="0.95"/><rect class="cls-10" x="684" y="726" width="32" height="46" rx="2.19"/><rect class="cls-12" x="688" y="730" width="24" height="38" rx="0.95"/><rect class="cls-10" x="632" y="726" width="32" height="46" rx="2.19"/><rect class="cls-12" x="636" y="730" width="24" height="38" rx="0.95"/><rect class="cls-10" x="736" y="726" width="32" height="46" rx="2.19"/><rect class="cls-12" x="740" y="730" width="24" height="38" rx="0.95"/><path class="cls-10" d="M612,780H894a0,0,0,0,1,0,0v10a0,0,0,0,1,0,0H612a0,0,0,0,1,0,0V780A0,0,0,0,1,612,780Z"/><path class="cls-10" d="M612,850H894a0,0,0,0,1,0,0v10a0,0,0,0,1,0,0H612a0,0,0,0,1,0,0V850A0,0,0,0,1,612,850Z"/><path class="cls-10" d="M612,920H894a0,0,0,0,1,0,0v10a0,0,0,0,1,0,0H612a0,0,0,0,1,0,0V920A0,0,0,0,1,612,920Z"/><path class="cls-10" d="M612,990H894a0,0,0,0,1,0,0v10a0,0,0,0,1,0,0H612a0,0,0,0,1,0,0V990A0,0,0,0,1,612,990Z"/><path class="cls-10" d="M612,1060H894a0,0,0,0,1,0,0v10a0,0,0,0,1,0,0H612a0,0,0,0,1,0,0v-10A0,0,0,0,1,612,1060Z"/><path class="cls-14" d="M808,808H706a0,0,0,0,1,0,0V797.65a3.66,3.66,0,0,1,3.65-3.65h94.7a3.66,3.66,0,0,1,3.65,3.65V808Z" transform="translate(-72 -118)"/><path class="cls-14" d="M942,808H840a0,0,0,0,1,0,0V797.65a3.66,3.66,0,0,1,3.65-3.65h94.7a3.66,3.66,0,0,1,3.65,3.65V808Z" transform="translate(-72 -118)"/></g><path class="cls-15" d="M785.18,808.2a6.76,6.76,0,0,0,6.76-6.76V794H744v462.76h33.94V1198.2h7.24a6.76,6.76,0,0,0,6.76-6.76V1157a6.76,6.76,0,0,0-6.76-6.76h-7.24v-32h7.24a6.76,6.76,0,0,0,6.76-6.76V1091a6.76,6.76,0,0,0-6.76-6.76h-7.24v-28h7.24a6.76,6.76,0,0,0,6.76-6.76V1029a6.76,6.76,0,0,0-6.76-6.76h-7.24v-28h7.24a6.76,6.76,0,0,0,6.76-6.76V967a6.76,6.76,0,0,0-6.76-6.76h-7.24v-28h7.24a6.76,6.76,0,0,0,6.76-6.76V905a6.76,6.76,0,0,0-6.76-6.76h-7.24v-28h7.24a6.76,6.76,0,0,0,6.76-6.76V843a6.76,6.76,0,0,0-6.76-6.76h-7.24v-28Z" transform="translate(-72 -118)"/><rect class="cls-5" x="283.02" y="673.06" width="394" height="487.25"/><rect class="cls-10" x="297.02" y="824.3" width="60" height="46" rx="2.19"/><rect class="cls-12" x="301.02" y="828.3" width="24" height="38" rx="0.95"/><rect class="cls-12" x="329.02" y="828.3" width="24" height="38" rx="0.95"/><rect class="cls-10" x="297.02" y="760.3" width="60" height="46" rx="2.19"/><rect class="cls-12" x="301.02" y="764.3" width="24" height="38" rx="0.95"/><rect class="cls-12" x="329.02" y="764.3" width="24" height="38" rx="0.95"/><rect class="cls-10" x="401.02" y="696.3" width="60" height="46" rx="2.19"/><rect class="cls-12" x="405.02" y="700.3" width="24" height="38" rx="0.95"/><rect class="cls-12" x="433.02" y="700.3" width="24" height="38" rx="0.95"/><rect class="cls-10" x="401.02" y="820.3" width="60" height="46" rx="2.19"/><rect class="cls-11" x="405.02" y="824.3" width="24" height="38" rx="0.95"/><rect class="cls-11" x="433.02" y="824.3" width="24" height="38" rx="0.95"/><rect class="cls-10" x="401.02" y="758.3" width="60" height="46" rx="2.19"/><rect class="cls-12" x="405.02" y="762.3" width="24" height="38" rx="0.95"/><rect class="cls-12" x="433.02" y="762.3" width="24" height="38" rx="0.95"/><rect class="cls-10" x="297.02" y="698.3" width="60" height="46" rx="2.19"/><rect class="cls-12" x="301.02" y="702.3" width="24" height="38" rx="0.95"/><rect class="cls-12" x="329.02" y="702.3" width="24" height="38" rx="0.95"/><rect class="cls-10" x="297.02" y="1012.3" width="60" height="46" rx="2.19"/><rect class="cls-12" x="301.02" y="1016.3" width="24" height="38" rx="0.95"/><rect class="cls-12" x="329.02" y="1016.3" width="24" height="38" rx="0.95"/><rect class="cls-10" x="297.02" y="950.3" width="60" height="46" rx="2.19"/><rect class="cls-12" x="301.02" y="954.3" width="24" height="38" rx="0.95"/><rect class="cls-12" x="329.02" y="954.3" width="24" height="38" rx="0.95"/><rect class="cls-10" x="297.02" y="886.3" width="60" height="46" rx="2.19"/><rect class="cls-12" x="301.02" y="890.3" width="24" height="38" rx="0.95"/><rect class="cls-12" x="329.02" y="890.3" width="24" height="38" rx="0.95"/><rect class="cls-10" x="297.02" y="824.3" width="60" height="46" rx="2.19"/><rect class="cls-12" x="301.02" y="828.3" width="24" height="38" rx="0.95"/><rect class="cls-12" x="329.02" y="828.3" width="24" height="38" rx="0.95"/><rect class="cls-10" x="400.17" y="882.78" width="60" height="46" rx="2.19"/><rect class="cls-12" x="404.17" y="886.78" width="24" height="38" rx="0.95"/><rect class="cls-12" x="432.17" y="886.78" width="24" height="38" rx="0.95"/><rect class="cls-10" x="400.17" y="1006.78" width="60" height="46" rx="2.19"/><rect class="cls-12" x="404.17" y="1010.78" width="24" height="38" rx="0.95"/><rect class="cls-12" x="432.17" y="1010.78" width="24" height="38" rx="0.95"/><rect class="cls-10" x="400.17" y="944.78" width="60" height="46" rx="2.19"/><rect class="cls-12" x="404.17" y="948.78" width="24" height="38" rx="0.95"/><rect class="cls-12" x="432.17" y="948.78" width="24" height="38" rx="0.95"/><rect class="cls-10" x="503" y="696" width="60" height="46" rx="2.19"/><rect class="cls-12" x="507" y="700" width="24" height="38" rx="0.95"/><rect class="cls-12" x="535" y="700" width="24" height="38" rx="0.95"/><rect class="cls-10" x="503" y="820" width="60" height="46" rx="2.19"/><rect class="cls-12" x="507" y="824" width="24" height="38" rx="0.95"/><rect class="cls-12" x="535" y="824" width="24" height="38" rx="0.95"/><rect class="cls-10" x="503" y="758" width="60" height="46" rx="2.19"/><rect class="cls-12" x="507" y="762" width="24" height="38" rx="0.95"/><rect class="cls-12" x="535" y="762" width="24" height="38" rx="0.95"/><rect class="cls-10" x="502.15" y="882.47" width="60" height="46" rx="2.19"/><rect class="cls-12" x="506.15" y="886.47" width="24" height="38" rx="0.95"/><rect class="cls-12" x="534.15" y="886.47" width="24" height="38" rx="0.95"/><rect class="cls-10" x="502.15" y="1006.47" width="60" height="46" rx="2.19"/><rect class="cls-12" x="506.15" y="1010.47" width="24" height="38" rx="0.95"/><rect class="cls-12" x="534.15" y="1010.47" width="24" height="38" rx="0.95"/><rect class="cls-10" x="502.15" y="944.47" width="60" height="46" rx="2.19"/><rect class="cls-12" x="506.15" y="948.47" width="24" height="38" rx="0.95"/><rect class="cls-12" x="534.15" y="948.47" width="24" height="38" rx="0.95"/><rect class="cls-10" x="503.02" y="696.3" width="60" height="46" rx="2.19"/><rect class="cls-11" x="507.02" y="700.3" width="24" height="38" rx="0.95"/><rect class="cls-11" x="535.02" y="700.3" width="24" height="38" rx="0.95"/><rect class="cls-10" x="503.02" y="820.3" width="60" height="46" rx="2.19"/><rect class="cls-12" x="507.02" y="824.3" width="24" height="38" rx="0.95"/><rect class="cls-12" x="535.02" y="824.3" width="24" height="38" rx="0.95"/><rect class="cls-10" x="503.02" y="758.3" width="60" height="46" rx="2.19"/><rect class="cls-12" x="507.02" y="762.3" width="24" height="38" rx="0.95"/><rect class="cls-12" x="535.02" y="762.3" width="24" height="38" rx="0.95"/><rect class="cls-10" x="502.17" y="882.78" width="60" height="46" rx="2.19"/><rect class="cls-12" x="506.17" y="886.78" width="24" height="38" rx="0.95"/><rect class="cls-12" x="534.17" y="886.78" width="24" height="38" rx="0.95"/><rect class="cls-10" x="502.17" y="1006.78" width="60" height="46" rx="2.19"/><rect class="cls-12" x="506.17" y="1010.78" width="24" height="38" rx="0.95"/><rect class="cls-12" x="534.17" y="1010.78" width="24" height="38" rx="0.95"/><rect class="cls-10" x="502.17" y="944.78" width="60" height="46" rx="2.19"/><rect class="cls-11" x="506.17" y="948.78" width="24" height="38" rx="0.95"/><rect class="cls-11" x="534.17" y="948.78" width="24" height="38" rx="0.95"/><rect class="cls-10" x="605" y="696" width="60" height="46" rx="2.19"/><rect class="cls-11" x="609" y="700" width="24" height="38" rx="0.95"/><rect class="cls-11" x="637" y="700" width="24" height="38" rx="0.95"/><rect class="cls-10" x="605" y="820" width="60" height="46" rx="2.19"/><rect class="cls-12" x="609" y="824" width="24" height="38" rx="0.95"/><rect class="cls-12" x="637" y="824" width="24" height="38" rx="0.95"/><rect class="cls-10" x="605" y="758" width="60" height="46" rx="2.19"/><rect class="cls-12" x="609" y="762" width="24" height="38" rx="0.95"/><rect class="cls-12" x="637" y="762" width="24" height="38" rx="0.95"/><rect class="cls-10" x="604.15" y="882.47" width="60" height="46" rx="2.19"/><rect class="cls-12" x="608.15" y="886.47" width="24" height="38" rx="0.95"/><rect class="cls-12" x="636.15" y="886.47" width="24" height="38" rx="0.95"/><rect class="cls-10" x="604.15" y="1006.47" width="60" height="46" rx="2.19"/><rect class="cls-12" x="608.15" y="1010.47" width="24" height="38" rx="0.95"/><rect class="cls-12" x="636.15" y="1010.47" width="24" height="38" rx="0.95"/><rect class="cls-10" x="604.15" y="944.47" width="60" height="46" rx="2.19"/><rect class="cls-12" x="608.15" y="948.47" width="24" height="38" rx="0.95"/><rect class="cls-12" x="636.15" y="948.47" width="24" height="38" rx="0.95"/><rect class="cls-14" x="269.02" y="642.3" width="422" height="48" rx="3.38"/><rect class="cls-14" x="269.02" y="1032.3" width="422" height="48" rx="3.38"/><rect class="cls-14" x="269.02" y="718.3" width="422" height="34" rx="3.38"/><rect class="cls-14" x="269.02" y="780.3" width="422" height="34" rx="3.38"/><rect class="cls-14" x="269.02" y="842.3" width="422" height="34" rx="3.38"/><rect class="cls-14" x="269.02" y="904.3" width="422" height="34" rx="3.38"/><rect class="cls-14" x="269.02" y="966.3" width="422" height="34" rx="3.38"/><path class="cls-10" d="M443.21,1096.3h71.62a2.19,2.19,0,0,1,2.19,2.19v65.79a0,0,0,0,1,0,0H441a0,0,0,0,1,0,0v-65.79A2.19,2.19,0,0,1,443.21,1096.3Z"/><rect class="cls-11" x="446.09" y="1102.22" width="30.4" height="56.17" rx="0.95"/><rect class="cls-11" x="481.55" y="1102.22" width="30.4" height="56.17" rx="0.95"/><rect class="cls-10" x="603.02" y="1096.3" width="32" height="46" rx="2.19"/><rect class="cls-12" x="607.02" y="1100.3" width="24" height="38" rx="0.95"/><rect class="cls-10" x="323.02" y="1096.3" width="32" height="46" rx="2.19"/><rect class="cls-12" x="327.02" y="1100.3" width="24" height="38" rx="0.95"/><path class="cls-5" d="M324.3,618.3H455.74a4.28,4.28,0,0,1,4.28,4.28V642.3a0,0,0,0,1,0,0h-140a0,0,0,0,1,0,0V622.58A4.28,4.28,0,0,1,324.3,618.3Z"/><path class="cls-5" d="M506.3,618.3H637.74a4.28,4.28,0,0,1,4.28,4.28V642.3a0,0,0,0,1,0,0h-140a0,0,0,0,1,0,0V622.58A4.28,4.28,0,0,1,506.3,618.3Z"/><rect class="cls-10" x="548.02" y="1096.3" width="32" height="46" rx="2.19"/><rect class="cls-12" x="552.02" y="1100.3" width="24" height="38" rx="0.95"/><rect class="cls-10" x="382.02" y="1096.3" width="32" height="46" rx="2.19"/><rect class="cls-12" x="386.02" y="1100.3" width="24" height="38" rx="0.95"/></g><g id="Hochhaus_Nacht_4_Kopie_2_Kopie" data-name="Hochhaus Nacht 4 Kopie 2 Kopie"><path class="cls-16" d="M1342.24,626.14h153.35a.44.44,0,0,1,.44.44V1163.7a.44.44,0,0,1-.44.44H1338.68a.44.44,0,0,1-.44-.44V630.14A4,4,0,0,1,1342.24,626.14Z"/><path class="cls-16" d="M1490.87,626.14h153.42a4.37,4.37,0,0,1,4.37,4.37v529.27a4.37,4.37,0,0,1-4.37,4.37H1490.87a0,0,0,0,1,0,0v-538A0,0,0,0,1,1490.87,626.14Z"/><rect class="cls-10" x="1281.33" y="790.14" width="108.65" height="374"/><rect class="cls-10" x="1594.33" y="790.14" width="108.65" height="374"/><rect class="cls-10" x="1382.21" y="498.14" width="108.65" height="128"/><rect class="cls-10" x="1490.86" y="498.14" width="108.65" height="128"/><path class="cls-13" d="M1277.73,772.14h115.84a1.58,1.58,0,0,1,1.58,1.58v4.42a0,0,0,0,1,0,0h-119a0,0,0,0,1,0,0v-4.42A1.58,1.58,0,0,1,1277.73,772.14Z"/><rect class="cls-13" x="1276.15" y="778.14" width="118.99" height="12"/><path class="cls-13" d="M1590.74,772.14h115.84a1.58,1.58,0,0,1,1.58,1.58v4.42a0,0,0,0,1,0,0h-119a0,0,0,0,1,0,0v-4.42A1.58,1.58,0,0,1,1590.74,772.14Z"/><rect class="cls-13" x="1589.16" y="778.14" width="118.99" height="12"/><path class="cls-13" d="M1490.86,480.14h117.42a1.58,1.58,0,0,1,1.58,1.58v4.42a0,0,0,0,1,0,0h-119a0,0,0,0,1,0,0v-6A0,0,0,0,1,1490.86,480.14Z"/><rect class="cls-13" x="1490.86" y="486.14" width="118.99" height="12"/><path class="cls-13" d="M1373.29,480.14h117.42a.15.15,0,0,1,.15.15V486a.15.15,0,0,1-.15.15H1372a.15.15,0,0,1-.15-.15v-4.42a1.43,1.43,0,0,1,1.43-1.43Z"/><rect class="cls-13" x="1371.87" y="486.14" width="118.99" height="12"/><rect class="cls-10" x="1417.64" y="458.14" width="73.22" height="22"/><rect class="cls-10" x="1490.86" y="458.14" width="73.22" height="22"/><path class="cls-13" d="M1490.86,440.14h78.61a1.58,1.58,0,0,1,1.58,1.58v4.42a0,0,0,0,1,0,0h-80.19a0,0,0,0,1,0,0v-6A0,0,0,0,1,1490.86,440.14Z"/><rect class="cls-13" x="1490.86" y="446.14" width="80.19" height="12"/><path class="cls-13" d="M1412.1,440.14h78.61a.15.15,0,0,1,.15.15V446a.15.15,0,0,1-.15.15h-79.89a.15.15,0,0,1-.15-.15v-4.42a1.43,1.43,0,0,1,1.43-1.43Z"/><rect class="cls-13" x="1410.67" y="446.14" width="80.19" height="12"/><path class="cls-1" d="M1300.31,1075h24.47a1.77,1.77,0,0,1,1.77,1.77v32a.17.17,0,0,1-.17.17h-27.43a.17.17,0,0,1-.17-.17v-32.27A1.54,1.54,0,0,1,1300.31,1075Z"/><path class="cls-13" d="M1298.77,1108.41h27.78a0,0,0,0,1,0,0v15.18a1.42,1.42,0,0,1-1.42,1.42h-24.94a1.42,1.42,0,0,1-1.42-1.42v-15.18A0,0,0,0,1,1298.77,1108.41Z"/><path class="cls-1" d="M1346.67,1075.07h24.47a1.77,1.77,0,0,1,1.77,1.77v32a.17.17,0,0,1-.17.17H1345.3a.17.17,0,0,1-.17-.17v-32.27A1.54,1.54,0,0,1,1346.67,1075.07Z"/><path class="cls-13" d="M1345.13,1108.47h27.78a0,0,0,0,1,0,0v15.18a1.42,1.42,0,0,1-1.42,1.42h-24.94a1.42,1.42,0,0,1-1.42-1.42v-15.18A0,0,0,0,1,1345.13,1108.47Z"/><path class="cls-1" d="M1300.31,1013h24.47a1.77,1.77,0,0,1,1.77,1.77v32a.17.17,0,0,1-.17.17h-27.43a.17.17,0,0,1-.17-.17v-32.27A1.54,1.54,0,0,1,1300.31,1013Z"/><path class="cls-13" d="M1298.77,1046.41h27.78a0,0,0,0,1,0,0v15.18a1.42,1.42,0,0,1-1.42,1.42h-24.94a1.42,1.42,0,0,1-1.42-1.42v-15.18A0,0,0,0,1,1298.77,1046.41Z"/><path class="cls-1" d="M1346.67,1013.07h24.47a1.77,1.77,0,0,1,1.77,1.77v32a.17.17,0,0,1-.17.17H1345.3a.17.17,0,0,1-.17-.17v-32.27a1.54,1.54,0,0,1,1.54-1.54Z"/><path class="cls-13" d="M1345.13,1046.47h27.78a0,0,0,0,1,0,0v15.18a1.42,1.42,0,0,1-1.42,1.42h-24.94a1.42,1.42,0,0,1-1.42-1.42v-15.18A0,0,0,0,1,1345.13,1046.47Z"/><path class="cls-1" d="M1299.63,951.23h24.47a1.77,1.77,0,0,1,1.77,1.77v32a.17.17,0,0,1-.17.17h-27.43a.17.17,0,0,1-.17-.17V952.77a1.54,1.54,0,0,1,1.54-1.54Z"/><path class="cls-13" d="M1298.09,984.63h27.78a0,0,0,0,1,0,0v15.18a1.42,1.42,0,0,1-1.42,1.42h-24.94a1.42,1.42,0,0,1-1.42-1.42V984.63A0,0,0,0,1,1298.09,984.63Z"/><path class="cls-1" d="M1346,951.29h24.47a1.77,1.77,0,0,1,1.77,1.77v32a.17.17,0,0,1-.17.17h-27.43a.17.17,0,0,1-.17-.17V952.83A1.54,1.54,0,0,1,1346,951.29Z"/><path class="cls-13" d="M1344.45,984.68h27.78a0,0,0,0,1,0,0v15.18a1.42,1.42,0,0,1-1.42,1.42h-24.94a1.42,1.42,0,0,1-1.42-1.42V984.68A0,0,0,0,1,1344.45,984.68Z"/><path class="cls-11" d="M1300,889h24.47a1.77,1.77,0,0,1,1.77,1.77v32a.17.17,0,0,1-.17.17H1298.6a.17.17,0,0,1-.17-.17V890.54A1.54,1.54,0,0,1,1300,889Z"/><path class="cls-13" d="M1298.43,922.39h27.78a0,0,0,0,1,0,0v15.18a1.42,1.42,0,0,1-1.42,1.42h-24.94a1.42,1.42,0,0,1-1.42-1.42V922.39A0,0,0,0,1,1298.43,922.39Z"/><path class="cls-11" d="M1346.32,889.06h24.47a1.77,1.77,0,0,1,1.77,1.77v32a.17.17,0,0,1-.17.17H1345a.17.17,0,0,1-.17-.17V890.6a1.54,1.54,0,0,1,1.54-1.54Z"/><path class="cls-13" d="M1344.78,922.45h27.78a0,0,0,0,1,0,0v15.18a1.42,1.42,0,0,1-1.42,1.42H1346.2a1.42,1.42,0,0,1-1.42-1.42V922.45A0,0,0,0,1,1344.78,922.45Z"/><path class="cls-1" d="M1299.28,827.22h24.47a1.77,1.77,0,0,1,1.77,1.77v32a.17.17,0,0,1-.17.17h-27.43a.17.17,0,0,1-.17-.17V828.76a1.54,1.54,0,0,1,1.54-1.54Z"/><path class="cls-13" d="M1297.75,860.61h27.78a0,0,0,0,1,0,0V875.8a1.42,1.42,0,0,1-1.42,1.42h-24.94a1.42,1.42,0,0,1-1.42-1.42V860.61A0,0,0,0,1,1297.75,860.61Z"/><path class="cls-1" d="M1345.64,827.28h24.47a1.77,1.77,0,0,1,1.77,1.77v32a.17.17,0,0,1-.17.17h-27.43a.17.17,0,0,1-.17-.17V828.81a1.54,1.54,0,0,1,1.54-1.54Z"/><path class="cls-13" d="M1344.1,860.67h27.78a0,0,0,0,1,0,0v15.18a1.42,1.42,0,0,1-1.42,1.42h-24.94a1.42,1.42,0,0,1-1.42-1.42V860.67A0,0,0,0,1,1344.1,860.67Z"/><path class="cls-1" d="M1615.14,1076.14h24.47a1.77,1.77,0,0,1,1.77,1.77v32a.17.17,0,0,1-.17.17h-27.43a.17.17,0,0,1-.17-.17v-32.27a1.54,1.54,0,0,1,1.54-1.54Z"/><path class="cls-13" d="M1613.6,1109.53h27.78a0,0,0,0,1,0,0v15.18a1.42,1.42,0,0,1-1.42,1.42H1615a1.42,1.42,0,0,1-1.42-1.42v-15.18A0,0,0,0,1,1613.6,1109.53Z"/><path class="cls-1" d="M1661.49,1076.2H1686a1.77,1.77,0,0,1,1.77,1.77v32a.17.17,0,0,1-.17.17h-27.43a.17.17,0,0,1-.17-.17v-32.27a1.54,1.54,0,0,1,1.54-1.54Z"/><path class="cls-13" d="M1660,1109.59h27.78a0,0,0,0,1,0,0v15.18a1.42,1.42,0,0,1-1.42,1.42h-24.94a1.42,1.42,0,0,1-1.42-1.42v-15.18A0,0,0,0,1,1660,1109.59Z"/><path class="cls-1" d="M1615.14,1014.14h24.47a1.77,1.77,0,0,1,1.77,1.77v32a.17.17,0,0,1-.17.17h-27.43a.17.17,0,0,1-.17-.17v-32.27A1.54,1.54,0,0,1,1615.14,1014.14Z"/><path class="cls-13" d="M1613.6,1047.53h27.78a0,0,0,0,1,0,0v15.18a1.42,1.42,0,0,1-1.42,1.42H1615a1.42,1.42,0,0,1-1.42-1.42v-15.18A0,0,0,0,1,1613.6,1047.53Z"/><path class="cls-1" d="M1661.49,1014.2H1686a1.77,1.77,0,0,1,1.77,1.77v32a.17.17,0,0,1-.17.17h-27.43a.17.17,0,0,1-.17-.17v-32.27A1.54,1.54,0,0,1,1661.49,1014.2Z"/><path class="cls-13" d="M1660,1047.59h27.78a0,0,0,0,1,0,0v15.18a1.42,1.42,0,0,1-1.42,1.42h-24.94a1.42,1.42,0,0,1-1.42-1.42v-15.18A0,0,0,0,1,1660,1047.59Z"/><path class="cls-1" d="M1614.46,952.36h24.47a1.77,1.77,0,0,1,1.77,1.77v32a.17.17,0,0,1-.17.17h-27.43a.17.17,0,0,1-.17-.17V953.9a1.54,1.54,0,0,1,1.54-1.54Z"/><path class="cls-13" d="M1612.92,985.75h27.78a0,0,0,0,1,0,0v15.18a1.42,1.42,0,0,1-1.42,1.42h-24.94a1.42,1.42,0,0,1-1.42-1.42V985.75A0,0,0,0,1,1612.92,985.75Z"/><path class="cls-1" d="M1660.81,952.42h24.47a1.77,1.77,0,0,1,1.77,1.77v32a.17.17,0,0,1-.17.17h-27.43a.17.17,0,0,1-.17-.17V954A1.54,1.54,0,0,1,1660.81,952.42Z"/><path class="cls-13" d="M1659.27,985.81h27.78a0,0,0,0,1,0,0V1001a1.42,1.42,0,0,1-1.42,1.42h-24.94a1.42,1.42,0,0,1-1.42-1.42V985.81A0,0,0,0,1,1659.27,985.81Z"/><path class="cls-1" d="M1614.79,890.13h24.47a1.77,1.77,0,0,1,1.77,1.77v32a.17.17,0,0,1-.17.17h-27.43a.17.17,0,0,1-.17-.17V891.67A1.54,1.54,0,0,1,1614.79,890.13Z"/><path class="cls-13" d="M1613.25,923.52H1641a0,0,0,0,1,0,0v15.18a1.42,1.42,0,0,1-1.42,1.42h-24.94a1.42,1.42,0,0,1-1.42-1.42V923.52A0,0,0,0,1,1613.25,923.52Z"/><path class="cls-11" d="M1661.14,890.19h24.47a1.77,1.77,0,0,1,1.77,1.77v32a.17.17,0,0,1-.17.17h-27.43a.17.17,0,0,1-.17-.17V891.73A1.54,1.54,0,0,1,1661.14,890.19Z"/><path class="cls-13" d="M1659.61,923.58h27.78a0,0,0,0,1,0,0v15.18a1.42,1.42,0,0,1-1.42,1.42H1661a1.42,1.42,0,0,1-1.42-1.42V923.58A0,0,0,0,1,1659.61,923.58Z"/><path class="cls-1" d="M1614.11,828.35h24.47a1.77,1.77,0,0,1,1.77,1.77v32a.17.17,0,0,1-.17.17h-27.43a.17.17,0,0,1-.17-.17V829.88a1.54,1.54,0,0,1,1.54-1.54Z"/><path class="cls-13" d="M1612.57,861.74h27.78a0,0,0,0,1,0,0v15.18a1.42,1.42,0,0,1-1.42,1.42H1614a1.42,1.42,0,0,1-1.42-1.42V861.74A0,0,0,0,1,1612.57,861.74Z"/><path class="cls-1" d="M1660.47,828.4h24.47a1.77,1.77,0,0,1,1.77,1.77v32a.17.17,0,0,1-.17.17H1659.1a.17.17,0,0,1-.17-.17V829.94A1.54,1.54,0,0,1,1660.47,828.4Z"/><path class="cls-13" d="M1658.93,861.8h27.78a0,0,0,0,1,0,0V877a1.42,1.42,0,0,1-1.42,1.42h-24.94a1.42,1.42,0,0,1-1.42-1.42V861.8A0,0,0,0,1,1658.93,861.8Z"/><path class="cls-10" d="M1443,1074.14h47.8a0,0,0,0,1,0,0v93.74a0,0,0,0,1,0,0h-49.67a0,0,0,0,1,0,0V1076A1.86,1.86,0,0,1,1443,1074.14Z"/><path class="cls-10" d="M1562.68,1192.14h49.67a0,0,0,0,1,0,0v93.74a0,0,0,0,1,0,0h-47.8a1.86,1.86,0,0,1-1.86-1.86v-91.9A0,0,0,0,1,1562.68,1192.14Z" transform="translate(3103.04 2360.04) rotate(180)"/><path class="cls-11" d="M1496.71,1080.66h35.54a1.51,1.51,0,0,1,1.51,1.51v77.71a1.28,1.28,0,0,1-1.28,1.28h-35.78a1.28,1.28,0,0,1-1.28-1.28v-77.95A1.28,1.28,0,0,1,1496.71,1080.66Z"/><path class="cls-11" d="M1448.93,1080.79h35.54a1.51,1.51,0,0,1,1.51,1.51V1160a1.28,1.28,0,0,1-1.28,1.28h-35.78a1.28,1.28,0,0,1-1.28-1.28v-77.95A1.28,1.28,0,0,1,1448.93,1080.79Z"/><path class="cls-1" d="M1402.08,567.66h24.47a1.77,1.77,0,0,1,1.77,1.77v32a.17.17,0,0,1-.17.17h-27.43a.17.17,0,0,1-.17-.17V569.2A1.54,1.54,0,0,1,1402.08,567.66Z"/><path class="cls-13" d="M1400.55,601.06h27.78a0,0,0,0,1,0,0v15.18a1.42,1.42,0,0,1-1.42,1.42H1402a1.42,1.42,0,0,1-1.42-1.42V601.06A0,0,0,0,1,1400.55,601.06Z"/><path class="cls-1" d="M1448.44,567.72h24.47a1.77,1.77,0,0,1,1.77,1.77v32a.17.17,0,0,1-.17.17h-27.43a.17.17,0,0,1-.17-.17V569.26a1.54,1.54,0,0,1,1.54-1.54Z"/><path class="cls-13" d="M1446.9,601.12h27.78a0,0,0,0,1,0,0V616.3a1.42,1.42,0,0,1-1.42,1.42h-24.94a1.42,1.42,0,0,1-1.42-1.42V601.12A0,0,0,0,1,1446.9,601.12Z"/><path class="cls-1" d="M1401.41,505.88h24.47a1.77,1.77,0,0,1,1.77,1.77v32a.17.17,0,0,1-.17.17H1400a.17.17,0,0,1-.17-.17V507.42a1.54,1.54,0,0,1,1.54-1.54Z"/><path class="cls-13" d="M1399.86,539.28h27.78a0,0,0,0,1,0,0v15.18a1.42,1.42,0,0,1-1.42,1.42h-24.94a1.42,1.42,0,0,1-1.42-1.42V539.28A0,0,0,0,1,1399.86,539.28Z"/><path class="cls-1" d="M1447.76,505.94h24.47a1.77,1.77,0,0,1,1.77,1.77v32a.17.17,0,0,1-.17.17H1446.4a.17.17,0,0,1-.17-.17V507.48a1.54,1.54,0,0,1,1.54-1.54Z"/><path class="cls-13" d="M1446.22,539.33H1474a0,0,0,0,1,0,0v15.18a1.42,1.42,0,0,1-1.42,1.42h-24.94a1.42,1.42,0,0,1-1.42-1.42V539.33A0,0,0,0,1,1446.22,539.33Z"/><path class="cls-1" d="M1509.57,566.41H1534a1.77,1.77,0,0,1,1.77,1.77v32a.17.17,0,0,1-.17.17H1508.2a.17.17,0,0,1-.17-.17V568A1.54,1.54,0,0,1,1509.57,566.41Z"/><path class="cls-13" d="M1508,599.81h27.78a0,0,0,0,1,0,0V615a1.42,1.42,0,0,1-1.42,1.42h-24.94A1.42,1.42,0,0,1,1508,615V599.81A0,0,0,0,1,1508,599.81Z"/><path class="cls-1" d="M1555.92,566.47h24.47a1.77,1.77,0,0,1,1.77,1.77v32a.17.17,0,0,1-.17.17h-27.43a.17.17,0,0,1-.17-.17V568A1.54,1.54,0,0,1,1555.92,566.47Z"/><path class="cls-13" d="M1554.38,599.87h27.78a0,0,0,0,1,0,0v15.18a1.42,1.42,0,0,1-1.42,1.42H1555.8a1.42,1.42,0,0,1-1.42-1.42V599.87A0,0,0,0,1,1554.38,599.87Z"/><path class="cls-11" d="M1508.89,504.63h24.47a1.77,1.77,0,0,1,1.77,1.77v32a.17.17,0,0,1-.17.17h-27.43a.17.17,0,0,1-.17-.17V506.17a1.54,1.54,0,0,1,1.54-1.54Z"/><path class="cls-13" d="M1507.35,538h27.78a0,0,0,0,1,0,0v15.18a1.42,1.42,0,0,1-1.42,1.42h-24.94a1.42,1.42,0,0,1-1.42-1.42V538A0,0,0,0,1,1507.35,538Z"/><path class="cls-11" d="M1555.24,504.69h24.47a1.77,1.77,0,0,1,1.77,1.77v32a.17.17,0,0,1-.17.17h-27.43a.17.17,0,0,1-.17-.17V506.23a1.54,1.54,0,0,1,1.54-1.54Z"/><path class="cls-13" d="M1553.71,538.09h27.78a0,0,0,0,1,0,0v15.18a1.42,1.42,0,0,1-1.42,1.42h-24.94a1.42,1.42,0,0,1-1.42-1.42V538.09A0,0,0,0,1,1553.71,538.09Z"/><path class="cls-1" d="M1404.46,1074.16h24.47a1.77,1.77,0,0,1,1.77,1.77v32a.17.17,0,0,1-.17.17H1403.1a.17.17,0,0,1-.17-.17V1075.7a1.54,1.54,0,0,1,1.54-1.54Z"/><path class="cls-10" d="M1402.92,1107.55h27.78a0,0,0,0,1,0,0v15.18a1.42,1.42,0,0,1-1.42,1.42h-24.94a1.42,1.42,0,0,1-1.42-1.42v-15.18A0,0,0,0,1,1402.92,1107.55Z"/><path class="cls-1" d="M1404.46,1012.16h24.47a1.77,1.77,0,0,1,1.77,1.77v32a.17.17,0,0,1-.17.17H1403.1a.17.17,0,0,1-.17-.17V1013.7a1.54,1.54,0,0,1,1.54-1.54Z"/><path class="cls-10" d="M1402.92,1045.55h27.78a0,0,0,0,1,0,0v15.18a1.42,1.42,0,0,1-1.42,1.42h-24.94a1.42,1.42,0,0,1-1.42-1.42v-15.18A0,0,0,0,1,1402.92,1045.55Z"/><path class="cls-1" d="M1450.82,1012.22h24.47a1.77,1.77,0,0,1,1.77,1.77v32a.17.17,0,0,1-.17.17h-27.43a.17.17,0,0,1-.17-.17v-32.27a1.54,1.54,0,0,1,1.54-1.54Z"/><path class="cls-10" d="M1449.28,1045.61h27.78a0,0,0,0,1,0,0v15.18a1.42,1.42,0,0,1-1.42,1.42H1450.7a1.42,1.42,0,0,1-1.42-1.42v-15.18A0,0,0,0,1,1449.28,1045.61Z"/><path class="cls-11" d="M1403.78,950.38h24.47a1.77,1.77,0,0,1,1.77,1.77v32a.17.17,0,0,1-.17.17h-27.43a.17.17,0,0,1-.17-.17V951.91A1.54,1.54,0,0,1,1403.78,950.38Z"/><path class="cls-10" d="M1402.25,983.77H1430a0,0,0,0,1,0,0V999a1.42,1.42,0,0,1-1.42,1.42h-24.94a1.42,1.42,0,0,1-1.42-1.42V983.77A0,0,0,0,1,1402.25,983.77Z"/><path class="cls-1" d="M1450.14,950.43h24.47a1.77,1.77,0,0,1,1.77,1.77v32a.17.17,0,0,1-.17.17h-27.43a.17.17,0,0,1-.17-.17V952a1.54,1.54,0,0,1,1.54-1.54Z"/><path class="cls-10" d="M1448.6,983.83h27.78a0,0,0,0,1,0,0V999a1.42,1.42,0,0,1-1.42,1.42H1450a1.42,1.42,0,0,1-1.42-1.42V983.83A0,0,0,0,1,1448.6,983.83Z"/><path class="cls-1" d="M1404.11,888.15h24.47a1.77,1.77,0,0,1,1.77,1.77v32a.17.17,0,0,1-.17.17h-27.43a.17.17,0,0,1-.17-.17V889.69A1.54,1.54,0,0,1,1404.11,888.15Z"/><path class="cls-10" d="M1402.57,921.54h27.78a0,0,0,0,1,0,0v15.18a1.42,1.42,0,0,1-1.42,1.42H1404a1.42,1.42,0,0,1-1.42-1.42V921.54A0,0,0,0,1,1402.57,921.54Z"/><path class="cls-11" d="M1450.47,888.21h24.47a1.77,1.77,0,0,1,1.77,1.77v32a.17.17,0,0,1-.17.17H1449.1a.17.17,0,0,1-.17-.17V889.74a1.54,1.54,0,0,1,1.54-1.54Z"/><path class="cls-10" d="M1448.93,921.6h27.78a0,0,0,0,1,0,0v15.18a1.42,1.42,0,0,1-1.42,1.42h-24.94a1.42,1.42,0,0,1-1.42-1.42V921.6A0,0,0,0,1,1448.93,921.6Z"/><path class="cls-11" d="M1403.43,826.37h24.47a1.77,1.77,0,0,1,1.77,1.77v32a.17.17,0,0,1-.17.17h-27.43a.17.17,0,0,1-.17-.17V827.9a1.54,1.54,0,0,1,1.54-1.54Z"/><path class="cls-10" d="M1401.9,859.76h27.78a0,0,0,0,1,0,0v15.18a1.42,1.42,0,0,1-1.42,1.42h-24.94a1.42,1.42,0,0,1-1.42-1.42V859.76A0,0,0,0,1,1401.9,859.76Z"/><path class="cls-1" d="M1449.79,826.42h24.47a1.77,1.77,0,0,1,1.77,1.77v32a.17.17,0,0,1-.17.17h-27.43a.17.17,0,0,1-.17-.17V828a1.54,1.54,0,0,1,1.54-1.54Z"/><path class="cls-10" d="M1448.25,859.82H1476a0,0,0,0,1,0,0V875a1.42,1.42,0,0,1-1.42,1.42h-24.94a1.42,1.42,0,0,1-1.42-1.42V859.82A0,0,0,0,1,1448.25,859.82Z"/><path class="cls-1" d="M1403.06,764.22h24.47a1.77,1.77,0,0,1,1.77,1.77v32a.17.17,0,0,1-.17.17h-27.43a.17.17,0,0,1-.17-.17V765.76a1.54,1.54,0,0,1,1.54-1.54Z"/><path class="cls-10" d="M1401.52,797.62h27.78a0,0,0,0,1,0,0V812.8a1.42,1.42,0,0,1-1.42,1.42h-24.94a1.42,1.42,0,0,1-1.42-1.42V797.62A0,0,0,0,1,1401.52,797.62Z"/><path class="cls-1" d="M1449.41,764.28h24.47a1.77,1.77,0,0,1,1.77,1.77v32a.17.17,0,0,1-.17.17H1448a.17.17,0,0,1-.17-.17V765.82A1.54,1.54,0,0,1,1449.41,764.28Z"/><path class="cls-10" d="M1447.88,797.68h27.78a0,0,0,0,1,0,0v15.18a1.42,1.42,0,0,1-1.42,1.42H1449.3a1.42,1.42,0,0,1-1.42-1.42V797.68A0,0,0,0,1,1447.88,797.68Z"/><path class="cls-1" d="M1403.39,702h24.47a1.77,1.77,0,0,1,1.77,1.77v32a.17.17,0,0,1-.17.17H1402a.17.17,0,0,1-.17-.17V703.53A1.54,1.54,0,0,1,1403.39,702Z"/><path class="cls-10" d="M1401.85,735.39h27.78a0,0,0,0,1,0,0v15.18a1.42,1.42,0,0,1-1.42,1.42h-24.94a1.42,1.42,0,0,1-1.42-1.42V735.39A0,0,0,0,1,1401.85,735.39Z"/><path class="cls-11" d="M1449.74,702.05h24.47a1.77,1.77,0,0,1,1.77,1.77v32a.17.17,0,0,1-.17.17h-27.43a.17.17,0,0,1-.17-.17V703.59A1.54,1.54,0,0,1,1449.74,702.05Z"/><path class="cls-10" d="M1448.21,735.45H1476a0,0,0,0,1,0,0v15.18a1.42,1.42,0,0,1-1.42,1.42h-24.94a1.42,1.42,0,0,1-1.42-1.42V735.45A0,0,0,0,1,1448.21,735.45Z"/><path class="cls-1" d="M1402.71,640.21h24.47A1.77,1.77,0,0,1,1429,642v32a.17.17,0,0,1-.17.17h-27.43a.17.17,0,0,1-.17-.17V641.75A1.54,1.54,0,0,1,1402.71,640.21Z"/><path class="cls-11" d="M1449.06,640.27h24.47a1.77,1.77,0,0,1,1.77,1.77v32a.17.17,0,0,1-.17.17H1447.7a.17.17,0,0,1-.17-.17V641.81A1.54,1.54,0,0,1,1449.06,640.27Z"/><path class="cls-10" d="M1447.53,673.67h27.78a0,0,0,0,1,0,0v15.18a1.42,1.42,0,0,1-1.42,1.42h-24.94a1.42,1.42,0,0,1-1.42-1.42V673.67A0,0,0,0,1,1447.53,673.67Z"/><path class="cls-10" d="M1401,673.54h27.78a0,0,0,0,1,0,0v15.18a1.42,1.42,0,0,1-1.42,1.42h-24.94a1.42,1.42,0,0,1-1.42-1.42V673.54A0,0,0,0,1,1401,673.54Z"/><path class="cls-1" d="M1357,702.48h24.47a1.77,1.77,0,0,1,1.77,1.77v32a.17.17,0,0,1-.17.17h-27.43a.17.17,0,0,1-.17-.17V704a1.54,1.54,0,0,1,1.54-1.54Z"/><path class="cls-10" d="M1355.46,735.87h27.78a0,0,0,0,1,0,0v15.18a1.42,1.42,0,0,1-1.42,1.42h-24.94a1.42,1.42,0,0,1-1.42-1.42V735.87A0,0,0,0,1,1355.46,735.87Z"/><path class="cls-1" d="M1356.32,640.7h24.47a1.77,1.77,0,0,1,1.77,1.77v32a.17.17,0,0,1-.17.17H1355a.17.17,0,0,1-.17-.17V642.23a1.54,1.54,0,0,1,1.54-1.54Z"/><path class="cls-10" d="M1354.61,674h27.78a0,0,0,0,1,0,0v15.18a1.42,1.42,0,0,1-1.42,1.42H1356a1.42,1.42,0,0,1-1.42-1.42V674A0,0,0,0,1,1354.61,674Z"/><path class="cls-11" d="M1623.39,1192.11h27.43a.17.17,0,0,1,.17.17v32a1.77,1.77,0,0,1-1.77,1.77h-24.47a1.54,1.54,0,0,1-1.54-1.54v-32.27A.17.17,0,0,1,1623.39,1192.11Z" transform="translate(3202.22 2300.2) rotate(180)"/><path class="cls-10" d="M1624.64,1225.51h24.94a1.42,1.42,0,0,1,1.42,1.42v15.18a0,0,0,0,1,0,0h-27.78a0,0,0,0,1,0,0v-15.18a1.42,1.42,0,0,1,1.42-1.42Z" transform="translate(3202.22 2349.62) rotate(-180)"/><path class="cls-1" d="M1623.41,1130.11h27.43a.17.17,0,0,1,.17.17v32a1.77,1.77,0,0,1-1.77,1.77h-24.47a1.54,1.54,0,0,1-1.54-1.54v-32.27A.17.17,0,0,1,1623.41,1130.11Z" transform="translate(3202.25 2176.2) rotate(180)"/><path class="cls-10" d="M1624.64,1163.51h24.94a1.42,1.42,0,0,1,1.42,1.42v15.18a0,0,0,0,1,0,0h-27.78a0,0,0,0,1,0,0v-15.18A1.42,1.42,0,0,1,1624.64,1163.51Z" transform="translate(3202.22 2225.62) rotate(-180)"/><path class="cls-1" d="M1577,1130.17h27.43a.17.17,0,0,1,.17.17v32a1.77,1.77,0,0,1-1.77,1.77H1578.4a1.54,1.54,0,0,1-1.54-1.54v-32.27A.17.17,0,0,1,1577,1130.17Z" transform="translate(3109.51 2176.31) rotate(180)"/><path class="cls-10" d="M1578.28,1163.57h24.94a1.42,1.42,0,0,1,1.42,1.42v15.18a0,0,0,0,1,0,0h-27.78a0,0,0,0,1,0,0V1165A1.42,1.42,0,0,1,1578.28,1163.57Z" transform="translate(3109.51 2225.74) rotate(-180)"/><path class="cls-1" d="M1624.07,1068.33h27.43a.17.17,0,0,1,.17.17v32a1.77,1.77,0,0,1-1.77,1.77h-24.47a1.54,1.54,0,0,1-1.54-1.54V1068.5A.17.17,0,0,1,1624.07,1068.33Z" transform="translate(3203.58 2052.64) rotate(180)"/><path class="cls-10" d="M1625.32,1101.73h24.94a1.42,1.42,0,0,1,1.42,1.42v15.18a0,0,0,0,1,0,0H1623.9a0,0,0,0,1,0,0v-15.18A1.42,1.42,0,0,1,1625.32,1101.73Z" transform="translate(3203.58 2102.06) rotate(-180)"/><path class="cls-1" d="M1577.72,1068.39h27.43a.17.17,0,0,1,.17.17v32a1.77,1.77,0,0,1-1.77,1.77h-24.47a1.54,1.54,0,0,1-1.54-1.54v-32.27A.17.17,0,0,1,1577.72,1068.39Z" transform="translate(3110.88 2052.77) rotate(180)"/><path class="cls-10" d="M1579,1101.78h24.94a1.42,1.42,0,0,1,1.42,1.42v15.18a0,0,0,0,1,0,0h-27.78a0,0,0,0,1,0,0V1103.2A1.42,1.42,0,0,1,1579,1101.78Z" transform="translate(3110.87 2102.17) rotate(-180)"/><path class="cls-1" d="M1623.74,1006.1h27.43a.17.17,0,0,1,.17.17v32a1.77,1.77,0,0,1-1.77,1.77h-24.47a1.54,1.54,0,0,1-1.54-1.54v-32.27A.17.17,0,0,1,1623.74,1006.1Z" transform="translate(3202.92 1928.18) rotate(180)"/><path class="cls-10" d="M1625,1039.5h24.94a1.42,1.42,0,0,1,1.42,1.42v15.18a0,0,0,0,1,0,0h-27.78a0,0,0,0,1,0,0v-15.18a1.42,1.42,0,0,1,1.42-1.42Z" transform="translate(3202.92 1977.6) rotate(-180)"/><path class="cls-11" d="M1577.39,1006.16h27.43a.17.17,0,0,1,.17.17v32a1.77,1.77,0,0,1-1.77,1.77h-24.47a1.54,1.54,0,0,1-1.54-1.54v-32.27A.17.17,0,0,1,1577.39,1006.16Z" transform="translate(3110.2 1928.3) rotate(180)"/><path class="cls-10" d="M1578.63,1039.56h24.94A1.42,1.42,0,0,1,1605,1041v15.18a0,0,0,0,1,0,0h-27.78a0,0,0,0,1,0,0V1041a1.42,1.42,0,0,1,1.42-1.42Z" transform="translate(3110.21 1977.72) rotate(-180)"/><path class="cls-1" d="M1624.45,944.3h27.43a.17.17,0,0,1,.17.17v32a1.77,1.77,0,0,1-1.77,1.77h-24.47a1.54,1.54,0,0,1-1.54-1.54V944.47A.17.17,0,0,1,1624.45,944.3Z" transform="translate(3204.34 1804.59) rotate(180)"/><path class="cls-10" d="M1625.67,977.71h24.94a1.42,1.42,0,0,1,1.42,1.42v15.18a0,0,0,0,1,0,0h-27.78a0,0,0,0,1,0,0V979.13a1.42,1.42,0,0,1,1.42-1.42Z" transform="translate(3204.28 1854.03) rotate(-180)"/><path class="cls-1" d="M1578.07,944.37h27.43a.17.17,0,0,1,.17.17v32a1.77,1.77,0,0,1-1.77,1.77h-24.47a1.54,1.54,0,0,1-1.54-1.54V944.55A.17.17,0,0,1,1578.07,944.37Z" transform="translate(3111.58 1804.73) rotate(180)"/><path class="cls-10" d="M1579.31,977.77h24.94a1.42,1.42,0,0,1,1.42,1.42v15.18a0,0,0,0,1,0,0h-27.78a0,0,0,0,1,0,0V979.19a1.42,1.42,0,0,1,1.42-1.42Z" transform="translate(3111.57 1854.15) rotate(-180)"/><path class="cls-11" d="M1624.8,882.18h27.43a.17.17,0,0,1,.17.17v32a1.77,1.77,0,0,1-1.77,1.77h-24.47a1.54,1.54,0,0,1-1.54-1.54V882.35A.17.17,0,0,1,1624.8,882.18Z" transform="translate(3205.04 1680.34) rotate(180)"/><path class="cls-10" d="M1626,915.57H1651a1.42,1.42,0,0,1,1.42,1.42v15.18a0,0,0,0,1,0,0h-27.78a0,0,0,0,1,0,0V917A1.42,1.42,0,0,1,1626,915.57Z" transform="translate(3205.03 1729.75) rotate(-180)"/><path class="cls-1" d="M1578.44,882.23h27.43a.17.17,0,0,1,.17.17v32a1.77,1.77,0,0,1-1.77,1.77h-24.47a1.54,1.54,0,0,1-1.54-1.54V882.4A.17.17,0,0,1,1578.44,882.23Z" transform="translate(3112.32 1680.45) rotate(180)"/><path class="cls-10" d="M1579.69,915.63h24.94a1.42,1.42,0,0,1,1.42,1.42v15.18a0,0,0,0,1,0,0h-27.78a0,0,0,0,1,0,0V917.05A1.42,1.42,0,0,1,1579.69,915.63Z" transform="translate(3112.31 1729.87) rotate(-180)"/><path class="cls-1" d="M1624.47,820h27.43a.17.17,0,0,1,.17.17v32a1.77,1.77,0,0,1-1.77,1.77h-24.47a1.54,1.54,0,0,1-1.54-1.54V820.13A.17.17,0,0,1,1624.47,820Z" transform="translate(3204.38 1555.89) rotate(180)"/><path class="cls-10" d="M1625.71,853.34h24.94a1.42,1.42,0,0,1,1.42,1.42v15.18a0,0,0,0,1,0,0h-27.78a0,0,0,0,1,0,0V854.76A1.42,1.42,0,0,1,1625.71,853.34Z" transform="translate(3204.37 1605.29) rotate(-180)"/><path class="cls-1" d="M1578.11,820h27.43a.17.17,0,0,1,.17.17v32A1.77,1.77,0,0,1,1604,854h-24.47a1.54,1.54,0,0,1-1.54-1.54V820.18a.17.17,0,0,1,.17-.17Z" transform="translate(3111.66 1556) rotate(180)"/><path class="cls-10" d="M1579.36,853.4h24.94a1.42,1.42,0,0,1,1.42,1.42V870a0,0,0,0,1,0,0h-27.78a0,0,0,0,1,0,0V854.82A1.42,1.42,0,0,1,1579.36,853.4Z" transform="translate(3111.66 1605.41) rotate(-180)"/><path class="cls-1" d="M1625.14,758.17h27.43a.17.17,0,0,1,.17.17v32a1.77,1.77,0,0,1-1.77,1.77h-24.47a1.54,1.54,0,0,1-1.54-1.54V758.34A.17.17,0,0,1,1625.14,758.17Z" transform="translate(3205.72 1432.32) rotate(180)"/><path class="cls-1" d="M1578.79,758.23h27.43a.17.17,0,0,1,.17.17v32a1.77,1.77,0,0,1-1.77,1.77h-24.47a1.54,1.54,0,0,1-1.54-1.54V758.41A.17.17,0,0,1,1578.79,758.23Z" transform="translate(3113.02 1432.45) rotate(180)"/><path class="cls-10" d="M1580,791.62H1605a1.42,1.42,0,0,1,1.42,1.42v15.18a0,0,0,0,1,0,0h-27.78a0,0,0,0,1,0,0V793A1.42,1.42,0,0,1,1580,791.62Z" transform="translate(3113.01 1481.84) rotate(180)"/><path class="cls-10" d="M1626.57,791.49h24.94a1.42,1.42,0,0,1,1.42,1.42V808.1a0,0,0,0,1,0,0h-27.78a0,0,0,0,1,0,0V792.91a1.42,1.42,0,0,1,1.42-1.42Z" transform="translate(3206.07 1481.59) rotate(-180)"/><path class="cls-11" d="M1670.85,820.42h27.43a.17.17,0,0,1,.17.17v32a1.77,1.77,0,0,1-1.77,1.77h-24.47a1.54,1.54,0,0,1-1.54-1.54V820.6A.17.17,0,0,1,1670.85,820.42Z" transform="translate(3297.14 1556.83) rotate(180)"/><path class="cls-10" d="M1672.1,853.83H1697a1.42,1.42,0,0,1,1.42,1.42v15.18a0,0,0,0,1,0,0h-27.78a0,0,0,0,1,0,0V855.25A1.42,1.42,0,0,1,1672.1,853.83Z" transform="translate(3297.14 1606.26) rotate(-180)"/><path class="cls-1" d="M1671.56,758.63H1699a.17.17,0,0,1,.17.17v32a1.77,1.77,0,0,1-1.77,1.77h-24.47a1.54,1.54,0,0,1-1.54-1.54V758.81A.17.17,0,0,1,1671.56,758.63Z" transform="translate(3298.56 1433.25) rotate(180)"/><path class="cls-10" d="M1673,792h24.94a1.42,1.42,0,0,1,1.42,1.42v15.18a0,0,0,0,1,0,0h-27.78a0,0,0,0,1,0,0V793.4A1.42,1.42,0,0,1,1673,792Z" transform="translate(3298.85 1482.56) rotate(-180)"/></g><g id="Hochhaus_Nacht_3_Kopie_2_Kopie" data-name="Hochhaus Nacht 3 Kopie 2 Kopie"><path class="cls-15" d="M1560.89,851.44a8.46,8.46,0,0,0-8.55-8.36H1472V1282h88.89V866.55h0Z" transform="translate(-72 -118)"/><rect class="cls-14" x="1160.92" y="749.46" width="282" height="424.78"/><path class="cls-10" d="M1283.11,1112.24h36.42a2.19,2.19,0,0,1,2.19,2.19v65.79a0,0,0,0,1,0,0h-40.76a0,0,0,0,1,0,0v-65.79A2.19,2.19,0,0,1,1283.11,1112.24Z"/><rect class="cls-11" x="1286.26" y="1118.15" width="30.4" height="56.17" rx="0.95"/><rect class="cls-10" x="1390.92" y="1111.46" width="32" height="46" rx="2.19"/><rect class="cls-1" x="1394.92" y="1115.46" width="24" height="38" rx="0.95"/><path class="cls-13" d="M1165.2,725.46h273.45a4.28,4.28,0,0,1,4.28,4.28v19.72a0,0,0,0,1,0,0H1161a0,0,0,0,1,0,0V729.74A4.28,4.28,0,0,1,1165.2,725.46Z"/><rect class="cls-10" x="1338.92" y="1111.46" width="32" height="46" rx="2.19"/><rect class="cls-1" x="1342.92" y="1115.46" width="24" height="38" rx="0.95"/><rect class="cls-10" x="1232.92" y="1111.46" width="32" height="46" rx="2.19"/><rect class="cls-1" x="1236.92" y="1115.46" width="24" height="38" rx="0.95"/><rect class="cls-10" x="1180.92" y="1111.46" width="32" height="46" rx="2.19"/><rect class="cls-1" x="1184.92" y="1115.46" width="24" height="38" rx="0.95"/><rect class="cls-10" x="1390.92" y="1041.46" width="32" height="46" rx="2.19"/><rect class="cls-1" x="1394.92" y="1045.46" width="24" height="38" rx="0.95"/><rect class="cls-10" x="1338.92" y="1041.46" width="32" height="46" rx="2.19"/><rect class="cls-1" x="1342.92" y="1045.46" width="24" height="38" rx="0.95"/><rect class="cls-10" x="1232.92" y="1041.46" width="32" height="46" rx="2.19"/><rect class="cls-11" x="1236.92" y="1045.46" width="24" height="38" rx="0.95"/><rect class="cls-10" x="1180.92" y="1041.46" width="32" height="46" rx="2.19"/><rect class="cls-1" x="1184.92" y="1045.46" width="24" height="38" rx="0.95"/><rect class="cls-10" x="1284.92" y="1041.46" width="32" height="46" rx="2.19"/><rect class="cls-1" x="1288.92" y="1045.46" width="24" height="38" rx="0.95"/><rect class="cls-10" x="1390.92" y="971.46" width="32" height="46" rx="2.19"/><rect class="cls-1" x="1394.92" y="975.46" width="24" height="38" rx="0.95"/><rect class="cls-10" x="1338.92" y="971.46" width="32" height="46" rx="2.19"/><rect class="cls-1" x="1342.92" y="975.46" width="24" height="38" rx="0.95"/><rect class="cls-10" x="1232.92" y="971.46" width="32" height="46" rx="2.19"/><rect class="cls-1" x="1236.92" y="975.46" width="24" height="38" rx="0.95"/><rect class="cls-10" x="1180.92" y="971.46" width="32" height="46" rx="2.19"/><rect class="cls-1" x="1184.92" y="975.46" width="24" height="38" rx="0.95"/><rect class="cls-10" x="1284.92" y="971.46" width="32" height="46" rx="2.19"/><rect class="cls-1" x="1288.92" y="975.46" width="24" height="38" rx="0.95"/><rect class="cls-10" x="1390.92" y="901.46" width="32" height="46" rx="2.19"/><rect class="cls-1" x="1394.92" y="905.46" width="24" height="38" rx="0.95"/><rect class="cls-10" x="1338.92" y="901.46" width="32" height="46" rx="2.19"/><rect class="cls-1" x="1342.92" y="905.46" width="24" height="38" rx="0.95"/><rect class="cls-10" x="1232.92" y="901.46" width="32" height="46" rx="2.19"/><rect class="cls-1" x="1236.92" y="905.46" width="24" height="38" rx="0.95"/><rect class="cls-10" x="1180.92" y="901.46" width="32" height="46" rx="2.19"/><rect class="cls-1" x="1184.92" y="905.46" width="24" height="38" rx="0.95"/><rect class="cls-10" x="1284.92" y="901.46" width="32" height="46" rx="2.19"/><rect class="cls-11" x="1288.92" y="905.46" width="24" height="38" rx="0.95"/><rect class="cls-10" x="1390.92" y="831.46" width="32" height="46" rx="2.19"/><rect class="cls-11" x="1394.92" y="835.46" width="24" height="38" rx="0.95"/><rect class="cls-10" x="1338.92" y="831.46" width="32" height="46" rx="2.19"/><rect class="cls-11" x="1342.92" y="835.46" width="24" height="38" rx="0.95"/><rect class="cls-10" x="1232.92" y="831.46" width="32" height="46" rx="2.19"/><rect class="cls-1" x="1236.92" y="835.46" width="24" height="38" rx="0.95"/><rect class="cls-10" x="1180.92" y="831.46" width="32" height="46" rx="2.19"/><rect class="cls-1" x="1184.92" y="835.46" width="24" height="38" rx="0.95"/><rect class="cls-10" x="1284.92" y="831.46" width="32" height="46" rx="2.19"/><rect class="cls-1" x="1288.92" y="835.46" width="24" height="38" rx="0.95"/><rect class="cls-10" x="1390.92" y="761.46" width="32" height="46" rx="2.19"/><rect class="cls-1" x="1394.92" y="765.46" width="24" height="38" rx="0.95"/><rect class="cls-10" x="1338.92" y="761.46" width="32" height="46" rx="2.19"/><rect class="cls-1" x="1342.92" y="765.46" width="24" height="38" rx="0.95"/><rect class="cls-10" x="1232.92" y="761.46" width="32" height="46" rx="2.19"/><rect class="cls-11" x="1236.92" y="765.46" width="24" height="38" rx="0.95"/><rect class="cls-10" x="1180.92" y="761.46" width="32" height="46" rx="2.19"/><rect class="cls-1" x="1184.92" y="765.46" width="24" height="38" rx="0.95"/><rect class="cls-10" x="1284.92" y="761.46" width="32" height="46" rx="2.19"/><rect class="cls-1" x="1288.92" y="765.46" width="24" height="38" rx="0.95"/><path class="cls-13" d="M1160.92,817.46h282a0,0,0,0,1,0,0v6a0,0,0,0,1,0,0h-282a0,0,0,0,1,0,0v-6A0,0,0,0,1,1160.92,817.46Z"/><path class="cls-13" d="M1160.92,887.46h282a0,0,0,0,1,0,0v6a0,0,0,0,1,0,0h-282a0,0,0,0,1,0,0v-6A0,0,0,0,1,1160.92,887.46Z"/><path class="cls-13" d="M1160.92,957.46h282a0,0,0,0,1,0,0v6a0,0,0,0,1,0,0h-282a0,0,0,0,1,0,0v-6A0,0,0,0,1,1160.92,957.46Z"/><path class="cls-13" d="M1160.92,1027.46h282a0,0,0,0,1,0,0v6a0,0,0,0,1,0,0h-282a0,0,0,0,1,0,0v-6A0,0,0,0,1,1160.92,1027.46Z"/><path class="cls-13" d="M1160.92,1097.46h282a0,0,0,0,1,0,0v6a0,0,0,0,1,0,0h-282a0,0,0,0,1,0,0v-6A0,0,0,0,1,1160.92,1097.46Z"/></g><g id="Hochhaus_Nacht_1_Kopie_2_Kopie" data-name="Hochhaus Nacht 1 Kopie 2 Kopie"><path class="cls-15" d="M860.67,794v3.76h-7.24a6.76,6.76,0,0,0-6.76,6.76V825a6.76,6.76,0,0,0,6.76,6.76h7.24v28h-7.24a6.76,6.76,0,0,0-6.76,6.76V887a6.76,6.76,0,0,0,6.76,6.76h7.24v28h-7.24a6.76,6.76,0,0,0-6.76,6.76V949a6.76,6.76,0,0,0,6.76,6.76h7.24v28h-7.24a6.76,6.76,0,0,0-6.76,6.76V1011a6.76,6.76,0,0,0,6.76,6.76h7.24v28h-7.24a6.76,6.76,0,0,0-6.76,6.76V1073a6.76,6.76,0,0,0,6.76,6.76h7.24v28h-7.24a6.76,6.76,0,0,0-6.76,6.76V1135a6.76,6.76,0,0,0,6.76,6.76h7.24v32h-7.24a6.76,6.76,0,0,0-6.76,6.76V1215a6.76,6.76,0,0,0,6.76,6.76h7.24v34.94H952v45.06h18V794Z" transform="translate(-72 -118)"/><path class="cls-15" d="M1245,1292.2h103V1222h7.24a6.76,6.76,0,0,0,6.76-6.76v-34.48a6.76,6.76,0,0,0-6.76-6.76H1348v-32h7.24a6.76,6.76,0,0,0,6.76-6.76v-20.48a6.76,6.76,0,0,0-6.76-6.76H1348v-28h7.24a6.76,6.76,0,0,0,6.76-6.76v-20.48a6.76,6.76,0,0,0-6.76-6.76H1348v-28h7.24a6.76,6.76,0,0,0,6.76-6.76V990.76a6.76,6.76,0,0,0-6.76-6.76H1348V956h7.24a6.76,6.76,0,0,0,6.76-6.76V928.76a6.76,6.76,0,0,0-6.76-6.76H1348V894h7.24a6.76,6.76,0,0,0,6.76-6.76V866.76a6.76,6.76,0,0,0-6.76-6.76H1348V843.46H1226V1302h19Z" transform="translate(-72 -118)"/><rect class="cls-5" x="834.03" y="550.49" width="394" height="634"/><rect class="cls-10" x="848.03" y="848.49" width="60" height="46" rx="2.19"/><rect class="cls-1" x="852.03" y="852.49" width="24" height="38" rx="0.95"/><rect class="cls-1" x="880.03" y="852.49" width="24" height="38" rx="0.95"/><rect class="cls-10" x="848.03" y="784.49" width="60" height="46" rx="2.19"/><rect class="cls-1" x="852.03" y="788.49" width="24" height="38" rx="0.95"/><rect class="cls-1" x="880.03" y="788.49" width="24" height="38" rx="0.95"/><rect class="cls-10" x="952.03" y="720.49" width="60" height="46" rx="2.19"/><rect class="cls-1" x="956.03" y="724.49" width="24" height="38" rx="0.95"/><rect class="cls-1" x="984.03" y="724.49" width="24" height="38" rx="0.95"/><rect class="cls-10" x="952.03" y="658.49" width="60" height="46" rx="2.19"/><rect class="cls-1" x="956.03" y="662.49" width="24" height="38" rx="0.95"/><rect class="cls-1" x="984.03" y="662.49" width="24" height="38" rx="0.95"/><rect class="cls-10" x="952.03" y="844.49" width="60" height="46" rx="2.19"/><rect class="cls-1" x="956.03" y="848.49" width="24" height="38" rx="0.95"/><rect class="cls-1" x="984.03" y="848.49" width="24" height="38" rx="0.95"/><rect class="cls-10" x="952.03" y="782.49" width="60" height="46" rx="2.19"/><rect class="cls-1" x="956.03" y="786.49" width="24" height="38" rx="0.95"/><rect class="cls-1" x="984.03" y="786.49" width="24" height="38" rx="0.95"/><rect class="cls-10" x="848.03" y="722.49" width="60" height="46" rx="2.19"/><rect class="cls-1" x="852.03" y="726.49" width="24" height="38" rx="0.95"/><rect class="cls-1" x="880.03" y="726.49" width="24" height="38" rx="0.95"/><rect class="cls-10" x="952.03" y="596.49" width="60" height="46" rx="2.19"/><rect class="cls-11" x="956.03" y="600.49" width="24" height="38" rx="0.95"/><rect class="cls-11" x="984.03" y="600.49" width="24" height="38" rx="0.95"/><rect class="cls-10" x="848.03" y="658.49" width="60" height="46" rx="2.19"/><rect class="cls-1" x="852.03" y="662.49" width="24" height="38" rx="0.95"/><rect class="cls-1" x="880.03" y="662.49" width="24" height="38" rx="0.95"/><rect class="cls-10" x="848.03" y="596.49" width="60" height="46" rx="2.19"/><rect class="cls-1" x="852.03" y="600.49" width="24" height="38" rx="0.95"/><rect class="cls-1" x="880.03" y="600.49" width="24" height="38" rx="0.95"/><rect class="cls-10" x="848.03" y="1036.49" width="60" height="46" rx="2.19"/><rect class="cls-1" x="852.03" y="1040.49" width="24" height="38" rx="0.95"/><rect class="cls-1" x="880.03" y="1040.49" width="24" height="38" rx="0.95"/><rect class="cls-10" x="848.03" y="974.49" width="60" height="46" rx="2.19"/><rect class="cls-1" x="852.04" y="978.49" width="24" height="38" rx="0.95"/><rect class="cls-1" x="880.03" y="978.49" width="24" height="38" rx="0.95"/><rect class="cls-10" x="848.03" y="910.49" width="60" height="46" rx="2.19"/><rect class="cls-1" x="852.03" y="914.49" width="24" height="38" rx="0.95"/><rect class="cls-1" x="880.03" y="914.49" width="24" height="38" rx="0.95"/><rect class="cls-10" x="848.03" y="848.49" width="60" height="46" rx="2.19"/><rect class="cls-11" x="852.03" y="852.49" width="24" height="38" rx="0.95"/><rect class="cls-11" x="880.03" y="852.49" width="24" height="38" rx="0.95"/><rect class="cls-10" x="951.18" y="906.97" width="60" height="46" rx="2.19"/><rect class="cls-1" x="955.18" y="910.97" width="24" height="38" rx="0.95"/><rect class="cls-1" x="983.18" y="910.97" width="24" height="38" rx="0.95"/><rect class="cls-10" x="951.18" y="1030.97" width="60" height="46" rx="2.19"/><rect class="cls-1" x="955.18" y="1034.97" width="24" height="38" rx="0.95"/><rect class="cls-1" x="983.18" y="1034.97" width="24" height="38" rx="0.95"/><rect class="cls-10" x="951.18" y="968.97" width="60" height="46" rx="2.19"/><rect class="cls-11" x="955.18" y="972.97" width="24" height="38" rx="0.95"/><rect class="cls-11" x="983.18" y="972.97" width="24" height="38" rx="0.95"/><rect class="cls-10" x="1054.02" y="720.19" width="60" height="46" rx="2.19"/><rect class="cls-11" x="1058.02" y="724.19" width="24" height="38" rx="0.95"/><rect class="cls-11" x="1086.02" y="724.19" width="24" height="38" rx="0.95"/><rect class="cls-10" x="1054.02" y="658.19" width="60" height="46" rx="2.19"/><rect class="cls-1" x="1058.02" y="662.19" width="24" height="38" rx="0.95"/><rect class="cls-1" x="1086.02" y="662.19" width="24" height="38" rx="0.95"/><rect class="cls-10" x="1054.02" y="844.19" width="60" height="46" rx="2.19"/><rect class="cls-1" x="1058.02" y="848.19" width="24" height="38" rx="0.95"/><rect class="cls-1" x="1086.02" y="848.19" width="24" height="38" rx="0.95"/><rect class="cls-10" x="1054.02" y="782.19" width="60" height="46" rx="2.19"/><rect class="cls-1" x="1058.02" y="786.19" width="24" height="38" rx="0.95"/><rect class="cls-1" x="1086.02" y="786.19" width="24" height="38" rx="0.95"/><rect class="cls-10" x="1054.02" y="596.19" width="60" height="46" rx="2.19"/><rect class="cls-1" x="1058.02" y="600.19" width="24" height="38" rx="0.95"/><rect class="cls-1" x="1086.02" y="600.19" width="24" height="38" rx="0.95"/><rect class="cls-10" x="1053.16" y="906.66" width="60" height="46" rx="2.19"/><rect class="cls-1" x="1057.16" y="910.66" width="24" height="38" rx="0.95"/><rect class="cls-1" x="1085.16" y="910.66" width="24" height="38" rx="0.95"/><rect class="cls-10" x="1053.16" y="1030.66" width="60" height="46" rx="2.19"/><rect class="cls-1" x="1057.16" y="1034.66" width="24" height="38" rx="0.95"/><rect class="cls-1" x="1085.16" y="1034.66" width="24" height="38" rx="0.95"/><rect class="cls-10" x="1053.16" y="968.66" width="60" height="46" rx="2.19"/><rect class="cls-1" x="1057.16" y="972.66" width="24" height="38" rx="0.95"/><rect class="cls-1" x="1085.16" y="972.66" width="24" height="38" rx="0.95"/><rect class="cls-14" x="820.03" y="540.49" width="422" height="48" rx="3.38"/><rect class="cls-14" x="820.03" y="1056.49" width="422" height="48" rx="3.38"/><rect class="cls-14" x="820.03" y="618.49" width="422" height="34" rx="3.38"/><rect class="cls-14" x="820.03" y="680.49" width="422" height="34" rx="3.38"/><rect class="cls-14" x="820.03" y="742.49" width="422" height="34" rx="3.38"/><rect class="cls-14" x="820.03" y="804.49" width="422" height="34" rx="3.38"/><rect class="cls-14" x="820.03" y="866.49" width="422" height="34" rx="3.38"/><rect class="cls-14" x="820.03" y="928.49" width="422" height="34" rx="3.38"/><rect class="cls-14" x="820.03" y="990.49" width="422" height="34" rx="3.38"/><path class="cls-10" d="M1133.93,452.49h86.21a7.9,7.9,0,0,1,7.9,7.9v723.56a.55.55,0,0,1-.55.55H1126.43a.39.39,0,0,1-.39-.39V460.39A7.9,7.9,0,0,1,1133.93,452.49Z"/><rect class="cls-10" x="922.03" y="540.49" width="10" height="564"/><rect class="cls-10" x="1034.03" y="540.49" width="10" height="564"/><rect class="cls-14" x="1184.03" y="596.49" width="32" height="46" rx="2.19"/><rect class="cls-1" x="1188.03" y="600.49" width="24" height="38" rx="0.95"/><rect class="cls-14" x="1184.03" y="658.49" width="32" height="46" rx="2.19"/><rect class="cls-1" x="1188.03" y="662.49" width="24" height="38" rx="0.95"/><rect class="cls-14" x="1184.03" y="720.49" width="32" height="46" rx="2.19"/><rect class="cls-11" x="1188.03" y="724.49" width="24" height="38" rx="0.95"/><rect class="cls-14" x="1184.03" y="782.49" width="32" height="46" rx="2.19"/><rect class="cls-1" x="1188.03" y="786.49" width="24" height="38" rx="0.95"/><rect class="cls-14" x="1184.03" y="844.49" width="32" height="46" rx="2.19"/><rect class="cls-1" x="1188.03" y="848.49" width="24" height="38" rx="0.95"/><rect class="cls-11" x="1184.03" y="906.49" width="32" height="46" rx="2.19"/><rect class="cls-11" x="1188.03" y="910.49" width="24" height="38" rx="0.95"/><rect class="cls-14" x="1184.03" y="968.49" width="32" height="46" rx="2.19"/><rect class="cls-1" x="1188.03" y="972.49" width="24" height="38" rx="0.95"/><rect class="cls-14" x="1184.03" y="1030.49" width="32" height="46" rx="2.19"/><rect class="cls-1" x="1188.03" y="1034.49" width="24" height="38" rx="0.95"/><path class="cls-10" d="M950.22,1120.49h71.62a2.19,2.19,0,0,1,2.19,2.19v65.79a0,0,0,0,1,0,0h-76a0,0,0,0,1,0,0v-65.79A2.19,2.19,0,0,1,950.22,1120.49Z"/><rect class="cls-11" x="953.1" y="1126.41" width="30.4" height="56.17" rx="0.95"/><rect class="cls-11" x="988.57" y="1126.41" width="30.4" height="56.17" rx="0.95"/><rect class="cls-10" x="1064.03" y="1120.49" width="32" height="46" rx="2.19"/><rect class="cls-1" x="1068.03" y="1124.49" width="24" height="38" rx="0.95"/><rect class="cls-10" x="874.03" y="1120.49" width="32" height="46" rx="2.19"/><rect class="cls-1" x="878.03" y="1124.49" width="24" height="38" rx="0.95"/></g><g id="Pappel_Nacht_Kopie_2_Kopie" data-name="Pappel Nacht Kopie 2 Kopie"><path class="cls-5" d="M301.31,1254.25c43.64-2.38,67.28-31.58,70.86-59.81,5-39.53-44.26-125-70.86-127.9Z" transform="translate(-72 -118)"/><path class="cls-10" d="M323.75,1214.57l-.14.1s-17.78,15.47-22.35,20.17l-.11,19.36a89.68,89.68,0,0,0,23.58-4.36v-34.16Z" transform="translate(-72 -118)"/><path class="cls-10" d="M301.21,1254.34c-43.64-2.38-67.28-31.59-70.86-59.81-5-39.54,44.26-125,70.86-127.91Z" transform="translate(-72 -118)"/><path class="cls-5" d="M278.29,1214.62l.14.11s17.78,15.46,22.35,20.16l.11,19.36a89.68,89.68,0,0,1-23.58-4.36v-34.16Z" transform="translate(-72 -118)"/><rect class="cls-11" x="224.29" y="1112.14" width="9.39" height="65.86"/><rect class="cls-11" x="225.7" y="1073.25" width="7.13" height="40.62" rx="0.94"/><path class="cls-11" d="M324.28,1216.83l-18.9,18.49-2.65-2.72a1.74,1.74,0,0,1,.08-2.47l17.62-17.23a1.75,1.75,0,0,1,2.48,0l1.44,1.48A1.75,1.75,0,0,1,324.28,1216.83Z" transform="translate(-72 -118)"/><path class="cls-11" d="M277.65,1217l18.67,18.25a.16.16,0,0,0,.24,0l2.6-2.67a2,2,0,0,0,.06-2.87l-17.37-17a2,2,0,0,0-2.88.14l-1.25,1.29A2,2,0,0,0,277.65,1217Z" transform="translate(-72 -118)"/><path class="cls-5" d="M1745.16,1300.17c47.93-2.62,73.89-34.69,77.82-65.69,5.5-43.41-48.61-137.27-77.82-140.46Z" transform="translate(-72 -118)"/><path class="cls-10" d="M1769.8,1256.58l-.15.12s-19.53,17-24.55,22.14l-.12,21.27a98.7,98.7,0,0,0,25.9-4.79v-37.51Z" transform="translate(-72 -118)"/><path class="cls-10" d="M1745.05,1300.26c-47.93-2.62-73.89-34.69-77.82-65.68-5.5-43.42,48.61-137.28,77.82-140.47Z" transform="translate(-72 -118)"/><path class="cls-5" d="M1719.88,1256.64l.15.12s19.53,17,24.55,22.14l.12,21.27a98.55,98.55,0,0,1-25.89-4.79v-37.52Z" transform="translate(-72 -118)"/><rect class="cls-11" x="1667.65" y="1155.69" width="10.31" height="72.33"/><rect class="cls-11" x="1669.19" y="1112.97" width="7.83" height="44.61" rx="1.03"/><path class="cls-11" d="M1770.38,1259.07l-20.76,20.3-2.9-3a1.93,1.93,0,0,1,.08-2.72l19.36-18.92a1.92,1.92,0,0,1,2.72,0l1.58,1.63A1.92,1.92,0,0,1,1770.38,1259.07Z" transform="translate(-72 -118)"/><path class="cls-11" d="M1719.18,1259.22l20.5,20a.18.18,0,0,0,.26,0l2.85-2.93a2.24,2.24,0,0,0,.08-3.15l-19.09-18.67a2.23,2.23,0,0,0-3.15.15l-1.38,1.42A2.23,2.23,0,0,0,1719.18,1259.22Z" transform="translate(-72 -118)"/><path class="cls-5" d="M1496.25,1295.52c47.92-2.61,73.88-34.69,77.81-65.68,5.5-43.42-48.6-137.27-77.81-140.47Z" transform="translate(-72 -118)"/><path class="cls-10" d="M1520.89,1251.94l-.16.12s-19.53,17-24.55,22.14l-.11,21.26a97.89,97.89,0,0,0,25.89-4.79v-37.51Z" transform="translate(-72 -118)"/><path class="cls-10" d="M1496.13,1295.61c-47.93-2.61-73.89-34.68-77.81-65.68-5.51-43.42,48.6-137.27,77.81-140.47Z" transform="translate(-72 -118)"/><path class="cls-5" d="M1471,1252l.15.12s19.54,17,24.55,22.14l.12,21.27a98.63,98.63,0,0,1-25.89-4.79v-37.51Z" transform="translate(-72 -118)"/><rect class="cls-11" x="1418.73" y="1151.04" width="10.31" height="72.33"/><rect class="cls-11" x="1420.27" y="1108.33" width="7.83" height="44.61" rx="1.03"/><path class="cls-11" d="M1521.46,1254.43l-20.75,20.3-2.91-3a1.92,1.92,0,0,1,.08-2.71l19.36-18.93a1.92,1.92,0,0,1,2.72,0l1.58,1.62A1.93,1.93,0,0,1,1521.46,1254.43Z" transform="translate(-72 -118)"/><path class="cls-11" d="M1470.26,1254.57l20.5,20a.19.19,0,0,0,.26,0l2.86-2.94a2.24,2.24,0,0,0,.07-3.15l-19.09-18.66a2.22,2.22,0,0,0-3.15.15l-1.38,1.41A2.23,2.23,0,0,0,1470.26,1254.57Z" transform="translate(-72 -118)"/><path class="cls-5" d="M1181.92,1291.06c47.93-2.62,73.89-34.69,77.82-65.69,5.5-43.41-48.61-137.27-77.82-140.47Z" transform="translate(-72 -118)"/><path class="cls-10" d="M1206.56,1247.47l-.15.12s-19.53,17-24.55,22.14l-.12,21.27a98.7,98.7,0,0,0,25.9-4.79V1248.7Z" transform="translate(-72 -118)"/><path class="cls-10" d="M1181.81,1291.15c-47.93-2.62-73.89-34.69-77.82-65.69-5.5-43.41,48.61-137.27,77.82-140.46Z" transform="translate(-72 -118)"/><path class="cls-5" d="M1156.64,1247.53l.15.12s19.53,17,24.55,22.14l.12,21.27a98.7,98.7,0,0,1-25.9-4.79v-37.52Z" transform="translate(-72 -118)"/><rect class="cls-11" x="1104.41" y="1146.58" width="10.31" height="72.33"/><rect class="cls-11" x="1105.95" y="1103.86" width="7.83" height="44.61" rx="1.03"/><path class="cls-11" d="M1207.14,1250l-20.76,20.3-2.9-3a1.93,1.93,0,0,1,.08-2.72l19.36-18.92a1.92,1.92,0,0,1,2.72,0l1.58,1.63A1.92,1.92,0,0,1,1207.14,1250Z" transform="translate(-72 -118)"/><path class="cls-11" d="M1155.94,1250.11l20.5,20.05a.18.18,0,0,0,.26,0l2.85-2.93a2.24,2.24,0,0,0,.08-3.15l-19.09-18.67a2.23,2.23,0,0,0-3.15.15L1156,1247A2.23,2.23,0,0,0,1155.94,1250.11Z" transform="translate(-72 -118)"/><path class="cls-5" d="M715.38,1282.07c47.92-2.61,73.88-34.68,77.81-65.68,5.5-43.42-48.6-137.27-77.81-140.47Z" transform="translate(-72 -118)"/><path class="cls-10" d="M740,1238.49l-.15.12s-19.53,17-24.55,22.14L715.2,1282a98.7,98.7,0,0,0,25.89-4.79v-37.52Z" transform="translate(-72 -118)"/><path class="cls-10" d="M715.26,1282.17c-47.93-2.62-73.89-34.69-77.81-65.69-5.51-43.42,48.6-137.27,77.81-140.47Z" transform="translate(-72 -118)"/><path class="cls-5" d="M690.09,1238.55l.15.11s19.54,17,24.55,22.14l.12,21.27a97.82,97.82,0,0,1-25.89-4.79v-37.51Z" transform="translate(-72 -118)"/><rect class="cls-11" x="637.86" y="1137.6" width="10.31" height="72.33"/><rect class="cls-11" x="639.4" y="1094.88" width="7.83" height="44.61" rx="1.03"/><path class="cls-11" d="M740.59,1241l-20.75,20.3-2.91-3a1.94,1.94,0,0,1,.08-2.72l19.36-18.93a1.93,1.93,0,0,1,2.72,0l1.58,1.63A1.92,1.92,0,0,1,740.59,1241Z" transform="translate(-72 -118)"/><path class="cls-11" d="M689.39,1241.12l20.5,20.05a.18.18,0,0,0,.26,0l2.86-2.93a2.24,2.24,0,0,0,.07-3.15L694,1236.41a2.22,2.22,0,0,0-3.15.15l-1.38,1.41A2.23,2.23,0,0,0,689.39,1241.12Z" transform="translate(-72 -118)"/><path class="cls-5" d="M414.65,1278.57c47.92-2.61,73.89-34.69,77.81-65.68,5.5-43.42-48.6-137.27-77.81-140.47Z" transform="translate(-72 -118)"/><path class="cls-10" d="M439.29,1235l-.15.12s-19.54,17-24.55,22.14l-.12,21.26a98.3,98.3,0,0,0,25.89-4.78v-37.52Z" transform="translate(-72 -118)"/><path class="cls-10" d="M414.53,1278.66c-47.92-2.61-73.88-34.68-77.81-65.68-5.5-43.42,48.6-137.27,77.81-140.47Z" transform="translate(-72 -118)"/><path class="cls-5" d="M389.36,1235l.16.12s19.53,17,24.55,22.14l.11,21.27a98.7,98.7,0,0,1-25.89-4.79v-37.51Z" transform="translate(-72 -118)"/><rect class="cls-11" x="337.13" y="1134.09" width="10.31" height="72.33"/><rect class="cls-11" x="338.68" y="1091.38" width="7.83" height="44.61" rx="1.03"/><path class="cls-11" d="M439.87,1237.48l-20.76,20.3-2.9-3a1.92,1.92,0,0,1,.08-2.71l19.35-18.93a1.92,1.92,0,0,1,2.72,0l1.59,1.62A1.94,1.94,0,0,1,439.87,1237.48Z" transform="translate(-72 -118)"/><path class="cls-11" d="M388.67,1237.62l20.49,20.05a.19.19,0,0,0,.26,0l2.86-2.94a2.23,2.23,0,0,0,.07-3.15l-19.08-18.66a2.23,2.23,0,0,0-3.16.15l-1.37,1.41A2.23,2.23,0,0,0,388.67,1237.62Z" transform="translate(-72 -118)"/><path class="cls-5" d="M196.32,1284.15c47.92-2.61,73.88-34.68,77.81-65.68,5.5-43.42-48.6-137.27-77.81-140.47Z" transform="translate(-72 -118)"/><path class="cls-10" d="M221,1240.57l-.16.12s-19.53,17-24.54,22.14l-.12,21.26a98.3,98.3,0,0,0,25.89-4.78v-37.52Z" transform="translate(-72 -118)"/><path class="cls-10" d="M196.2,1284.24c-47.92-2.61-73.88-34.68-77.81-65.68-5.5-43.42,48.6-137.27,77.81-140.47Z" transform="translate(-72 -118)"/><path class="cls-5" d="M171,1240.62l.16.12s19.53,17,24.54,22.14l.12,21.27a98.7,98.7,0,0,1-25.89-4.79v-37.51Z" transform="translate(-72 -118)"/><rect class="cls-11" x="118.8" y="1139.67" width="10.31" height="72.33"/><rect class="cls-11" x="120.35" y="1096.96" width="7.83" height="44.61" rx="1.03"/><path class="cls-11" d="M221.54,1243.06l-20.76,20.3-2.9-3a1.92,1.92,0,0,1,.08-2.71l19.35-18.93a1.93,1.93,0,0,1,2.72,0l1.59,1.62A1.94,1.94,0,0,1,221.54,1243.06Z" transform="translate(-72 -118)"/><path class="cls-11" d="M170.34,1243.2l20.49,20a.18.18,0,0,0,.26,0l2.86-2.93a2.24,2.24,0,0,0,.07-3.16l-19.08-18.66a2.24,2.24,0,0,0-3.16.15l-1.37,1.41A2.23,2.23,0,0,0,170.34,1243.2Z" transform="translate(-72 -118)"/><path class="cls-5" d="M921.54,1290.46c47.92-2.61,73.88-34.69,77.81-65.68,5.5-43.42-48.6-137.27-77.81-140.47Z" transform="translate(-72 -118)"/><path class="cls-10" d="M946.17,1246.88l-.15.12s-19.53,17-24.55,22.14l-.11,21.26a97.89,97.89,0,0,0,25.89-4.79V1248.1Z" transform="translate(-72 -118)"/><path class="cls-10" d="M921.42,1290.55c-47.93-2.61-73.89-34.68-77.81-65.68-5.51-43.42,48.6-137.27,77.81-140.47Z" transform="translate(-72 -118)"/><path class="cls-5" d="M896.25,1246.93l.15.12s19.53,17,24.55,22.14l.12,21.27a98.63,98.63,0,0,1-25.89-4.79v-37.51Z" transform="translate(-72 -118)"/><rect class="cls-11" x="844.02" y="1145.98" width="10.31" height="72.33"/><rect class="cls-11" x="845.56" y="1103.27" width="7.83" height="44.61" rx="1.03"/><path class="cls-11" d="M946.75,1249.37,926,1269.67l-2.91-3a1.92,1.92,0,0,1,.08-2.71L942.53,1245a1.92,1.92,0,0,1,2.72,0l1.58,1.62A1.93,1.93,0,0,1,946.75,1249.37Z" transform="translate(-72 -118)"/><path class="cls-11" d="M895.55,1249.51l20.5,20a.19.19,0,0,0,.26,0l2.86-2.94a2.24,2.24,0,0,0,.07-3.15l-19.09-18.66a2.22,2.22,0,0,0-3.15.15l-1.38,1.41A2.23,2.23,0,0,0,895.55,1249.51Z" transform="translate(-72 -118)"/></g><g id="Laterne_Kopie_2_Kopie" data-name="Laterne Kopie 2 Kopie"><path class="cls-17" d="M1625.83,1317.53a1.79,1.79,0,0,0-.42-3.34,3.08,3.08,0,0,0,1.43-3l-1.81-14.81a3.12,3.12,0,0,0,0-5.65v-58.51h0a.44.44,0,0,0,.44-.44v-2l6.72-3.36h-18.36l6.27,3.34v2a.44.44,0,0,0,.44.44h0v58.51a3.13,3.13,0,0,0,0,5.65l-1.8,14.79a3.08,3.08,0,0,0,1.44,3,1.79,1.79,0,0,0-.44,3.34,5.74,5.74,0,0,0-4.11,5.51V1354a0,0,0,0,0,0,0h14.27a0,0,0,0,0,0,0V1323A5.74,5.74,0,0,0,1625.83,1317.53Z" transform="translate(-72 -118)"/><polygon class="cls-1" points="1551.03 1081.05 1536.93 1081.05 1541.78 1108.37 1551.03 1108.37 1551.03 1081.05"/><polygon class="cls-1" points="1551 1081.07 1565.11 1081.07 1560.26 1108.39 1551 1108.39 1551 1081.07"/><rect class="cls-17" x="1536" y="1077.04" width="30" height="4.48"/><path class="cls-18" d="M1547.86,1094.51h6.27a1.12,1.12,0,0,1,1.12,1.12v12.76a0,0,0,0,1,0,0h-8.49a0,0,0,0,1,0,0v-12.75a1.12,1.12,0,0,1,1.12-1.12Z"/><path class="cls-19" d="M1627,1187.25c0-.08,0-.17,0-.26a3.13,3.13,0,0,0-3.13-3.14h-1.8A3.13,3.13,0,0,0,1619,1187c0,.09,0,.18,0,.26l-11,7.79h30Z" transform="translate(-72 -118)"/><path class="cls-17" d="M1437.31,1318.84a1.78,1.78,0,0,0-.43-3.33,3.07,3.07,0,0,0,1.43-3l-1.8-14.81a3.13,3.13,0,0,0,0-5.65v-58.51h0a.44.44,0,0,0,.44-.44v-2l6.72-3.36H1425.3l6.27,3.34v2a.44.44,0,0,0,.44.44h0V1292a3.12,3.12,0,0,0,0,5.65l-1.8,14.79a3.08,3.08,0,0,0,1.43,3,1.79,1.79,0,0,0-.43,3.34,5.74,5.74,0,0,0-4.11,5.51v30.93a0,0,0,0,0,0,0h14.27a0,0,0,0,0,0,0v-30.93A5.74,5.74,0,0,0,1437.31,1318.84Z" transform="translate(-72 -118)"/><polygon class="cls-1" points="1362.51 1082.36 1348.41 1082.36 1353.26 1109.68 1362.51 1109.68 1362.51 1082.36"/><polygon class="cls-1" points="1362.48 1082.38 1376.58 1082.38 1371.73 1109.7 1362.48 1109.7 1362.48 1082.38"/><rect class="cls-17" x="1347.48" y="1078.36" width="30" height="4.48"/><path class="cls-18" d="M1359.34,1095.82h6.27a1.12,1.12,0,0,1,1.12,1.12v12.76a0,0,0,0,1,0,0h-8.49a0,0,0,0,1,0,0v-12.75a1.12,1.12,0,0,1,1.12-1.12Z"/><path class="cls-19" d="M1438.49,1188.57a2.45,2.45,0,0,0,0-.27,3.14,3.14,0,0,0-3.14-3.14h-1.79a3.13,3.13,0,0,0-3.13,3.14,2.44,2.44,0,0,0,0,.27l-11,7.79h30Z" transform="translate(-72 -118)"/><path class="cls-17" d="M1248.76,1320.2a1.77,1.77,0,0,0,1-1.58,1.79,1.79,0,0,0-1.4-1.75,3.06,3.06,0,0,0,1.43-3l-1.8-14.8a3.13,3.13,0,0,0,0-5.65v-58.52h0a.44.44,0,0,0,.44-.44v-2l6.72-3.36h-18.36l6.27,3.35v2a.44.44,0,0,0,.44.44h0v58.52a3.12,3.12,0,0,0,0,5.65l-1.8,14.78a3.08,3.08,0,0,0,1.43,3,1.78,1.78,0,0,0-.43,3.33,5.75,5.75,0,0,0-4.11,5.51v30.93s0,0,0,0h14.27a0,0,0,0,0,0,0v-30.94A5.75,5.75,0,0,0,1248.76,1320.2Z" transform="translate(-72 -118)"/><polygon class="cls-1" points="1173.95 1083.73 1159.84 1083.73 1164.69 1111.05 1173.95 1111.05 1173.95 1083.73"/><polygon class="cls-1" points="1173.93 1083.75 1188.03 1083.75 1183.18 1111.06 1173.93 1111.06 1173.93 1083.75"/><rect class="cls-17" x="1158.93" y="1079.72" width="30" height="4.48"/><path class="cls-18" d="M1170.79,1097.18h6.27a1.12,1.12,0,0,1,1.12,1.12v12.76a0,0,0,0,1,0,0h-8.49a0,0,0,0,1,0,0V1098.3a1.12,1.12,0,0,1,1.12-1.12Z"/><path class="cls-19" d="M1249.94,1189.93a2.45,2.45,0,0,0,0-.27,3.14,3.14,0,0,0-3.14-3.13H1245a3.13,3.13,0,0,0-3.13,3.13,2.44,2.44,0,0,0,0,.27l-11,7.79h30Z" transform="translate(-72 -118)"/><path class="cls-17" d="M1060.06,1320a1.78,1.78,0,0,0-.42-3.33,3.11,3.11,0,0,0,1.43-3l-1.81-14.81a3.12,3.12,0,0,0,0-5.64v-58.52h0a.44.44,0,0,0,.44-.44v-2l6.72-3.36h-18.36l6.27,3.34v2a.45.45,0,0,0,.45.44h0v58.52a3.12,3.12,0,0,0,0,5.64l-1.8,14.79a3.08,3.08,0,0,0,1.44,3,1.79,1.79,0,0,0-.44,3.34,5.76,5.76,0,0,0-4.11,5.51v30.93a0,0,0,0,0,0,0h14.27a0,0,0,0,0,0,0V1325.5A5.74,5.74,0,0,0,1060.06,1320Z" transform="translate(-72 -118)"/><polygon class="cls-1" points="985.25 1083.52 971.15 1083.52 975.99 1110.83 985.25 1110.83 985.25 1083.52"/><polygon class="cls-1" points="985.23 1083.54 999.34 1083.54 994.49 1110.85 985.23 1110.85 985.23 1083.54"/><rect class="cls-17" x="970.23" y="1079.51" width="30" height="4.48"/><path class="cls-18" d="M982.1,1097h6.27a1.12,1.12,0,0,1,1.12,1.12v12.76a0,0,0,0,1,0,0H981a0,0,0,0,1,0,0v-12.75A1.12,1.12,0,0,1,982.1,1097Z"/><path class="cls-19" d="M1061.25,1189.72a2.44,2.44,0,0,0,0-.27,3.14,3.14,0,0,0-3.13-3.14h-1.79a3.15,3.15,0,0,0-3.14,3.14,2.45,2.45,0,0,0,0,.27l-11,7.79h30Z" transform="translate(-72 -118)"/><path class="cls-17" d="M871.51,1321.35a1.78,1.78,0,0,0-.42-3.33,3.1,3.1,0,0,0,1.43-3l-1.81-14.8a3.13,3.13,0,0,0,0-5.65V1236h0a.44.44,0,0,0,.44-.45v-2l6.72-3.36H859.5l6.27,3.35v2a.45.45,0,0,0,.45.45h0v58.51a3.13,3.13,0,0,0,0,5.65L864.4,1315a3.09,3.09,0,0,0,1.44,3,1.78,1.78,0,0,0-.44,3.33,5.77,5.77,0,0,0-4.11,5.51v30.94l0,0h14.27a0,0,0,0,0,0,0v-30.94A5.75,5.75,0,0,0,871.51,1321.35Z" transform="translate(-72 -118)"/><polygon class="cls-1" points="796.73 1084.89 782.63 1084.89 787.48 1112.2 796.73 1112.2 796.73 1084.89"/><polygon class="cls-1" points="796.68 1084.9 810.79 1084.9 805.94 1112.21 796.68 1112.21 796.68 1084.9"/><rect class="cls-17" x="781.68" y="1080.87" width="30" height="4.48"/><path class="cls-18" d="M793.55,1098.33h6.27a1.12,1.12,0,0,1,1.12,1.12v12.76a0,0,0,0,1,0,0h-8.49a0,0,0,0,1,0,0v-12.75a1.12,1.12,0,0,1,1.12-1.12Z"/><path class="cls-19" d="M872.7,1191.08a2.44,2.44,0,0,0,0-.27,3.13,3.13,0,0,0-3.13-3.13h-1.79a3.14,3.14,0,0,0-3.14,3.13,2.45,2.45,0,0,0,0,.27l-11,7.79h30Z" transform="translate(-72 -118)"/><path class="cls-17" d="M683.28,1322.67a1.78,1.78,0,0,0-.42-3.33,3.11,3.11,0,0,0,1.43-3l-1.81-14.81a3.12,3.12,0,0,0,0-5.65v-58.51h0a.44.44,0,0,0,.44-.44v-2l6.72-3.36H671.27l6.27,3.34v2a.44.44,0,0,0,.44.44h0v58.51a3.13,3.13,0,0,0,0,5.65l-1.8,14.79a3.1,3.1,0,0,0,1.43,3,1.79,1.79,0,0,0-.43,3.34,5.74,5.74,0,0,0-4.11,5.51v30.93a0,0,0,0,0,0,0h14.27a0,0,0,0,0,0,0v-30.93A5.74,5.74,0,0,0,683.28,1322.67Z" transform="translate(-72 -118)"/><polygon class="cls-1" points="608.48 1086.19 594.38 1086.19 599.23 1113.51 608.48 1113.51 608.48 1086.19"/><polygon class="cls-1" points="608.45 1086.21 622.55 1086.21 617.71 1113.53 608.45 1113.53 608.45 1086.21"/><rect class="cls-17" x="593.45" y="1082.18" width="30" height="4.48"/><path class="cls-18" d="M605.31,1099.65h6.27a1.12,1.12,0,0,1,1.12,1.12v12.76a0,0,0,0,1,0,0h-8.49a0,0,0,0,1,0,0v-12.75a1.12,1.12,0,0,1,1.12-1.12Z"/><path class="cls-19" d="M684.47,1192.39c0-.08,0-.17,0-.26a3.13,3.13,0,0,0-3.13-3.14h-1.8a3.13,3.13,0,0,0-3.13,3.14c0,.09,0,.18,0,.26l-11,7.79h30Z" transform="translate(-72 -118)"/><path class="cls-17" d="M494.73,1324a1.78,1.78,0,0,0-.42-3.33,3.1,3.1,0,0,0,1.43-3l-1.81-14.8a3.12,3.12,0,0,0,0-5.65v-58.52h0a.44.44,0,0,0,.44-.44v-2l6.72-3.36H482.72l6.27,3.35v2a.44.44,0,0,0,.44.44h0v58.52a3.13,3.13,0,0,0,0,5.65l-1.8,14.78a3.1,3.1,0,0,0,1.43,3,1.78,1.78,0,0,0-.43,3.33,5.75,5.75,0,0,0-4.11,5.51v30.93a0,0,0,0,0,0,0h14.27a0,0,0,0,0,0,0v-30.94A5.75,5.75,0,0,0,494.73,1324Z" transform="translate(-72 -118)"/><polygon class="cls-1" points="419.93 1087.56 405.83 1087.56 410.68 1114.87 419.93 1114.87 419.93 1087.56"/><polygon class="cls-1" points="419.9 1087.58 434 1087.58 429.15 1114.89 419.9 1114.89 419.9 1087.58"/><rect class="cls-17" x="404.9" y="1083.55" width="30" height="4.48"/><path class="cls-18" d="M416.76,1101H423a1.12,1.12,0,0,1,1.12,1.12v12.76a0,0,0,0,1,0,0h-8.49a0,0,0,0,1,0,0v-12.75A1.12,1.12,0,0,1,416.76,1101Z"/><path class="cls-19" d="M495.92,1193.76c0-.09,0-.18,0-.27a3.13,3.13,0,0,0-3.13-3.13H491a3.13,3.13,0,0,0-3.13,3.13c0,.09,0,.18,0,.27l-11,7.79h30Z" transform="translate(-72 -118)"/><path class="cls-17" d="M306,1323.82a1.81,1.81,0,0,0,1-1.59,1.78,1.78,0,0,0-1.4-1.74,3.11,3.11,0,0,0,1.43-3l-1.81-14.81a3.13,3.13,0,0,0,0-5.65V1238.5h0a.45.45,0,0,0,.45-.44v-2l6.71-3.36H294l6.27,3.34v2a.45.45,0,0,0,.45.44h0V1297a3.13,3.13,0,0,0,0,5.65l-1.8,14.79a3.1,3.1,0,0,0,1.44,3,1.79,1.79,0,0,0-.44,3.34,5.75,5.75,0,0,0-4.11,5.51v30.93s0,0,0,0h14.26a0,0,0,0,0,0,0v-30.93A5.74,5.74,0,0,0,306,1323.82Z" transform="translate(-72 -118)"/><polygon class="cls-1" points="231.24 1087.34 217.13 1087.34 221.98 1114.66 231.24 1114.66 231.24 1087.34"/><polygon class="cls-1" points="231.2 1087.37 245.31 1087.37 240.46 1114.68 231.2 1114.68 231.2 1087.37"/><rect class="cls-17" x="216.2" y="1083.34" width="30" height="4.48"/><path class="cls-18" d="M228.07,1100.8h6.27a1.12,1.12,0,0,1,1.12,1.12v12.76a0,0,0,0,1,0,0H227a0,0,0,0,1,0,0v-12.75a1.12,1.12,0,0,1,1.12-1.12Z"/><path class="cls-19" d="M307.22,1193.55a2.44,2.44,0,0,0,0-.27,3.14,3.14,0,0,0-3.13-3.14h-1.79a3.15,3.15,0,0,0-3.14,3.14,2.45,2.45,0,0,0,0,.27l-11,7.79h30Z" transform="translate(-72 -118)"/></g><g id="Auto_Kopie_2_Kopie" data-name="Auto Kopie 2 Kopie"><path class="cls-16" d="M591.06,1413.16H615s3.11-.62,3.73-4.65a113.06,113.06,0,0,0,.31-17.39c-.31-1.24-1.55-8.38-10.56-14.27s-25.76-8.39-25.76-8.39-11.79-1.86-15.21-1.86H562.2s-33.22-22-48.43-24.83-39.73-1.86-39.73-1.86-19.55,0-27.93.93-12.42,1.86-20.8,7.14-19.24,12.41-25.14,17.38S394,1370,394,1373.74v12.73l-4,4.34V1402s4.65,8.69,19.55,8.69H588.27Z" transform="translate(-72 -118)"/><circle class="cls-16" cx="356.93" cy="1288.42" r="19.24"/><circle class="cls-10" cx="356.88" cy="1288.49" r="15.52"/><circle class="cls-16" cx="356.88" cy="1288.8" r="13.97"/><circle class="cls-20" cx="356.88" cy="1288.49" r="3.1"/><rect class="cls-10" x="355.02" y="1274.21" width="3.72" height="28.87"/><polygon class="cls-10" points="370.39 1294.41 368.53 1297.64 343.53 1283.18 345.39 1279.94 370.39 1294.41"/><polygon class="cls-10" points="368.53 1279.63 370.39 1282.87 345.39 1297.33 343.53 1294.1 368.53 1279.63"/><circle class="cls-10" cx="356.88" cy="1288.64" r="3.57"/><circle class="cls-16" cx="500.97" cy="1288.48" r="19.24"/><circle class="cls-10" cx="500.93" cy="1288.55" r="15.52"/><circle class="cls-16" cx="500.93" cy="1288.86" r="13.97"/><circle class="cls-20" cx="500.93" cy="1288.55" r="3.1"/><rect class="cls-10" x="499.06" y="1274.27" width="3.72" height="28.87"/><polygon class="cls-10" points="514.43 1294.47 512.57 1297.7 487.57 1283.24 489.44 1280.01 514.43 1294.47"/><polygon class="cls-10" points="512.57 1279.7 514.43 1282.93 489.44 1297.39 487.57 1294.16 512.57 1279.7"/><circle class="cls-10" cx="500.93" cy="1288.7" r="3.57"/><path class="cls-21" d="M572.78,1384A22.82,22.82,0,0,0,550,1406.8a23.94,23.94,0,0,0,.3,3.72h3.85a19,19,0,0,1-.37-3.73,19.25,19.25,0,1,1,37.46,6.22h3.52a22.82,22.82,0,0,0-22-29Z" transform="translate(-72 -118)"/><path class="cls-21" d="M428.52,1384a22.82,22.82,0,0,0-22.81,22.82,23.62,23.62,0,0,0,.33,3.88q1.53.15,3.24.15h.8a19.24,19.24,0,1,1,37.6,0H451a22.29,22.29,0,0,0,.36-4A22.82,22.82,0,0,0,428.52,1384Z" transform="translate(-72 -118)"/><path class="cls-1" d="M431.48,1364.67l48.29.81a1.84,1.84,0,0,0,1.88-1.84V1348.8a2.86,2.86,0,0,0-2.84-2.86l-21-.19a28.52,28.52,0,0,0-20.24,8.19l-7.42,7.3A2,2,0,0,0,431.48,1364.67Z" transform="translate(-72 -118)"/><path class="cls-1" d="M541.45,1367.86l-47.75-1.31a4.59,4.59,0,0,1-4.37-3.71l-2.72-14a2.5,2.5,0,0,1,2.62-3l7.94.54A74.28,74.28,0,0,1,535,1359.85l7.39,5.22A1.54,1.54,0,0,1,541.45,1367.86Z" transform="translate(-72 -118)"/><path class="cls-1" d="M553.8,1367l8.44-.4c-.47-.31-19.5-12.89-35.22-20.13l-3.92-.1a1.06,1.06,0,0,0-.5,2l28.18,17.88A5.2,5.2,0,0,0,553.8,1367Z" transform="translate(-72 -118)"/><path class="cls-1" d="M400.84,1364.9l10.34.17a4.07,4.07,0,0,0,2.65-.93L429,1351.69a1,1,0,0,0-.13-1.55l-3.65-2.06C417.08,1353.21,406.74,1360,400.84,1364.9Z" transform="translate(-72 -118)"/><path class="cls-22" d="M405,1372.69H393.92c0,.32,0,.68,0,1.09v12.4l3.18.1a4.19,4.19,0,0,0,3.55-1.78l6.05-8.58A2,2,0,0,0,405,1372.69Z" transform="translate(-72 -118)"/><path class="cls-21" d="M619.3,1399.74h-8a4.77,4.77,0,0,0-4,2.19l-2.43,3.79a1.73,1.73,0,0,0,1.48,2.67l12.45-.15A78.12,78.12,0,0,0,619.3,1399.74Z" transform="translate(-72 -118)"/><path class="cls-1" d="M614.1,1388.83l-9.27.17a11.19,11.19,0,0,1-9.28-4.64l-3.19-4.42a1.09,1.09,0,0,1,1-1.73l13.44,1.91a10.37,10.37,0,0,1,8.43,7.12h0A1.22,1.22,0,0,1,614.1,1388.83Z" transform="translate(-72 -118)"/><rect class="cls-21" x="419.27" y="1254.97" width="10.55" height="4.04" rx="0.53"/><rect class="cls-21" x="372.71" y="1254.97" width="10.55" height="4.04" rx="0.53"/><path class="cls-16" d="M1398,1403.22c4.32,1.44-4.27,3.49,0,7.09.44.37,8.44,9.17,8.86,9.45,5,3.29,3,7.43,3,10.64,0,3.48,2.36,4.13,2.36,7.09v15.36a8.37,8.37,0,0,1-1.18,4.73l-.07.07a4.49,4.49,0,0,0-.85,1.18l-1.07,2.11s-4.35,8.12-18.27,8.12H1223.67l-2.61,2.32c-14.8,0-20.38-1.39-20.38-1.39s-4.74-1.55-5.32-5.32a66.85,66.85,0,0,1-.59-10.64c0-1.19-.73-12.8,7.69-18.31,2-1.31,1.82-3.73,4.13-4.73,7.45-3.21,12.41-4.14,20.09-5.32,6.16-1,15.72-2.36,18.91-2.36h8.86s24.79-18.07,39-20.68,37.23-2.37,37.23-2.37,15.36-.59,27.18,0" transform="translate(-72 -118)"/><circle class="cls-23" cx="1300.6" cy="1347.08" r="17.99"/><circle class="cls-20" cx="1300.64" cy="1347.14" r="14.51"/><circle class="cls-23" cx="1300.64" cy="1347.43" r="13.06"/><circle class="cls-20" cx="1300.64" cy="1347.14" r="2.9"/><rect class="cls-20" x="1370.9" y="1451.8" width="3.48" height="26.98" transform="translate(2673.29 2812.58) rotate(180)"/><polygon class="cls-20" points="1288.02 1352.67 1289.76 1355.7 1313.12 1342.18 1311.38 1339.16 1288.02 1352.67"/><polygon class="cls-20" points="1289.76 1338.87 1288.02 1341.89 1311.38 1355.41 1313.12 1352.38 1289.76 1338.87"/><circle class="cls-20" cx="1300.64" cy="1347.29" r="3.34"/><path class="cls-24" d="M1373,1444.11a21.33,21.33,0,0,1,21.33,21.32,20.88,20.88,0,0,1-.32,3.64c-1,.08-2,.14-3,.14h-.75a18,18,0,1,0-35.15,0H1352a21.31,21.31,0,0,1,21-25.1Z" transform="translate(-72 -118)"/><path class="cls-1" d="M1276.73,1426.19l36.37-.49a2.86,2.86,0,0,0,2.74-2.18l4-16.48a1.73,1.73,0,0,0-1.81-2.14l-9.27.63c-11,.74-17.45,4.31-26,10.22a36.42,36.42,0,0,0-4.37,3.55l-3.25,3.3A2.11,2.11,0,0,0,1276.73,1426.19Z" transform="translate(-72 -118)"/><path class="cls-25" d="M1219.47,1437.26" transform="translate(-72 -118)"/><path class="cls-1" d="M1223.19,1436.07a.38.38,0,0,0-.29-.68c-5.37.67-11.6,1.77-16.82,2.36-3.76.44-5.72,2-6.72,5.16-.12.4-.22.68-.32,1a.6.6,0,0,0,.58.8,23.49,23.49,0,0,0,8-1.18c2.64-.83,3.55-3,7.69-3.54C1218.37,1439.52,1219.8,1438.89,1223.19,1436.07Z" transform="translate(-72 -118)"/><rect class="cls-21" x="1226.77" y="1314.17" width="13.59" height="3.55" rx="1.77"/><path class="cls-1" d="M1379.31,1422.13h14.87a.68.68,0,0,0,.51-1.13l-10.59-12a5.13,5.13,0,0,0-3.58-1.73l-18.43-1a.76.76,0,0,0-.59,1.28l10.57,11.41A9.85,9.85,0,0,0,1379.31,1422.13Z" transform="translate(-72 -118)"/><rect class="cls-21" x="1273.23" y="1313.58" width="13.59" height="3.55" rx="1.77"/><path class="cls-1" d="M1326.52,1425.51l30.68-1a2,2,0,0,0,1.91-1.86l.43-7.79a3.37,3.37,0,0,0-.47-1.94l-4.13-6.36a2.21,2.21,0,0,0-1.86-1l-24.72,0a2.72,2.72,0,0,0-2.65,2.48l-1.35,15.3A2,2,0,0,0,1326.52,1425.51Z" transform="translate(-72 -118)"/><path class="cls-16" d="M1239.88,1445.67a19.35,19.35,0,1,0,19.78,19.35,19.56,19.56,0,0,0-19.78-19.35" transform="translate(-72 -118)"/><path class="cls-10" d="M1239.93,1449.49a15.6,15.6,0,1,0,15.94,15.6,15.77,15.77,0,0,0-15.94-15.6" transform="translate(-72 -118)"/><path class="cls-16" d="M1239.93,1451.36a14,14,0,1,0,14.35,14,14.19,14.19,0,0,0-14.35-14" transform="translate(-72 -118)"/><ellipse class="cls-20" cx="1167.93" cy="1347.09" rx="3.19" ry="3.12"/><polyline class="cls-10" points="1166.02 1332.73 1166.02 1361.75 1169.84 1361.75 1169.84 1332.73"/><polyline class="cls-10" points="1179.73 1338.5 1154.05 1353.03 1155.96 1356.28 1181.65 1341.75 1179.73 1338.5"/><polyline class="cls-10" points="1155.96 1338.19 1154.05 1341.44 1179.73 1355.97 1181.65 1352.72 1155.96 1338.19"/><ellipse class="cls-10" cx="1167.93" cy="1347.24" rx="3.67" ry="3.59"/><path class="cls-21" d="M1239.86,1445.93c-10.92,0-19.78,8.54-19.78,19.08a18.49,18.49,0,0,0,1.06,6.16h-3.62a22,22,0,0,1-.88-6.15c0-12.49,10.49-22.61,23.44-22.61" transform="translate(-72 -118)"/><path class="cls-21" d="M1240.08,1442.41a23.19,23.19,0,0,1,23.44,22.93,22,22,0,0,1-.32,3.74h-4a18.56,18.56,0,0,0,.38-3.75,19.56,19.56,0,0,0-19.77-19.35" transform="translate(-72 -118)"/><path class="cls-16" d="M1370.69,1445.8a19.35,19.35,0,1,0,19.77,19.34,19.57,19.57,0,0,0-19.77-19.34" transform="translate(-72 -118)"/><path class="cls-10" d="M1370.73,1449.61a15.6,15.6,0,1,0,16,15.6,15.78,15.78,0,0,0-16-15.6" transform="translate(-72 -118)"/><path class="cls-16" d="M1370.73,1451.49a14,14,0,1,0,14.35,14,14.2,14.2,0,0,0-14.35-14" transform="translate(-72 -118)"/><polyline class="cls-10" points="1296.82 1332.86 1296.82 1361.88 1300.65 1361.88 1300.65 1332.86"/><polyline class="cls-10" points="1310.54 1338.63 1284.85 1353.16 1286.77 1356.41 1312.45 1341.88 1310.54 1338.63"/><polyline class="cls-10" points="1286.77 1338.31 1284.85 1341.56 1310.54 1356.1 1312.45 1352.85 1286.77 1338.31"/><path class="cls-21" d="M1370.88,1442.53a23.19,23.19,0,0,1,23.44,22.93,22.07,22.07,0,0,1-.32,3.75h-3.94a19.34,19.34,0,0,0-19.4-23.1" transform="translate(-72 -118)"/><path class="cls-26" d="M1396.13,1424.49h11.94c.42,0,1.23,0,2.09.06.29,2-.32,4.08-.32,5.85a5.9,5.9,0,0,0,.67,2.83l-8.15-1.93a9.51,9.51,0,0,1-4.26-3l-2.37-3A.51.51,0,0,1,1396.13,1424.49Z" transform="translate(-72 -118)"/><path class="cls-21" d="M1351.31,1469h-3.5a21.67,21.67,0,0,1-.37-3.9c0-12.48,10.5-22.61,23.44-22.61l-.22,3.53c-10.92,0-19.77,8.54-19.77,19.08A17.93,17.93,0,0,0,1351.31,1469Z" transform="translate(-72 -118)"/><path class="cls-16" d="M1202,1452.74a5.26,5.26,0,0,1,4.54,2.82l2.75,4.86c.84,1.49-.12,3.45-1.67,3.43l-12.35-.17a70.52,70.52,0,0,1-.47-9.76c0-.18,0-.6,0-1.18Z" transform="translate(-72 -118)"/><path class="cls-1" d="M1403.11,1421.22l-11.59-12.08a.71.71,0,0,1,.51-1.2h4.83a2.58,2.58,0,0,0,1.2,2.37c.44.37,8.44,9.17,8.86,9.45a8.38,8.38,0,0,1,2.21,2.06l-3.91.23A2.66,2.66,0,0,1,1403.11,1421.22Z" transform="translate(-72 -118)"/><path class="cls-1" d="M1262.62,1423.75a6.09,6.09,0,0,1-3.54.56l-4.63-1c.57-.41,14.85-10.76,27.8-16.77l5-.12a1,1,0,0,1,.47,1.81l-23.2,14.5A20.23,20.23,0,0,1,1262.62,1423.75Z" transform="translate(-72 -118)"/></g></svg>