<svg id="Investor" xmlns="http://www.w3.org/2000/svg" viewBox="0 0 1990.62 1792.12"><title>Investor</title><path d="M909.85,1428.56a589,589,0,0,1,154.5-398.51,605.93,605.93,0,0,0-77.48-17.35c142-81.2,237.66-234.12,237.66-409.4,0-260.29-211-471.3-471.3-471.3S281.92,343,281.92,603.3c0,175.28,95.69,328.2,237.67,409.4C228.07,1058.15,5,1310.29,5,1614.55v78.63A41.79,41.79,0,0,0,46.79,1735H995.35A588.42,588.42,0,0,1,909.85,1428.56Z" transform="translate(-5 -132)"/><path d="M1500.06,933c-273.69,0-495.57,221.87-495.57,495.56s221.88,495.56,495.57,495.56,495.56-221.87,495.56-495.56S1773.75,933,1500.06,933Zm218.19,299.87H1438.63v140.8h222.51v92.55H1438.63v52.18h151.62V1611H1438.63v106.33h-92.55V1611h-63V1518.4h63V1140.32h372.17Z" transform="translate(-5 -132)"/></svg>