<svg id="Nischenspieler" xmlns="http://www.w3.org/2000/svg" viewBox="0 0 2000 2000"><title>Nischenspieler</title><path d="M1000,0C447.72,0,0,447.72,0,1000S447.72,2000,1000,2000s1000-447.72,1000-1000S1552.28,0,1000,0Zm0,1806c-445.14,0-806-360.86-806-806s360.86-806,806-806,806,360.86,806,806S1445.14,1806,1000,1806Z"/><path d="M1137.23,1046.45A276.27,276.27,0,0,0,1276.6,806.37c0-152.64-123.74-276.38-276.38-276.38S723.83,653.73,723.83,806.37A276.27,276.27,0,0,0,863.2,1046.45c-171,26.66-301.76,174.52-301.76,353v46.1a24.5,24.5,0,0,0,24.5,24.51h828.55A24.51,24.51,0,0,0,1439,1445.5v-46.1C1439,1221,1308.19,1073.11,1137.23,1046.45Z"/><rect x="912" y="12" width="192" height="377"/><rect x="904" y="1610" width="192" height="377"/><rect x="103.5" y="812.5" width="192" height="377" transform="translate(-801.5 1200.5) rotate(-90)"/><rect x="1703.5" y="812.5" width="192" height="377" transform="translate(798.5 2800.5) rotate(-90)"/></svg>