<svg id="Planer" xmlns="http://www.w3.org/2000/svg" viewBox="0 0 1985.42 1999.58">
    <title>Planer</title>
    <path d="M1965.19,1576.91,417,20.66a68.4,68.4,0,0,0-97.38.24L20,325A69.79,69.79,0,0,0,20.15,423L1563.94,1979.68a68.4,68.4,0,0,0,97.14.16l304-304.58A69.8,69.8,0,0,0,1965.19,1576.91Zm-66.84,50.52-268.1,275.13a18.9,18.9,0,0,1-27,.13L96.4,385.8a19.3,19.3,0,0,1-.07-27.07l268-272.64A18.9,18.9,0,0,1,391.26,86l1507,1514.4A19.29,19.29,0,0,1,1898.35,1627.43Z" transform="translate(0 -0.42)"/>
    <path d="M5,1947.54l114.23-436.37,356.44,353.89-434,118.77A29.8,29.8,0,0,1,5,1947.54Z" transform="translate(0 -0.42)"/>
    <path d="M1961.2,378.56l-85.26,83.65L1524.59,108.32l86.24-84.62a68.63,68.63,0,0,1,96.76.63l254.25,256.1A69.18,69.18,0,0,1,1961.2,378.56Z" transform="translate(0 -0.42)"/>
    <polygon points="1402.38 940.44 1789.37 553.45 1438.03 199.55 1049.76 587.82 1402.38 940.44"/>
    <polygon points="577.27 1047.57 152.29 1472.55 506.19 1823.9 928.17 1401.92 577.27 1047.57"/>
    <path d="M1608.06,1683.11l-82.54,82.66-49.29-49.36,83.19-83.31a14.4,14.4,0,0,1,20.39,0l28.25,28.28A15.38,15.38,0,0,1,1608.06,1683.11Z" transform="translate(0 -0.42)"/>
    <path d="M1453.83,1529.57l-82.54,82.66L1322,1562.87l83.2-83.31a14.4,14.4,0,0,1,20.39,0l28.24,28.29A15.35,15.35,0,0,1,1453.83,1529.57Z" transform="translate(0 -0.42)"/>
    <path d="M1300.43,1377l-82.54,82.66-49.29-49.36,83.2-83.31a14.4,14.4,0,0,1,20.39,0l28.24,28.28A15.37,15.37,0,0,1,1300.43,1377Z" transform="translate(0 -0.42)"/>
    <path d="M1148.53,1223.63,1066,1306.29l-49.29-49.36,83.2-83.31a14.4,14.4,0,0,1,20.39,0l28.25,28.28A15.38,15.38,0,0,1,1148.53,1223.63Z" transform="translate(0 -0.42)"/><path d="M995.13,1071.05l-82.55,82.65-49.29-49.35,83.2-83.31a14.4,14.4,0,0,1,20.39,0l28.25,28.28A15.38,15.38,0,0,1,995.13,1071.05Z" transform="translate(0 -0.42)"/><path d="M839.58,916.42,757,999.08l-49.29-49.36L791,866.41a14.4,14.4,0,0,1,20.39,0l28.24,28.28A15.38,15.38,0,0,1,839.58,916.42Z" transform="translate(0 -0.42)"/><path d="M691.37,766.44l-82.54,82.65-49.29-49.36,83.19-83.31a14.41,14.41,0,0,1,20.4,0l28.24,28.29A15.38,15.38,0,0,1,691.37,766.44Z" transform="translate(0 -0.42)"/><path d="M539.46,615.68l-82.54,82.65L407.63,649l83.2-83.31a14.4,14.4,0,0,1,20.39,0L539.46,594A15.38,15.38,0,0,1,539.46,615.68Z" transform="translate(0 -0.42)"/><path d="M380.87,457.9l-82.54,82.65L249,491.19l83.2-83.31a14.4,14.4,0,0,1,20.39,0l28.24,28.29A15.37,15.37,0,0,1,380.87,457.9Z" transform="translate(0 -0.42)"/></svg>