<svg id="Politik" xmlns="http://www.w3.org/2000/svg" viewBox="0 0 1939.59 1796"><title>Politik</title><path d="M41.71,1649H1897.88a41.71,41.71,0,0,1,41.71,41.71v103.37a1.93,1.93,0,0,1-1.93,1.93H.62a.62.62,0,0,1-.62-.62V1690.69A41.71,41.71,0,0,1,41.71,1649Z"/><path d="M142.65,1520H1796.94a41.71,41.71,0,0,1,41.71,41.71v67.61a1.93,1.93,0,0,1-1.93,1.93H101.55a.62.62,0,0,1-.62-.62v-68.93A41.71,41.71,0,0,1,142.65,1520Z"/><rect x="309.79" y="598" width="154.37" height="791.8" rx="2.11"/><path d="M235.56,1390H1706.33a41.71,41.71,0,0,1,41.71,41.71v67.61a1.93,1.93,0,0,1-1.93,1.93H194.46a.62.62,0,0,1-.62-.62v-68.93A41.71,41.71,0,0,1,235.56,1390Z"/><rect x="699.39" y="598" width="154.37" height="791.8" rx="2.11"/><rect x="699.39" y="598" width="154.37" height="791.8" rx="2.11"/><rect x="1088.98" y="598" width="154.37" height="791.8" rx="2.11"/><rect x="1478.58" y="598" width="154.37" height="791.8" rx="2.11"/><path d="M192.79,487.39H1744.44a1.93,1.93,0,0,1,1.93,1.93v67.61a41.71,41.71,0,0,1-41.71,41.71H233.89a41.71,41.71,0,0,1-41.71-41.71V488A.62.62,0,0,1,192.79,487.39Z"/><path d="M987.61,106.13,77.2,530c-22.1,10.29-14.76,43.41,9.61,43.41H1924.54c24.47,0,31.72-33.31,9.47-43.48L1006.69,106.06A22.76,22.76,0,0,0,987.61,106.13Z" transform="translate(-36.71 -104)"/></svg>