<svg id="Population" xmlns="http://www.w3.org/2000/svg" viewBox="0 0 2000 1340.76"><title>Population</title><path d="M1195.43,1083.66c118.75-67.91,198.78-195.82,198.78-342.42C1394.21,523.52,1217.72,347,1000,347S605.79,523.52,605.79,741.24c0,146.6,80,274.51,198.78,342.42-243.82,38-430.41,248.92-430.41,503.41v65.76a35,35,0,0,0,35,35H1590.88a35,35,0,0,0,35-35v-65.76C1625.84,1332.58,1439.25,1121.68,1195.43,1083.66Z" transform="translate(0 -347.03)"/><path d="M563,1039.59A537.17,537.17,0,0,1,520.64,486.2c-7.2-.49-14.43-.83-21.75-.83-173.56,0-314.25,140.69-314.25,314.24,0,116.87,63.8,218.83,158.46,273C148.73,1102.88,0,1271,0,1473.87v52.42a27.87,27.87,0,0,0,27.86,27.87h218.4v-42.81C246.26,1298.17,377.19,1115.6,563,1039.59Z" transform="translate(0 -347.03)"/><path d="M1656.9,1072.58c94.66-54.14,158.46-156.1,158.46-273,0-173.55-140.69-314.24-314.25-314.24-7.32,0-14.55.34-21.75.83A537.17,537.17,0,0,1,1437,1039.59c185.82,76,316.75,258.58,316.75,471.76v42.81h218.4a27.87,27.87,0,0,0,27.86-27.87v-52.42C2000,1271,1851.27,1102.88,1656.9,1072.58Z" transform="translate(0 -347.03)"/></svg>