<svg id="Szene_5" data-name="Szene 5" xmlns="http://www.w3.org/2000/svg" viewBox="0 0 1617.2 1307.2"><defs><style>.cls-1{fill:#242626;opacity:0.8;}.cls-2{fill:#939ca0;}.cls-3{fill:#525354;}.cls-4{fill:#7c8084;}.cls-5{fill:#5e6163;}.cls-6{fill:#3a3a3a;}.cls-16,.cls-7{fill:#111;}.cls-7{opacity:0.2;}.cls-8{fill:#b2bbbf;}.cls-9{fill:#c8cdce;}.cls-10{fill:#ffd705;}.cls-11{fill:#ffc306;opacity:0.58;}.cls-12{fill:#9983b1;}.cls-13{fill:#503c7c;}.cls-14{fill:#ededed;}.cls-15{fill:#cecece;}.cls-16{opacity:0.15;}.cls-17{fill:#b9b286;}.cls-18{fill:#665546;}.cls-19{fill:#409de2;}.cls-20{fill:#345875;}</style></defs><title>Industrie_5</title><ellipse class="cls-1" cx="808.6" cy="1113.07" rx="808.6" ry="194.13"/><path class="cls-2" d="M680.85,1151.24h785.82a54.34,54.34,0,0,0,54.33-54.36V331.24a54.34,54.34,0,0,0-54.33-54.36H680.85a54.34,54.34,0,0,0-54.33,54.36v765.64A54.34,54.34,0,0,0,680.85,1151.24Z" transform="translate(-194.98 -152)"/><path class="cls-3" d="M737.21,1091.16h674.68a44.33,44.33,0,0,0,44.32-44.34V375a44.33,44.33,0,0,0-44.32-44.34H737.21A44.33,44.33,0,0,0,692.89,375v671.84A44.33,44.33,0,0,0,737.21,1091.16Z" transform="translate(-194.98 -152)"/><rect class="cls-4" x="520.04" y="999.24" width="730.12" height="170.76"/><rect class="cls-5" x="520.04" y="999.24" width="730.12" height="41.11"/><path class="cls-6" d="M499.49,178.64h747.32a14.41,14.41,0,0,1,14.41,14.41v42.51a0,0,0,0,1,0,0H499.49a0,0,0,0,1,0,0V178.64A0,0,0,0,1,499.49,178.64Z"/><rect class="cls-6" x="499.49" y="599.22" width="761.73" height="56.92"/><rect class="cls-6" x="339.5" y="682.45" width="760.52" height="56.89" transform="translate(-186.12 1278.66) rotate(-90)"/><polygon class="cls-5" points="497.91 945.48 445.76 1067.23 445.76 60.06 496.33 178.64 497.91 945.48"/><path class="cls-2" d="M611.71,1246.11h-41.5a29,29,0,0,1-29-29V217.38a29,29,0,0,1,29-29h41.5a29,29,0,0,1,29,29v999.68A29,29,0,0,1,611.71,1246.11Z" transform="translate(-194.98 -152)"/><path class="cls-7" d="M824.06,1091.16H691.31V330.64L816,381.12a13,13,0,0,1,8.09,12Z" transform="translate(-194.98 -152)"/><rect class="cls-2" x="510.55" y="542.3" width="734.87" height="56.92" rx="7.21"/><rect class="cls-3" x="322.49" y="532.81" width="23.71" height="75.89"/><rect class="cls-6" x="279.82" y="384.18" width="42.67" height="371.56" rx="5.4"/><path class="cls-3" d="M268,518.58h11.85a0,0,0,0,1,0,0V629.19a.06.06,0,0,1-.06.06H268a3.94,3.94,0,0,1-3.94-3.94V522.53a4,4,0,0,1,4-4Z"/><rect class="cls-3" x="322.49" y="165.99" width="23.71" height="45.85"/><rect class="cls-6" x="295.63" y="139.11" width="26.87" height="162.86" rx="3.4"/><polygon class="cls-7" points="444.18 469.56 379.38 428.46 379.38 376.28 414.15 360.47 444.18 385.77 444.18 469.56"/><polygon class="cls-7" points="444.18 833.61 379.38 792.5 379.38 740.32 414.15 724.51 444.18 749.81 444.18 833.61"/><path class="cls-8" d="M616.34,518.21a37.92,37.92,0,0,0-53.62,1.27l27.45,26.19Z" transform="translate(-194.98 -152)"/><path class="cls-9" d="M616.34,518.21a38,38,0,0,1,1.28,53.65l-27.45-26.19Z" transform="translate(-194.98 -152)"/><path class="cls-9" d="M564,573.13a38,38,0,0,1-1.28-53.65l27.45,26.19Z" transform="translate(-194.98 -152)"/><path class="cls-8" d="M564,573.13a37.9,37.9,0,0,0,53.62-1.27l-27.45-26.19Z" transform="translate(-194.98 -152)"/><path class="cls-8" d="M617.32,883.08a37.92,37.92,0,0,0-53.63,1.27l27.45,26.19Z" transform="translate(-194.98 -152)"/><path class="cls-9" d="M617.32,883.08a38,38,0,0,1,1.27,53.65l-27.45-26.19Z" transform="translate(-194.98 -152)"/><path class="cls-9" d="M565,938a38,38,0,0,1-1.28-53.65l27.45,26.19Z" transform="translate(-194.98 -152)"/><path class="cls-8" d="M565,938a37.92,37.92,0,0,0,53.62-1.27l-27.45-26.19Z" transform="translate(-194.98 -152)"/><path class="cls-10" d="M1359.25,1092.58h-89.07a8.34,8.34,0,0,1-8-10.66L1275.4,1036a8.35,8.35,0,0,1,8-6H1346a8.34,8.34,0,0,1,8,6l13.24,45.89A8.35,8.35,0,0,1,1359.25,1092.58Z" transform="translate(-194.98 -152)"/><path class="cls-11" d="M1365.31,1089.55l-88.07-57.23a8.27,8.27,0,0,0-1.84,3.29l-13.24,45.89a8.34,8.34,0,0,0,8,10.66h89.08A8.28,8.28,0,0,0,1365.31,1089.55Z" transform="translate(-194.98 -152)"/><path class="cls-7" d="M1263,1088.59a8.29,8.29,0,0,0,7,3.78H1359a8.29,8.29,0,0,0,7-3.78Z" transform="translate(-194.98 -152)"/><path class="cls-10" d="M1251.88,1091.56h-89.07a8.35,8.35,0,0,1-8-10.66L1168,1035a8.35,8.35,0,0,1,8-6h62.59a8.35,8.35,0,0,1,8,6l13.24,45.89A8.35,8.35,0,0,1,1251.88,1091.56Z" transform="translate(-194.98 -152)"/><path class="cls-11" d="M1257.94,1088.53l-88.07-57.23a8.42,8.42,0,0,0-1.85,3.29l-13.23,45.89a8.34,8.34,0,0,0,8,10.66h89.07A8.28,8.28,0,0,0,1257.94,1088.53Z" transform="translate(-194.98 -152)"/><path class="cls-7" d="M1155.62,1087.57a8.29,8.29,0,0,0,7,3.78h89.07a8.29,8.29,0,0,0,7-3.78Z" transform="translate(-194.98 -152)"/><path class="cls-10" d="M1146.05,1092H1057a8.34,8.34,0,0,1-8-10.66l13.23-45.89a8.35,8.35,0,0,1,8-6h62.59a8.35,8.35,0,0,1,8,6l13.24,45.89A8.35,8.35,0,0,1,1146.05,1092Z" transform="translate(-194.98 -152)"/><path class="cls-11" d="M1152.11,1089,1064,1031.78a8.27,8.27,0,0,0-1.84,3.29L1049,1081a8.34,8.34,0,0,0,8,10.66H1146A8.28,8.28,0,0,0,1152.11,1089Z" transform="translate(-194.98 -152)"/><path class="cls-7" d="M1049.79,1088.05a8.29,8.29,0,0,0,7,3.78h89.07a8.29,8.29,0,0,0,7-3.78Z" transform="translate(-194.98 -152)"/><path class="cls-10" d="M1038.68,1091H949.61a8.35,8.35,0,0,1-8-10.66l13.24-45.89a8.35,8.35,0,0,1,8-6h62.59a8.35,8.35,0,0,1,8,6l13.24,45.89A8.35,8.35,0,0,1,1038.68,1091Z" transform="translate(-194.98 -152)"/><path class="cls-11" d="M1044.74,1088l-88.07-57.23a8.42,8.42,0,0,0-1.85,3.29l-13.23,45.89a8.34,8.34,0,0,0,8,10.66h89.07A8.3,8.3,0,0,0,1044.74,1088Z" transform="translate(-194.98 -152)"/><path class="cls-7" d="M942.42,1087a8.29,8.29,0,0,0,7,3.78h89.07a8.29,8.29,0,0,0,7-3.78Z" transform="translate(-194.98 -152)"/><path class="cls-10" d="M931.69,1090.65H842.61a8.34,8.34,0,0,1-8-10.66l13.24-45.89a8.33,8.33,0,0,1,8-6h62.6a8.34,8.34,0,0,1,8,6L939.7,1080A8.34,8.34,0,0,1,931.69,1090.65Z" transform="translate(-194.98 -152)"/><path class="cls-11" d="M937.75,1087.62l-88.08-57.23a8.27,8.27,0,0,0-1.84,3.29l-13.24,45.89a8.34,8.34,0,0,0,8,10.66h89.07A8.32,8.32,0,0,0,937.75,1087.62Z" transform="translate(-194.98 -152)"/><path class="cls-7" d="M835.42,1086.66a8.29,8.29,0,0,0,7,3.78h89.08a8.3,8.3,0,0,0,7-3.78Z" transform="translate(-194.98 -152)"/><path class="cls-10" d="M824.31,1089.63H735.24a8.34,8.34,0,0,1-8-10.66l13.23-45.89a8.35,8.35,0,0,1,8-6h62.6a8.34,8.34,0,0,1,8,6L832.33,1079A8.34,8.34,0,0,1,824.31,1089.63Z" transform="translate(-194.98 -152)"/><path class="cls-11" d="M830.37,1086.6l-88.07-57.23a8.27,8.27,0,0,0-1.84,3.29l-13.24,45.89a8.34,8.34,0,0,0,8,10.66h89.08A8.28,8.28,0,0,0,830.37,1086.6Z" transform="translate(-194.98 -152)"/><path class="cls-7" d="M728.05,1085.64a8.29,8.29,0,0,0,7,3.78H824.1a8.27,8.27,0,0,0,7-3.78Z" transform="translate(-194.98 -152)"/><path class="cls-10" d="M1306.15,1029.87h-89.07a8.35,8.35,0,0,1-8-10.66l13.24-45.89a8.35,8.35,0,0,1,8-6h62.59a8.35,8.35,0,0,1,8,6l13.23,45.89A8.34,8.34,0,0,1,1306.15,1029.87Z" transform="translate(-194.98 -152)"/><path class="cls-11" d="M1312.21,1026.83l-88.07-57.22a8.42,8.42,0,0,0-1.85,3.29l-13.23,45.89a8.34,8.34,0,0,0,8,10.66h89.07A8.27,8.27,0,0,0,1312.21,1026.83Z" transform="translate(-194.98 -152)"/><path class="cls-7" d="M1209.89,1025.88a8.29,8.29,0,0,0,7,3.78h89.07a8.29,8.29,0,0,0,7-3.78Z" transform="translate(-194.98 -152)"/><path class="cls-10" d="M1200.32,1030.35h-89.07a8.35,8.35,0,0,1-8-10.66l13.24-45.89a8.35,8.35,0,0,1,8-6h62.59a8.35,8.35,0,0,1,8,6l13.24,45.89A8.35,8.35,0,0,1,1200.32,1030.35Z" transform="translate(-194.98 -152)"/><path class="cls-11" d="M1206.38,1027.31l-88.07-57.22a8.42,8.42,0,0,0-1.85,3.29l-13.23,45.89a8.34,8.34,0,0,0,8,10.66h89.07A8.25,8.25,0,0,0,1206.38,1027.31Z" transform="translate(-194.98 -152)"/><path class="cls-7" d="M1104.06,1026.36a8.29,8.29,0,0,0,7,3.78h89.07a8.29,8.29,0,0,0,7-3.78Z" transform="translate(-194.98 -152)"/><path class="cls-10" d="M1093,1029.33h-89.07a8.35,8.35,0,0,1-8-10.66l13.24-45.89a8.34,8.34,0,0,1,8-6h62.6a8.35,8.35,0,0,1,8,6l13.23,45.89A8.34,8.34,0,0,1,1093,1029.33Z" transform="translate(-194.98 -152)"/><path class="cls-11" d="M1099,1026.29l-88.08-57.22a8.4,8.4,0,0,0-1.84,3.29l-13.24,45.89a8.35,8.35,0,0,0,8,10.66h89.07A8.27,8.27,0,0,0,1099,1026.29Z" transform="translate(-194.98 -152)"/><path class="cls-7" d="M996.69,1025.34a8.29,8.29,0,0,0,7,3.78h89.07a8.29,8.29,0,0,0,7-3.78Z" transform="translate(-194.98 -152)"/><path class="cls-10" d="M986,1029H896.88a8.34,8.34,0,0,1-8-10.66l13.23-45.89a8.35,8.35,0,0,1,8-6h62.6a8.34,8.34,0,0,1,8,6L994,1018.3A8.34,8.34,0,0,1,986,1029Z" transform="translate(-194.98 -152)"/><path class="cls-11" d="M992,1025.92,903.94,968.7A8.27,8.27,0,0,0,902.1,972l-13.24,45.89a8.34,8.34,0,0,0,8,10.66H986A8.25,8.25,0,0,0,992,1025.92Z" transform="translate(-194.98 -152)"/><path class="cls-7" d="M889.69,1025a8.29,8.29,0,0,0,7,3.78h89.07a8.27,8.27,0,0,0,7-3.78Z" transform="translate(-194.98 -152)"/><path class="cls-10" d="M878.58,1027.94H789.51a8.34,8.34,0,0,1-8-10.66l13.23-45.89a8.35,8.35,0,0,1,8-6h62.6a8.34,8.34,0,0,1,8,6l13.24,45.89A8.35,8.35,0,0,1,878.58,1027.94Z" transform="translate(-194.98 -152)"/><path class="cls-11" d="M884.64,1024.9l-88.07-57.22a8.27,8.27,0,0,0-1.84,3.29l-13.24,45.89a8.34,8.34,0,0,0,8,10.66h89.08A8.25,8.25,0,0,0,884.64,1024.9Z" transform="translate(-194.98 -152)"/><path class="cls-7" d="M782.32,1024a8.29,8.29,0,0,0,7,3.78h89.07a8.29,8.29,0,0,0,7-3.78Z" transform="translate(-194.98 -152)"/><path class="cls-10" d="M1253,969.26h-89.07a8.34,8.34,0,0,1-8-10.66l13.23-45.89a8.35,8.35,0,0,1,8-6h62.6a8.34,8.34,0,0,1,8,6L1261,958.6A8.35,8.35,0,0,1,1253,969.26Z" transform="translate(-194.98 -152)"/><path class="cls-11" d="M1259,966.22,1170.94,909a8.21,8.21,0,0,0-1.84,3.29l-13.24,45.89a8.34,8.34,0,0,0,8,10.66H1253A8.25,8.25,0,0,0,1259,966.22Z" transform="translate(-194.98 -152)"/><path class="cls-7" d="M1156.69,965.27a8.29,8.29,0,0,0,7,3.78h89.07a8.29,8.29,0,0,0,7-3.78Z" transform="translate(-194.98 -152)"/><path class="cls-10" d="M1145.58,968.24h-89.07a8.35,8.35,0,0,1-8-10.66l13.24-45.89a8.35,8.35,0,0,1,8-6h62.59a8.35,8.35,0,0,1,8,6l13.24,45.89A8.35,8.35,0,0,1,1145.58,968.24Z" transform="translate(-194.98 -152)"/><path class="cls-11" d="M1151.64,965.2,1063.57,908a8.35,8.35,0,0,0-1.85,3.29l-13.23,45.89a8.34,8.34,0,0,0,8,10.66h89.07A8.25,8.25,0,0,0,1151.64,965.2Z" transform="translate(-194.98 -152)"/><path class="cls-7" d="M1049.32,964.25a8.29,8.29,0,0,0,7,3.78h89.07a8.29,8.29,0,0,0,7-3.78Z" transform="translate(-194.98 -152)"/><path class="cls-10" d="M1038.59,967.87H949.51a8.34,8.34,0,0,1-8-10.66l13.24-45.89a8.33,8.33,0,0,1,8-6h62.6a8.34,8.34,0,0,1,8,6l13.24,45.89A8.34,8.34,0,0,1,1038.59,967.87Z" transform="translate(-194.98 -152)"/><path class="cls-11" d="M1044.65,964.83l-88.08-57.22a8.21,8.21,0,0,0-1.84,3.29l-13.24,45.89a8.34,8.34,0,0,0,8,10.66h89.07A8.29,8.29,0,0,0,1044.65,964.83Z" transform="translate(-194.98 -152)"/><path class="cls-7" d="M942.32,963.88a8.29,8.29,0,0,0,7,3.78h89.08a8.29,8.29,0,0,0,7-3.78Z" transform="translate(-194.98 -152)"/><path class="cls-10" d="M931.21,966.85H842.14a8.34,8.34,0,0,1-8-10.66l13.23-45.89a8.36,8.36,0,0,1,8-6H918a8.34,8.34,0,0,1,8,6l13.24,45.89A8.34,8.34,0,0,1,931.21,966.85Z" transform="translate(-194.98 -152)"/><path class="cls-11" d="M937.27,963.81,849.2,906.59a8.21,8.21,0,0,0-1.84,3.29l-13.24,45.89a8.34,8.34,0,0,0,8,10.66h89.08A8.25,8.25,0,0,0,937.27,963.81Z" transform="translate(-194.98 -152)"/><path class="cls-7" d="M835,962.86a8.29,8.29,0,0,0,7,3.78H931a8.31,8.31,0,0,0,7-3.78Z" transform="translate(-194.98 -152)"/><path class="cls-10" d="M1199.64,906.35h-89.07a8.34,8.34,0,0,1-8-10.66l13.23-45.89a8.35,8.35,0,0,1,8-6h62.6a8.34,8.34,0,0,1,8,6l13.24,45.89A8.35,8.35,0,0,1,1199.64,906.35Z" transform="translate(-194.98 -152)"/><path class="cls-11" d="M1205.7,903.32l-88.07-57.23a8.27,8.27,0,0,0-1.84,3.29l-13.24,45.89a8.34,8.34,0,0,0,8,10.66h89.08A8.28,8.28,0,0,0,1205.7,903.32Z" transform="translate(-194.98 -152)"/><path class="cls-7" d="M1103.38,902.36a8.29,8.29,0,0,0,7,3.78h89.07a8.29,8.29,0,0,0,7-3.78Z" transform="translate(-194.98 -152)"/><path class="cls-10" d="M1092.65,906h-89.07a8.34,8.34,0,0,1-8-10.65l13.24-45.9a8.34,8.34,0,0,1,8-6h62.6a8.35,8.35,0,0,1,8,6l13.23,45.9A8.34,8.34,0,0,1,1092.65,906Z" transform="translate(-194.98 -152)"/><path class="cls-11" d="M1098.71,903l-88.08-57.23a8.4,8.4,0,0,0-1.84,3.29l-13.24,45.9a8.34,8.34,0,0,0,8,10.65h89.07A8.3,8.3,0,0,0,1098.71,903Z" transform="translate(-194.98 -152)"/><path class="cls-7" d="M996.39,902a8.27,8.27,0,0,0,7,3.78h89.07a8.29,8.29,0,0,0,7-3.78Z" transform="translate(-194.98 -152)"/><path class="cls-10" d="M985.28,905H896.2a8.34,8.34,0,0,1-8-10.65l13.24-45.9a8.34,8.34,0,0,1,8-6H972a8.33,8.33,0,0,1,8,6l13.24,45.9A8.34,8.34,0,0,1,985.28,905Z" transform="translate(-194.98 -152)"/><path class="cls-11" d="M991.34,901.93,903.26,844.7a8.27,8.27,0,0,0-1.84,3.29l-13.24,45.9a8.34,8.34,0,0,0,8,10.65h89.07A8.3,8.3,0,0,0,991.34,901.93Z" transform="translate(-194.98 -152)"/><path class="cls-7" d="M889,901a8.3,8.3,0,0,0,7,3.78h89.08a8.29,8.29,0,0,0,7-3.78Z" transform="translate(-194.98 -152)"/><path class="cls-10" d="M1419.76,277.29h-89.07a8.35,8.35,0,0,1-8-10.66l13.24-45.89a8.34,8.34,0,0,1,8-6h62.6a8.35,8.35,0,0,1,8,6l13.23,45.89A8.34,8.34,0,0,1,1419.76,277.29Z" transform="translate(-194.98 -152)"/><path class="cls-11" d="M1425.82,274.26,1337.75,217a8.29,8.29,0,0,0-1.85,3.29l-13.23,45.89a8.34,8.34,0,0,0,8,10.66h89.07A8.3,8.3,0,0,0,1425.82,274.26Z" transform="translate(-194.98 -152)"/><path class="cls-7" d="M1323.5,273.3a8.29,8.29,0,0,0,7,3.78h89.07a8.29,8.29,0,0,0,7-3.78Z" transform="translate(-194.98 -152)"/><path class="cls-10" d="M1312.39,276.27h-89.07a8.34,8.34,0,0,1-8-10.66l13.24-45.89a8.34,8.34,0,0,1,8-6h62.6a8.35,8.35,0,0,1,8,6l13.23,45.89A8.34,8.34,0,0,1,1312.39,276.27Z" transform="translate(-194.98 -152)"/><path class="cls-11" d="M1318.45,273.24,1230.37,216a8.4,8.4,0,0,0-1.84,3.29l-13.24,45.89a8.35,8.35,0,0,0,8,10.66h89.07A8.3,8.3,0,0,0,1318.45,273.24Z" transform="translate(-194.98 -152)"/><path class="cls-7" d="M1216.13,272.28a8.29,8.29,0,0,0,7,3.78h89.07a8.29,8.29,0,0,0,7-3.78Z" transform="translate(-194.98 -152)"/><path class="cls-10" d="M1366.66,214.58h-89.08a8.34,8.34,0,0,1-8-10.66L1282.81,158a8.34,8.34,0,0,1,8-6h62.6a8.33,8.33,0,0,1,8,6l13.24,45.89A8.34,8.34,0,0,1,1366.66,214.58Z" transform="translate(-194.98 -152)"/><path class="cls-11" d="M1372.72,211.54l-88.08-57.22a8.27,8.27,0,0,0-1.84,3.29l-13.24,45.89a8.35,8.35,0,0,0,8,10.66h89.07A8.27,8.27,0,0,0,1372.72,211.54Z" transform="translate(-194.98 -152)"/><path class="cls-7" d="M1270.39,210.59a8.3,8.3,0,0,0,7,3.78h89.08a8.29,8.29,0,0,0,7-3.78Z" transform="translate(-194.98 -152)"/><path class="cls-12" d="M1391.59,693.91H1182.11c-2.74,0-5-1.83-5-4.09v-41c0-2.25,2.23-4.08,5-4.08h209.48c2.75,0,5,1.83,5,4.08v41C1396.56,692.08,1394.34,693.91,1391.59,693.91Z" transform="translate(-194.98 -152)"/><rect class="cls-13" x="982.16" y="534.49" width="219.41" height="1.82"/><rect class="cls-13" x="982.16" y="525.83" width="219.41" height="1.82"/><rect class="cls-13" x="982.16" y="516.9" width="219.41" height="1.82"/><rect class="cls-13" x="982.16" y="507.97" width="219.41" height="1.82"/><rect class="cls-13" x="982.16" y="499.05" width="219.41" height="1.82"/><rect class="cls-14" x="1060.12" y="492.72" width="68.28" height="49.19"/><rect class="cls-15" x="1060.02" y="492.72" width="9.65" height="49.19"/><rect class="cls-15" x="1118.94" y="492.72" width="9.65" height="49.19"/><path class="cls-16" d="M1177.14,691a4.92,4.92,0,0,0,4.76,2.95h209.9a4.91,4.91,0,0,0,4.76-2.95Z" transform="translate(-194.98 -152)"/><path class="cls-12" d="M1403.09,645H1193.61c-2.74,0-5-1.83-5-4.09v-41c0-2.26,2.23-4.09,5-4.09h209.48c2.75,0,5,1.83,5,4.09v41C1408.06,643.21,1405.84,645,1403.09,645Z" transform="translate(-194.98 -152)"/><rect class="cls-13" x="993.66" y="485.63" width="219.41" height="1.82"/><rect class="cls-13" x="993.66" y="476.96" width="219.41" height="1.82"/><rect class="cls-13" x="993.66" y="468.04" width="219.41" height="1.82"/><rect class="cls-13" x="993.66" y="459.11" width="219.41" height="1.82"/><rect class="cls-13" x="993.66" y="450.18" width="219.41" height="1.82"/><rect class="cls-14" x="1071.62" y="443.85" width="68.28" height="49.19"/><rect class="cls-15" x="1071.52" y="443.85" width="9.65" height="49.19"/><rect class="cls-15" x="1130.44" y="443.85" width="9.65" height="49.19"/><path class="cls-16" d="M1188.64,642.12a4.92,4.92,0,0,0,4.76,3h209.9a4.91,4.91,0,0,0,4.76-3Z" transform="translate(-194.98 -152)"/><path class="cls-17" d="M1128.08,696.28H926.34c-2.64,0-4.78-1.83-4.78-4.09v-41c0-2.25,2.14-4.08,4.78-4.08h201.74c2.64,0,4.78,1.83,4.78,4.08v41C1132.86,694.45,1130.72,696.28,1128.08,696.28Z" transform="translate(-194.98 -152)"/><rect class="cls-18" x="726.58" y="536.86" width="211.3" height="1.82"/><rect class="cls-18" x="726.58" y="528.2" width="211.3" height="1.82"/><rect class="cls-18" x="726.58" y="519.27" width="211.3" height="1.82"/><rect class="cls-18" x="726.58" y="510.34" width="211.3" height="1.82"/><rect class="cls-18" x="726.58" y="501.42" width="211.3" height="1.82"/><rect class="cls-14" x="800.6" y="495.09" width="68.28" height="49.19"/><rect class="cls-15" x="800.5" y="495.09" width="9.65" height="49.19"/><rect class="cls-15" x="859.42" y="495.09" width="9.65" height="49.19"/><path class="cls-16" d="M921.56,693.35a4.73,4.73,0,0,0,4.58,2.95h202.14a4.73,4.73,0,0,0,4.58-2.95Z" transform="translate(-194.98 -152)"/><path class="cls-19" d="M1125.55,503.45H932.8a4.35,4.35,0,0,1-4.57-4.09v-41a4.35,4.35,0,0,1,4.57-4.09h192.75a4.35,4.35,0,0,1,4.57,4.09v41A4.35,4.35,0,0,1,1125.55,503.45Z" transform="translate(-194.98 -152)"/><rect class="cls-20" x="733.25" y="344.04" width="201.89" height="1.82"/><rect class="cls-20" x="733.25" y="335.37" width="201.89" height="1.82"/><rect class="cls-20" x="733.25" y="326.44" width="201.89" height="1.82"/><rect class="cls-20" x="733.25" y="317.52" width="201.89" height="1.82"/><rect class="cls-20" x="733.25" y="308.59" width="201.89" height="1.82"/><rect class="cls-14" x="801.37" y="302.26" width="68.28" height="49.19"/><rect class="cls-15" x="801.27" y="302.26" width="9.65" height="49.19"/><rect class="cls-15" x="860.19" y="302.26" width="9.65" height="49.19"/><path class="cls-16" d="M928.23,500.53a4.51,4.51,0,0,0,4.37,3h193.15a4.51,4.51,0,0,0,4.37-3Z" transform="translate(-194.98 -152)"/><path class="cls-17" d="M1122.31,647.6H920.57c-2.64,0-4.78-1.83-4.78-4.08v-41c0-2.26,2.14-4.09,4.78-4.09h201.74c2.64,0,4.78,1.83,4.78,4.09v41C1127.09,645.77,1125,647.6,1122.31,647.6Z" transform="translate(-194.98 -152)"/><rect class="cls-18" x="720.81" y="488.19" width="211.3" height="1.82"/><rect class="cls-18" x="720.81" y="479.52" width="211.3" height="1.82"/><rect class="cls-18" x="720.81" y="470.6" width="211.3" height="1.82"/><rect class="cls-18" x="720.81" y="461.67" width="211.3" height="1.82"/><rect class="cls-18" x="720.81" y="452.75" width="211.3" height="1.82"/><rect class="cls-14" x="794.83" y="446.41" width="68.28" height="49.19"/><rect class="cls-15" x="794.73" y="446.41" width="9.65" height="49.19"/><rect class="cls-15" x="853.65" y="446.41" width="9.65" height="49.19"/><path class="cls-16" d="M915.79,644.68a4.73,4.73,0,0,0,4.58,3h202.14a4.73,4.73,0,0,0,4.58-3Z" transform="translate(-194.98 -152)"/><path class="cls-19" d="M1132.57,551.7H939.81a4.35,4.35,0,0,1-4.57-4.09v-41a4.34,4.34,0,0,1,4.57-4.08h192.76a4.33,4.33,0,0,1,4.56,4.08v41A4.34,4.34,0,0,1,1132.57,551.7Z" transform="translate(-194.98 -152)"/><rect class="cls-20" x="740.26" y="392.28" width="201.89" height="1.82"/><rect class="cls-20" x="740.26" y="383.61" width="201.89" height="1.82"/><rect class="cls-20" x="740.26" y="374.69" width="201.89" height="1.82"/><rect class="cls-20" x="740.26" y="365.76" width="201.89" height="1.82"/><rect class="cls-20" x="740.26" y="356.84" width="201.89" height="1.82"/><rect class="cls-14" x="808.38" y="350.51" width="68.28" height="49.19"/><rect class="cls-15" x="808.28" y="350.51" width="9.65" height="49.19"/><rect class="cls-15" x="867.2" y="350.51" width="9.65" height="49.19"/><path class="cls-16" d="M935.24,548.77a4.51,4.51,0,0,0,4.38,3h193.14a4.51,4.51,0,0,0,4.37-3Z" transform="translate(-194.98 -152)"/><path class="cls-19" d="M1138.47,598.92H945.71a4.35,4.35,0,0,1-4.57-4.09v-41a4.35,4.35,0,0,1,4.57-4.08h192.76a4.34,4.34,0,0,1,4.56,4.08v41A4.34,4.34,0,0,1,1138.47,598.92Z" transform="translate(-194.98 -152)"/><rect class="cls-20" x="746.16" y="439.5" width="201.89" height="1.82"/><rect class="cls-20" x="746.16" y="430.84" width="201.89" height="1.82"/><rect class="cls-20" x="746.16" y="421.91" width="201.89" height="1.82"/><rect class="cls-20" x="746.16" y="412.99" width="201.89" height="1.82"/><rect class="cls-20" x="746.16" y="404.06" width="201.89" height="1.82"/><rect class="cls-14" x="814.28" y="397.73" width="68.28" height="49.19"/><rect class="cls-15" x="814.18" y="397.73" width="9.65" height="49.19"/><rect class="cls-15" x="873.1" y="397.73" width="9.65" height="49.19"/><path class="cls-16" d="M941.14,596a4.51,4.51,0,0,0,4.38,3h193.14a4.5,4.5,0,0,0,4.37-3Z" transform="translate(-194.98 -152)"/><path class="cls-10" d="M865.66,695.8H776.58a8.34,8.34,0,0,1-8-10.66l13.24-45.89a8.33,8.33,0,0,1,8-6h62.6a8.34,8.34,0,0,1,8,6l13.24,45.89A8.34,8.34,0,0,1,865.66,695.8Z" transform="translate(-194.98 -152)"/><path class="cls-11" d="M871.72,692.76l-88.08-57.22a8.21,8.21,0,0,0-1.84,3.29l-13.24,45.89a8.35,8.35,0,0,0,8,10.66h89.07A8.29,8.29,0,0,0,871.72,692.76Z" transform="translate(-194.98 -152)"/><path class="cls-7" d="M769.39,691.81a8.31,8.31,0,0,0,7,3.78h89.08a8.32,8.32,0,0,0,7-3.78Z" transform="translate(-194.98 -152)"/><path class="cls-12" d="M1396.25,597.57H1186.76c-2.74,0-5-1.83-5-4.09v-41c0-2.26,2.22-4.09,5-4.09h209.49c2.74,0,5,1.83,5,4.09v41C1401.21,595.74,1399,597.57,1396.25,597.57Z" transform="translate(-194.98 -152)"/><rect class="cls-13" x="986.81" y="438.15" width="219.41" height="1.82"/><rect class="cls-13" x="986.81" y="429.49" width="219.41" height="1.82"/><rect class="cls-13" x="986.81" y="420.56" width="219.41" height="1.82"/><rect class="cls-13" x="986.81" y="411.64" width="219.41" height="1.82"/><rect class="cls-13" x="986.81" y="402.71" width="219.41" height="1.82"/><rect class="cls-14" x="1064.77" y="396.38" width="68.28" height="49.19"/><rect class="cls-15" x="1064.67" y="396.38" width="9.65" height="49.19"/><rect class="cls-15" x="1123.59" y="396.38" width="9.65" height="49.19"/><path class="cls-16" d="M1181.8,594.65a4.91,4.91,0,0,0,4.75,3h209.91a4.91,4.91,0,0,0,4.75-3Z" transform="translate(-194.98 -152)"/><path class="cls-12" d="M1407.75,548.7H1198.26c-2.74,0-5-1.83-5-4.08v-41c0-2.26,2.22-4.09,5-4.09h209.49c2.74,0,5,1.83,5,4.09v41C1412.71,546.87,1410.49,548.7,1407.75,548.7Z" transform="translate(-194.98 -152)"/><rect class="cls-13" x="998.31" y="389.29" width="219.41" height="1.82"/><rect class="cls-13" x="998.31" y="380.62" width="219.41" height="1.82"/><rect class="cls-13" x="998.31" y="371.7" width="219.41" height="1.82"/><rect class="cls-13" x="998.31" y="362.77" width="219.41" height="1.82"/><rect class="cls-13" x="998.31" y="353.85" width="219.41" height="1.82"/><rect class="cls-14" x="1076.27" y="347.51" width="68.28" height="49.19"/><rect class="cls-15" x="1076.17" y="347.51" width="9.65" height="49.19"/><rect class="cls-15" x="1135.09" y="347.51" width="9.65" height="49.19"/><path class="cls-16" d="M1193.3,545.78a4.91,4.91,0,0,0,4.75,3H1408a4.91,4.91,0,0,0,4.75-3Z" transform="translate(-194.98 -152)"/></svg>