<svg id="Szene_4" data-name="Szene 4" xmlns="http://www.w3.org/2000/svg" viewBox="0 0 1617.2 1271.2"><defs><style>.cls-1{fill:#242626;opacity:0.8;}.cls-2{fill:#939ca0;}.cls-3{fill:#525354;}.cls-4{fill:#7c8084;}.cls-5{fill:#5e6163;}.cls-6{fill:#3a3a3a;}.cls-16,.cls-7{fill:#111;}.cls-7{opacity:0.2;}.cls-8{fill:#b2bbbf;}.cls-9{fill:#c8cdce;}.cls-10{fill:#ffd705;}.cls-11{fill:#ffc306;opacity:0.58;}.cls-12{fill:#409de2;}.cls-13{fill:#345875;}.cls-14{fill:#ededed;}.cls-15{fill:#cecece;}.cls-16{opacity:0.15;}.cls-17{fill:#54a481;}.cls-18{fill:#254435;}.cls-19{fill:#9983b1;}.cls-20{fill:#503c7c;}.cls-21{fill:#f76c50;}.cls-22{fill:#c92825;}</style></defs><title>Industrie_4</title><ellipse class="cls-1" cx="808.6" cy="1077.07" rx="808.6" ry="194.13"/><path class="cls-2" d="M680.85,1151.19h785.82a54.35,54.35,0,0,0,54.33-54.37V330.94a54.35,54.35,0,0,0-54.33-54.37H680.85a54.35,54.35,0,0,0-54.33,54.37v765.88A54.35,54.35,0,0,0,680.85,1151.19Z" transform="translate(-194.98 -188)"/><path class="cls-3" d="M737.21,1091.09h674.68a44.34,44.34,0,0,0,44.32-44.36v-672a44.34,44.34,0,0,0-44.32-44.36H737.21a44.34,44.34,0,0,0-44.32,44.36v672A44.34,44.34,0,0,0,737.21,1091.09Z" transform="translate(-194.98 -188)"/><rect class="cls-4" x="520.04" y="963.19" width="730.12" height="170.81"/><rect class="cls-5" x="520.04" y="963.19" width="730.12" height="41.12"/><path class="cls-6" d="M499.49,142.34h747.32a14.41,14.41,0,0,1,14.41,14.41v42.53a0,0,0,0,1,0,0H499.49a0,0,0,0,1,0,0V142.34A0,0,0,0,1,499.49,142.34Z"/><rect class="cls-6" x="499.49" y="563.05" width="761.73" height="56.94"/><rect class="cls-6" x="339.39" y="682.27" width="760.74" height="56.89" transform="translate(-185.94 1242.47) rotate(-90)"/><polygon class="cls-5" points="497.91 909.41 445.76 1031.2 445.76 23.72 496.33 142.34 497.91 909.41"/><path class="cls-2" d="M611.71,1246.08h-41.5a29,29,0,0,1-29-29v-1000a29,29,0,0,1,29-29.05h41.5a29,29,0,0,1,29,29.05V1217A29,29,0,0,1,611.71,1246.08Z" transform="translate(-194.98 -188)"/><path class="cls-7" d="M824.06,1091.09H691.31V330.34L816,380.84a13,13,0,0,1,8.09,12Z" transform="translate(-194.98 -188)"/><rect class="cls-2" x="510.55" y="506.11" width="734.87" height="56.94" rx="7.21"/><rect class="cls-3" x="322.49" y="496.62" width="23.71" height="75.92"/><rect class="cls-6" x="279.82" y="347.95" width="42.67" height="371.67" rx="5.4"/><path class="cls-3" d="M268,482.38h11.85a0,0,0,0,1,0,0V593a.06.06,0,0,1-.06.06H268a3.94,3.94,0,0,1-3.94-3.94V486.34a4,4,0,0,1,4-4Z"/><rect class="cls-3" x="322.49" y="129.69" width="23.71" height="45.87"/><rect class="cls-6" x="295.63" y="102.8" width="26.87" height="162.9" rx="3.4"/><polygon class="cls-7" points="444.18 433.36 379.38 392.23 379.38 340.04 414.15 324.23 444.18 349.53 444.18 433.36"/><polygon class="cls-7" points="444.18 797.5 379.38 756.38 379.38 704.19 414.15 688.38 444.18 713.68 444.18 797.5"/><path class="cls-8" d="M616.34,518a37.89,37.89,0,0,0-53.62,1.28l27.45,26.19Z" transform="translate(-194.98 -188)"/><path class="cls-9" d="M616.34,518a38,38,0,0,1,1.28,53.66l-27.45-26.19Z" transform="translate(-194.98 -188)"/><path class="cls-9" d="M564,572.91a38,38,0,0,1-1.28-53.66l27.45,26.19Z" transform="translate(-194.98 -188)"/><path class="cls-8" d="M564,572.91a37.89,37.89,0,0,0,53.62-1.28l-27.45-26.19Z" transform="translate(-194.98 -188)"/><path class="cls-8" d="M617.32,882.94a37.92,37.92,0,0,0-53.63,1.28l27.45,26.2Z" transform="translate(-194.98 -188)"/><path class="cls-9" d="M617.32,882.94a38,38,0,0,1,1.27,53.67l-27.45-26.19Z" transform="translate(-194.98 -188)"/><path class="cls-9" d="M565,937.89a38,38,0,0,1-1.28-53.67l27.45,26.2Z" transform="translate(-194.98 -188)"/><path class="cls-8" d="M565,937.89a37.91,37.91,0,0,0,53.62-1.28l-27.45-26.19Z" transform="translate(-194.98 -188)"/><path class="cls-10" d="M1391.55,1092.52h-89.08a8.35,8.35,0,0,1-8-10.67l13.24-45.9a8.34,8.34,0,0,1,8-6h62.6a8.33,8.33,0,0,1,8,6l13.24,45.9A8.35,8.35,0,0,1,1391.55,1092.52Z" transform="translate(-194.98 -188)"/><path class="cls-11" d="M1397.61,1089.48l-88.08-57.25a8.44,8.44,0,0,0-1.84,3.3l-13.24,45.9a8.35,8.35,0,0,0,8,10.66h89.07A8.3,8.3,0,0,0,1397.61,1089.48Z" transform="translate(-194.98 -188)"/><path class="cls-7" d="M1295.28,1088.52a8.31,8.31,0,0,0,7,3.79h89.08a8.3,8.3,0,0,0,7-3.79Z" transform="translate(-194.98 -188)"/><path class="cls-10" d="M1284.18,1091.49H1195.1a8.34,8.34,0,0,1-8-10.66l13.24-45.9a8.33,8.33,0,0,1,8-6h62.6a8.34,8.34,0,0,1,8,6l13.24,45.9A8.34,8.34,0,0,1,1284.18,1091.49Z" transform="translate(-194.98 -188)"/><path class="cls-11" d="M1290.24,1088.46l-88.08-57.25a8.31,8.31,0,0,0-1.84,3.3l-13.24,45.9a8.34,8.34,0,0,0,8,10.66h89.07A8.32,8.32,0,0,0,1290.24,1088.46Z" transform="translate(-194.98 -188)"/><path class="cls-7" d="M1187.91,1087.5a8.29,8.29,0,0,0,7,3.78H1284a8.29,8.29,0,0,0,7-3.78Z" transform="translate(-194.98 -188)"/><path class="cls-10" d="M1338.44,1029.79h-89.07a8.35,8.35,0,0,1-8-10.67l13.23-45.9a8.35,8.35,0,0,1,8-6h62.6a8.34,8.34,0,0,1,8,6l13.24,45.9A8.35,8.35,0,0,1,1338.44,1029.79Z" transform="translate(-194.98 -188)"/><path class="cls-11" d="M1344.5,1026.75l-88.07-57.24a8.21,8.21,0,0,0-1.84,3.29l-13.24,45.9a8.35,8.35,0,0,0,8,10.67h89.08A8.28,8.28,0,0,0,1344.5,1026.75Z" transform="translate(-194.98 -188)"/><path class="cls-7" d="M1242.18,1025.79a8.3,8.3,0,0,0,7,3.79h89.07a8.31,8.31,0,0,0,7-3.79Z" transform="translate(-194.98 -188)"/><path class="cls-12" d="M1140.42,693.7H947.67a4.35,4.35,0,0,1-4.57-4.09v-41a4.34,4.34,0,0,1,4.57-4.08h192.75a4.34,4.34,0,0,1,4.57,4.08v41A4.35,4.35,0,0,1,1140.42,693.7Z" transform="translate(-194.98 -188)"/><rect class="cls-13" x="748.12" y="498.28" width="201.89" height="1.82"/><rect class="cls-13" x="748.12" y="489.62" width="201.89" height="1.82"/><rect class="cls-13" x="748.12" y="480.69" width="201.89" height="1.82"/><rect class="cls-13" x="748.12" y="471.76" width="201.89" height="1.82"/><rect class="cls-13" x="748.12" y="462.83" width="201.89" height="1.82"/><rect class="cls-14" x="816.24" y="456.5" width="68.28" height="49.21"/><rect class="cls-15" x="816.14" y="456.5" width="9.65" height="49.21"/><rect class="cls-15" x="875.06" y="456.5" width="9.65" height="49.21"/><path class="cls-16" d="M943.1,690.78a4.51,4.51,0,0,0,4.37,3h193.14a4.51,4.51,0,0,0,4.38-3Z" transform="translate(-194.98 -188)"/><path class="cls-12" d="M1134.52,645.48H941.77a4.34,4.34,0,0,1-4.57-4.08v-41a4.35,4.35,0,0,1,4.57-4.09h192.75a4.35,4.35,0,0,1,4.57,4.09v41A4.34,4.34,0,0,1,1134.52,645.48Z" transform="translate(-194.98 -188)"/><rect class="cls-13" x="742.22" y="450.07" width="201.89" height="1.82"/><rect class="cls-13" x="742.22" y="441.4" width="201.89" height="1.82"/><rect class="cls-13" x="742.22" y="432.47" width="201.89" height="1.82"/><rect class="cls-13" x="742.22" y="423.54" width="201.89" height="1.82"/><rect class="cls-13" x="742.22" y="414.61" width="201.89" height="1.82"/><rect class="cls-14" x="810.34" y="408.28" width="68.28" height="49.21"/><rect class="cls-15" x="810.24" y="408.28" width="9.65" height="49.21"/><rect class="cls-15" x="869.16" y="408.28" width="9.65" height="49.21"/><path class="cls-16" d="M937.2,642.56a4.51,4.51,0,0,0,4.37,3h193.14a4.51,4.51,0,0,0,4.38-3Z" transform="translate(-194.98 -188)"/><path class="cls-10" d="M865.66,695.61H776.58a8.34,8.34,0,0,1-8-10.66L781.81,639a8.33,8.33,0,0,1,8-6h62.6a8.34,8.34,0,0,1,8,6L873.67,685A8.34,8.34,0,0,1,865.66,695.61Z" transform="translate(-194.98 -188)"/><path class="cls-11" d="M871.72,692.57l-88.08-57.24a8.27,8.27,0,0,0-1.84,3.29l-13.24,45.91a8.34,8.34,0,0,0,8,10.66h89.07A8.29,8.29,0,0,0,871.72,692.57Z" transform="translate(-194.98 -188)"/><path class="cls-7" d="M769.39,691.62a8.29,8.29,0,0,0,7,3.78h89.08a8.3,8.3,0,0,0,7-3.78Z" transform="translate(-194.98 -188)"/><path class="cls-17" d="M1143.26,596.51H961.07a4.2,4.2,0,0,1-4.31-4.08v-41a4.2,4.2,0,0,1,4.31-4.08h182.19a4.21,4.21,0,0,1,4.32,4.08v41A4.21,4.21,0,0,1,1143.26,596.51Z" transform="translate(-194.98 -188)"/><rect class="cls-18" x="761.78" y="401.1" width="190.82" height="1.82"/><rect class="cls-18" x="761.78" y="392.43" width="190.82" height="1.82"/><rect class="cls-18" x="761.78" y="383.5" width="190.82" height="1.82"/><rect class="cls-18" x="761.78" y="374.58" width="190.82" height="1.82"/><rect class="cls-18" x="761.78" y="365.65" width="190.82" height="1.82"/><rect class="cls-14" x="823.99" y="359.32" width="68.27" height="49.2"/><rect class="cls-15" x="823.89" y="359.32" width="9.65" height="49.2"/><rect class="cls-15" x="882.8" y="359.32" width="9.65" height="49.2"/><path class="cls-16" d="M956.76,593.59a4.27,4.27,0,0,0,4.13,2.95h182.55a4.29,4.29,0,0,0,4.14-2.95Z" transform="translate(-194.98 -188)"/><path class="cls-19" d="M1418.63,693.77h-208c-2.72,0-4.92-1.82-4.92-4.06V649c0-2.24,2.2-4.06,4.92-4.06h208c2.72,0,4.92,1.82,4.92,4.06v40.73C1423.55,692,1421.35,693.77,1418.63,693.77Z" transform="translate(-194.98 -188)"/><rect class="cls-20" x="1010.77" y="498.41" width="217.81" height="1.8"/><rect class="cls-20" x="1010.77" y="489.8" width="217.81" height="1.8"/><rect class="cls-20" x="1010.77" y="480.94" width="217.81" height="1.8"/><rect class="cls-20" x="1010.77" y="472.07" width="217.81" height="1.8"/><rect class="cls-20" x="1010.77" y="463.21" width="217.81" height="1.8"/><rect class="cls-14" x="1088.15" y="456.92" width="67.78" height="48.84"/><rect class="cls-15" x="1088.05" y="456.92" width="9.58" height="48.84"/><rect class="cls-15" x="1146.54" y="456.92" width="9.58" height="48.84"/><path class="cls-16" d="M1205.75,690.86a4.87,4.87,0,0,0,4.72,2.94h208.36a4.87,4.87,0,0,0,4.72-2.94Z" transform="translate(-194.98 -188)"/><path class="cls-12" d="M1407,644.13H1214.22a4.34,4.34,0,0,1-4.56-4.08V599a4.34,4.34,0,0,1,4.56-4.09H1407a4.35,4.35,0,0,1,4.57,4.09v41A4.35,4.35,0,0,1,1407,644.13Z" transform="translate(-194.98 -188)"/><rect class="cls-13" x="1014.68" y="448.72" width="201.89" height="1.82"/><rect class="cls-13" x="1014.68" y="440.05" width="201.89" height="1.82"/><rect class="cls-13" x="1014.68" y="431.12" width="201.89" height="1.82"/><rect class="cls-13" x="1014.68" y="422.19" width="201.89" height="1.82"/><rect class="cls-13" x="1014.68" y="413.26" width="201.89" height="1.82"/><rect class="cls-14" x="1082.8" y="406.93" width="68.28" height="49.21"/><rect class="cls-15" x="1082.69" y="406.93" width="9.65" height="49.21"/><rect class="cls-15" x="1141.62" y="406.93" width="9.65" height="49.21"/><path class="cls-16" d="M1209.66,641.21a4.51,4.51,0,0,0,4.37,2.95h193.14a4.52,4.52,0,0,0,4.38-2.95Z" transform="translate(-194.98 -188)"/><path class="cls-17" d="M1415.38,596.49H1233.2a4.21,4.21,0,0,1-4.32-4.09v-41a4.21,4.21,0,0,1,4.32-4.09h182.18a4.21,4.21,0,0,1,4.32,4.09v41A4.21,4.21,0,0,1,1415.38,596.49Z" transform="translate(-194.98 -188)"/><rect class="cls-18" x="1033.9" y="401.08" width="190.82" height="1.82"/><rect class="cls-18" x="1033.9" y="392.41" width="190.82" height="1.82"/><rect class="cls-18" x="1033.9" y="383.48" width="190.82" height="1.82"/><rect class="cls-18" x="1033.9" y="374.55" width="190.82" height="1.82"/><rect class="cls-18" x="1033.9" y="365.63" width="190.82" height="1.82"/><rect class="cls-14" x="1096.11" y="359.29" width="68.27" height="49.2"/><rect class="cls-15" x="1096.01" y="359.29" width="9.65" height="49.2"/><rect class="cls-15" x="1154.92" y="359.29" width="9.65" height="49.2"/><path class="cls-16" d="M1228.88,593.57a4.28,4.28,0,0,0,4.14,2.95h182.55a4.28,4.28,0,0,0,4.13-2.95Z" transform="translate(-194.98 -188)"/><path class="cls-17" d="M1012,1092.53H829.85a4.21,4.21,0,0,1-4.32-4.09v-41a4.21,4.21,0,0,1,4.32-4.09H1012a4.2,4.2,0,0,1,4.31,4.09v41A4.2,4.2,0,0,1,1012,1092.53Z" transform="translate(-194.98 -188)"/><rect class="cls-18" x="630.55" y="897.11" width="190.82" height="1.82"/><rect class="cls-18" x="630.55" y="888.44" width="190.82" height="1.82"/><rect class="cls-18" x="630.55" y="879.52" width="190.82" height="1.82"/><rect class="cls-18" x="630.55" y="870.59" width="190.82" height="1.82"/><rect class="cls-18" x="630.55" y="861.66" width="190.82" height="1.82"/><rect class="cls-14" x="692.77" y="855.33" width="68.27" height="49.2"/><rect class="cls-15" x="692.66" y="855.33" width="9.65" height="49.2"/><rect class="cls-15" x="751.57" y="855.33" width="9.65" height="49.2"/><path class="cls-16" d="M825.53,1089.6a4.29,4.29,0,0,0,4.14,3h182.55a4.27,4.27,0,0,0,4.13-3Z" transform="translate(-194.98 -188)"/><path class="cls-21" d="M1015.36,1043.85H845.54a4,4,0,0,1-4-4.07V999a4,4,0,0,1,4-4.07h169.82a4,4,0,0,1,4,4.07v40.82A4,4,0,0,1,1015.36,1043.85Z" transform="translate(-194.98 -188)"/><rect class="cls-22" x="646.53" y="848.47" width="177.87" height="1.81"/><rect class="cls-22" x="646.53" y="839.84" width="177.87" height="1.81"/><rect class="cls-22" x="646.53" y="830.96" width="177.87" height="1.81"/><rect class="cls-22" x="646.53" y="822.08" width="177.87" height="1.81"/><rect class="cls-22" x="646.53" y="813.19" width="177.87" height="1.81"/><rect class="cls-14" x="702.58" y="806.89" width="67.94" height="48.96"/><rect class="cls-15" x="702.47" y="806.89" width="9.6" height="48.96"/><rect class="cls-15" x="761.1" y="806.89" width="9.6" height="48.96"/><path class="cls-16" d="M841.52,1040.94a4,4,0,0,0,3.85,2.94h170.16a4,4,0,0,0,3.86-2.94Z" transform="translate(-194.98 -188)"/><path class="cls-21" d="M1006.05,995.87H836.23a4,4,0,0,1-4-4.07V951a4,4,0,0,1,4-4.07h169.82a4,4,0,0,1,4,4.07V991.8A4,4,0,0,1,1006.05,995.87Z" transform="translate(-194.98 -188)"/><rect class="cls-22" x="637.22" y="800.49" width="177.87" height="1.81"/><rect class="cls-22" x="637.22" y="791.86" width="177.87" height="1.81"/><rect class="cls-22" x="637.22" y="782.98" width="177.87" height="1.81"/><rect class="cls-22" x="637.22" y="774.1" width="177.87" height="1.81"/><rect class="cls-22" x="637.22" y="765.21" width="177.87" height="1.81"/><rect class="cls-14" x="693.26" y="758.91" width="67.94" height="48.96"/><rect class="cls-15" x="693.16" y="758.91" width="9.6" height="48.96"/><rect class="cls-15" x="751.79" y="758.91" width="9.6" height="48.96"/><path class="cls-16" d="M832.2,993a4,4,0,0,0,3.86,2.94h170.16a4,4,0,0,0,3.85-2.94Z" transform="translate(-194.98 -188)"/><path class="cls-21" d="M1022.51,947.41H852.69a4,4,0,0,1-4-4.07V902.52a4,4,0,0,1,4-4.07h169.82a4,4,0,0,1,4,4.07v40.82A4,4,0,0,1,1022.51,947.41Z" transform="translate(-194.98 -188)"/><rect class="cls-22" x="653.68" y="752.03" width="177.87" height="1.81"/><rect class="cls-22" x="653.68" y="743.4" width="177.87" height="1.81"/><rect class="cls-22" x="653.68" y="734.52" width="177.87" height="1.81"/><rect class="cls-22" x="653.68" y="725.63" width="177.87" height="1.81"/><rect class="cls-22" x="653.68" y="716.75" width="177.87" height="1.81"/><rect class="cls-14" x="709.73" y="710.45" width="67.94" height="48.96"/><rect class="cls-15" x="709.62" y="710.45" width="9.6" height="48.96"/><rect class="cls-15" x="768.25" y="710.45" width="9.6" height="48.96"/><path class="cls-16" d="M848.67,944.5a4,4,0,0,0,3.85,2.93h170.16a4,4,0,0,0,3.86-2.93Z" transform="translate(-194.98 -188)"/><path class="cls-21" d="M1400.67,547.46H1230.85a4.05,4.05,0,0,1-4-4.07V502.57a4.05,4.05,0,0,1,4-4.07h169.82a4.05,4.05,0,0,1,4,4.07v40.82A4.05,4.05,0,0,1,1400.67,547.46Z" transform="translate(-194.98 -188)"/><rect class="cls-22" x="1031.84" y="352.08" width="177.87" height="1.81"/><rect class="cls-22" x="1031.84" y="343.45" width="177.87" height="1.81"/><rect class="cls-22" x="1031.84" y="334.57" width="177.87" height="1.81"/><rect class="cls-22" x="1031.84" y="325.69" width="177.87" height="1.81"/><rect class="cls-22" x="1031.84" y="316.8" width="177.87" height="1.81"/><rect class="cls-14" x="1087.89" y="310.5" width="67.94" height="48.96"/><rect class="cls-15" x="1087.78" y="310.5" width="9.6" height="48.96"/><rect class="cls-15" x="1146.41" y="310.5" width="9.6" height="48.96"/><path class="cls-16" d="M1226.82,544.55a4,4,0,0,0,3.86,2.94h170.16a4,4,0,0,0,3.86-2.94Z" transform="translate(-194.98 -188)"/><path class="cls-17" d="M1136.05,548.22H953.86a4.21,4.21,0,0,1-4.32-4.08v-41a4.22,4.22,0,0,1,4.32-4.09h182.19a4.21,4.21,0,0,1,4.31,4.09v41A4.2,4.2,0,0,1,1136.05,548.22Z" transform="translate(-194.98 -188)"/><rect class="cls-18" x="754.56" y="352.81" width="190.82" height="1.82"/><rect class="cls-18" x="754.56" y="344.14" width="190.82" height="1.82"/><rect class="cls-18" x="754.56" y="335.21" width="190.82" height="1.82"/><rect class="cls-18" x="754.56" y="326.29" width="190.82" height="1.82"/><rect class="cls-18" x="754.56" y="317.36" width="190.82" height="1.82"/><rect class="cls-14" x="816.78" y="311.02" width="68.27" height="49.2"/><rect class="cls-15" x="816.67" y="311.02" width="9.65" height="49.2"/><rect class="cls-15" x="875.59" y="311.02" width="9.65" height="49.2"/><path class="cls-16" d="M949.54,545.3a4.29,4.29,0,0,0,4.14,3h182.55a4.27,4.27,0,0,0,4.13-3Z" transform="translate(-194.98 -188)"/><path class="cls-21" d="M1120.61,499.94H950.78a4.05,4.05,0,0,1-4-4.07V455a4,4,0,0,1,4-4.06h169.83a4,4,0,0,1,4,4.06v40.83A4.05,4.05,0,0,1,1120.61,499.94Z" transform="translate(-194.98 -188)"/><rect class="cls-22" x="751.78" y="304.56" width="177.87" height="1.81"/><rect class="cls-22" x="751.78" y="295.93" width="177.87" height="1.81"/><rect class="cls-22" x="751.78" y="287.05" width="177.87" height="1.81"/><rect class="cls-22" x="751.78" y="278.16" width="177.87" height="1.81"/><rect class="cls-22" x="751.78" y="269.28" width="177.87" height="1.81"/><rect class="cls-14" x="807.82" y="262.98" width="67.94" height="48.96"/><rect class="cls-15" x="807.72" y="262.98" width="9.6" height="48.96"/><rect class="cls-15" x="866.34" y="262.98" width="9.6" height="48.96"/><path class="cls-16" d="M946.76,497a4,4,0,0,0,3.85,2.93h170.17a4,4,0,0,0,3.85-2.93Z" transform="translate(-194.98 -188)"/><path class="cls-21" d="M1391.93,499.54H1222.11a4,4,0,0,1-4-4.06V454.65a4,4,0,0,1,4-4.06h169.82a4,4,0,0,1,4,4.06v40.83A4,4,0,0,1,1391.93,499.54Z" transform="translate(-194.98 -188)"/><rect class="cls-22" x="1023.1" y="304.17" width="177.87" height="1.81"/><rect class="cls-22" x="1023.1" y="295.54" width="177.87" height="1.81"/><rect class="cls-22" x="1023.1" y="286.66" width="177.87" height="1.81"/><rect class="cls-22" x="1023.1" y="277.77" width="177.87" height="1.81"/><rect class="cls-22" x="1023.1" y="268.89" width="177.87" height="1.81"/><rect class="cls-14" x="1079.14" y="262.59" width="67.94" height="48.96"/><rect class="cls-15" x="1079.04" y="262.59" width="9.6" height="48.96"/><rect class="cls-15" x="1137.67" y="262.59" width="9.6" height="48.96"/><path class="cls-16" d="M1218.08,496.63a4,4,0,0,0,3.86,2.94H1392.1a4,4,0,0,0,3.85-2.94Z" transform="translate(-194.98 -188)"/><path class="cls-10" d="M1152.87,1091.74H1063.8a8.35,8.35,0,0,1-8-10.67l13.23-45.9a8.34,8.34,0,0,1,8-6h62.59a8.34,8.34,0,0,1,8,6l13.24,45.9A8.36,8.36,0,0,1,1152.87,1091.74Z" transform="translate(-194.98 -188)"/><path class="cls-11" d="M1158.93,1088.7l-88.07-57.24a8.21,8.21,0,0,0-1.84,3.29l-13.24,45.9a8.35,8.35,0,0,0,8,10.67h89.08A8.28,8.28,0,0,0,1158.93,1088.7Z" transform="translate(-194.98 -188)"/><path class="cls-7" d="M1056.61,1087.74a8.3,8.3,0,0,0,7,3.79h89.07a8.3,8.3,0,0,0,7-3.79Z" transform="translate(-194.98 -188)"/></svg>