<svg id="Szene_2" data-name="Szene 2" xmlns="http://www.w3.org/2000/svg" viewBox="0 0 1617.2 1271.2"><defs><style>.cls-1{fill:#242626;opacity:0.8;}.cls-2{fill:#939ca0;}.cls-3{fill:#525354;}.cls-4{fill:#7c8084;}.cls-5{fill:#5e6163;}.cls-6{fill:#3a3a3a;}.cls-7{fill:#111;opacity:0.2;}.cls-8{fill:#b2bbbf;}.cls-9{fill:#c8cdce;}.cls-10{fill:#ffc001;}.cls-11{fill:#ffaf02;}.cls-12,.cls-14{fill:#f78219;}.cls-13{fill:#ffe745;}.cls-14{opacity:0.33;}.cls-15{fill:#ffd705;}</style></defs><title>Industrie_2</title><ellipse class="cls-1" cx="808.6" cy="1077.07" rx="808.6" ry="194.13"/><path class="cls-2" d="M680.85,1151.19h785.82a54.35,54.35,0,0,0,54.33-54.37V330.94a54.35,54.35,0,0,0-54.33-54.37H680.85a54.35,54.35,0,0,0-54.33,54.37v765.88A54.35,54.35,0,0,0,680.85,1151.19Z" transform="translate(-194.98 -188)"/><path class="cls-3" d="M737.21,1091.09h674.68a44.34,44.34,0,0,0,44.32-44.36v-672a44.34,44.34,0,0,0-44.32-44.36H737.21a44.34,44.34,0,0,0-44.32,44.36v672A44.34,44.34,0,0,0,737.21,1091.09Z" transform="translate(-194.98 -188)"/><rect class="cls-4" x="520.04" y="963.19" width="730.12" height="170.81"/><rect class="cls-5" x="520.04" y="963.19" width="730.12" height="41.12"/><path class="cls-6" d="M499.49,142.34h747.32a14.41,14.41,0,0,1,14.41,14.41v42.53a0,0,0,0,1,0,0H499.49a0,0,0,0,1,0,0V142.34A0,0,0,0,1,499.49,142.34Z"/><rect class="cls-6" x="499.49" y="563.05" width="761.73" height="56.94"/><rect class="cls-6" x="339.39" y="682.27" width="760.74" height="56.89" transform="translate(-185.94 1242.47) rotate(-90)"/><polygon class="cls-5" points="497.91 909.41 445.76 1031.2 445.76 23.72 496.33 142.34 497.91 909.41"/><path class="cls-2" d="M611.71,1246.08h-41.5a29,29,0,0,1-29-29v-1000a29,29,0,0,1,29-29.05h41.5a29,29,0,0,1,29,29.05V1217A29,29,0,0,1,611.71,1246.08Z" transform="translate(-194.98 -188)"/><path class="cls-7" d="M824.06,1091.09H691.31V330.34L816,380.84a13,13,0,0,1,8.09,12Z" transform="translate(-194.98 -188)"/><rect class="cls-2" x="510.55" y="506.11" width="734.87" height="56.94" rx="7.21"/><rect class="cls-3" x="322.49" y="496.62" width="23.71" height="75.92"/><rect class="cls-6" x="279.82" y="347.95" width="42.67" height="371.67" rx="5.4"/><path class="cls-3" d="M268,482.38h11.85a0,0,0,0,1,0,0V593a.06.06,0,0,1-.06.06H268a3.94,3.94,0,0,1-3.94-3.94V486.34a4,4,0,0,1,4-4Z"/><rect class="cls-3" x="322.49" y="129.69" width="23.71" height="45.87"/><rect class="cls-6" x="295.63" y="102.8" width="26.87" height="162.9" rx="3.4"/><polygon class="cls-7" points="444.18 433.36 379.38 392.23 379.38 340.04 414.15 324.23 444.18 349.53 444.18 433.36"/><polygon class="cls-7" points="444.18 797.5 379.38 756.38 379.38 704.19 414.15 688.38 444.18 713.68 444.18 797.5"/><path class="cls-8" d="M616.34,518a37.89,37.89,0,0,0-53.62,1.28l27.45,26.19Z" transform="translate(-194.98 -188)"/><path class="cls-9" d="M616.34,518a38,38,0,0,1,1.28,53.66l-27.45-26.19Z" transform="translate(-194.98 -188)"/><path class="cls-9" d="M564,572.91a38,38,0,0,1-1.28-53.66l27.45,26.19Z" transform="translate(-194.98 -188)"/><path class="cls-8" d="M564,572.91a37.89,37.89,0,0,0,53.62-1.28l-27.45-26.19Z" transform="translate(-194.98 -188)"/><path class="cls-8" d="M617.32,882.94a37.92,37.92,0,0,0-53.63,1.28l27.45,26.2Z" transform="translate(-194.98 -188)"/><path class="cls-9" d="M617.32,882.94a38,38,0,0,1,1.27,53.67l-27.45-26.19Z" transform="translate(-194.98 -188)"/><path class="cls-9" d="M565,937.89a38,38,0,0,1-1.28-53.67l27.45,26.2Z" transform="translate(-194.98 -188)"/><path class="cls-8" d="M565,937.89a37.91,37.91,0,0,0,53.62-1.28l-27.45-26.19Z" transform="translate(-194.98 -188)"/><path class="cls-10" d="M1331.79,1092h-67.44a4.18,4.18,0,0,1-4.26-4.09v-7.65a4.18,4.18,0,0,1,4.26-4.09h67.44a4.17,4.17,0,0,1,4.25,4.09v7.65A4.17,4.17,0,0,1,1331.79,1092Z" transform="translate(-194.98 -188)"/><path class="cls-11" d="M1264.32,1092h33.75v-15.83h-33.75a4.16,4.16,0,0,0-4.23,4.09v7.65A4.16,4.16,0,0,0,1264.32,1092Z" transform="translate(-194.98 -188)"/><path class="cls-12" d="M1266.42,1076.16H1265c-1.86,0-3.37,1.83-3.37,4.09v7.65c0,2.26,1.51,4.09,3.37,4.09h1.38Z" transform="translate(-194.98 -188)"/><rect class="cls-13" x="1123.66" y="888.16" width="6.33" height="15.84"/><path class="cls-14" d="M1261.51,1090.41A9.68,9.68,0,0,0,1265,1092h66.82a9.68,9.68,0,0,0,3.47-1.58Z" transform="translate(-194.98 -188)"/><rect class="cls-15" x="1073.02" y="889.74" width="1.58" height="12.67" rx="0.22"/><rect class="cls-15" x="1077.77" y="889.74" width="1.58" height="12.67" rx="0.22"/><rect class="cls-15" x="1082.52" y="889.74" width="1.58" height="12.67" rx="0.22"/><rect class="cls-15" x="1087.26" y="889.74" width="1.58" height="12.67" rx="0.22"/><rect class="cls-15" x="1090.43" y="889.74" width="1.58" height="12.67" rx="0.22"/><rect class="cls-15" x="1095.17" y="889.74" width="1.58" height="12.67" rx="0.22"/><rect class="cls-15" x="1099.92" y="889.74" width="1.58" height="12.67" rx="0.22"/><rect class="cls-15" x="1104.67" y="889.74" width="1.58" height="12.67" rx="0.22"/><rect class="cls-15" x="1109.42" y="889.74" width="1.58" height="12.67" rx="0.22"/><rect class="cls-15" x="1114.16" y="889.74" width="1.58" height="12.67" rx="0.22"/><rect class="cls-15" x="1118.91" y="889.74" width="1.58" height="12.67" rx="0.22"/><rect class="cls-15" x="1123.66" y="889.74" width="1.58" height="12.67" rx="0.22"/><rect class="cls-15" x="1128.4" y="889.74" width="1.58" height="12.67" rx="0.22"/><rect class="cls-15" x="1068.28" y="889.74" width="1.58" height="12.67" rx="0.22"/><rect class="cls-15" x="1133.15" y="889.74" width="1.58" height="12.67" rx="0.22"/><rect class="cls-15" x="1136.32" y="889.74" width="1.58" height="12.67" rx="0.22"/><path class="cls-10" d="M1335,1076.16h-67.44a4.17,4.17,0,0,1-4.25-4.09v-7.66a4.17,4.17,0,0,1,4.25-4.09H1335a4.18,4.18,0,0,1,4.26,4.09v7.66A4.18,4.18,0,0,1,1335,1076.16Z" transform="translate(-194.98 -188)"/><path class="cls-11" d="M1269.06,1076.16h33.75v-15.84h-33.75a4.16,4.16,0,0,0-4.22,4.09v7.66A4.16,4.16,0,0,0,1269.06,1076.16Z" transform="translate(-194.98 -188)"/><path class="cls-12" d="M1269.59,1060.32h-1.39c-1.86,0-3.36,1.83-3.36,4.09v7.66c0,2.26,1.5,4.09,3.36,4.09h1.39Z" transform="translate(-194.98 -188)"/><rect class="cls-13" x="1126.82" y="872.32" width="6.33" height="15.84"/><path class="cls-14" d="M1264.85,1074.57a3.43,3.43,0,0,0,3.47,1.59h66.82a3.44,3.44,0,0,0,3.47-1.59Z" transform="translate(-194.98 -188)"/><rect class="cls-15" x="1076.19" y="873.91" width="1.58" height="12.67" rx="0.22"/><rect class="cls-15" x="1080.93" y="873.91" width="1.58" height="12.67" rx="0.22"/><rect class="cls-15" x="1085.68" y="873.91" width="1.58" height="12.67" rx="0.22"/><rect class="cls-15" x="1090.43" y="873.91" width="1.58" height="12.67" rx="0.22"/><rect class="cls-15" x="1095.17" y="873.91" width="1.58" height="12.67" rx="0.22"/><rect class="cls-15" x="1098.34" y="873.91" width="1.58" height="12.67" rx="0.22"/><rect class="cls-15" x="1103.09" y="873.91" width="1.58" height="12.67" rx="0.22"/><rect class="cls-15" x="1107.83" y="873.91" width="1.58" height="12.67" rx="0.22"/><rect class="cls-15" x="1112.58" y="873.91" width="1.58" height="12.67" rx="0.22"/><rect class="cls-15" x="1117.33" y="873.91" width="1.58" height="12.67" rx="0.22"/><rect class="cls-15" x="1122.07" y="873.91" width="1.58" height="12.67" rx="0.22"/><rect class="cls-15" x="1126.82" y="873.91" width="1.58" height="12.67" rx="0.22"/><rect class="cls-15" x="1131.57" y="873.91" width="1.58" height="12.67" rx="0.22"/><rect class="cls-15" x="1071.44" y="873.91" width="1.58" height="12.67" rx="0.22"/><rect class="cls-15" x="1136.32" y="873.91" width="1.58" height="12.67" rx="0.22"/><rect class="cls-15" x="1141.06" y="873.91" width="1.58" height="12.67" rx="0.22"/><path class="cls-10" d="M1328.62,1061.91h-67.44a4.18,4.18,0,0,1-4.25-4.1v-7.65a4.17,4.17,0,0,1,4.25-4.09h67.44a4.18,4.18,0,0,1,4.26,4.09v7.65A4.19,4.19,0,0,1,1328.62,1061.91Z" transform="translate(-194.98 -188)"/><path class="cls-11" d="M1262.73,1061.91h33.76v-15.84h-33.76a4.16,4.16,0,0,0-4.22,4.09v7.65A4.16,4.16,0,0,0,1262.73,1061.91Z" transform="translate(-194.98 -188)"/><path class="cls-12" d="M1263.26,1046.07h-1.39c-1.85,0-3.36,1.83-3.36,4.09v7.65c0,2.26,1.51,4.1,3.36,4.1h1.39Z" transform="translate(-194.98 -188)"/><rect class="cls-13" x="1120.49" y="858.07" width="6.33" height="15.84"/><path class="cls-14" d="M1258.57,1060.32c.76.44,2,1,3.46,1.59h66.83c1.43-.63,2.7-1.15,3.46-1.59Z" transform="translate(-194.98 -188)"/><rect class="cls-15" x="1069.86" y="859.65" width="1.58" height="12.67" rx="0.22"/><rect class="cls-15" x="1074.6" y="859.65" width="1.58" height="12.67" rx="0.22"/><rect class="cls-15" x="1079.35" y="859.65" width="1.58" height="12.67" rx="0.22"/><rect class="cls-15" x="1084.1" y="859.65" width="1.58" height="12.67" rx="0.22"/><rect class="cls-15" x="1088.85" y="859.65" width="1.58" height="12.67" rx="0.22"/><rect class="cls-15" x="1092.01" y="859.65" width="1.58" height="12.67" rx="0.22"/><rect class="cls-15" x="1096.76" y="859.65" width="1.58" height="12.67" rx="0.22"/><rect class="cls-15" x="1101.5" y="859.65" width="1.58" height="12.67" rx="0.22"/><rect class="cls-15" x="1106.25" y="859.65" width="1.58" height="12.67" rx="0.22"/><rect class="cls-15" x="1111" y="859.65" width="1.58" height="12.67" rx="0.22"/><rect class="cls-15" x="1115.75" y="859.65" width="1.58" height="12.67" rx="0.22"/><rect class="cls-15" x="1120.49" y="859.65" width="1.58" height="12.67" rx="0.22"/><rect class="cls-15" x="1125.24" y="859.65" width="1.58" height="12.67" rx="0.22"/><rect class="cls-15" x="1065.11" y="859.65" width="1.58" height="12.67" rx="0.22"/><rect class="cls-15" x="1129.99" y="859.65" width="1.58" height="12.67" rx="0.22"/><rect class="cls-15" x="1134.73" y="859.65" width="1.58" height="12.67" rx="0.22"/><path class="cls-10" d="M1333.37,1046.07h-67.44a4.18,4.18,0,0,1-4.26-4.09v-7.65a4.19,4.19,0,0,1,4.26-4.1h67.44a4.19,4.19,0,0,1,4.26,4.1V1042A4.18,4.18,0,0,1,1333.37,1046.07Z" transform="translate(-194.98 -188)"/><path class="cls-11" d="M1265.9,1046.07h33.75v-15.84H1265.9a4.17,4.17,0,0,0-4.23,4.1V1042A4.16,4.16,0,0,0,1265.9,1046.07Z" transform="translate(-194.98 -188)"/><path class="cls-12" d="M1266.42,1030.23H1265c-1.86,0-3.37,1.84-3.37,4.1V1042c0,2.26,1.51,4.09,3.37,4.09h1.38Z" transform="translate(-194.98 -188)"/><rect class="cls-13" x="1125.24" y="842.23" width="6.33" height="15.84"/><path class="cls-14" d="M1261.9,1044.49a4.47,4.47,0,0,0,3.47,1.58h66.82a4.47,4.47,0,0,0,3.47-1.58Z" transform="translate(-194.98 -188)"/><rect class="cls-15" x="1073.02" y="843.82" width="1.58" height="12.67" rx="0.22"/><rect class="cls-15" x="1077.77" y="843.82" width="1.58" height="12.67" rx="0.22"/><rect class="cls-15" x="1082.52" y="843.82" width="1.58" height="12.67" rx="0.22"/><rect class="cls-15" x="1087.26" y="843.82" width="1.58" height="12.67" rx="0.22"/><rect class="cls-15" x="1092.01" y="843.82" width="1.58" height="12.67" rx="0.22"/><rect class="cls-15" x="1096.76" y="843.82" width="1.58" height="12.67" rx="0.22"/><rect class="cls-15" x="1099.92" y="843.82" width="1.58" height="12.67" rx="0.22"/><rect class="cls-15" x="1104.67" y="843.82" width="1.58" height="12.67" rx="0.22"/><rect class="cls-15" x="1109.42" y="843.82" width="1.58" height="12.67" rx="0.22"/><rect class="cls-15" x="1114.16" y="843.82" width="1.58" height="12.67" rx="0.22"/><rect class="cls-15" x="1118.91" y="843.82" width="1.58" height="12.67" rx="0.22"/><rect class="cls-15" x="1123.66" y="843.82" width="1.58" height="12.67" rx="0.22"/><rect class="cls-15" x="1128.4" y="843.82" width="1.58" height="12.67" rx="0.22"/><rect class="cls-15" x="1068.28" y="843.82" width="1.58" height="12.67" rx="0.22"/><rect class="cls-15" x="1133.15" y="843.82" width="1.58" height="12.67" rx="0.22"/><rect class="cls-15" x="1137.9" y="843.82" width="1.58" height="12.67" rx="0.22"/><path class="cls-10" d="M1370.79,1090.26l-34.65-57.18a4.13,4.13,0,0,1,1.28-5.71l6.48-3.94a4.13,4.13,0,0,1,5.65,1.51l34.65,57.18a4.13,4.13,0,0,1-1.28,5.71l-6.48,3.93A4.14,4.14,0,0,1,1370.79,1090.26Z" transform="translate(-194.98 -188)"/><path class="cls-11" d="M1336.14,1033.08l17.46,28.81,13.41-8.14-17.46-28.81a4.13,4.13,0,0,0-5.65-1.51l-6.48,3.94A4.13,4.13,0,0,0,1336.14,1033.08Z" transform="translate(-194.98 -188)"/><path class="cls-12" d="M1350.1,1025.83l-.79-1.31a3.88,3.88,0,0,0-5.39-1.06l-6.48,3.93a3.89,3.89,0,0,0-1.54,5.27l.79,1.31Z" transform="translate(-194.98 -188)"/><rect class="cls-13" x="1364.62" y="1075.04" width="15.69" height="5.74" transform="translate(-554.92 679.39) rotate(-31.22)"/><path class="cls-14" d="M1335.39,1029.32a4.89,4.89,0,0,0,.68,3.65l34.65,57.18a4.84,4.84,0,0,0,2.92,2.28Z" transform="translate(-194.98 -188)"/><rect class="cls-15" x="1337.92" y="1031.38" width="13.36" height="1.16" rx="0.16" transform="translate(-535.14 658.3) rotate(-31.22)"/><rect class="cls-15" x="1340.3" y="1035.3" width="13.36" height="1.16" rx="0.16" transform="translate(-536.83 660.1) rotate(-31.22)"/><rect class="cls-15" x="1342.68" y="1039.23" width="13.36" height="1.16" rx="0.16" transform="translate(-538.52 661.89) rotate(-31.22)"/><rect class="cls-15" x="1345.06" y="1043.16" width="13.36" height="1.16" rx="0.16" transform="translate(-540.22 663.71) rotate(-31.22)"/><rect class="cls-15" x="1347.44" y="1047.09" width="13.36" height="1.16" rx="0.16" transform="translate(-541.9 665.5) rotate(-31.22)"/><rect class="cls-15" x="1349.82" y="1051.01" width="13.36" height="1.16" rx="0.16" transform="matrix(0.86, -0.52, 0.52, 0.86, -543.6, 667.32)"/><rect class="cls-15" x="1352.19" y="1054.94" width="13.36" height="1.16" rx="0.16" transform="translate(-545.29 669.11) rotate(-31.22)"/><rect class="cls-15" x="1354.57" y="1058.87" width="13.36" height="1.16" rx="0.16" transform="translate(-546.98 670.9) rotate(-31.22)"/><rect class="cls-15" x="1356.95" y="1062.79" width="13.36" height="1.16" rx="0.16" transform="translate(-548.67 672.7) rotate(-31.22)"/><rect class="cls-15" x="1359.33" y="1066.72" width="13.36" height="1.16" rx="0.16" transform="matrix(0.86, -0.52, 0.52, 0.86, -550.36, 674.52)"/><rect class="cls-15" x="1361.71" y="1070.65" width="13.36" height="1.16" rx="0.16" transform="translate(-552.05 676.33) rotate(-31.22)"/><rect class="cls-15" x="1364.09" y="1074.58" width="13.36" height="1.16" rx="0.16" transform="translate(-553.74 678.12) rotate(-31.22)"/><rect class="cls-15" x="1366.53" y="1078.48" width="13.36" height="1.16" rx="0.16" transform="translate(-555.41 679.95) rotate(-31.22)"/><rect class="cls-15" x="1335.54" y="1027.39" width="13.36" height="1.16" rx="0.16" transform="matrix(0.86, -0.52, 0.52, 0.86, -533.42, 656.49)"/><rect class="cls-15" x="1368.96" y="1082.39" width="13.36" height="1.16" rx="0.16" transform="translate(-557.09 681.78) rotate(-31.22)"/><rect class="cls-15" x="1371.38" y="1086.31" width="13.36" height="1.16" rx="0.16" transform="translate(-558.77 683.59) rotate(-31.22)"/><path class="cls-10" d="M975.76,1092H908.32a4.17,4.17,0,0,1-4.25-4.09v-7.65a4.17,4.17,0,0,1,4.25-4.09h67.44a4.18,4.18,0,0,1,4.26,4.09v7.65A4.18,4.18,0,0,1,975.76,1092Z" transform="translate(-194.98 -188)"/><path class="cls-11" d="M908.29,1092H942v-15.83H908.29a4.16,4.16,0,0,0-4.22,4.09v7.65A4.16,4.16,0,0,0,908.29,1092Z" transform="translate(-194.98 -188)"/><path class="cls-12" d="M908.81,1076.16h-1.38c-1.86,0-3.36,1.83-3.36,4.09v7.65c0,2.26,1.5,4.09,3.36,4.09h1.38Z" transform="translate(-194.98 -188)"/><rect class="cls-13" x="767.63" y="888.16" width="6.33" height="15.84"/><path class="cls-14" d="M903.9,1090.41a2.82,2.82,0,0,0,3.47,1.58h66.82a2.82,2.82,0,0,0,3.47-1.58Z" transform="translate(-194.98 -188)"/><rect class="cls-15" x="715.42" y="889.74" width="1.58" height="12.67" rx="0.22"/><rect class="cls-15" x="720.16" y="889.74" width="1.58" height="12.67" rx="0.22"/><rect class="cls-15" x="724.91" y="889.74" width="1.58" height="12.67" rx="0.22"/><rect class="cls-15" x="729.66" y="889.74" width="1.58" height="12.67" rx="0.22"/><rect class="cls-15" x="734.4" y="889.74" width="1.58" height="12.67" rx="0.22"/><rect class="cls-15" x="739.15" y="889.74" width="1.58" height="12.67" rx="0.22"/><rect class="cls-15" x="743.9" y="889.74" width="1.58" height="12.67" rx="0.22"/><rect class="cls-15" x="748.64" y="889.74" width="1.58" height="12.67" rx="0.22"/><rect class="cls-15" x="753.39" y="889.74" width="1.58" height="12.67" rx="0.22"/><rect class="cls-15" x="756.56" y="889.74" width="1.58" height="12.67" rx="0.22"/><rect class="cls-15" x="761.3" y="889.74" width="1.58" height="12.67" rx="0.22"/><rect class="cls-15" x="766.05" y="889.74" width="1.58" height="12.67" rx="0.22"/><rect class="cls-15" x="770.8" y="889.74" width="1.58" height="12.67" rx="0.22"/><rect class="cls-15" x="710.67" y="889.74" width="1.58" height="12.67" rx="0.22"/><rect class="cls-15" x="775.54" y="889.74" width="1.58" height="12.67" rx="0.22"/><rect class="cls-15" x="780.29" y="889.74" width="1.58" height="12.67" rx="0.22"/><path class="cls-10" d="M972.6,1077.74H905.16a4.18,4.18,0,0,1-4.26-4.09V1066a4.18,4.18,0,0,1,4.26-4.09H972.6a4.17,4.17,0,0,1,4.25,4.09v7.65A4.17,4.17,0,0,1,972.6,1077.74Z" transform="translate(-194.98 -188)"/><path class="cls-11" d="M905.13,1077.74h33.75v-15.83H905.13a4.16,4.16,0,0,0-4.23,4.09v7.65A4.16,4.16,0,0,0,905.13,1077.74Z" transform="translate(-194.98 -188)"/><path class="cls-12" d="M905.65,1061.91h-1.38c-1.86,0-3.37,1.83-3.37,4.09v7.65c0,2.26,1.51,4.09,3.37,4.09h1.38Z" transform="translate(-194.98 -188)"/><rect class="cls-13" x="764.47" y="873.91" width="6.33" height="15.84"/><path class="cls-14" d="M900.91,1076.16c.76.44,2,1,3.46,1.58H971.2c1.43-.62,2.7-1.14,3.46-1.58Z" transform="translate(-194.98 -188)"/><rect class="cls-15" x="712.25" y="875.49" width="1.58" height="12.67" rx="0.22"/><rect class="cls-15" x="717" y="875.49" width="1.58" height="12.67" rx="0.22"/><rect class="cls-15" x="721.74" y="875.49" width="1.58" height="12.67" rx="0.22"/><rect class="cls-15" x="726.49" y="875.49" width="1.58" height="12.67" rx="0.22"/><rect class="cls-15" x="731.24" y="875.49" width="1.58" height="12.67" rx="0.22"/><rect class="cls-15" x="735.99" y="875.49" width="1.58" height="12.67" rx="0.22"/><rect class="cls-15" x="740.73" y="875.49" width="1.58" height="12.67" rx="0.22"/><rect class="cls-15" x="745.48" y="875.49" width="1.58" height="12.67" rx="0.22"/><rect class="cls-15" x="750.23" y="875.49" width="1.58" height="12.67" rx="0.22"/><rect class="cls-15" x="754.97" y="875.49" width="1.58" height="12.67" rx="0.22"/><rect class="cls-15" x="758.14" y="875.49" width="1.58" height="12.67" rx="0.22"/><rect class="cls-15" x="762.89" y="875.49" width="1.58" height="12.67" rx="0.22"/><rect class="cls-15" x="767.63" y="875.49" width="1.58" height="12.67" rx="0.22"/><rect class="cls-15" x="709.09" y="875.49" width="1.58" height="12.67" rx="0.22"/><rect class="cls-15" x="772.38" y="875.49" width="1.58" height="12.67" rx="0.22"/><rect class="cls-15" x="777.13" y="875.49" width="1.58" height="12.67" rx="0.22"/><path class="cls-10" d="M972.6,1061.91H905.16a4.19,4.19,0,0,1-4.26-4.1v-7.65a4.18,4.18,0,0,1,4.26-4.09H972.6a4.17,4.17,0,0,1,4.25,4.09v7.65A4.18,4.18,0,0,1,972.6,1061.91Z" transform="translate(-194.98 -188)"/><path class="cls-11" d="M905.13,1061.91h33.75v-15.84H905.13a4.16,4.16,0,0,0-4.23,4.09v7.65A4.17,4.17,0,0,0,905.13,1061.91Z" transform="translate(-194.98 -188)"/><path class="cls-12" d="M905.65,1046.07h-1.38c-1.86,0-3.37,1.83-3.37,4.09v7.65c0,2.26,1.51,4.1,3.37,4.1h1.38Z" transform="translate(-194.98 -188)"/><rect class="cls-13" x="764.47" y="858.07" width="6.33" height="15.84"/><path class="cls-14" d="M901,1060.32a3.4,3.4,0,0,0,3.47,1.59h66.82a3.4,3.4,0,0,0,3.47-1.59Z" transform="translate(-194.98 -188)"/><rect class="cls-15" x="712.25" y="859.65" width="1.58" height="12.67" rx="0.22"/><rect class="cls-15" x="717" y="859.65" width="1.58" height="12.67" rx="0.22"/><rect class="cls-15" x="721.74" y="859.65" width="1.58" height="12.67" rx="0.22"/><rect class="cls-15" x="726.49" y="859.65" width="1.58" height="12.67" rx="0.22"/><rect class="cls-15" x="731.24" y="859.65" width="1.58" height="12.67" rx="0.22"/><rect class="cls-15" x="735.99" y="859.65" width="1.58" height="12.67" rx="0.22"/><rect class="cls-15" x="740.73" y="859.65" width="1.58" height="12.67" rx="0.22"/><rect class="cls-15" x="745.48" y="859.65" width="1.58" height="12.67" rx="0.22"/><rect class="cls-15" x="750.23" y="859.65" width="1.58" height="12.67" rx="0.22"/><rect class="cls-15" x="754.97" y="859.65" width="1.58" height="12.67" rx="0.22"/><rect class="cls-15" x="758.14" y="859.65" width="1.58" height="12.67" rx="0.22"/><rect class="cls-15" x="762.89" y="859.65" width="1.58" height="12.67" rx="0.22"/><rect class="cls-15" x="767.63" y="859.65" width="1.58" height="12.67" rx="0.22"/><rect class="cls-15" x="709.09" y="859.65" width="1.58" height="12.67" rx="0.22"/><rect class="cls-15" x="772.38" y="859.65" width="1.58" height="12.67" rx="0.22"/><rect class="cls-15" x="777.13" y="859.65" width="1.58" height="12.67" rx="0.22"/><rect class="cls-7" x="735.99" y="858.07" width="17.41" height="45.92"/><path class="cls-10" d="M929.88,1093.58H862.43a4.17,4.17,0,0,1-4.25-4.09v-7.66a4.17,4.17,0,0,1,4.25-4.09h67.45a4.17,4.17,0,0,1,4.25,4.09v7.66A4.17,4.17,0,0,1,929.88,1093.58Z" transform="translate(-194.98 -188)"/><path class="cls-11" d="M862.41,1093.58h33.75v-15.84H862.41a4.16,4.16,0,0,0-4.23,4.09v7.66A4.16,4.16,0,0,0,862.41,1093.58Z" transform="translate(-194.98 -188)"/><path class="cls-12" d="M862.93,1077.74h-1.39c-1.85,0-3.36,1.83-3.36,4.09v7.66c0,2.26,1.51,4.09,3.36,4.09h1.39Z" transform="translate(-194.98 -188)"/><rect class="cls-13" x="721.74" y="889.74" width="6.33" height="15.84"/><path class="cls-14" d="M858.49,1093.58c.76-1.32,2-.8,3.47-1.59h66.82c1.44.79,2.71.27,3.47,1.59Z" transform="translate(-194.98 -188)"/><rect class="cls-15" x="671.11" y="891.33" width="1.58" height="12.67" rx="0.22"/><rect class="cls-15" x="675.86" y="891.33" width="1.58" height="12.67" rx="0.22"/><rect class="cls-15" x="679.02" y="891.33" width="1.58" height="12.67" rx="0.22"/><rect class="cls-15" x="683.77" y="891.33" width="1.58" height="12.67" rx="0.22"/><rect class="cls-15" x="688.52" y="891.33" width="1.58" height="12.67" rx="0.22"/><rect class="cls-15" x="693.26" y="891.33" width="1.58" height="12.67" rx="0.22"/><rect class="cls-15" x="698.01" y="891.33" width="1.58" height="12.67" rx="0.22"/><rect class="cls-15" x="702.76" y="891.33" width="1.58" height="12.67" rx="0.22"/><rect class="cls-15" x="707.5" y="891.33" width="1.58" height="12.67" rx="0.22"/><rect class="cls-15" x="712.25" y="891.33" width="1.58" height="12.67" rx="0.22"/><rect class="cls-15" x="717" y="891.33" width="1.58" height="12.67" rx="0.22"/><rect class="cls-15" x="721.74" y="891.33" width="1.58" height="12.67" rx="0.22"/><rect class="cls-15" x="724.91" y="891.33" width="1.58" height="12.67" rx="0.22"/><rect class="cls-15" x="666.36" y="891.33" width="1.58" height="12.67" rx="0.22"/><rect class="cls-15" x="729.66" y="889.74" width="1.58" height="12.67" rx="0.22"/><rect class="cls-15" x="734.4" y="889.74" width="1.58" height="12.67" rx="0.22"/><path class="cls-10" d="M929.88,1077.74H862.43a4.17,4.17,0,0,1-4.25-4.09V1066a4.17,4.17,0,0,1,4.25-4.09h67.45a4.17,4.17,0,0,1,4.25,4.09v7.65A4.17,4.17,0,0,1,929.88,1077.74Z" transform="translate(-194.98 -188)"/><path class="cls-11" d="M862.41,1077.74h33.75v-15.83H862.41a4.16,4.16,0,0,0-4.23,4.09v7.65A4.16,4.16,0,0,0,862.41,1077.74Z" transform="translate(-194.98 -188)"/><path class="cls-12" d="M864.51,1061.91h-1.38c-1.86,0-3.37,1.83-3.37,4.09v7.65c0,2.26,1.51,4.09,3.37,4.09h1.38Z" transform="translate(-194.98 -188)"/><rect class="cls-13" x="721.74" y="873.91" width="6.33" height="15.84"/><path class="cls-14" d="M858.67,1076.16a5.86,5.86,0,0,0,3.46,1.58H929a5.86,5.86,0,0,0,3.46-1.58Z" transform="translate(-194.98 -188)"/><rect class="cls-15" x="671.11" y="875.49" width="1.58" height="12.67" rx="0.22"/><rect class="cls-15" x="675.86" y="875.49" width="1.58" height="12.67" rx="0.22"/><rect class="cls-15" x="680.6" y="875.49" width="1.58" height="12.67" rx="0.22"/><rect class="cls-15" x="683.77" y="875.49" width="1.58" height="12.67" rx="0.22"/><rect class="cls-15" x="688.52" y="875.49" width="1.58" height="12.67" rx="0.22"/><rect class="cls-15" x="693.26" y="875.49" width="1.58" height="12.67" rx="0.22"/><rect class="cls-15" x="698.01" y="875.49" width="1.58" height="12.67" rx="0.22"/><rect class="cls-15" x="702.76" y="875.49" width="1.58" height="12.67" rx="0.22"/><rect class="cls-15" x="707.5" y="875.49" width="1.58" height="12.67" rx="0.22"/><rect class="cls-15" x="712.25" y="875.49" width="1.58" height="12.67" rx="0.22"/><rect class="cls-15" x="717" y="875.49" width="1.58" height="12.67" rx="0.22"/><rect class="cls-15" x="721.74" y="875.49" width="1.58" height="12.67" rx="0.22"/><rect class="cls-15" x="726.49" y="875.49" width="1.58" height="12.67" rx="0.22"/><rect class="cls-15" x="666.36" y="875.49" width="1.58" height="12.67" rx="0.22"/><rect class="cls-15" x="729.66" y="875.49" width="1.58" height="12.67" rx="0.22"/><rect class="cls-15" x="734.4" y="875.49" width="1.58" height="12.67" rx="0.22"/><path class="cls-10" d="M929.88,1061.91H862.43a4.18,4.18,0,0,1-4.25-4.1v-7.65a4.17,4.17,0,0,1,4.25-4.09h67.45a4.17,4.17,0,0,1,4.25,4.09v7.65A4.18,4.18,0,0,1,929.88,1061.91Z" transform="translate(-194.98 -188)"/><path class="cls-11" d="M862.41,1061.91h33.75v-15.84H862.41a4.16,4.16,0,0,0-4.23,4.09v7.65A4.17,4.17,0,0,0,862.41,1061.91Z" transform="translate(-194.98 -188)"/><path class="cls-12" d="M864.51,1046.07h-1.38c-1.86,0-3.37,1.83-3.37,4.09v7.65c0,2.26,1.51,4.1,3.37,4.1h1.38Z" transform="translate(-194.98 -188)"/><rect class="cls-13" x="721.74" y="858.07" width="6.33" height="15.84"/><path class="cls-14" d="M858.71,1061.91c.77,0,2,.57,3.47-1.59H929c1.44,2.16,2.71,1.64,3.47,1.59Z" transform="translate(-194.98 -188)"/><rect class="cls-15" x="671.11" y="859.65" width="1.58" height="12.67" rx="0.22"/><rect class="cls-15" x="675.86" y="859.65" width="1.58" height="12.67" rx="0.22"/><rect class="cls-15" x="680.6" y="859.65" width="1.58" height="12.67" rx="0.22"/><rect class="cls-15" x="683.77" y="859.65" width="1.58" height="12.67" rx="0.22"/><rect class="cls-15" x="688.52" y="859.65" width="1.58" height="12.67" rx="0.22"/><rect class="cls-15" x="693.26" y="859.65" width="1.58" height="12.67" rx="0.22"/><rect class="cls-15" x="698.01" y="859.65" width="1.58" height="12.67" rx="0.22"/><rect class="cls-15" x="702.76" y="859.65" width="1.58" height="12.67" rx="0.22"/><rect class="cls-15" x="707.5" y="859.65" width="1.58" height="12.67" rx="0.22"/><rect class="cls-15" x="712.25" y="859.65" width="1.58" height="12.67" rx="0.22"/><rect class="cls-15" x="717" y="859.65" width="1.58" height="12.67" rx="0.22"/><rect class="cls-15" x="721.74" y="859.65" width="1.58" height="12.67" rx="0.22"/><rect class="cls-15" x="726.49" y="859.65" width="1.58" height="12.67" rx="0.22"/><rect class="cls-15" x="666.36" y="859.65" width="1.58" height="12.67" rx="0.22"/><rect class="cls-15" x="729.66" y="859.65" width="1.58" height="12.67" rx="0.22"/><rect class="cls-15" x="734.4" y="859.65" width="1.58" height="12.67" rx="0.22"/><path class="cls-10" d="M929.88,1047.65H862.43a4.17,4.17,0,0,1-4.25-4.09v-7.65a4.17,4.17,0,0,1,4.25-4.09h67.45a4.17,4.17,0,0,1,4.25,4.09v7.65A4.17,4.17,0,0,1,929.88,1047.65Z" transform="translate(-194.98 -188)"/><path class="cls-11" d="M864,1047.65h33.75v-15.83H864a4.16,4.16,0,0,0-4.23,4.09v7.65A4.16,4.16,0,0,0,864,1047.65Z" transform="translate(-194.98 -188)"/><path class="cls-12" d="M864.51,1031.82h-1.38c-1.86,0-3.37,1.83-3.37,4.09v7.65c0,2.26,1.51,4.09,3.37,4.09h1.38Z" transform="translate(-194.98 -188)"/><rect class="cls-13" x="721.74" y="843.82" width="6.33" height="15.84"/><path class="cls-14" d="M858.89,1046.07a10.87,10.87,0,0,0,3.46,1.58h66.83a10.87,10.87,0,0,0,3.46-1.58Z" transform="translate(-194.98 -188)"/><rect class="cls-15" x="671.11" y="845.4" width="1.58" height="12.67" rx="0.22"/><rect class="cls-15" x="675.86" y="845.4" width="1.58" height="12.67" rx="0.22"/><rect class="cls-15" x="680.6" y="845.4" width="1.58" height="12.67" rx="0.22"/><rect class="cls-15" x="685.35" y="845.4" width="1.58" height="12.67" rx="0.22"/><rect class="cls-15" x="688.52" y="845.4" width="1.58" height="12.67" rx="0.22"/><rect class="cls-15" x="693.26" y="845.4" width="1.58" height="12.67" rx="0.22"/><rect class="cls-15" x="698.01" y="845.4" width="1.58" height="12.67" rx="0.22"/><rect class="cls-15" x="702.76" y="845.4" width="1.58" height="12.67" rx="0.22"/><rect class="cls-15" x="707.5" y="845.4" width="1.58" height="12.67" rx="0.22"/><rect class="cls-15" x="712.25" y="845.4" width="1.58" height="12.67" rx="0.22"/><rect class="cls-15" x="717" y="845.4" width="1.58" height="12.67" rx="0.22"/><rect class="cls-15" x="721.74" y="845.4" width="1.58" height="12.67" rx="0.22"/><rect class="cls-15" x="726.49" y="845.4" width="1.58" height="12.67" rx="0.22"/><rect class="cls-15" x="666.36" y="845.4" width="1.58" height="12.67" rx="0.22"/><rect class="cls-15" x="731.24" y="845.4" width="1.58" height="12.67" rx="0.22"/><rect class="cls-15" x="735.99" y="845.4" width="1.58" height="12.67" rx="0.22"/><path class="cls-10" d="M1118.17,694.52h-67.44a4.17,4.17,0,0,1-4.25-4.09v-7.65a4.18,4.18,0,0,1,4.25-4.1h67.44a4.19,4.19,0,0,1,4.26,4.1v7.65A4.18,4.18,0,0,1,1118.17,694.52Z" transform="translate(-194.98 -188)"/><path class="cls-11" d="M1050.7,694.52h33.75V678.68H1050.7a4.16,4.16,0,0,0-4.22,4.1v7.65A4.16,4.16,0,0,0,1050.7,694.52Z" transform="translate(-194.98 -188)"/><path class="cls-12" d="M1051.22,678.68h-1.38c-1.86,0-3.36,1.84-3.36,4.1v7.65c0,2.26,1.5,4.09,3.36,4.09h1.38Z" transform="translate(-194.98 -188)"/><rect class="cls-13" x="910.04" y="490.68" width="6.33" height="15.84"/><path class="cls-14" d="M1047.08,692.94a3.37,3.37,0,0,0,3.47,1.58h66.82a3.38,3.38,0,0,0,3.47-1.58Z" transform="translate(-194.98 -188)"/><rect class="cls-15" x="857.83" y="492.27" width="1.58" height="12.67" rx="0.22"/><rect class="cls-15" x="862.57" y="492.27" width="1.58" height="12.67" rx="0.22"/><rect class="cls-15" x="867.32" y="492.27" width="1.58" height="12.67" rx="0.22"/><rect class="cls-15" x="872.07" y="492.27" width="1.58" height="12.67" rx="0.22"/><rect class="cls-15" x="876.81" y="492.27" width="1.58" height="12.67" rx="0.22"/><rect class="cls-15" x="881.56" y="492.27" width="1.58" height="12.67" rx="0.22"/><rect class="cls-15" x="886.31" y="492.27" width="1.58" height="12.67" rx="0.22"/><rect class="cls-15" x="891.05" y="492.27" width="1.58" height="12.67" rx="0.22"/><rect class="cls-15" x="895.8" y="492.27" width="1.58" height="12.67" rx="0.22"/><rect class="cls-15" x="900.55" y="492.27" width="1.58" height="12.67" rx="0.22"/><rect class="cls-15" x="903.71" y="492.27" width="1.58" height="12.67" rx="0.22"/><rect class="cls-15" x="908.46" y="492.27" width="1.58" height="12.67" rx="0.22"/><rect class="cls-15" x="913.21" y="492.27" width="1.58" height="12.67" rx="0.22"/><rect class="cls-15" x="854.66" y="492.27" width="1.58" height="12.67" rx="0.22"/><rect class="cls-15" x="917.95" y="492.27" width="1.58" height="12.67" rx="0.22"/><rect class="cls-15" x="922.7" y="492.27" width="1.58" height="12.67" rx="0.22"/><path class="cls-10" d="M1174.67,695.11l-65-18.1a4.18,4.18,0,0,1-3-5.08l2-7.38a4.19,4.19,0,0,1,5.2-2.8l65,18.1a4.18,4.18,0,0,1,3,5.08l-2.05,7.38A4.19,4.19,0,0,1,1174.67,695.11Z" transform="translate(-194.98 -188)"/><path class="cls-11" d="M1109.67,677l32.51,9.06,4.25-15.26-32.52-9a4.16,4.16,0,0,0-5.17,2.8l-2,7.38A4.16,4.16,0,0,0,1109.67,677Z" transform="translate(-194.98 -188)"/><path class="cls-12" d="M1114.41,661.89l-1.33-.38c-1.79-.49-3.73.87-4.34,3l-2,7.38c-.6,2.17.36,4.34,2.15,4.84l1.33.37Z" transform="translate(-194.98 -188)"/><rect class="cls-13" x="1159.25" y="681.63" width="15.83" height="6.33" transform="translate(-0.66 1437.44) rotate(-74.44)"/><path class="cls-14" d="M1106.84,674.57a3.36,3.36,0,0,0,2.91,2.45L1174.13,695a3.36,3.36,0,0,0,3.76-.59Z" transform="translate(-194.98 -188)"/><rect class="cls-15" x="1113.79" y="663.82" width="1.58" height="12.67" rx="0.22" transform="translate(25.69 -462.48) rotate(15.56)"/><rect class="cls-15" x="1118.36" y="665.09" width="1.58" height="12.67" rx="0.22" transform="translate(26.2 -463.66) rotate(15.56)"/><rect class="cls-15" x="1122.93" y="666.36" width="1.58" height="12.67" rx="0.22" transform="translate(26.71 -464.84) rotate(15.56)"/><rect class="cls-15" x="1127.51" y="667.64" width="1.58" height="12.67" rx="0.22" transform="matrix(0.96, 0.27, -0.27, 0.96, 27.22, -466.02)"/><rect class="cls-15" x="1132.08" y="668.91" width="1.58" height="12.67" rx="0.22" transform="translate(27.73 -467.19) rotate(15.56)"/><rect class="cls-15" x="1136.65" y="670.19" width="1.58" height="12.67" rx="0.22" transform="matrix(0.96, 0.27, -0.27, 0.96, 28.24, -468.38)"/><rect class="cls-15" x="1141.23" y="671.46" width="1.58" height="12.67" rx="0.22" transform="matrix(0.96, 0.27, -0.27, 0.96, 28.75, -469.56)"/><rect class="cls-15" x="1145.8" y="672.73" width="1.58" height="12.67" rx="0.22" transform="translate(29.26 -470.74) rotate(15.56)"/><rect class="cls-15" x="1150.37" y="674.01" width="1.58" height="12.67" rx="0.22" transform="translate(29.77 -471.92) rotate(15.56)"/><rect class="cls-15" x="1154.95" y="675.28" width="1.58" height="12.67" rx="0.22" transform="translate(30.28 -473.1) rotate(15.56)"/><rect class="cls-15" x="1158" y="676.13" width="1.58" height="12.67" rx="0.22" transform="translate(30.62 -473.89) rotate(15.56)"/><rect class="cls-15" x="1162.57" y="677.4" width="1.58" height="12.67" rx="0.22" transform="translate(31.13 -475.07) rotate(15.56)"/><rect class="cls-15" x="1167.14" y="678.68" width="1.58" height="12.67" rx="0.22" transform="matrix(0.96, 0.27, -0.27, 0.96, 31.64, -476.25)"/><rect class="cls-15" x="1110.74" y="662.97" width="1.58" height="12.67" rx="0.22" transform="translate(25.35 -461.69) rotate(15.56)"/><rect class="cls-15" x="1171.72" y="679.95" width="1.58" height="12.67" rx="0.22" transform="translate(32.15 -477.43) rotate(15.56)"/><rect class="cls-15" x="1176.29" y="681.22" width="1.58" height="12.67" rx="0.22" transform="translate(32.66 -478.61) rotate(15.56)"/><path class="cls-10" d="M1368.18,696.1h-67.44a4.17,4.17,0,0,1-4.25-4.09v-7.65a4.17,4.17,0,0,1,4.25-4.09h67.44a4.18,4.18,0,0,1,4.26,4.09V692A4.18,4.18,0,0,1,1368.18,696.1Z" transform="translate(-194.98 -188)"/><path class="cls-11" d="M1300.71,696.1h33.75V680.27h-33.75a4.16,4.16,0,0,0-4.22,4.09V692A4.16,4.16,0,0,0,1300.71,696.1Z" transform="translate(-194.98 -188)"/><path class="cls-12" d="M1301.23,680.27h-1.38c-1.86,0-3.36,1.83-3.36,4.09V692c0,2.26,1.5,4.09,3.36,4.09h1.38Z" transform="translate(-194.98 -188)"/><rect class="cls-13" x="1160.05" y="492.27" width="6.33" height="15.84"/><path class="cls-14" d="M1297.11,694.52a2.82,2.82,0,0,0,3.47,1.58h66.82a2.83,2.83,0,0,0,3.47-1.58Z" transform="translate(-194.98 -188)"/><rect class="cls-15" x="1107.83" y="493.85" width="1.58" height="12.67" rx="0.22"/><rect class="cls-15" x="1112.58" y="493.85" width="1.58" height="12.67" rx="0.22"/><rect class="cls-15" x="1117.33" y="493.85" width="1.58" height="12.67" rx="0.22"/><rect class="cls-15" x="1122.07" y="493.85" width="1.58" height="12.67" rx="0.22"/><rect class="cls-15" x="1126.82" y="493.85" width="1.58" height="12.67" rx="0.22"/><rect class="cls-15" x="1131.57" y="493.85" width="1.58" height="12.67" rx="0.22"/><rect class="cls-15" x="1136.32" y="493.85" width="1.58" height="12.67" rx="0.22"/><rect class="cls-15" x="1141.06" y="493.85" width="1.58" height="12.67" rx="0.22"/><rect class="cls-15" x="1145.81" y="493.85" width="1.58" height="12.67" rx="0.22"/><rect class="cls-15" x="1148.97" y="493.85" width="1.58" height="12.67" rx="0.22"/><rect class="cls-15" x="1153.72" y="493.85" width="1.58" height="12.67" rx="0.22"/><rect class="cls-15" x="1158.47" y="493.85" width="1.58" height="12.67" rx="0.22"/><rect class="cls-15" x="1163.22" y="493.85" width="1.58" height="12.67" rx="0.22"/><rect class="cls-15" x="1103.09" y="493.85" width="1.58" height="12.67" rx="0.22"/><rect class="cls-15" x="1167.96" y="493.85" width="1.58" height="12.67" rx="0.22"/><rect class="cls-15" x="1172.71" y="493.85" width="1.58" height="12.67" rx="0.22"/><path class="cls-10" d="M1360.27,681.85h-67.44a4.18,4.18,0,0,1-4.26-4.09v-7.65a4.19,4.19,0,0,1,4.26-4.1h67.44a4.19,4.19,0,0,1,4.26,4.1v7.65A4.18,4.18,0,0,1,1360.27,681.85Z" transform="translate(-194.98 -188)"/><path class="cls-11" d="M1292.8,681.85h33.75V666H1292.8a4.17,4.17,0,0,0-4.23,4.1v7.65A4.16,4.16,0,0,0,1292.8,681.85Z" transform="translate(-194.98 -188)"/><path class="cls-12" d="M1293.32,666h-1.38c-1.86,0-3.37,1.84-3.37,4.1v7.65c0,2.26,1.51,4.09,3.37,4.09h1.38Z" transform="translate(-194.98 -188)"/><rect class="cls-13" x="1152.14" y="478.01" width="6.33" height="15.84"/><path class="cls-14" d="M1289.37,680.27c.76.44,2,1,3.47,1.58h66.82c1.44-.62,2.71-1.14,3.47-1.58Z" transform="translate(-194.98 -188)"/><rect class="cls-15" x="1099.92" y="479.6" width="1.58" height="12.67" rx="0.22"/><rect class="cls-15" x="1104.67" y="479.6" width="1.58" height="12.67" rx="0.22"/><rect class="cls-15" x="1109.42" y="479.6" width="1.58" height="12.67" rx="0.22"/><rect class="cls-15" x="1114.16" y="479.6" width="1.58" height="12.67" rx="0.22"/><rect class="cls-15" x="1118.91" y="479.6" width="1.58" height="12.67" rx="0.22"/><rect class="cls-15" x="1123.66" y="479.6" width="1.58" height="12.67" rx="0.22"/><rect class="cls-15" x="1128.4" y="479.6" width="1.58" height="12.67" rx="0.22"/><rect class="cls-15" x="1133.15" y="479.6" width="1.58" height="12.67" rx="0.22"/><rect class="cls-15" x="1137.9" y="479.6" width="1.58" height="12.67" rx="0.22"/><rect class="cls-15" x="1142.64" y="479.6" width="1.58" height="12.67" rx="0.22"/><rect class="cls-15" x="1145.81" y="479.6" width="1.58" height="12.67" rx="0.22"/><rect class="cls-15" x="1150.56" y="479.6" width="1.58" height="12.67" rx="0.22"/><rect class="cls-15" x="1155.3" y="479.6" width="1.58" height="12.67" rx="0.22"/><rect class="cls-15" x="1096.76" y="479.6" width="1.58" height="12.67" rx="0.22"/><rect class="cls-15" x="1160.05" y="479.6" width="1.58" height="12.67" rx="0.22"/><rect class="cls-15" x="1164.8" y="479.6" width="1.58" height="12.67" rx="0.22"/><path class="cls-10" d="M1371.35,666h-67.44a4.18,4.18,0,0,1-4.26-4.09v-7.65a4.18,4.18,0,0,1,4.26-4.09h67.44a4.17,4.17,0,0,1,4.25,4.09v7.65A4.17,4.17,0,0,1,1371.35,666Z" transform="translate(-194.98 -188)"/><path class="cls-11" d="M1303.88,666h33.75V650.18h-33.75a4.16,4.16,0,0,0-4.23,4.09v7.65A4.16,4.16,0,0,0,1303.88,666Z" transform="translate(-194.98 -188)"/><path class="cls-12" d="M1304.4,650.18H1303c-1.85,0-3.36,1.83-3.36,4.09v7.65c0,2.26,1.51,4.09,3.36,4.09h1.39Z" transform="translate(-194.98 -188)"/><rect class="cls-13" x="1163.22" y="462.18" width="6.33" height="15.84"/><path class="cls-14" d="M1300.49,664.43A3.37,3.37,0,0,0,1304,666h66.82a3.37,3.37,0,0,0,3.47-1.58Z" transform="translate(-194.98 -188)"/><rect class="cls-15" x="1111" y="463.76" width="1.58" height="12.67" rx="0.22"/><rect class="cls-15" x="1115.75" y="463.76" width="1.58" height="12.67" rx="0.22"/><rect class="cls-15" x="1120.49" y="463.76" width="1.58" height="12.67" rx="0.22"/><rect class="cls-15" x="1125.24" y="463.76" width="1.58" height="12.67" rx="0.22"/><rect class="cls-15" x="1129.99" y="463.76" width="1.58" height="12.67" rx="0.22"/><rect class="cls-15" x="1134.73" y="463.76" width="1.58" height="12.67" rx="0.22"/><rect class="cls-15" x="1139.48" y="463.76" width="1.58" height="12.67" rx="0.22"/><rect class="cls-15" x="1144.23" y="463.76" width="1.58" height="12.67" rx="0.22"/><rect class="cls-15" x="1148.97" y="463.76" width="1.58" height="12.67" rx="0.22"/><rect class="cls-15" x="1153.72" y="463.76" width="1.58" height="12.67" rx="0.22"/><rect class="cls-15" x="1156.89" y="463.76" width="1.58" height="12.67" rx="0.22"/><rect class="cls-15" x="1161.63" y="463.76" width="1.58" height="12.67" rx="0.22"/><rect class="cls-15" x="1166.38" y="463.76" width="1.58" height="12.67" rx="0.22"/><rect class="cls-15" x="1107.83" y="463.76" width="1.58" height="12.67" rx="0.22"/><rect class="cls-15" x="1171.13" y="463.76" width="1.58" height="12.67" rx="0.22"/><rect class="cls-15" x="1175.87" y="463.76" width="1.58" height="12.67" rx="0.22"/><path class="cls-10" d="M1366.6,650.18h-67.44a4.18,4.18,0,0,1-4.26-4.09v-7.65a4.19,4.19,0,0,1,4.26-4.1h67.44a4.19,4.19,0,0,1,4.26,4.1v7.65A4.18,4.18,0,0,1,1366.6,650.18Z" transform="translate(-194.98 -188)"/><path class="cls-11" d="M1299.13,650.18h33.75V634.34h-33.75a4.17,4.17,0,0,0-4.23,4.1v7.65A4.16,4.16,0,0,0,1299.13,650.18Z" transform="translate(-194.98 -188)"/><path class="cls-12" d="M1299.65,634.34h-1.38c-1.86,0-3.37,1.84-3.37,4.1v7.65c0,2.26,1.51,4.09,3.37,4.09h1.38Z" transform="translate(-194.98 -188)"/><rect class="cls-13" x="1158.47" y="446.34" width="6.33" height="15.84"/><path class="cls-14" d="M1295.53,648.6a2.83,2.83,0,0,0,3.46,1.58h66.83a2.83,2.83,0,0,0,3.46-1.58Z" transform="translate(-194.98 -188)"/><rect class="cls-15" x="1106.25" y="447.93" width="1.58" height="12.67" rx="0.22"/><rect class="cls-15" x="1111" y="447.93" width="1.58" height="12.67" rx="0.22"/><rect class="cls-15" x="1115.75" y="447.93" width="1.58" height="12.67" rx="0.22"/><rect class="cls-15" x="1120.49" y="447.93" width="1.58" height="12.67" rx="0.22"/><rect class="cls-15" x="1125.24" y="447.93" width="1.58" height="12.67" rx="0.22"/><rect class="cls-15" x="1129.99" y="447.93" width="1.58" height="12.67" rx="0.22"/><rect class="cls-15" x="1134.73" y="447.93" width="1.58" height="12.67" rx="0.22"/><rect class="cls-15" x="1139.48" y="447.93" width="1.58" height="12.67" rx="0.22"/><rect class="cls-15" x="1144.23" y="447.93" width="1.58" height="12.67" rx="0.22"/><rect class="cls-15" x="1147.39" y="447.93" width="1.58" height="12.67" rx="0.22"/><rect class="cls-15" x="1152.14" y="447.93" width="1.58" height="12.67" rx="0.22"/><rect class="cls-15" x="1156.89" y="447.93" width="1.58" height="12.67" rx="0.22"/><rect class="cls-15" x="1161.63" y="447.93" width="1.58" height="12.67" rx="0.22"/><rect class="cls-15" x="1101.5" y="447.93" width="1.58" height="12.67" rx="0.22"/><rect class="cls-15" x="1166.38" y="447.93" width="1.58" height="12.67" rx="0.22"/><rect class="cls-15" x="1171.13" y="447.93" width="1.58" height="12.67" rx="0.22"/><path class="cls-10" d="M1371.35,635.93h-67.44a4.19,4.19,0,0,1-4.26-4.1v-7.65a4.18,4.18,0,0,1,4.26-4.09h67.44a4.17,4.17,0,0,1,4.25,4.09v7.65A4.18,4.18,0,0,1,1371.35,635.93Z" transform="translate(-194.98 -188)"/><path class="cls-11" d="M1303.88,635.93h33.75V620.09h-33.75a4.16,4.16,0,0,0-4.23,4.09v7.65A4.17,4.17,0,0,0,1303.88,635.93Z" transform="translate(-194.98 -188)"/><path class="cls-12" d="M1304.4,620.09H1303c-1.85,0-3.36,1.83-3.36,4.09v7.65c0,2.26,1.51,4.1,3.36,4.1h1.39Z" transform="translate(-194.98 -188)"/><rect class="cls-13" x="1163.22" y="432.09" width="6.33" height="15.84"/><path class="cls-14" d="M1300.45,634.34a37.91,37.91,0,0,0,3.46,1.59h66.83a37.91,37.91,0,0,0,3.46-1.59Z" transform="translate(-194.98 -188)"/><rect class="cls-15" x="1111" y="433.68" width="1.58" height="12.67" rx="0.22"/><rect class="cls-15" x="1115.75" y="433.68" width="1.58" height="12.67" rx="0.22"/><rect class="cls-15" x="1120.49" y="433.68" width="1.58" height="12.67" rx="0.22"/><rect class="cls-15" x="1125.24" y="433.68" width="1.58" height="12.67" rx="0.22"/><rect class="cls-15" x="1129.99" y="433.68" width="1.58" height="12.67" rx="0.22"/><rect class="cls-15" x="1134.73" y="433.68" width="1.58" height="12.67" rx="0.22"/><rect class="cls-15" x="1139.48" y="433.68" width="1.58" height="12.67" rx="0.22"/><rect class="cls-15" x="1144.23" y="433.68" width="1.58" height="12.67" rx="0.22"/><rect class="cls-15" x="1148.97" y="433.68" width="1.58" height="12.67" rx="0.22"/><rect class="cls-15" x="1153.72" y="433.68" width="1.58" height="12.67" rx="0.22"/><rect class="cls-15" x="1156.89" y="433.68" width="1.58" height="12.67" rx="0.22"/><rect class="cls-15" x="1161.63" y="433.68" width="1.58" height="12.67" rx="0.22"/><rect class="cls-15" x="1166.38" y="433.68" width="1.58" height="12.67" rx="0.22"/><rect class="cls-15" x="1107.83" y="433.68" width="1.58" height="12.67" rx="0.22"/><rect class="cls-15" x="1171.13" y="433.68" width="1.58" height="12.67" rx="0.22"/><rect class="cls-15" x="1175.87" y="433.68" width="1.58" height="12.67" rx="0.22"/><path class="cls-10" d="M1382.42,620.09H1315a4.17,4.17,0,0,1-4.25-4.09v-7.65a4.17,4.17,0,0,1,4.25-4.09h67.44a4.18,4.18,0,0,1,4.26,4.09V616A4.18,4.18,0,0,1,1382.42,620.09Z" transform="translate(-194.98 -188)"/><path class="cls-11" d="M1315,620.09h33.75V604.26H1315a4.16,4.16,0,0,0-4.22,4.09V616A4.16,4.16,0,0,0,1315,620.09Z" transform="translate(-194.98 -188)"/><path class="cls-12" d="M1315.47,604.26h-1.38c-1.86,0-3.36,1.83-3.36,4.09V616c0,2.26,1.5,4.09,3.36,4.09h1.38Z" transform="translate(-194.98 -188)"/><rect class="cls-13" x="1174.29" y="416.26" width="6.33" height="15.84"/><path class="cls-14" d="M1311.57,618.51a3.37,3.37,0,0,0,3.47,1.58h66.82a3.37,3.37,0,0,0,3.47-1.58Z" transform="translate(-194.98 -188)"/><rect class="cls-15" x="1122.07" y="417.84" width="1.58" height="12.67" rx="0.22"/><rect class="cls-15" x="1126.82" y="417.84" width="1.58" height="12.67" rx="0.22"/><rect class="cls-15" x="1131.57" y="417.84" width="1.58" height="12.67" rx="0.22"/><rect class="cls-15" x="1136.32" y="417.84" width="1.58" height="12.67" rx="0.22"/><rect class="cls-15" x="1141.06" y="417.84" width="1.58" height="12.67" rx="0.22"/><rect class="cls-15" x="1145.81" y="417.84" width="1.58" height="12.67" rx="0.22"/><rect class="cls-15" x="1150.56" y="417.84" width="1.58" height="12.67" rx="0.22"/><rect class="cls-15" x="1155.3" y="417.84" width="1.58" height="12.67" rx="0.22"/><rect class="cls-15" x="1160.05" y="417.84" width="1.58" height="12.67" rx="0.22"/><rect class="cls-15" x="1164.8" y="417.84" width="1.58" height="12.67" rx="0.22"/><rect class="cls-15" x="1167.96" y="417.84" width="1.58" height="12.67" rx="0.22"/><rect class="cls-15" x="1172.71" y="417.84" width="1.58" height="12.67" rx="0.22"/><rect class="cls-15" x="1177.46" y="417.84" width="1.58" height="12.67" rx="0.22"/><rect class="cls-15" x="1118.91" y="417.84" width="1.58" height="12.67" rx="0.22"/><rect class="cls-15" x="1182.2" y="417.84" width="1.58" height="12.67" rx="0.22"/><rect class="cls-15" x="1186.95" y="417.84" width="1.58" height="12.67" rx="0.22"/><path class="cls-7" d="M1331.3,696.1h-20.63l1.59-60.17h1.59l14.79,8.27a5.26,5.26,0,0,1,2.66,4.59Z" transform="translate(-194.98 -188)"/><path class="cls-10" d="M1312.8,696.1h-67.44a4.18,4.18,0,0,1-4.26-4.09v-7.65a4.18,4.18,0,0,1,4.26-4.09h67.44a4.18,4.18,0,0,1,4.26,4.09V692A4.18,4.18,0,0,1,1312.8,696.1Z" transform="translate(-194.98 -188)"/><path class="cls-11" d="M1245.33,696.1h33.75V680.27h-33.75a4.16,4.16,0,0,0-4.23,4.09V692A4.16,4.16,0,0,0,1245.33,696.1Z" transform="translate(-194.98 -188)"/><path class="cls-12" d="M1247.43,680.27h-1.38c-1.86,0-3.36,1.83-3.36,4.09V692c0,2.26,1.5,4.09,3.36,4.09h1.38Z" transform="translate(-194.98 -188)"/><rect class="cls-13" x="1104.67" y="492.27" width="6.33" height="15.84"/><path class="cls-14" d="M1243,694.52a9.68,9.68,0,0,0,3.47,1.58h66.82a9.68,9.68,0,0,0,3.47-1.58Z" transform="translate(-194.98 -188)"/><rect class="cls-15" x="1054.03" y="493.85" width="1.58" height="12.67" rx="0.22"/><rect class="cls-15" x="1058.78" y="493.85" width="1.58" height="12.67" rx="0.22"/><rect class="cls-15" x="1063.53" y="493.85" width="1.58" height="12.67" rx="0.22"/><rect class="cls-15" x="1068.28" y="493.85" width="1.58" height="12.67" rx="0.22"/><rect class="cls-15" x="1071.44" y="493.85" width="1.58" height="12.67" rx="0.22"/><rect class="cls-15" x="1076.19" y="493.85" width="1.58" height="12.67" rx="0.22"/><rect class="cls-15" x="1080.93" y="493.85" width="1.58" height="12.67" rx="0.22"/><rect class="cls-15" x="1085.68" y="493.85" width="1.58" height="12.67" rx="0.22"/><rect class="cls-15" x="1090.43" y="493.85" width="1.58" height="12.67" rx="0.22"/><rect class="cls-15" x="1095.17" y="493.85" width="1.58" height="12.67" rx="0.22"/><rect class="cls-15" x="1099.92" y="493.85" width="1.58" height="12.67" rx="0.22"/><rect class="cls-15" x="1104.67" y="493.85" width="1.58" height="12.67" rx="0.22"/><rect class="cls-15" x="1109.42" y="493.85" width="1.58" height="12.67" rx="0.22"/><rect class="cls-15" x="1049.29" y="493.85" width="1.58" height="12.67" rx="0.22"/><rect class="cls-15" x="1114.16" y="493.85" width="1.58" height="12.67" rx="0.22"/><rect class="cls-15" x="1117.33" y="493.85" width="1.58" height="12.67" rx="0.22"/><path class="cls-10" d="M1306.47,680.27H1239a4.19,4.19,0,0,1-4.26-4.1v-7.65a4.18,4.18,0,0,1,4.26-4.09h67.44a4.18,4.18,0,0,1,4.26,4.09v7.65A4.19,4.19,0,0,1,1306.47,680.27Z" transform="translate(-194.98 -188)"/><path class="cls-11" d="M1240.58,680.27h33.75V664.43h-33.75a4.16,4.16,0,0,0-4.22,4.09v7.65A4.16,4.16,0,0,0,1240.58,680.27Z" transform="translate(-194.98 -188)"/><path class="cls-12" d="M1241.1,664.43h-1.38c-1.86,0-3.36,1.83-3.36,4.09v7.65c0,2.26,1.5,4.1,3.36,4.1h1.38Z" transform="translate(-194.98 -188)"/><rect class="cls-13" x="1098.34" y="476.43" width="6.33" height="15.84"/><path class="cls-14" d="M1236.84,678.68a3.43,3.43,0,0,0,3.47,1.59h66.82a3.43,3.43,0,0,0,3.47-1.59Z" transform="translate(-194.98 -188)"/><rect class="cls-15" x="1047.7" y="478.01" width="1.58" height="12.67" rx="0.22"/><rect class="cls-15" x="1052.45" y="478.01" width="1.58" height="12.67" rx="0.22"/><rect class="cls-15" x="1057.2" y="478.01" width="1.58" height="12.67" rx="0.22"/><rect class="cls-15" x="1061.95" y="478.01" width="1.58" height="12.67" rx="0.22"/><rect class="cls-15" x="1066.69" y="478.01" width="1.58" height="12.67" rx="0.22"/><rect class="cls-15" x="1069.86" y="478.01" width="1.58" height="12.67" rx="0.22"/><rect class="cls-15" x="1074.6" y="478.01" width="1.58" height="12.67" rx="0.22"/><rect class="cls-15" x="1079.35" y="478.01" width="1.58" height="12.67" rx="0.22"/><rect class="cls-15" x="1084.1" y="478.01" width="1.58" height="12.67" rx="0.22"/><rect class="cls-15" x="1088.85" y="478.01" width="1.58" height="12.67" rx="0.22"/><rect class="cls-15" x="1093.59" y="478.01" width="1.58" height="12.67" rx="0.22"/><rect class="cls-15" x="1098.34" y="478.01" width="1.58" height="12.67" rx="0.22"/><rect class="cls-15" x="1103.09" y="478.01" width="1.58" height="12.67" rx="0.22"/><rect class="cls-15" x="1042.96" y="478.01" width="1.58" height="12.67" rx="0.22"/><rect class="cls-15" x="1107.83" y="478.01" width="1.58" height="12.67" rx="0.22"/><rect class="cls-15" x="1112.58" y="478.01" width="1.58" height="12.67" rx="0.22"/><path class="cls-10" d="M1314.38,666h-67.44a4.17,4.17,0,0,1-4.25-4.09v-7.65a4.17,4.17,0,0,1,4.25-4.09h67.44a4.18,4.18,0,0,1,4.26,4.09v7.65A4.18,4.18,0,0,1,1314.38,666Z" transform="translate(-194.98 -188)"/><path class="cls-11" d="M1248.49,666h33.75V650.18h-33.75a4.16,4.16,0,0,0-4.22,4.09v7.65A4.16,4.16,0,0,0,1248.49,666Z" transform="translate(-194.98 -188)"/><path class="cls-12" d="M1249,650.18h-1.39c-1.86,0-3.36,1.83-3.36,4.09v7.65c0,2.26,1.5,4.09,3.36,4.09H1249Z" transform="translate(-194.98 -188)"/><rect class="cls-13" x="1106.25" y="462.18" width="6.33" height="15.84"/><path class="cls-14" d="M1244.8,664.43c.76.44,2,1,3.47,1.58h66.82c1.44-.62,2.71-1.14,3.47-1.58Z" transform="translate(-194.98 -188)"/><rect class="cls-15" x="1055.62" y="463.76" width="1.58" height="12.67" rx="0.22"/><rect class="cls-15" x="1060.36" y="463.76" width="1.58" height="12.67" rx="0.22"/><rect class="cls-15" x="1065.11" y="463.76" width="1.58" height="12.67" rx="0.22"/><rect class="cls-15" x="1069.86" y="463.76" width="1.58" height="12.67" rx="0.22"/><rect class="cls-15" x="1074.6" y="463.76" width="1.58" height="12.67" rx="0.22"/><rect class="cls-15" x="1077.77" y="463.76" width="1.58" height="12.67" rx="0.22"/><rect class="cls-15" x="1082.52" y="463.76" width="1.58" height="12.67" rx="0.22"/><rect class="cls-15" x="1087.26" y="463.76" width="1.58" height="12.67" rx="0.22"/><rect class="cls-15" x="1092.01" y="463.76" width="1.58" height="12.67" rx="0.22"/><rect class="cls-15" x="1096.76" y="463.76" width="1.58" height="12.67" rx="0.22"/><rect class="cls-15" x="1101.5" y="463.76" width="1.58" height="12.67" rx="0.22"/><rect class="cls-15" x="1106.25" y="463.76" width="1.58" height="12.67" rx="0.22"/><rect class="cls-15" x="1111" y="463.76" width="1.58" height="12.67" rx="0.22"/><rect class="cls-15" x="1050.87" y="463.76" width="1.58" height="12.67" rx="0.22"/><rect class="cls-15" x="1115.75" y="463.76" width="1.58" height="12.67" rx="0.22"/><rect class="cls-15" x="1120.49" y="463.76" width="1.58" height="12.67" rx="0.22"/><path class="cls-10" d="M1309.64,650.18h-67.45a4.17,4.17,0,0,1-4.25-4.09v-7.65a4.18,4.18,0,0,1,4.25-4.1h67.45a4.18,4.18,0,0,1,4.25,4.1v7.65A4.17,4.17,0,0,1,1309.64,650.18Z" transform="translate(-194.98 -188)"/><path class="cls-11" d="M1242.16,650.18h33.76V634.34h-33.76a4.16,4.16,0,0,0-4.22,4.1v7.65A4.16,4.16,0,0,0,1242.16,650.18Z" transform="translate(-194.98 -188)"/><path class="cls-12" d="M1242.69,634.34h-1.39c-1.85,0-3.36,1.84-3.36,4.1v7.65c0,2.26,1.51,4.09,3.36,4.09h1.39Z" transform="translate(-194.98 -188)"/><rect class="cls-13" x="1101.5" y="446.34" width="6.33" height="15.84"/><path class="cls-14" d="M1238.65,648.6a4.46,4.46,0,0,0,3.46,1.58h66.83a4.46,4.46,0,0,0,3.46-1.58Z" transform="translate(-194.98 -188)"/><rect class="cls-15" x="1049.29" y="447.93" width="1.58" height="12.67" rx="0.22"/><rect class="cls-15" x="1054.03" y="447.93" width="1.58" height="12.67" rx="0.22"/><rect class="cls-15" x="1058.78" y="447.93" width="1.58" height="12.67" rx="0.22"/><rect class="cls-15" x="1063.53" y="447.93" width="1.58" height="12.67" rx="0.22"/><rect class="cls-15" x="1068.28" y="447.93" width="1.58" height="12.67" rx="0.22"/><rect class="cls-15" x="1073.02" y="447.93" width="1.58" height="12.67" rx="0.22"/><rect class="cls-15" x="1076.19" y="447.93" width="1.58" height="12.67" rx="0.22"/><rect class="cls-15" x="1080.93" y="447.93" width="1.58" height="12.67" rx="0.22"/><rect class="cls-15" x="1085.68" y="447.93" width="1.58" height="12.67" rx="0.22"/><rect class="cls-15" x="1090.43" y="447.93" width="1.58" height="12.67" rx="0.22"/><rect class="cls-15" x="1095.17" y="447.93" width="1.58" height="12.67" rx="0.22"/><rect class="cls-15" x="1099.92" y="447.93" width="1.58" height="12.67" rx="0.22"/><rect class="cls-15" x="1104.67" y="447.93" width="1.58" height="12.67" rx="0.22"/><rect class="cls-15" x="1044.54" y="447.93" width="1.58" height="12.67" rx="0.22"/><rect class="cls-15" x="1109.42" y="447.93" width="1.58" height="12.67" rx="0.22"/><rect class="cls-15" x="1114.16" y="447.93" width="1.58" height="12.67" rx="0.22"/><path class="cls-10" d="M855.51,694.52H788.07a4.18,4.18,0,0,1-4.26-4.09v-7.65a4.19,4.19,0,0,1,4.26-4.1h67.44a4.18,4.18,0,0,1,4.25,4.1v7.65A4.17,4.17,0,0,1,855.51,694.52Z" transform="translate(-194.98 -188)"/><path class="cls-11" d="M788,694.52h33.75V678.68H788a4.17,4.17,0,0,0-4.23,4.1v7.65A4.16,4.16,0,0,0,788,694.52Z" transform="translate(-194.98 -188)"/><path class="cls-12" d="M788.5,678.68h-1.38c-1.86,0-3.36,1.84-3.36,4.1v7.65c0,2.26,1.5,4.09,3.36,4.09h1.38Z" transform="translate(-194.98 -188)"/><rect class="cls-13" x="647.38" y="490.68" width="6.33" height="15.84"/><path class="cls-14" d="M785.41,692.94a9.68,9.68,0,0,0,3.47,1.58H855.7a9.68,9.68,0,0,0,3.47-1.58Z" transform="translate(-194.98 -188)"/><rect class="cls-15" x="596.74" y="492.27" width="1.58" height="12.67" rx="0.22"/><rect class="cls-15" x="601.49" y="492.27" width="1.58" height="12.67" rx="0.22"/><rect class="cls-15" x="606.23" y="492.27" width="1.58" height="12.67" rx="0.22"/><rect class="cls-15" x="610.98" y="492.27" width="1.58" height="12.67" rx="0.22"/><rect class="cls-15" x="614.15" y="492.27" width="1.58" height="12.67" rx="0.22"/><rect class="cls-15" x="618.89" y="492.27" width="1.58" height="12.67" rx="0.22"/><rect class="cls-15" x="623.64" y="492.27" width="1.58" height="12.67" rx="0.22"/><rect class="cls-15" x="628.39" y="492.27" width="1.58" height="12.67" rx="0.22"/><rect class="cls-15" x="633.13" y="492.27" width="1.58" height="12.67" rx="0.22"/><rect class="cls-15" x="637.88" y="492.27" width="1.58" height="12.67" rx="0.22"/><rect class="cls-15" x="642.63" y="492.27" width="1.58" height="12.67" rx="0.22"/><rect class="cls-15" x="647.38" y="492.27" width="1.58" height="12.67" rx="0.22"/><rect class="cls-15" x="652.12" y="492.27" width="1.58" height="12.67" rx="0.22"/><rect class="cls-15" x="591.99" y="492.27" width="1.58" height="12.67" rx="0.22"/><rect class="cls-15" x="656.87" y="492.27" width="1.58" height="12.67" rx="0.22"/><rect class="cls-15" x="660.03" y="492.27" width="1.58" height="12.67" rx="0.22"/><path class="cls-10" d="M865,678.68H797.56a4.18,4.18,0,0,1-4.26-4.09v-7.65a4.18,4.18,0,0,1,4.26-4.09H865a4.18,4.18,0,0,1,4.26,4.09v7.65A4.18,4.18,0,0,1,865,678.68Z" transform="translate(-194.98 -188)"/><path class="cls-11" d="M799.11,678.68h33.75V662.85H799.11a4.16,4.16,0,0,0-4.22,4.09v7.65A4.16,4.16,0,0,0,799.11,678.68Z" transform="translate(-194.98 -188)"/><path class="cls-12" d="M798,662.85h-1.39c-1.85,0-3.36,1.83-3.36,4.09v7.65c0,2.26,1.51,4.09,3.36,4.09H798Z" transform="translate(-194.98 -188)"/><rect class="cls-13" x="656.87" y="474.85" width="6.33" height="15.84"/><path class="cls-14" d="M794.26,677.1a3.44,3.44,0,0,0,3.47,1.58h66.82A3.44,3.44,0,0,0,868,677.1Z" transform="translate(-194.98 -188)"/><rect class="cls-15" x="606.23" y="476.43" width="1.58" height="12.67" rx="0.22"/><rect class="cls-15" x="610.98" y="476.43" width="1.58" height="12.67" rx="0.22"/><rect class="cls-15" x="615.73" y="476.43" width="1.58" height="12.67" rx="0.22"/><rect class="cls-15" x="620.48" y="476.43" width="1.58" height="12.67" rx="0.22"/><rect class="cls-15" x="625.22" y="476.43" width="1.58" height="12.67" rx="0.22"/><rect class="cls-15" x="628.39" y="476.43" width="1.58" height="12.67" rx="0.22"/><rect class="cls-15" x="633.13" y="476.43" width="1.58" height="12.67" rx="0.22"/><rect class="cls-15" x="637.88" y="476.43" width="1.58" height="12.67" rx="0.22"/><rect class="cls-15" x="642.63" y="476.43" width="1.58" height="12.67" rx="0.22"/><rect class="cls-15" x="647.38" y="476.43" width="1.58" height="12.67" rx="0.22"/><rect class="cls-15" x="652.12" y="476.43" width="1.58" height="12.67" rx="0.22"/><rect class="cls-15" x="656.87" y="476.43" width="1.58" height="12.67" rx="0.22"/><rect class="cls-15" x="661.62" y="476.43" width="1.58" height="12.67" rx="0.22"/><rect class="cls-15" x="601.49" y="476.43" width="1.58" height="12.67" rx="0.22"/><rect class="cls-15" x="666.36" y="476.43" width="1.58" height="12.67" rx="0.22"/><rect class="cls-15" x="671.11" y="476.43" width="1.58" height="12.67" rx="0.22"/><path class="cls-10" d="M857.09,664.43H789.65a4.18,4.18,0,0,1-4.26-4.09v-7.65a4.18,4.18,0,0,1,4.26-4.09h67.44a4.17,4.17,0,0,1,4.25,4.09v7.65A4.17,4.17,0,0,1,857.09,664.43Z" transform="translate(-194.98 -188)"/><path class="cls-11" d="M791.2,664.43H825V648.6H791.2a4.16,4.16,0,0,0-4.23,4.09v7.65A4.16,4.16,0,0,0,791.2,664.43Z" transform="translate(-194.98 -188)"/><path class="cls-12" d="M790.08,648.6H788.7c-1.86,0-3.36,1.83-3.36,4.09v7.65c0,2.26,1.5,4.09,3.36,4.09h1.38Z" transform="translate(-194.98 -188)"/><rect class="cls-13" x="648.96" y="460.6" width="6.33" height="15.84"/><path class="cls-14" d="M787.21,662.85c.77.44,2,1,3.47,1.58H857.5c1.44-.62,2.71-1.14,3.47-1.58Z" transform="translate(-194.98 -188)"/><rect class="cls-15" x="598.32" y="462.18" width="1.58" height="12.67" rx="0.22"/><rect class="cls-15" x="603.07" y="462.18" width="1.58" height="12.67" rx="0.22"/><rect class="cls-15" x="607.82" y="462.18" width="1.58" height="12.67" rx="0.22"/><rect class="cls-15" x="612.56" y="462.18" width="1.58" height="12.67" rx="0.22"/><rect class="cls-15" x="617.31" y="462.18" width="1.58" height="12.67" rx="0.22"/><rect class="cls-15" x="620.48" y="462.18" width="1.58" height="12.67" rx="0.22"/><rect class="cls-15" x="625.22" y="462.18" width="1.58" height="12.67" rx="0.22"/><rect class="cls-15" x="629.97" y="462.18" width="1.58" height="12.67" rx="0.22"/><rect class="cls-15" x="634.72" y="462.18" width="1.58" height="12.67" rx="0.22"/><rect class="cls-15" x="639.46" y="462.18" width="1.58" height="12.67" rx="0.22"/><rect class="cls-15" x="644.21" y="462.18" width="1.58" height="12.67" rx="0.22"/><rect class="cls-15" x="648.96" y="462.18" width="1.58" height="12.67" rx="0.22"/><rect class="cls-15" x="653.7" y="462.18" width="1.58" height="12.67" rx="0.22"/><rect class="cls-15" x="593.58" y="462.18" width="1.58" height="12.67" rx="0.22"/><rect class="cls-15" x="658.45" y="462.18" width="1.58" height="12.67" rx="0.22"/><rect class="cls-15" x="663.2" y="462.18" width="1.58" height="12.67" rx="0.22"/><path class="cls-10" d="M852.34,648.6H784.9a4.18,4.18,0,0,1-4.25-4.1v-7.65a4.17,4.17,0,0,1,4.25-4.09h67.44a4.18,4.18,0,0,1,4.26,4.09v7.65A4.19,4.19,0,0,1,852.34,648.6Z" transform="translate(-194.98 -188)"/><path class="cls-11" d="M784.87,648.6h33.75V632.76H784.87a4.16,4.16,0,0,0-4.22,4.09v7.65A4.16,4.16,0,0,0,784.87,648.6Z" transform="translate(-194.98 -188)"/><path class="cls-12" d="M785.39,632.76H784c-1.86,0-3.36,1.83-3.36,4.09v7.65c0,2.26,1.5,4.1,3.36,4.1h1.38Z" transform="translate(-194.98 -188)"/><rect class="cls-13" x="644.21" y="444.76" width="6.33" height="15.84"/><path class="cls-14" d="M781.06,647a4.44,4.44,0,0,0,3.47,1.59h66.82a4.44,4.44,0,0,0,3.47-1.59Z" transform="translate(-194.98 -188)"/><rect class="cls-15" x="591.99" y="446.34" width="1.58" height="12.67" rx="0.22"/><rect class="cls-15" x="596.74" y="446.34" width="1.58" height="12.67" rx="0.22"/><rect class="cls-15" x="601.49" y="446.34" width="1.58" height="12.67" rx="0.22"/><rect class="cls-15" x="606.23" y="446.34" width="1.58" height="12.67" rx="0.22"/><rect class="cls-15" x="610.98" y="446.34" width="1.58" height="12.67" rx="0.22"/><rect class="cls-15" x="615.73" y="446.34" width="1.58" height="12.67" rx="0.22"/><rect class="cls-15" x="618.89" y="446.34" width="1.58" height="12.67" rx="0.22"/><rect class="cls-15" x="623.64" y="446.34" width="1.58" height="12.67" rx="0.22"/><rect class="cls-15" x="628.39" y="446.34" width="1.58" height="12.67" rx="0.22"/><rect class="cls-15" x="633.13" y="446.34" width="1.58" height="12.67" rx="0.22"/><rect class="cls-15" x="637.88" y="446.34" width="1.58" height="12.67" rx="0.22"/><rect class="cls-15" x="642.63" y="446.34" width="1.58" height="12.67" rx="0.22"/><rect class="cls-15" x="647.38" y="446.34" width="1.58" height="12.67" rx="0.22"/><rect class="cls-15" x="587.25" y="446.34" width="1.58" height="12.67" rx="0.22"/><rect class="cls-15" x="652.12" y="446.34" width="1.58" height="12.67" rx="0.22"/><rect class="cls-15" x="656.87" y="446.34" width="1.58" height="12.67" rx="0.22"/><path class="cls-10" d="M868.17,634.34H800.72a4.17,4.17,0,0,1-4.25-4.09V622.6a4.17,4.17,0,0,1,4.25-4.09h67.45a4.17,4.17,0,0,1,4.25,4.09v7.65A4.17,4.17,0,0,1,868.17,634.34Z" transform="translate(-194.98 -188)"/><path class="cls-11" d="M802.28,634.34H836V618.51H802.28a4.16,4.16,0,0,0-4.23,4.09v7.65A4.16,4.16,0,0,0,802.28,634.34Z" transform="translate(-194.98 -188)"/><path class="cls-12" d="M801.16,618.51h-1.38c-1.86,0-3.37,1.83-3.37,4.09v7.65c0,2.26,1.51,4.09,3.37,4.09h1.38Z" transform="translate(-194.98 -188)"/><rect class="cls-13" x="660.03" y="430.51" width="6.33" height="15.84"/><path class="cls-14" d="M798.15,632.76c.76.44,2,1,3.47,1.58h66.82c1.44-.62,2.7-1.14,3.47-1.58Z" transform="translate(-194.98 -188)"/><rect class="cls-15" x="609.4" y="432.09" width="1.58" height="12.67" rx="0.22"/><rect class="cls-15" x="614.15" y="432.09" width="1.58" height="12.67" rx="0.22"/><rect class="cls-15" x="618.89" y="432.09" width="1.58" height="12.67" rx="0.22"/><rect class="cls-15" x="623.64" y="432.09" width="1.58" height="12.67" rx="0.22"/><rect class="cls-15" x="628.39" y="432.09" width="1.58" height="12.67" rx="0.22"/><rect class="cls-15" x="631.55" y="432.09" width="1.58" height="12.67" rx="0.22"/><rect class="cls-15" x="636.3" y="432.09" width="1.58" height="12.67" rx="0.22"/><rect class="cls-15" x="641.05" y="432.09" width="1.58" height="12.67" rx="0.22"/><rect class="cls-15" x="645.79" y="432.09" width="1.58" height="12.67" rx="0.22"/><rect class="cls-15" x="650.54" y="432.09" width="1.58" height="12.67" rx="0.22"/><rect class="cls-15" x="655.29" y="432.09" width="1.58" height="12.67" rx="0.22"/><rect class="cls-15" x="660.03" y="432.09" width="1.58" height="12.67" rx="0.22"/><rect class="cls-15" x="664.78" y="432.09" width="1.58" height="12.67" rx="0.22"/><rect class="cls-15" x="604.65" y="432.09" width="1.58" height="12.67" rx="0.22"/><rect class="cls-15" x="669.53" y="432.09" width="1.58" height="12.67" rx="0.22"/><rect class="cls-15" x="674.27" y="432.09" width="1.58" height="12.67" rx="0.22"/><path class="cls-10" d="M860.25,618.51H792.81a4.17,4.17,0,0,1-4.25-4.09v-7.66a4.17,4.17,0,0,1,4.25-4.09h67.44a4.18,4.18,0,0,1,4.26,4.09v7.66A4.18,4.18,0,0,1,860.25,618.51Z" transform="translate(-194.98 -188)"/><path class="cls-11" d="M792.78,618.51h33.75V602.67H792.78a4.16,4.16,0,0,0-4.22,4.09v7.66A4.16,4.16,0,0,0,792.78,618.51Z" transform="translate(-194.98 -188)"/><path class="cls-12" d="M793.3,602.67h-1.38c-1.86,0-3.36,1.83-3.36,4.09v7.66c0,2.26,1.5,4.09,3.36,4.09h1.38Z" transform="translate(-194.98 -188)"/><rect class="cls-13" x="652.12" y="414.67" width="6.33" height="15.84"/><path class="cls-14" d="M788.83,616.92a4.44,4.44,0,0,0,3.46,1.59h66.83a4.44,4.44,0,0,0,3.46-1.59Z" transform="translate(-194.98 -188)"/><rect class="cls-15" x="599.91" y="416.26" width="1.58" height="12.67" rx="0.22"/><rect class="cls-15" x="604.65" y="416.26" width="1.58" height="12.67" rx="0.22"/><rect class="cls-15" x="609.4" y="416.26" width="1.58" height="12.67" rx="0.22"/><rect class="cls-15" x="614.15" y="416.26" width="1.58" height="12.67" rx="0.22"/><rect class="cls-15" x="618.89" y="416.26" width="1.58" height="12.67" rx="0.22"/><rect class="cls-15" x="623.64" y="416.26" width="1.58" height="12.67" rx="0.22"/><rect class="cls-15" x="626.8" y="416.26" width="1.58" height="12.67" rx="0.22"/><rect class="cls-15" x="631.55" y="416.26" width="1.58" height="12.67" rx="0.22"/><rect class="cls-15" x="636.3" y="416.26" width="1.58" height="12.67" rx="0.22"/><rect class="cls-15" x="641.05" y="416.26" width="1.58" height="12.67" rx="0.22"/><rect class="cls-15" x="645.79" y="416.26" width="1.58" height="12.67" rx="0.22"/><rect class="cls-15" x="650.54" y="416.26" width="1.58" height="12.67" rx="0.22"/><rect class="cls-15" x="655.29" y="416.26" width="1.58" height="12.67" rx="0.22"/><rect class="cls-15" x="595.16" y="416.26" width="1.58" height="12.67" rx="0.22"/><rect class="cls-15" x="660.03" y="416.26" width="1.58" height="12.67" rx="0.22"/><rect class="cls-15" x="664.78" y="416.26" width="1.58" height="12.67" rx="0.22"/><path class="cls-10" d="M956.78,696.1H889.33a4.17,4.17,0,0,1-4.25-4.09v-7.65a4.17,4.17,0,0,1,4.25-4.09h67.45a4.17,4.17,0,0,1,4.25,4.09V692A4.17,4.17,0,0,1,956.78,696.1Z" transform="translate(-194.98 -188)"/><path class="cls-11" d="M889.3,696.1h33.76V680.27H889.3a4.16,4.16,0,0,0-4.22,4.09V692A4.16,4.16,0,0,0,889.3,696.1Z" transform="translate(-194.98 -188)"/><path class="cls-12" d="M890.1,680.27h-1.38c-1.86,0-3.37,1.83-3.37,4.09V692c0,2.26,1.51,4.09,3.37,4.09h1.38Z" transform="translate(-194.98 -188)"/><rect class="cls-13" x="748.64" y="492.27" width="6.33" height="15.84"/><path class="cls-14" d="M885.12,694.52a3.37,3.37,0,0,0,3.47,1.58h66.82a3.37,3.37,0,0,0,3.47-1.58Z" transform="translate(-194.98 -188)"/><rect class="cls-15" x="696.43" y="493.85" width="1.58" height="12.67" rx="0.22"/><rect class="cls-15" x="701.17" y="493.85" width="1.58" height="12.67" rx="0.22"/><rect class="cls-15" x="705.92" y="493.85" width="1.58" height="12.67" rx="0.22"/><rect class="cls-15" x="710.67" y="493.85" width="1.58" height="12.67" rx="0.22"/><rect class="cls-15" x="715.42" y="493.85" width="1.58" height="12.67" rx="0.22"/><rect class="cls-15" x="720.16" y="493.85" width="1.58" height="12.67" rx="0.22"/><rect class="cls-15" x="724.91" y="493.85" width="1.58" height="12.67" rx="0.22"/><rect class="cls-15" x="729.66" y="493.85" width="1.58" height="12.67" rx="0.22"/><rect class="cls-15" x="734.4" y="493.85" width="1.58" height="12.67" rx="0.22"/><rect class="cls-15" x="739.15" y="493.85" width="1.58" height="12.67" rx="0.22"/><rect class="cls-15" x="742.32" y="493.85" width="1.58" height="12.67" rx="0.22"/><rect class="cls-15" x="747.06" y="493.85" width="1.58" height="12.67" rx="0.22"/><rect class="cls-15" x="751.81" y="493.85" width="1.58" height="12.67" rx="0.22"/><rect class="cls-15" x="693.26" y="493.85" width="1.58" height="12.67" rx="0.22"/><rect class="cls-15" x="756.56" y="493.85" width="1.58" height="12.67" rx="0.22"/><rect class="cls-15" x="761.3" y="493.85" width="1.58" height="12.67" rx="0.22"/><path class="cls-10" d="M1146.66,1092h-67.45a4.17,4.17,0,0,1-4.25-4.09v-7.65a4.17,4.17,0,0,1,4.25-4.09h67.45a4.17,4.17,0,0,1,4.25,4.09v7.65A4.17,4.17,0,0,1,1146.66,1092Z" transform="translate(-194.98 -188)"/><path class="cls-11" d="M1079.18,1092h33.76v-15.83h-33.76a4.16,4.16,0,0,0-4.22,4.09v7.65A4.16,4.16,0,0,0,1079.18,1092Z" transform="translate(-194.98 -188)"/><path class="cls-12" d="M1079.71,1076.16h-1.39c-1.85,0-3.36,1.83-3.36,4.09v7.65c0,2.26,1.51,4.09,3.36,4.09h1.39Z" transform="translate(-194.98 -188)"/><rect class="cls-13" x="938.52" y="888.16" width="6.33" height="15.84"/><path class="cls-14" d="M1075.3,1090.41a3.38,3.38,0,0,0,3.47,1.58h66.82a3.37,3.37,0,0,0,3.47-1.58Z" transform="translate(-194.98 -188)"/><rect class="cls-15" x="886.31" y="889.74" width="1.58" height="12.67" rx="0.22"/><rect class="cls-15" x="891.05" y="889.74" width="1.58" height="12.67" rx="0.22"/><rect class="cls-15" x="895.8" y="889.74" width="1.58" height="12.67" rx="0.22"/><rect class="cls-15" x="900.55" y="889.74" width="1.58" height="12.67" rx="0.22"/><rect class="cls-15" x="905.3" y="889.74" width="1.58" height="12.67" rx="0.22"/><rect class="cls-15" x="910.04" y="889.74" width="1.58" height="12.67" rx="0.22"/><rect class="cls-15" x="914.79" y="889.74" width="1.58" height="12.67" rx="0.22"/><rect class="cls-15" x="919.54" y="889.74" width="1.58" height="12.67" rx="0.22"/><rect class="cls-15" x="924.28" y="889.74" width="1.58" height="12.67" rx="0.22"/><rect class="cls-15" x="929.03" y="889.74" width="1.58" height="12.67" rx="0.22"/><rect class="cls-15" x="932.19" y="889.74" width="1.58" height="12.67" rx="0.22"/><rect class="cls-15" x="936.94" y="889.74" width="1.58" height="12.67" rx="0.22"/><rect class="cls-15" x="941.69" y="889.74" width="1.58" height="12.67" rx="0.22"/><rect class="cls-15" x="883.14" y="889.74" width="1.58" height="12.67" rx="0.22"/><rect class="cls-15" x="946.44" y="889.74" width="1.58" height="12.67" rx="0.22"/><rect class="cls-15" x="951.18" y="889.74" width="1.58" height="12.67" rx="0.22"/><path class="cls-10" d="M1135.58,1076.16h-67.44a4.18,4.18,0,0,1-4.26-4.09v-7.66a4.18,4.18,0,0,1,4.26-4.09h67.44a4.17,4.17,0,0,1,4.25,4.09v7.66A4.17,4.17,0,0,1,1135.58,1076.16Z" transform="translate(-194.98 -188)"/><path class="cls-11" d="M1068.11,1076.16h33.75v-15.84h-33.75a4.16,4.16,0,0,0-4.23,4.09v7.66A4.16,4.16,0,0,0,1068.11,1076.16Z" transform="translate(-194.98 -188)"/><path class="cls-12" d="M1068.63,1060.32h-1.38c-1.86,0-3.37,1.83-3.37,4.09v7.66c0,2.26,1.51,4.09,3.37,4.09h1.38Z" transform="translate(-194.98 -188)"/><rect class="cls-13" x="927.45" y="872.32" width="6.33" height="15.84"/><path class="cls-14" d="M1064.83,1074.57a3.36,3.36,0,0,0,3.47,1.59h66.82a3.36,3.36,0,0,0,3.47-1.59Z" transform="translate(-194.98 -188)"/><rect class="cls-15" x="875.23" y="873.91" width="1.58" height="12.67" rx="0.22"/><rect class="cls-15" x="879.98" y="873.91" width="1.58" height="12.67" rx="0.22"/><rect class="cls-15" x="884.72" y="873.91" width="1.58" height="12.67" rx="0.22"/><rect class="cls-15" x="889.47" y="873.91" width="1.58" height="12.67" rx="0.22"/><rect class="cls-15" x="894.22" y="873.91" width="1.58" height="12.67" rx="0.22"/><rect class="cls-15" x="898.97" y="873.91" width="1.58" height="12.67" rx="0.22"/><rect class="cls-15" x="903.71" y="873.91" width="1.58" height="12.67" rx="0.22"/><rect class="cls-15" x="908.46" y="873.91" width="1.58" height="12.67" rx="0.22"/><rect class="cls-15" x="913.21" y="873.91" width="1.58" height="12.67" rx="0.22"/><rect class="cls-15" x="917.95" y="873.91" width="1.58" height="12.67" rx="0.22"/><rect class="cls-15" x="921.12" y="873.91" width="1.58" height="12.67" rx="0.22"/><rect class="cls-15" x="925.87" y="873.91" width="1.58" height="12.67" rx="0.22"/><rect class="cls-15" x="930.61" y="873.91" width="1.58" height="12.67" rx="0.22"/><rect class="cls-15" x="872.07" y="873.91" width="1.58" height="12.67" rx="0.22"/><rect class="cls-15" x="935.36" y="873.91" width="1.58" height="12.67" rx="0.22"/><rect class="cls-15" x="940.11" y="873.91" width="1.58" height="12.67" rx="0.22"/></svg>