<svg id="Szene_1" data-name="Szene 1" xmlns="http://www.w3.org/2000/svg" viewBox="0 0 1617.2 1271.2"><defs><style>.cls-1{fill:#242626;opacity:0.8;}.cls-2{fill:#939ca0;}.cls-3{fill:#525354;}.cls-4{fill:#7c8084;}.cls-5{fill:#5e6163;}.cls-6{fill:#3a3a3a;}.cls-7{fill:#111;opacity:0.2;}.cls-8{fill:#b2bbbf;}.cls-9{fill:#c8cdce;}.cls-10{fill:#ffc001;}.cls-11{fill:#ffaf02;}.cls-12,.cls-14{fill:#f78219;}.cls-13{fill:#ffe745;}.cls-14{opacity:0.33;}.cls-15{fill:#ffd705;}.cls-16{fill:#b7b7b7;}.cls-17{fill:#bfc1c1;}</style></defs><title>Industrie_1</title><ellipse class="cls-1" cx="808.6" cy="1077.07" rx="808.6" ry="194.13"/><path class="cls-2" d="M680.85,1151.19h785.82a54.35,54.35,0,0,0,54.33-54.37V330.94a54.35,54.35,0,0,0-54.33-54.37H680.85a54.35,54.35,0,0,0-54.33,54.37v765.88A54.35,54.35,0,0,0,680.85,1151.19Z" transform="translate(-194.98 -188)"/><path class="cls-3" d="M737.21,1091.09h674.68a44.34,44.34,0,0,0,44.32-44.36v-672a44.34,44.34,0,0,0-44.32-44.36H737.21a44.34,44.34,0,0,0-44.32,44.36v672A44.34,44.34,0,0,0,737.21,1091.09Z" transform="translate(-194.98 -188)"/><rect class="cls-4" x="520.04" y="963.19" width="730.12" height="170.81"/><rect class="cls-5" x="520.04" y="963.19" width="730.12" height="41.12"/><path class="cls-6" d="M499.49,142.34h747.32a14.41,14.41,0,0,1,14.41,14.41v42.53a0,0,0,0,1,0,0H499.49a0,0,0,0,1,0,0V142.34A0,0,0,0,1,499.49,142.34Z"/><rect class="cls-6" x="499.49" y="563.05" width="761.73" height="56.94"/><rect class="cls-6" x="339.39" y="682.27" width="760.74" height="56.89" transform="translate(-185.94 1242.47) rotate(-90)"/><polygon class="cls-5" points="497.91 909.41 445.76 1031.2 445.76 23.72 496.33 142.34 497.91 909.41"/><path class="cls-2" d="M611.71,1246.08h-41.5a29,29,0,0,1-29-29v-1000a29,29,0,0,1,29-29.05h41.5a29,29,0,0,1,29,29.05V1217A29,29,0,0,1,611.71,1246.08Z" transform="translate(-194.98 -188)"/><path class="cls-7" d="M824.06,1091.09H691.31V330.34L816,380.84a13,13,0,0,1,8.09,12Z" transform="translate(-194.98 -188)"/><rect class="cls-2" x="510.55" y="506.11" width="734.87" height="56.94" rx="7.21"/><rect class="cls-3" x="322.49" y="496.62" width="23.71" height="75.92"/><rect class="cls-6" x="279.82" y="347.95" width="42.67" height="371.67" rx="5.4"/><path class="cls-3" d="M268,482.38h11.85a0,0,0,0,1,0,0V593a.06.06,0,0,1-.06.06H268a3.94,3.94,0,0,1-3.94-3.94V486.34a4,4,0,0,1,4-4Z"/><rect class="cls-3" x="322.49" y="129.69" width="23.71" height="45.87"/><rect class="cls-6" x="295.63" y="102.8" width="26.87" height="162.9" rx="3.4"/><polygon class="cls-7" points="444.18 433.36 379.38 392.23 379.38 340.04 414.15 324.23 444.18 349.53 444.18 433.36"/><polygon class="cls-7" points="444.18 797.5 379.38 756.38 379.38 704.19 414.15 688.38 444.18 713.68 444.18 797.5"/><path class="cls-8" d="M616.34,518a37.89,37.89,0,0,0-53.62,1.28l27.45,26.19Z" transform="translate(-194.98 -188)"/><path class="cls-9" d="M616.34,518a38,38,0,0,1,1.28,53.66l-27.45-26.19Z" transform="translate(-194.98 -188)"/><path class="cls-9" d="M564,572.91a38,38,0,0,1-1.28-53.66l27.45,26.19Z" transform="translate(-194.98 -188)"/><path class="cls-8" d="M564,572.91a37.89,37.89,0,0,0,53.62-1.28l-27.45-26.19Z" transform="translate(-194.98 -188)"/><path class="cls-8" d="M617.32,882.94a37.92,37.92,0,0,0-53.63,1.28l27.45,26.2Z" transform="translate(-194.98 -188)"/><path class="cls-9" d="M617.32,882.94a38,38,0,0,1,1.27,53.67l-27.45-26.19Z" transform="translate(-194.98 -188)"/><path class="cls-9" d="M565,937.89a38,38,0,0,1-1.28-53.67l27.45,26.2Z" transform="translate(-194.98 -188)"/><path class="cls-8" d="M565,937.89a37.91,37.91,0,0,0,53.62-1.28l-27.45-26.19Z" transform="translate(-194.98 -188)"/><path class="cls-10" d="M1327.27,694.52h-67.44a4.18,4.18,0,0,1-4.26-4.09v-7.65a4.19,4.19,0,0,1,4.26-4.1h67.44a4.18,4.18,0,0,1,4.25,4.1v7.65A4.17,4.17,0,0,1,1327.27,694.52Z" transform="translate(-194.98 -188)"/><path class="cls-11" d="M1259.8,694.52h33.75V678.68H1259.8a4.17,4.17,0,0,0-4.23,4.1v7.65A4.16,4.16,0,0,0,1259.8,694.52Z" transform="translate(-194.98 -188)"/><path class="cls-12" d="M1260.32,678.68h-1.39c-1.85,0-3.36,1.84-3.36,4.1v7.65c0,2.26,1.51,4.09,3.36,4.09h1.39Z" transform="translate(-194.98 -188)"/><rect class="cls-13" x="1119.14" y="490.68" width="6.33" height="15.84"/><path class="cls-14" d="M1256.17,692.94a3.37,3.37,0,0,0,3.47,1.58h66.82a3.37,3.37,0,0,0,3.47-1.58Z" transform="translate(-194.98 -188)"/><rect class="cls-15" x="1066.92" y="492.27" width="1.58" height="12.67" rx="0.22"/><rect class="cls-15" x="1071.67" y="492.27" width="1.58" height="12.67" rx="0.22"/><rect class="cls-15" x="1076.41" y="492.27" width="1.58" height="12.67" rx="0.22"/><rect class="cls-15" x="1081.16" y="492.27" width="1.58" height="12.67" rx="0.22"/><rect class="cls-15" x="1085.91" y="492.27" width="1.58" height="12.67" rx="0.22"/><rect class="cls-15" x="1090.65" y="492.27" width="1.58" height="12.67" rx="0.22"/><rect class="cls-15" x="1095.4" y="492.27" width="1.58" height="12.67" rx="0.22"/><rect class="cls-15" x="1100.15" y="492.27" width="1.58" height="12.67" rx="0.22"/><rect class="cls-15" x="1104.89" y="492.27" width="1.58" height="12.67" rx="0.22"/><rect class="cls-15" x="1109.64" y="492.27" width="1.58" height="12.67" rx="0.22"/><rect class="cls-15" x="1112.81" y="492.27" width="1.58" height="12.67" rx="0.22"/><rect class="cls-15" x="1117.55" y="492.27" width="1.58" height="12.67" rx="0.22"/><rect class="cls-15" x="1122.3" y="492.27" width="1.58" height="12.67" rx="0.22"/><rect class="cls-15" x="1063.75" y="492.27" width="1.58" height="12.67" rx="0.22"/><rect class="cls-15" x="1127.05" y="492.27" width="1.58" height="12.67" rx="0.22"/><rect class="cls-15" x="1131.79" y="492.27" width="1.58" height="12.67" rx="0.22"/><path class="cls-10" d="M1383.76,695.11l-65-18.1a4.17,4.17,0,0,1-3-5.08l2-7.38a4.17,4.17,0,0,1,5.19-2.8l65,18.1a4.18,4.18,0,0,1,3,5.08l-2,7.38A4.18,4.18,0,0,1,1383.76,695.11Z" transform="translate(-194.98 -188)"/><path class="cls-11" d="M1318.76,677l32.52,9.06,4.24-15.26-32.52-9a4.15,4.15,0,0,0-5.16,2.8l-2,7.38A4.15,4.15,0,0,0,1318.76,677Z" transform="translate(-194.98 -188)"/><path class="cls-12" d="M1323.51,661.89l-1.34-.38c-1.78-.49-3.73.87-4.33,3l-2,7.38c-.61,2.17.35,4.34,2.14,4.84l1.33.37Z" transform="translate(-194.98 -188)"/><rect class="cls-13" x="1368.35" y="681.63" width="15.83" height="6.33" transform="translate(152.33 1638.86) rotate(-74.44)"/><path class="cls-14" d="M1315.93,674.57a3.36,3.36,0,0,0,2.91,2.45L1383.22,695a3.38,3.38,0,0,0,3.77-.59Z" transform="translate(-194.98 -188)"/><rect class="cls-15" x="1322.88" y="663.82" width="1.58" height="12.67" rx="0.22" transform="translate(33.36 -518.58) rotate(15.56)"/><rect class="cls-15" x="1327.45" y="665.09" width="1.58" height="12.67" rx="0.22" transform="translate(33.87 -519.76) rotate(15.56)"/><rect class="cls-15" x="1332.03" y="666.36" width="1.58" height="12.67" rx="0.22" transform="translate(34.38 -520.94) rotate(15.56)"/><rect class="cls-15" x="1336.6" y="667.64" width="1.58" height="12.67" rx="0.22" transform="translate(34.89 -522.12) rotate(15.56)"/><rect class="cls-15" x="1341.17" y="668.91" width="1.58" height="12.67" rx="0.22" transform="translate(35.39 -523.29) rotate(15.56)"/><rect class="cls-15" x="1345.75" y="670.19" width="1.58" height="12.67" rx="0.22" transform="translate(35.91 -524.48) rotate(15.56)"/><rect class="cls-15" x="1350.32" y="671.46" width="1.58" height="12.67" rx="0.22" transform="matrix(0.96, 0.27, -0.27, 0.96, 36.42, -525.66)"/><rect class="cls-15" x="1354.89" y="672.73" width="1.58" height="12.67" rx="0.22" transform="matrix(0.96, 0.27, -0.27, 0.96, 36.93, -526.84)"/><rect class="cls-15" x="1359.47" y="674.01" width="1.58" height="12.67" rx="0.22" transform="translate(37.43 -528.02) rotate(15.56)"/><rect class="cls-15" x="1364.04" y="675.28" width="1.58" height="12.67" rx="0.22" transform="matrix(0.96, 0.27, -0.27, 0.96, 37.94, -529.2)"/><rect class="cls-15" x="1367.09" y="676.13" width="1.58" height="12.67" rx="0.22" transform="translate(38.28 -529.99) rotate(15.56)"/><rect class="cls-15" x="1371.66" y="677.4" width="1.58" height="12.67" rx="0.22" transform="translate(38.79 -531.17) rotate(15.56)"/><rect class="cls-15" x="1376.24" y="678.68" width="1.58" height="12.67" rx="0.22" transform="translate(39.3 -532.35) rotate(15.56)"/><rect class="cls-15" x="1319.83" y="662.97" width="1.58" height="12.67" rx="0.22" transform="translate(33.02 -517.79) rotate(15.56)"/><rect class="cls-15" x="1380.81" y="679.95" width="1.58" height="12.67" rx="0.22" transform="translate(39.81 -533.53) rotate(15.56)"/><rect class="cls-15" x="1385.38" y="681.22" width="1.58" height="12.67" rx="0.22" transform="translate(40.32 -534.71) rotate(15.56)"/><path class="cls-10" d="M927.21,696.1H859.77a4.18,4.18,0,0,1-4.26-4.09v-7.65a4.18,4.18,0,0,1,4.26-4.09h67.44a4.17,4.17,0,0,1,4.25,4.09V692A4.17,4.17,0,0,1,927.21,696.1Z" transform="translate(-194.98 -188)"/><path class="cls-11" d="M859.74,696.1h33.75V680.27H859.74a4.16,4.16,0,0,0-4.23,4.09V692A4.16,4.16,0,0,0,859.74,696.1Z" transform="translate(-194.98 -188)"/><path class="cls-12" d="M860.53,680.27h-1.38c-1.86,0-3.37,1.83-3.37,4.09V692c0,2.26,1.51,4.09,3.37,4.09h1.38Z" transform="translate(-194.98 -188)"/><rect class="cls-13" x="719.08" y="492.27" width="6.33" height="15.84"/><path class="cls-14" d="M855.55,694.52A3.37,3.37,0,0,0,859,696.1h66.82a3.37,3.37,0,0,0,3.47-1.58Z" transform="translate(-194.98 -188)"/><rect class="cls-15" x="666.86" y="493.85" width="1.58" height="12.67" rx="0.22"/><rect class="cls-15" x="671.61" y="493.85" width="1.58" height="12.67" rx="0.22"/><rect class="cls-15" x="676.35" y="493.85" width="1.58" height="12.67" rx="0.22"/><rect class="cls-15" x="681.1" y="493.85" width="1.58" height="12.67" rx="0.22"/><rect class="cls-15" x="685.85" y="493.85" width="1.58" height="12.67" rx="0.22"/><rect class="cls-15" x="690.59" y="493.85" width="1.58" height="12.67" rx="0.22"/><rect class="cls-15" x="695.34" y="493.85" width="1.58" height="12.67" rx="0.22"/><rect class="cls-15" x="700.09" y="493.85" width="1.58" height="12.67" rx="0.22"/><rect class="cls-15" x="704.83" y="493.85" width="1.58" height="12.67" rx="0.22"/><rect class="cls-15" x="709.58" y="493.85" width="1.58" height="12.67" rx="0.22"/><rect class="cls-15" x="712.75" y="493.85" width="1.58" height="12.67" rx="0.22"/><rect class="cls-15" x="717.49" y="493.85" width="1.58" height="12.67" rx="0.22"/><rect class="cls-15" x="722.24" y="493.85" width="1.58" height="12.67" rx="0.22"/><rect class="cls-15" x="663.69" y="493.85" width="1.58" height="12.67" rx="0.22"/><rect class="cls-15" x="726.99" y="493.85" width="1.58" height="12.67" rx="0.22"/><rect class="cls-15" x="731.73" y="493.85" width="1.58" height="12.67" rx="0.22"/><path class="cls-10" d="M1011.48,1092H944a4.17,4.17,0,0,1-4.25-4.09v-7.65a4.17,4.17,0,0,1,4.25-4.09h67.44a4.18,4.18,0,0,1,4.26,4.09v7.65A4.18,4.18,0,0,1,1011.48,1092Z" transform="translate(-194.98 -188)"/><path class="cls-11" d="M944,1092h33.75v-15.83H944a4.16,4.16,0,0,0-4.22,4.09v7.65A4.16,4.16,0,0,0,944,1092Z" transform="translate(-194.98 -188)"/><path class="cls-12" d="M944.53,1076.16h-1.38c-1.86,0-3.36,1.83-3.36,4.09v7.65c0,2.26,1.5,4.09,3.36,4.09h1.38Z" transform="translate(-194.98 -188)"/><rect class="cls-13" x="803.35" y="888.16" width="6.33" height="15.84"/><path class="cls-14" d="M940.13,1090.41a3.37,3.37,0,0,0,3.47,1.58h66.82a3.37,3.37,0,0,0,3.47-1.58Z" transform="translate(-194.98 -188)"/><rect class="cls-15" x="751.14" y="889.74" width="1.58" height="12.67" rx="0.22"/><rect class="cls-15" x="755.88" y="889.74" width="1.58" height="12.67" rx="0.22"/><rect class="cls-15" x="760.63" y="889.74" width="1.58" height="12.67" rx="0.22"/><rect class="cls-15" x="765.38" y="889.74" width="1.58" height="12.67" rx="0.22"/><rect class="cls-15" x="770.12" y="889.74" width="1.58" height="12.67" rx="0.22"/><rect class="cls-15" x="774.87" y="889.74" width="1.58" height="12.67" rx="0.22"/><rect class="cls-15" x="779.62" y="889.74" width="1.58" height="12.67" rx="0.22"/><rect class="cls-15" x="784.36" y="889.74" width="1.58" height="12.67" rx="0.22"/><rect class="cls-15" x="789.11" y="889.74" width="1.58" height="12.67" rx="0.22"/><rect class="cls-15" x="793.86" y="889.74" width="1.58" height="12.67" rx="0.22"/><rect class="cls-15" x="797.02" y="889.74" width="1.58" height="12.67" rx="0.22"/><rect class="cls-15" x="801.77" y="889.74" width="1.58" height="12.67" rx="0.22"/><rect class="cls-15" x="806.52" y="889.74" width="1.58" height="12.67" rx="0.22"/><rect class="cls-15" x="747.97" y="889.74" width="1.58" height="12.67" rx="0.22"/><rect class="cls-15" x="811.26" y="889.74" width="1.58" height="12.67" rx="0.22"/><rect class="cls-15" x="816.01" y="889.74" width="1.58" height="12.67" rx="0.22"/><path class="cls-10" d="M1000.41,1076.16H933a4.18,4.18,0,0,1-4.26-4.09v-7.66a4.18,4.18,0,0,1,4.26-4.09h67.44a4.17,4.17,0,0,1,4.25,4.09v7.66A4.17,4.17,0,0,1,1000.41,1076.16Z" transform="translate(-194.98 -188)"/><path class="cls-11" d="M932.94,1076.16h33.75v-15.84H932.94a4.16,4.16,0,0,0-4.23,4.09v7.66A4.16,4.16,0,0,0,932.94,1076.16Z" transform="translate(-194.98 -188)"/><path class="cls-12" d="M933.46,1060.32h-1.38c-1.86,0-3.37,1.83-3.37,4.09v7.66c0,2.26,1.51,4.09,3.37,4.09h1.38Z" transform="translate(-194.98 -188)"/><rect class="cls-13" x="792.28" y="872.32" width="6.33" height="15.84"/><path class="cls-14" d="M929.66,1074.57a3.36,3.36,0,0,0,3.47,1.59H1000a3.36,3.36,0,0,0,3.47-1.59Z" transform="translate(-194.98 -188)"/><rect class="cls-15" x="740.06" y="873.91" width="1.58" height="12.67" rx="0.22"/><rect class="cls-15" x="744.81" y="873.91" width="1.58" height="12.67" rx="0.22"/><rect class="cls-15" x="749.55" y="873.91" width="1.58" height="12.67" rx="0.22"/><rect class="cls-15" x="754.3" y="873.91" width="1.58" height="12.67" rx="0.22"/><rect class="cls-15" x="759.05" y="873.91" width="1.58" height="12.67" rx="0.22"/><rect class="cls-15" x="763.79" y="873.91" width="1.58" height="12.67" rx="0.22"/><rect class="cls-15" x="768.54" y="873.91" width="1.58" height="12.67" rx="0.22"/><rect class="cls-15" x="773.29" y="873.91" width="1.58" height="12.67" rx="0.22"/><rect class="cls-15" x="778.04" y="873.91" width="1.58" height="12.67" rx="0.22"/><rect class="cls-15" x="782.78" y="873.91" width="1.58" height="12.67" rx="0.22"/><rect class="cls-15" x="785.95" y="873.91" width="1.58" height="12.67" rx="0.22"/><rect class="cls-15" x="790.69" y="873.91" width="1.58" height="12.67" rx="0.22"/><rect class="cls-15" x="795.44" y="873.91" width="1.58" height="12.67" rx="0.22"/><rect class="cls-15" x="736.89" y="873.91" width="1.58" height="12.67" rx="0.22"/><rect class="cls-15" x="800.19" y="873.91" width="1.58" height="12.67" rx="0.22"/><rect class="cls-15" x="804.94" y="873.91" width="1.58" height="12.67" rx="0.22"/><polygon class="cls-16" points="1014.9 506.71 1012.02 506.19 1074.28 143.05 1077.16 143.57 1014.9 506.71"/><polygon class="cls-16" points="759.85 503.78 757.48 502.01 1010.92 143.24 1013.29 145.01 759.85 503.78"/><polygon class="cls-16" points="500.61 318.66 499.61 315.83 967.07 140.84 968.08 143.67 500.61 318.66"/><polygon class="cls-16" points="1260.45 383.79 1257.89 385.25 1127.93 144.12 1130.49 142.66 1260.45 383.79"/><polygon class="cls-16" points="628.9 268.24 626.73 270.25 516.15 143.94 518.32 141.92 628.9 268.24"/><polygon class="cls-16" points="754.07 222.45 751.73 224.26 692.2 143.01 694.54 141.2 754.07 222.45"/><polygon class="cls-16" points="853.67 185.01 851.16 186.56 825.64 142.87 828.15 141.32 853.67 185.01"/><polygon class="cls-16" points="926.77 157.67 924.47 159.52 912.56 143.85 914.87 142 926.77 157.67"/><polygon class="cls-16" points="839.55 387.92 838.13 390.56 626.54 269.93 627.96 267.29 839.55 387.92"/><polygon class="cls-16" points="887.86 321.98 886.14 324.42 751.91 224.12 753.63 221.68 887.86 321.98"/><polygon class="cls-16" points="935.34 253.53 933.49 255.87 849.99 186.32 851.83 183.98 935.34 253.53"/><polygon class="cls-16" points="984.17 181.94 983.03 184.71 923.33 158.64 924.48 155.87 984.17 181.94"/><polygon class="cls-16" points="1023.77 442.97 1022.97 445.87 838.26 391.39 839.06 388.5 1023.77 442.97"/><polygon class="cls-16" points="1039.1 354.37 1038.49 357.31 885.82 323.93 886.43 320.99 1039.1 354.37"/><polygon class="cls-16" points="1054.23 269.89 1053.82 272.87 933.92 255.54 934.32 252.56 1054.23 269.89"/><polygon class="cls-16" points="1068.62 188.91 1068.42 191.91 983.72 185.82 983.92 182.81 1068.62 188.91"/><polygon class="cls-16" points="1150.7 182.83 1150.91 185.84 1067.22 191.85 1067.02 188.85 1150.7 182.83"/><polygon class="cls-16" points="1182.47 241.93 1183.08 244.87 1054.21 273.05 1053.6 270.1 1182.47 241.93"/><polygon class="cls-16" points="1214.39 303 1215.2 305.89 1039.68 357.66 1038.87 354.77 1214.39 303"/><polygon class="cls-16" points="1250.07 368.08 1250.97 370.95 1024.72 446.56 1023.82 443.69 1250.07 368.08"/><polygon class="cls-16" points="1203.56 142.35 1205.32 144.75 1151.86 186.19 1150.1 183.78 1203.56 142.35"/><polygon class="cls-16" points="1245.15 141.6 1247.61 143.24 1184.39 243.36 1181.94 241.72 1245.15 141.6"/><polygon class="cls-16" points="1258.41 233.8 1260.87 235.44 1217.44 304.21 1214.99 302.58 1258.41 233.8"/><polygon class="cls-16" points="1259.13 353.83 1261.59 355.47 1252.42 369.98 1249.97 368.34 1259.13 353.83"/><rect class="cls-17" x="977.51" y="733.77" width="2.85" height="374.01" transform="translate(-484.99 290.14) rotate(-24.02)"/><rect class="cls-17" x="862.92" y="750" width="2.84" height="342.58" transform="translate(-272.04 -109.11) rotate(-5)"/><rect class="cls-17" x="780.04" y="747.55" width="2.84" height="348.62" transform="translate(13.94 -330.43) rotate(12.01)"/><rect class="cls-17" x="732.04" y="739.12" width="2.85" height="167.1" transform="translate(333.88 -448.33) rotate(31.02)"/><rect class="cls-17" x="737.32" y="738.52" width="2.85" height="51.62" transform="translate(-495.83 798.14) rotate(-58.02)"/><rect class="cls-17" x="708.9" y="790.99" width="2.85" height="48.46" transform="translate(-565.21 666.62) rotate(-51.02)"/><rect class="cls-17" x="694.99" y="860.17" width="2.85" height="16.86" transform="translate(-605.24 559.26) rotate(-45.02)"/><rect class="cls-17" x="760.49" y="807.49" width="2.85" height="71.83" transform="translate(-493.4 1064.74) rotate(-69.01)"/><rect class="cls-17" x="783.33" y="760.18" width="2.85" height="50.63" transform="translate(-390.73 1118.51) rotate(-73.01)"/><rect class="cls-17" x="829.23" y="771.02" width="2.85" height="44.27" transform="matrix(0.03, -1, 1, 0.03, -185.97, 1407.63)"/><rect class="cls-17" x="880.94" y="750.86" width="2.85" height="63.67" transform="translate(291.93 1705.91) rotate(-111.98)"/><rect class="cls-17" x="737.22" y="860.08" width="2.85" height="105.77" transform="translate(-621.93 581.78) rotate(-44.02)"/><rect class="cls-17" x="825.32" y="825.69" width="2.85" height="61.87" transform="translate(-224.87 1495.37) rotate(-90)"/><rect class="cls-17" x="820.04" y="911.09" width="2.85" height="93.53" transform="translate(-436.31 1450.13) rotate(-82.01)"/><rect class="cls-17" x="896.26" y="801.32" width="2.85" height="83.25" transform="translate(217.35 1786.68) rotate(-109.99)"/><rect class="cls-17" x="925.05" y="888.77" width="2.85" height="121.75" transform="translate(34 1890.21) rotate(-103.99)"/></svg>