<svg id="Szene_3" data-name="Szene 3" xmlns="http://www.w3.org/2000/svg" viewBox="0 0 1617.2 1271.2"><defs><style>.cls-1{fill:#242626;opacity:0.8;}.cls-2{fill:#939ca0;}.cls-3{fill:#525354;}.cls-4{fill:#7c8084;}.cls-5{fill:#5e6163;}.cls-6{fill:#3a3a3a;}.cls-14,.cls-7{fill:#111;}.cls-7{opacity:0.2;}.cls-8{fill:#b2bbbf;}.cls-9{fill:#c8cdce;}.cls-10{fill:#fcca5b;}.cls-11{fill:#fa9837;}.cls-12{fill:#ededed;}.cls-13{fill:#cecece;}.cls-14{opacity:0.15;}.cls-15{fill:#f76c50;}.cls-16{fill:#c92825;}.cls-17{fill:#54a481;}.cls-18{fill:#254435;}.cls-19{fill:#409de2;}.cls-20{fill:#345875;}.cls-21{fill:#ffc001;}.cls-22{fill:#ffaf02;}.cls-23,.cls-25{fill:#f78219;}.cls-24{fill:#ffe745;}.cls-25{opacity:0.33;}.cls-26{fill:#ffd705;}</style></defs><title>Industrie_3</title><ellipse class="cls-1" cx="808.6" cy="1077.07" rx="808.6" ry="194.13"/><path class="cls-2" d="M680.85,1151.19h785.82a54.35,54.35,0,0,0,54.33-54.37V330.94a54.35,54.35,0,0,0-54.33-54.37H680.85a54.35,54.35,0,0,0-54.33,54.37v765.88A54.35,54.35,0,0,0,680.85,1151.19Z" transform="translate(-194.98 -188)"/><path class="cls-3" d="M737.21,1091.09h674.68a44.34,44.34,0,0,0,44.32-44.36v-672a44.34,44.34,0,0,0-44.32-44.36H737.21a44.34,44.34,0,0,0-44.32,44.36v672A44.34,44.34,0,0,0,737.21,1091.09Z" transform="translate(-194.98 -188)"/><rect class="cls-4" x="520.04" y="963.19" width="730.12" height="170.81"/><rect class="cls-5" x="520.04" y="963.19" width="730.12" height="41.12"/><path class="cls-6" d="M499.49,142.34h747.32a14.41,14.41,0,0,1,14.41,14.41v42.53a0,0,0,0,1,0,0H499.49a0,0,0,0,1,0,0V142.34A0,0,0,0,1,499.49,142.34Z"/><rect class="cls-6" x="499.49" y="563.05" width="761.73" height="56.94"/><rect class="cls-6" x="339.39" y="682.27" width="760.74" height="56.89" transform="translate(-185.94 1242.47) rotate(-90)"/><polygon class="cls-5" points="497.91 909.41 445.76 1031.2 445.76 23.72 496.33 142.34 497.91 909.41"/><path class="cls-2" d="M611.71,1246.08h-41.5a29,29,0,0,1-29-29v-1000a29,29,0,0,1,29-29.05h41.5a29,29,0,0,1,29,29.05V1217A29,29,0,0,1,611.71,1246.08Z" transform="translate(-194.98 -188)"/><path class="cls-7" d="M824.06,1091.09H691.31V330.34L816,380.84a13,13,0,0,1,8.09,12Z" transform="translate(-194.98 -188)"/><rect class="cls-2" x="510.55" y="506.11" width="734.87" height="56.94" rx="7.21"/><rect class="cls-3" x="322.49" y="496.62" width="23.71" height="75.92"/><rect class="cls-6" x="279.82" y="347.95" width="42.67" height="371.67" rx="5.4"/><path class="cls-3" d="M268,482.38h11.85a0,0,0,0,1,0,0V593a.06.06,0,0,1-.06.06H268a3.94,3.94,0,0,1-3.94-3.94V486.34a4,4,0,0,1,4-4Z"/><rect class="cls-3" x="322.49" y="129.69" width="23.71" height="45.87"/><rect class="cls-6" x="295.63" y="102.8" width="26.87" height="162.9" rx="3.4"/><polygon class="cls-7" points="444.18 433.36 379.38 392.23 379.38 340.04 414.15 324.23 444.18 349.53 444.18 433.36"/><polygon class="cls-7" points="444.18 797.5 379.38 756.38 379.38 704.19 414.15 688.38 444.18 713.68 444.18 797.5"/><path class="cls-8" d="M616.34,518a37.89,37.89,0,0,0-53.62,1.28l27.45,26.19Z" transform="translate(-194.98 -188)"/><path class="cls-9" d="M616.34,518a38,38,0,0,1,1.28,53.66l-27.45-26.19Z" transform="translate(-194.98 -188)"/><path class="cls-9" d="M564,572.91a38,38,0,0,1-1.28-53.66l27.45,26.19Z" transform="translate(-194.98 -188)"/><path class="cls-8" d="M564,572.91a37.89,37.89,0,0,0,53.62-1.28l-27.45-26.19Z" transform="translate(-194.98 -188)"/><path class="cls-8" d="M617.32,882.94a37.92,37.92,0,0,0-53.63,1.28l27.45,26.2Z" transform="translate(-194.98 -188)"/><path class="cls-9" d="M617.32,882.94a38,38,0,0,1,1.27,53.67l-27.45-26.19Z" transform="translate(-194.98 -188)"/><path class="cls-9" d="M565,937.89a38,38,0,0,1-1.28-53.67l27.45,26.2Z" transform="translate(-194.98 -188)"/><path class="cls-8" d="M565,937.89a37.91,37.91,0,0,0,53.62-1.28l-27.45-26.19Z" transform="translate(-194.98 -188)"/><path class="cls-10" d="M1039.76,1024.19H825.41c-2.8,0-5.08-2.56-5.08-5.72V961.11c0-3.16,2.28-5.72,5.08-5.72h214.35c2.81,0,5.08,2.56,5.08,5.72v57.36C1044.84,1021.63,1042.57,1024.19,1039.76,1024.19Z" transform="translate(-194.98 -188)"/><rect class="cls-11" x="625.35" y="825.82" width="224.51" height="2.54"/><rect class="cls-11" x="625.35" y="813.7" width="224.51" height="2.54"/><rect class="cls-11" x="625.35" y="801.22" width="224.51" height="2.54"/><rect class="cls-11" x="625.35" y="788.73" width="224.51" height="2.54"/><rect class="cls-11" x="625.35" y="776.25" width="224.51" height="2.54"/><rect class="cls-12" x="692.29" y="767.39" width="90.64" height="68.79"/><rect class="cls-13" x="692.15" y="767.39" width="12.81" height="68.79"/><rect class="cls-13" x="770.36" y="767.39" width="12.81" height="68.79"/><path class="cls-14" d="M820.33,1020.1a5.21,5.21,0,0,0,4.87,4.13H1040a5.2,5.2,0,0,0,4.86-4.13Z" transform="translate(-194.98 -188)"/><path class="cls-15" d="M1055.14,1091.62H828.58a5.56,5.56,0,0,1-5.37-5.72v-57.36a5.56,5.56,0,0,1,5.37-5.72h226.56a5.55,5.55,0,0,1,5.36,5.72v57.36A5.55,5.55,0,0,1,1055.14,1091.62Z" transform="translate(-194.98 -188)"/><rect class="cls-16" x="628.23" y="893.25" width="237.29" height="2.54"/><rect class="cls-16" x="628.23" y="881.13" width="237.29" height="2.54"/><rect class="cls-16" x="628.23" y="868.65" width="237.29" height="2.54"/><rect class="cls-16" x="628.23" y="856.16" width="237.29" height="2.54"/><rect class="cls-16" x="628.23" y="843.68" width="237.29" height="2.54"/><rect class="cls-12" x="703" y="834.82" width="90.64" height="68.79"/><rect class="cls-13" x="702.86" y="834.82" width="12.81" height="68.79"/><rect class="cls-13" x="781.07" y="834.82" width="12.81" height="68.79"/><path class="cls-14" d="M823.21,1087.53a5.43,5.43,0,0,0,5.15,4.13h227a5.42,5.42,0,0,0,5.14-4.13Z" transform="translate(-194.98 -188)"/><path class="cls-17" d="M1310.61,625.76H1068.74A5.72,5.72,0,0,1,1063,620V562.68a5.72,5.72,0,0,1,5.73-5.72h241.87a5.73,5.73,0,0,1,5.73,5.72V620A5.73,5.73,0,0,1,1310.61,625.76Z" transform="translate(-194.98 -188)"/><rect class="cls-18" x="868.03" y="427.39" width="253.33" height="2.54"/><rect class="cls-18" x="868.03" y="415.27" width="253.33" height="2.54"/><rect class="cls-18" x="868.03" y="402.79" width="253.33" height="2.54"/><rect class="cls-18" x="868.03" y="390.3" width="253.33" height="2.54"/><rect class="cls-18" x="868.03" y="377.82" width="253.33" height="2.54"/><rect class="cls-12" x="950.62" y="368.96" width="90.64" height="68.79"/><rect class="cls-13" x="950.48" y="368.96" width="12.81" height="68.79"/><rect class="cls-13" x="1028.69" y="368.96" width="12.81" height="68.79"/><path class="cls-14" d="M1063,621.67a5.71,5.71,0,0,0,5.49,4.13h242.35a5.73,5.73,0,0,0,5.49-4.13Z" transform="translate(-194.98 -188)"/><path class="cls-19" d="M1336.38,693.78H1080.51a5.9,5.9,0,0,1-6.06-5.72V630.7a5.9,5.9,0,0,1,6.06-5.72h255.87a5.89,5.89,0,0,1,6.06,5.72v57.36A5.89,5.89,0,0,1,1336.38,693.78Z" transform="translate(-194.98 -188)"/><rect class="cls-20" x="879.47" y="495.41" width="267.99" height="2.54"/><rect class="cls-20" x="879.47" y="483.29" width="267.99" height="2.54"/><rect class="cls-20" x="879.47" y="470.8" width="267.99" height="2.54"/><rect class="cls-20" x="879.47" y="458.32" width="267.99" height="2.54"/><rect class="cls-20" x="879.47" y="445.84" width="267.99" height="2.54"/><rect class="cls-12" x="969.9" y="436.98" width="90.64" height="68.79"/><rect class="cls-13" x="969.76" y="436.98" width="12.81" height="68.79"/><rect class="cls-13" x="1047.97" y="436.98" width="12.81" height="68.79"/><path class="cls-14" d="M1074.45,689.69a6,6,0,0,0,5.81,4.13h256.37a6,6,0,0,0,5.81-4.13Z" transform="translate(-194.98 -188)"/><path class="cls-21" d="M1259.51,1089.91H1213a3,3,0,0,1-2.93-3v-5.56a3,3,0,0,1,2.93-3h46.53a3,3,0,0,1,2.93,3v5.56A3,3,0,0,1,1259.51,1089.91Z" transform="translate(-194.98 -188)"/><path class="cls-22" d="M1213,1089.91h23.46v-11.52H1213a3,3,0,0,0-2.94,3v5.56A3,3,0,0,0,1213,1089.91Z" transform="translate(-194.98 -188)"/><path class="cls-23" d="M1213.69,1078.39h-1.06a2.8,2.8,0,0,0-2.58,3v5.56a2.8,2.8,0,0,0,2.58,3h1.06Z" transform="translate(-194.98 -188)"/><rect class="cls-24" x="1055.73" y="890.39" width="4.05" height="11.51"/><path class="cls-25" d="M1210.55,1089a3.27,3.27,0,0,0,2.41,1h46.37a3.27,3.27,0,0,0,2.41-1Z" transform="translate(-194.98 -188)"/><rect class="cls-26" x="1019.92" y="891.24" width="0.81" height="9.81" rx="0.11"/><rect class="cls-26" x="1023.16" y="891.24" width="0.81" height="9.81" rx="0.11"/><rect class="cls-26" x="1026.4" y="891.24" width="0.81" height="9.81" rx="0.11"/><rect class="cls-26" x="1029.53" y="891.24" width="0.81" height="9.81" rx="0.11"/><rect class="cls-26" x="1032.77" y="891.24" width="0.81" height="9.81" rx="0.11"/><rect class="cls-26" x="1035.9" y="891.24" width="0.81" height="9.81" rx="0.11"/><rect class="cls-26" x="1039.14" y="891.24" width="0.81" height="9.81" rx="0.11"/><rect class="cls-26" x="1042.38" y="891.24" width="0.81" height="9.81" rx="0.11"/><rect class="cls-26" x="1045.51" y="891.24" width="0.81" height="9.81" rx="0.11"/><rect class="cls-26" x="1048.75" y="891.24" width="0.81" height="9.81" rx="0.11"/><rect class="cls-26" x="1051.89" y="891.24" width="0.81" height="9.81" rx="0.11"/><rect class="cls-26" x="1055.12" y="891.24" width="0.81" height="9.81" rx="0.11"/><rect class="cls-26" x="1058.36" y="891.24" width="0.81" height="9.81" rx="0.11"/><rect class="cls-26" x="1016.79" y="891.24" width="0.81" height="9.81" rx="0.11"/><rect class="cls-26" x="1061.49" y="891.14" width="0.81" height="9.81" rx="0.11"/><rect class="cls-26" x="1064.73" y="891.14" width="0.81" height="9.81" rx="0.11"/><path class="cls-21" d="M1264.89,1078.78h-46.52a3,3,0,0,1-2.94-3v-5.56a3,3,0,0,1,2.94-3h46.52a3,3,0,0,1,2.94,3v5.56A3,3,0,0,1,1264.89,1078.78Z" transform="translate(-194.98 -188)"/><path class="cls-22" d="M1218.37,1078.78h23.46v-11.52h-23.46a3,3,0,0,0-2.94,3v5.56A3,3,0,0,0,1218.37,1078.78Z" transform="translate(-194.98 -188)"/><path class="cls-23" d="M1219.07,1067.26H1218a2.8,2.8,0,0,0-2.58,3v5.56a2.81,2.81,0,0,0,2.58,3h1.06Z" transform="translate(-194.98 -188)"/><rect class="cls-24" x="1061.11" y="879.26" width="4.05" height="11.51"/><path class="cls-25" d="M1215.93,1077.82a3.27,3.27,0,0,0,2.41,1h46.38a3.26,3.26,0,0,0,2.4-1Z" transform="translate(-194.98 -188)"/><rect class="cls-26" x="1025.31" y="880.11" width="0.81" height="9.81" rx="0.11"/><rect class="cls-26" x="1028.54" y="880.11" width="0.81" height="9.81" rx="0.11"/><rect class="cls-26" x="1031.78" y="880.11" width="0.81" height="9.81" rx="0.11"/><rect class="cls-26" x="1034.91" y="880.11" width="0.81" height="9.81" rx="0.11"/><rect class="cls-26" x="1038.15" y="880.11" width="0.81" height="9.81" rx="0.11"/><rect class="cls-26" x="1041.29" y="880.11" width="0.81" height="9.81" rx="0.11"/><rect class="cls-26" x="1044.52" y="880.11" width="0.81" height="9.81" rx="0.11"/><rect class="cls-26" x="1047.76" y="880.11" width="0.81" height="9.81" rx="0.11"/><rect class="cls-26" x="1050.9" y="880.11" width="0.81" height="9.81" rx="0.11"/><rect class="cls-26" x="1054.13" y="880.11" width="0.81" height="9.81" rx="0.11"/><rect class="cls-26" x="1057.27" y="880.11" width="0.81" height="9.81" rx="0.11"/><rect class="cls-26" x="1060.5" y="880.11" width="0.81" height="9.81" rx="0.11"/><rect class="cls-26" x="1063.74" y="880.11" width="0.81" height="9.81" rx="0.11"/><rect class="cls-26" x="1022.17" y="880.11" width="0.81" height="9.81" rx="0.11"/><rect class="cls-26" x="1066.88" y="880.01" width="0.81" height="9.81" rx="0.11"/><rect class="cls-26" x="1070.11" y="880.01" width="0.81" height="9.81" rx="0.11"/><path class="cls-21" d="M1259.91,1067.77h-46.52a3,3,0,0,1-2.94-3v-5.56a3,3,0,0,1,2.94-3h46.52a3,3,0,0,1,2.94,3v5.56A3,3,0,0,1,1259.91,1067.77Z" transform="translate(-194.98 -188)"/><path class="cls-22" d="M1213.39,1067.77h23.46v-11.52h-23.46a3,3,0,0,0-2.94,3v5.56A3,3,0,0,0,1213.39,1067.77Z" transform="translate(-194.98 -188)"/><path class="cls-23" d="M1214.09,1056.25H1213a2.81,2.81,0,0,0-2.58,3v5.56a2.8,2.8,0,0,0,2.58,3h1.06Z" transform="translate(-194.98 -188)"/><rect class="cls-24" x="1056.13" y="868.25" width="4.05" height="11.51"/><path class="cls-25" d="M1211,1066.81a3.27,3.27,0,0,0,2.41,1h46.38a3.26,3.26,0,0,0,2.4-1Z" transform="translate(-194.98 -188)"/><rect class="cls-26" x="1020.33" y="869.11" width="0.81" height="9.81" rx="0.11"/><rect class="cls-26" x="1023.56" y="869.11" width="0.81" height="9.81" rx="0.11"/><rect class="cls-26" x="1026.8" y="869.11" width="0.81" height="9.81" rx="0.11"/><rect class="cls-26" x="1029.93" y="869.11" width="0.81" height="9.81" rx="0.11"/><rect class="cls-26" x="1033.17" y="869.11" width="0.81" height="9.81" rx="0.11"/><rect class="cls-26" x="1036.31" y="869.11" width="0.81" height="9.81" rx="0.11"/><rect class="cls-26" x="1039.54" y="869.11" width="0.81" height="9.81" rx="0.11"/><rect class="cls-26" x="1042.78" y="869.11" width="0.81" height="9.81" rx="0.11"/><rect class="cls-26" x="1045.92" y="869.11" width="0.81" height="9.81" rx="0.11"/><rect class="cls-26" x="1049.15" y="869.11" width="0.81" height="9.81" rx="0.11"/><rect class="cls-26" x="1052.29" y="869.11" width="0.81" height="9.81" rx="0.11"/><rect class="cls-26" x="1055.53" y="869.11" width="0.81" height="9.81" rx="0.11"/><rect class="cls-26" x="1058.76" y="869.11" width="0.81" height="9.81" rx="0.11"/><rect class="cls-26" x="1017.19" y="869.11" width="0.81" height="9.81" rx="0.11"/><rect class="cls-26" x="1061.9" y="869" width="0.81" height="9.81" rx="0.11"/><rect class="cls-26" x="1065.13" y="869" width="0.81" height="9.81" rx="0.11"/><path class="cls-21" d="M1262,1056.76h-46.53a3,3,0,0,1-2.93-3v-5.57a3,3,0,0,1,2.93-3H1262a3,3,0,0,1,2.93,3v5.57A3,3,0,0,1,1262,1056.76Z" transform="translate(-194.98 -188)"/><path class="cls-22" d="M1215.52,1056.76H1239v-11.51h-23.46a3,3,0,0,0-2.94,3v5.57A3,3,0,0,0,1215.52,1056.76Z" transform="translate(-194.98 -188)"/><path class="cls-23" d="M1216.22,1045.25h-1.06a2.79,2.79,0,0,0-2.58,3v5.57a2.79,2.79,0,0,0,2.58,3h1.06Z" transform="translate(-194.98 -188)"/><rect class="cls-24" x="1058.26" y="857.25" width="4.05" height="11.51"/><path class="cls-25" d="M1213.08,1055.8a3.27,3.27,0,0,0,2.41,1h46.37a3.27,3.27,0,0,0,2.41-1Z" transform="translate(-194.98 -188)"/><rect class="cls-26" x="1022.45" y="858.1" width="0.81" height="9.81" rx="0.11"/><rect class="cls-26" x="1025.69" y="858.1" width="0.81" height="9.81" rx="0.11"/><rect class="cls-26" x="1028.93" y="858.1" width="0.81" height="9.81" rx="0.11"/><rect class="cls-26" x="1032.06" y="858.1" width="0.81" height="9.81" rx="0.11"/><rect class="cls-26" x="1035.3" y="858.1" width="0.81" height="9.81" rx="0.11"/><rect class="cls-26" x="1038.43" y="858.1" width="0.81" height="9.81" rx="0.11"/><rect class="cls-26" x="1041.67" y="858.1" width="0.81" height="9.81" rx="0.11"/><rect class="cls-26" x="1044.91" y="858.1" width="0.81" height="9.81" rx="0.11"/><rect class="cls-26" x="1048.04" y="858.1" width="0.81" height="9.81" rx="0.11"/><rect class="cls-26" x="1051.28" y="858.1" width="0.81" height="9.81" rx="0.11"/><rect class="cls-26" x="1054.42" y="858.1" width="0.81" height="9.81" rx="0.11"/><rect class="cls-26" x="1057.65" y="858.1" width="0.81" height="9.81" rx="0.11"/><rect class="cls-26" x="1060.89" y="858.1" width="0.81" height="9.81" rx="0.11"/><rect class="cls-26" x="1019.32" y="858.1" width="0.81" height="9.81" rx="0.11"/><rect class="cls-26" x="1064.02" y="857.99" width="0.81" height="9.81" rx="0.11"/><rect class="cls-26" x="1067.26" y="857.99" width="0.81" height="9.81" rx="0.11"/><path class="cls-10" d="M1326.27,557.17H1111.92c-2.81,0-5.08-2.56-5.08-5.72V494.09c0-3.16,2.27-5.72,5.08-5.72h214.35c2.8,0,5.07,2.56,5.07,5.72v57.36C1331.34,554.61,1329.07,557.17,1326.27,557.17Z" transform="translate(-194.98 -188)"/><rect class="cls-11" x="911.86" y="358.8" width="224.51" height="2.54"/><rect class="cls-11" x="911.86" y="346.68" width="224.51" height="2.54"/><rect class="cls-11" x="911.86" y="334.2" width="224.51" height="2.54"/><rect class="cls-11" x="911.86" y="321.71" width="224.51" height="2.54"/><rect class="cls-11" x="911.86" y="309.23" width="224.51" height="2.54"/><rect class="cls-12" x="978.79" y="300.37" width="90.64" height="68.79"/><rect class="cls-13" x="978.65" y="300.37" width="12.81" height="68.79"/><rect class="cls-13" x="1056.86" y="300.37" width="12.81" height="68.79"/><path class="cls-14" d="M1106.84,553.08a5.2,5.2,0,0,0,4.86,4.13h214.78a5.19,5.19,0,0,0,4.86-4.13Z" transform="translate(-194.98 -188)"/><path class="cls-21" d="M972.16,693.27H925.63a3,3,0,0,1-2.93-3v-5.56a3,3,0,0,1,2.93-3h46.53a3,3,0,0,1,2.93,3v5.56A3,3,0,0,1,972.16,693.27Z" transform="translate(-194.98 -188)"/><path class="cls-22" d="M925.63,693.27H949.1V681.75H925.63a3,3,0,0,0-2.93,3v5.56A3,3,0,0,0,925.63,693.27Z" transform="translate(-194.98 -188)"/><path class="cls-23" d="M926.34,681.75h-1.06a2.8,2.8,0,0,0-2.58,3v5.56a2.8,2.8,0,0,0,2.58,3h1.06Z" transform="translate(-194.98 -188)"/><rect class="cls-24" x="768.38" y="493.75" width="4.05" height="11.51"/><path class="cls-25" d="M923.2,692.31a3.26,3.26,0,0,0,2.4,1H972a3.27,3.27,0,0,0,2.41-1Z" transform="translate(-194.98 -188)"/><rect class="cls-26" x="732.57" y="494.61" width="0.81" height="9.81" rx="0.11"/><rect class="cls-26" x="735.81" y="494.61" width="0.81" height="9.81" rx="0.11"/><rect class="cls-26" x="739.04" y="494.61" width="0.81" height="9.81" rx="0.11"/><rect class="cls-26" x="742.18" y="494.61" width="0.81" height="9.81" rx="0.11"/><rect class="cls-26" x="745.42" y="494.61" width="0.81" height="9.81" rx="0.11"/><rect class="cls-26" x="748.55" y="494.61" width="0.81" height="9.81" rx="0.11"/><rect class="cls-26" x="751.79" y="494.61" width="0.81" height="9.81" rx="0.11"/><rect class="cls-26" x="755.03" y="494.61" width="0.81" height="9.81" rx="0.11"/><rect class="cls-26" x="758.16" y="494.61" width="0.81" height="9.81" rx="0.11"/><rect class="cls-26" x="761.4" y="494.61" width="0.81" height="9.81" rx="0.11"/><rect class="cls-26" x="764.53" y="494.61" width="0.81" height="9.81" rx="0.11"/><rect class="cls-26" x="767.77" y="494.61" width="0.81" height="9.81" rx="0.11"/><rect class="cls-26" x="771.01" y="494.61" width="0.81" height="9.81" rx="0.11"/><rect class="cls-26" x="729.43" y="494.61" width="0.81" height="9.81" rx="0.11"/><rect class="cls-26" x="774.14" y="494.5" width="0.81" height="9.81" rx="0.11"/><rect class="cls-26" x="777.38" y="494.5" width="0.81" height="9.81" rx="0.11"/><path class="cls-21" d="M975.17,682.14H928.64a3,3,0,0,1-2.93-3V673.6a3,3,0,0,1,2.93-3h46.53a3,3,0,0,1,2.93,3v5.56A3,3,0,0,1,975.17,682.14Z" transform="translate(-194.98 -188)"/><path class="cls-22" d="M928.65,682.14h23.46V670.62H928.65a3,3,0,0,0-2.94,3v5.56A3,3,0,0,0,928.65,682.14Z" transform="translate(-194.98 -188)"/><path class="cls-23" d="M929.35,670.62h-1.06a2.8,2.8,0,0,0-2.58,3v5.56a2.8,2.8,0,0,0,2.58,3h1.06Z" transform="translate(-194.98 -188)"/><rect class="cls-24" x="771.39" y="482.62" width="4.05" height="11.51"/><path class="cls-25" d="M926.21,681.18a3.27,3.27,0,0,0,2.41,1H975a3.27,3.27,0,0,0,2.41-1Z" transform="translate(-194.98 -188)"/><rect class="cls-26" x="735.58" y="483.47" width="0.81" height="9.81" rx="0.11"/><rect class="cls-26" x="738.82" y="483.47" width="0.81" height="9.81" rx="0.11"/><rect class="cls-26" x="742.06" y="483.47" width="0.81" height="9.81" rx="0.11"/><rect class="cls-26" x="745.19" y="483.47" width="0.81" height="9.81" rx="0.11"/><rect class="cls-26" x="748.43" y="483.47" width="0.81" height="9.81" rx="0.11"/><rect class="cls-26" x="751.56" y="483.47" width="0.81" height="9.81" rx="0.11"/><rect class="cls-26" x="754.8" y="483.47" width="0.81" height="9.81" rx="0.11"/><rect class="cls-26" x="758.04" y="483.47" width="0.81" height="9.81" rx="0.11"/><rect class="cls-26" x="761.17" y="483.47" width="0.81" height="9.81" rx="0.11"/><rect class="cls-26" x="764.41" y="483.47" width="0.81" height="9.81" rx="0.11"/><rect class="cls-26" x="767.55" y="483.47" width="0.81" height="9.81" rx="0.11"/><rect class="cls-26" x="770.78" y="483.47" width="0.81" height="9.81" rx="0.11"/><rect class="cls-26" x="774.02" y="483.47" width="0.81" height="9.81" rx="0.11"/><rect class="cls-26" x="732.45" y="483.47" width="0.81" height="9.81" rx="0.11"/><rect class="cls-26" x="777.15" y="483.37" width="0.81" height="9.81" rx="0.11"/><rect class="cls-26" x="780.39" y="483.37" width="0.81" height="9.81" rx="0.11"/><path class="cls-21" d="M972.56,671.13H926a3,3,0,0,1-2.93-3v-5.56a3,3,0,0,1,2.93-3h46.53a3,3,0,0,1,2.93,3v5.56A3,3,0,0,1,972.56,671.13Z" transform="translate(-194.98 -188)"/><path class="cls-22" d="M926,671.13H949.5V659.61H926a3,3,0,0,0-2.94,3v5.56A3,3,0,0,0,926,671.13Z" transform="translate(-194.98 -188)"/><path class="cls-23" d="M926.74,659.61h-1.06a2.8,2.8,0,0,0-2.58,3v5.56a2.8,2.8,0,0,0,2.58,3h1.06Z" transform="translate(-194.98 -188)"/><rect class="cls-24" x="768.78" y="471.61" width="4.05" height="11.51"/><path class="cls-25" d="M923.6,670.17a3.27,3.27,0,0,0,2.41,1h46.37a3.27,3.27,0,0,0,2.41-1Z" transform="translate(-194.98 -188)"/><rect class="cls-26" x="732.97" y="472.47" width="0.81" height="9.81" rx="0.11"/><rect class="cls-26" x="736.21" y="472.47" width="0.81" height="9.81" rx="0.11"/><rect class="cls-26" x="739.45" y="472.47" width="0.81" height="9.81" rx="0.11"/><rect class="cls-26" x="742.58" y="472.47" width="0.81" height="9.81" rx="0.11"/><rect class="cls-26" x="745.82" y="472.47" width="0.81" height="9.81" rx="0.11"/><rect class="cls-26" x="748.95" y="472.47" width="0.81" height="9.81" rx="0.11"/><rect class="cls-26" x="752.19" y="472.47" width="0.81" height="9.81" rx="0.11"/><rect class="cls-26" x="755.43" y="472.47" width="0.81" height="9.81" rx="0.11"/><rect class="cls-26" x="758.56" y="472.47" width="0.81" height="9.81" rx="0.11"/><rect class="cls-26" x="761.8" y="472.47" width="0.81" height="9.81" rx="0.11"/><rect class="cls-26" x="764.94" y="472.47" width="0.81" height="9.81" rx="0.11"/><rect class="cls-26" x="768.17" y="472.47" width="0.81" height="9.81" rx="0.11"/><rect class="cls-26" x="771.41" y="472.47" width="0.81" height="9.81" rx="0.11"/><rect class="cls-26" x="729.84" y="472.47" width="0.81" height="9.81" rx="0.11"/><rect class="cls-26" x="774.54" y="472.36" width="0.81" height="9.81" rx="0.11"/><rect class="cls-26" x="777.78" y="472.36" width="0.81" height="9.81" rx="0.11"/><path class="cls-21" d="M970,660.12H923.42a3,3,0,0,1-2.93-3v-5.57a3,3,0,0,1,2.93-3H970a3,3,0,0,1,2.93,3v5.57A3,3,0,0,1,970,660.12Z" transform="translate(-194.98 -188)"/><path class="cls-22" d="M923.43,660.12h23.46V648.61H923.43a3,3,0,0,0-2.94,3v5.57A3,3,0,0,0,923.43,660.12Z" transform="translate(-194.98 -188)"/><path class="cls-23" d="M924.13,648.61h-1.06a2.79,2.79,0,0,0-2.58,3v5.57a2.79,2.79,0,0,0,2.58,3h1.06Z" transform="translate(-194.98 -188)"/><rect class="cls-24" x="766.17" y="460.61" width="4.05" height="11.51"/><path class="cls-25" d="M921,659.16a3.27,3.27,0,0,0,2.41,1h46.37a3.27,3.27,0,0,0,2.41-1Z" transform="translate(-194.98 -188)"/><rect class="cls-26" x="730.36" y="461.46" width="0.81" height="9.81" rx="0.11"/><rect class="cls-26" x="733.6" y="461.46" width="0.81" height="9.81" rx="0.11"/><rect class="cls-26" x="736.84" y="461.46" width="0.81" height="9.81" rx="0.11"/><rect class="cls-26" x="739.97" y="461.46" width="0.81" height="9.81" rx="0.11"/><rect class="cls-26" x="743.21" y="461.46" width="0.81" height="9.81" rx="0.11"/><rect class="cls-26" x="746.34" y="461.46" width="0.81" height="9.81" rx="0.11"/><rect class="cls-26" x="749.58" y="461.46" width="0.81" height="9.81" rx="0.11"/><rect class="cls-26" x="752.82" y="461.46" width="0.81" height="9.81" rx="0.11"/><rect class="cls-26" x="755.95" y="461.46" width="0.81" height="9.81" rx="0.11"/><rect class="cls-26" x="759.19" y="461.46" width="0.81" height="9.81" rx="0.11"/><rect class="cls-26" x="762.32" y="461.46" width="0.81" height="9.81" rx="0.11"/><rect class="cls-26" x="765.56" y="461.46" width="0.81" height="9.81" rx="0.11"/><rect class="cls-26" x="768.8" y="461.46" width="0.81" height="9.81" rx="0.11"/><rect class="cls-26" x="727.23" y="461.46" width="0.81" height="9.81" rx="0.11"/><rect class="cls-26" x="771.93" y="461.35" width="0.81" height="9.81" rx="0.11"/><rect class="cls-26" x="775.17" y="461.35" width="0.81" height="9.81" rx="0.11"/><path class="cls-21" d="M1001.09,693.74,972.43,655.1a3.16,3.16,0,0,1,.42-4.27l4.16-3.42a2.79,2.79,0,0,1,4,.6l28.66,38.64a3.16,3.16,0,0,1-.42,4.27l-4.16,3.42A2.79,2.79,0,0,1,1001.09,693.74Z" transform="translate(-194.98 -188)"/><path class="cls-22" d="M972.44,655.11l14.45,19.48,8.6-7.09L981,648a2.79,2.79,0,0,0-4-.6l-4.16,3.42A3.16,3.16,0,0,0,972.44,655.11Z" transform="translate(-194.98 -188)"/><path class="cls-23" d="M981.47,648.6l-.65-.88a2.61,2.61,0,0,0-3.81-.31l-4.16,3.42a3,3,0,0,0-.63,4l.65.88Z" transform="translate(-194.98 -188)"/><polygon class="cls-24" points="800.69 498.43 803.18 501.79 811.79 494.7 809.29 491.34 800.69 498.43"/><path class="cls-25" d="M971.65,652.49a3.64,3.64,0,0,0,.77,2.59L1001,693.59a3.33,3.33,0,0,0,2.2,1.41Z" transform="translate(-194.98 -188)"/><path class="cls-26" d="M974.5,656.51h0a.46.46,0,0,1,.07-.6l6.7-5.52a.38.38,0,0,1,.56.08h0a.44.44,0,0,1-.07.6l-6.69,5.51A.39.39,0,0,1,974.5,656.51Z" transform="translate(-194.98 -188)"/><path class="cls-26" d="M976.5,659.2h0a.44.44,0,0,1,.07-.6l6.69-5.52a.39.39,0,0,1,.57.08h0a.44.44,0,0,1-.07.59l-6.7,5.52A.38.38,0,0,1,976.5,659.2Z" transform="translate(-194.98 -188)"/><path class="cls-26" d="M978.49,661.89h0a.44.44,0,0,1,.07-.6l6.69-5.52a.39.39,0,0,1,.57.07h0a.44.44,0,0,1-.07.6L979.06,662A.4.4,0,0,1,978.49,661.89Z" transform="translate(-194.98 -188)"/><path class="cls-26" d="M980.42,664.49h0a.45.45,0,0,1,.07-.6l6.69-5.52a.39.39,0,0,1,.57.08h0a.44.44,0,0,1-.07.6L981,664.56A.39.39,0,0,1,980.42,664.49Z" transform="translate(-194.98 -188)"/><path class="cls-26" d="M982.42,667.18h0a.45.45,0,0,1,.06-.6l6.7-5.52a.4.4,0,0,1,.57.07h0a.46.46,0,0,1-.07.6l-6.7,5.52A.39.39,0,0,1,982.42,667.18Z" transform="translate(-194.98 -188)"/><path class="cls-26" d="M984.35,669.78h0a.44.44,0,0,1,.07-.6l6.69-5.51a.39.39,0,0,1,.57.07h0a.45.45,0,0,1-.07.6l-6.7,5.51A.37.37,0,0,1,984.35,669.78Z" transform="translate(-194.98 -188)"/><path class="cls-26" d="M986.34,672.47h0a.44.44,0,0,1,.07-.6l6.69-5.52a.39.39,0,0,1,.57.08h0a.43.43,0,0,1-.07.59l-6.69,5.52A.39.39,0,0,1,986.34,672.47Z" transform="translate(-194.98 -188)"/><path class="cls-26" d="M988.33,675.16h0a.46.46,0,0,1,.07-.6l6.7-5.52a.39.39,0,0,1,.56.07h0a.45.45,0,0,1-.06.6l-6.7,5.52A.4.4,0,0,1,988.33,675.16Z" transform="translate(-194.98 -188)"/><path class="cls-26" d="M990.27,677.76h0a.45.45,0,0,1,.06-.6l6.7-5.52a.4.4,0,0,1,.57.08h0a.46.46,0,0,1-.07.6l-6.7,5.51A.37.37,0,0,1,990.27,677.76Z" transform="translate(-194.98 -188)"/><path class="cls-26" d="M992.26,680.45h0a.44.44,0,0,1,.07-.6l6.69-5.52a.39.39,0,0,1,.57.08h0a.43.43,0,0,1-.07.59l-6.69,5.52A.39.39,0,0,1,992.26,680.45Z" transform="translate(-194.98 -188)"/><path class="cls-26" d="M994.19,683.05h0a.44.44,0,0,1,.07-.6l6.69-5.51a.39.39,0,0,1,.57.07h0a.44.44,0,0,1-.07.6l-6.69,5.51A.39.39,0,0,1,994.19,683.05Z" transform="translate(-194.98 -188)"/><path class="cls-26" d="M996.18,685.74h0a.46.46,0,0,1,.07-.6l6.7-5.52a.38.38,0,0,1,.56.08h0a.45.45,0,0,1-.06.6l-6.7,5.51A.39.39,0,0,1,996.18,685.74Z" transform="translate(-194.98 -188)"/><path class="cls-26" d="M998.18,688.43h0a.44.44,0,0,1,.07-.6l6.69-5.52a.4.4,0,0,1,.57.07h0a.45.45,0,0,1-.07.6l-6.69,5.52A.39.39,0,0,1,998.18,688.43Z" transform="translate(-194.98 -188)"/><path class="cls-26" d="M972.57,653.91h0a.45.45,0,0,1,.07-.6l6.69-5.52a.4.4,0,0,1,.57.07h0a.44.44,0,0,1-.07.6L973.14,654A.4.4,0,0,1,972.57,653.91Z" transform="translate(-194.98 -188)"/><path class="cls-26" d="M1000.19,691h0a.43.43,0,0,1,.07-.59l6.69-5.52a.39.39,0,0,1,.57.07h0a.44.44,0,0,1-.07.6l-6.69,5.52A.39.39,0,0,1,1000.19,691Z" transform="translate(-194.98 -188)"/><path class="cls-26" d="M1002.18,693.65h0a.45.45,0,0,1,.07-.6l6.7-5.51a.38.38,0,0,1,.56.07h0a.44.44,0,0,1-.07.6l-6.69,5.52A.39.39,0,0,1,1002.18,693.65Z" transform="translate(-194.98 -188)"/><path class="cls-21" d="M854.92,692.11H807.79a3,3,0,0,1-3-3v-5.63a3,3,0,0,1,3-3h47.13a3,3,0,0,1,3,3v5.63A3,3,0,0,1,854.92,692.11Z" transform="translate(-194.98 -188)"/><path class="cls-22" d="M807.77,692.11h23.58V680.46H807.77a3,3,0,0,0-2.95,3v5.63A3,3,0,0,0,807.77,692.11Z" transform="translate(-194.98 -188)"/><path class="cls-23" d="M808.14,680.46h-1c-1.3,0-2.35,1.35-2.35,3v5.63c0,1.66,1,3,2.35,3h1Z" transform="translate(-194.98 -188)"/><rect class="cls-24" x="650.75" y="492.46" width="4.42" height="11.65"/><path class="cls-25" d="M805.25,691a2,2,0,0,0,2.43,1.16h46.69a1.94,1.94,0,0,0,2.42-1.16Z" transform="translate(-194.98 -188)"/><rect class="cls-26" x="614.26" y="493.62" width="1.11" height="9.32" rx="0.15"/><rect class="cls-26" x="617.58" y="493.62" width="1.11" height="9.32" rx="0.15"/><rect class="cls-26" x="620.89" y="493.62" width="1.11" height="9.32" rx="0.15"/><rect class="cls-26" x="624.21" y="493.62" width="1.11" height="9.32" rx="0.15"/><rect class="cls-26" x="627.53" y="493.62" width="1.11" height="9.32" rx="0.15"/><rect class="cls-26" x="630.84" y="493.62" width="1.11" height="9.32" rx="0.15"/><rect class="cls-26" x="634.16" y="493.62" width="1.11" height="9.32" rx="0.15"/><rect class="cls-26" x="637.48" y="493.62" width="1.11" height="9.32" rx="0.15"/><rect class="cls-26" x="640.79" y="493.62" width="1.11" height="9.32" rx="0.15"/><rect class="cls-26" x="643.01" y="493.62" width="1.11" height="9.32" rx="0.15"/><rect class="cls-26" x="646.32" y="493.62" width="1.11" height="9.32" rx="0.15"/><rect class="cls-26" x="649.64" y="493.62" width="1.11" height="9.32" rx="0.15"/><rect class="cls-26" x="652.96" y="493.62" width="1.11" height="9.32" rx="0.15"/><rect class="cls-26" x="610.94" y="493.62" width="1.11" height="9.32" rx="0.15"/><rect class="cls-26" x="656.27" y="493.62" width="1.11" height="9.32" rx="0.15"/><rect class="cls-26" x="659.59" y="493.62" width="1.11" height="9.32" rx="0.15"/><path class="cls-21" d="M849.39,681.62H802.26a3,3,0,0,1-3-3V673a3,3,0,0,1,3-3h47.13a3,3,0,0,1,3,3v5.63A3,3,0,0,1,849.39,681.62Z" transform="translate(-194.98 -188)"/><path class="cls-22" d="M802.24,681.62h23.59V670H802.24a3,3,0,0,0-3,3v5.63A3,3,0,0,0,802.24,681.62Z" transform="translate(-194.98 -188)"/><path class="cls-23" d="M802.61,670h-1c-1.3,0-2.35,1.35-2.35,3v5.63c0,1.67,1.05,3,2.35,3h1Z" transform="translate(-194.98 -188)"/><rect class="cls-24" x="645.22" y="481.97" width="4.42" height="11.65"/><path class="cls-25" d="M799.85,680.46a26.12,26.12,0,0,0,2.42,1.16H849c1-.45,1.89-.84,2.42-1.16Z" transform="translate(-194.98 -188)"/><rect class="cls-26" x="608.73" y="483.13" width="1.11" height="9.32" rx="0.15"/><rect class="cls-26" x="612.05" y="483.13" width="1.11" height="9.32" rx="0.15"/><rect class="cls-26" x="615.37" y="483.13" width="1.11" height="9.32" rx="0.15"/><rect class="cls-26" x="618.68" y="483.13" width="1.11" height="9.32" rx="0.15"/><rect class="cls-26" x="622" y="483.13" width="1.11" height="9.32" rx="0.15"/><rect class="cls-26" x="625.32" y="483.13" width="1.11" height="9.32" rx="0.15"/><rect class="cls-26" x="628.63" y="483.13" width="1.11" height="9.32" rx="0.15"/><rect class="cls-26" x="631.95" y="483.13" width="1.11" height="9.32" rx="0.15"/><rect class="cls-26" x="635.27" y="483.13" width="1.11" height="9.32" rx="0.15"/><rect class="cls-26" x="638.58" y="483.13" width="1.11" height="9.32" rx="0.15"/><rect class="cls-26" x="640.79" y="483.13" width="1.11" height="9.32" rx="0.15"/><rect class="cls-26" x="644.11" y="483.13" width="1.11" height="9.32" rx="0.15"/><rect class="cls-26" x="647.43" y="483.13" width="1.11" height="9.32" rx="0.15"/><rect class="cls-26" x="606.52" y="483.13" width="1.11" height="9.32" rx="0.15"/><rect class="cls-26" x="650.75" y="483.13" width="1.11" height="9.32" rx="0.15"/><rect class="cls-26" x="654.06" y="483.13" width="1.11" height="9.32" rx="0.15"/><path class="cls-21" d="M857.13,670H810a3,3,0,0,1-3-3v-5.63a3,3,0,0,1,3-3h47.13a3,3,0,0,1,3,3V667A3,3,0,0,1,857.13,670Z" transform="translate(-194.98 -188)"/><path class="cls-22" d="M810,670h23.58V658.31H810a3,3,0,0,0-3,3V667A3,3,0,0,0,810,670Z" transform="translate(-194.98 -188)"/><path class="cls-23" d="M810.35,658.31h-1c-1.3,0-2.35,1.35-2.35,3V667c0,1.66,1.05,3,2.35,3h1Z" transform="translate(-194.98 -188)"/><rect class="cls-24" x="652.96" y="470.31" width="4.42" height="11.65"/><path class="cls-25" d="M807.62,668.8A2.31,2.31,0,0,0,810,670h46.69a2.32,2.32,0,0,0,2.43-1.17Z" transform="translate(-194.98 -188)"/><rect class="cls-26" x="616.47" y="471.48" width="1.11" height="9.32" rx="0.15"/><rect class="cls-26" x="619.79" y="471.48" width="1.11" height="9.32" rx="0.15"/><rect class="cls-26" x="623.1" y="471.48" width="1.11" height="9.32" rx="0.15"/><rect class="cls-26" x="626.42" y="471.48" width="1.11" height="9.32" rx="0.15"/><rect class="cls-26" x="629.74" y="471.48" width="1.11" height="9.32" rx="0.15"/><rect class="cls-26" x="633.06" y="471.48" width="1.11" height="9.32" rx="0.15"/><rect class="cls-26" x="636.37" y="471.48" width="1.11" height="9.32" rx="0.15"/><rect class="cls-26" x="639.69" y="471.48" width="1.11" height="9.32" rx="0.15"/><rect class="cls-26" x="643.01" y="471.48" width="1.11" height="9.32" rx="0.15"/><rect class="cls-26" x="646.32" y="471.48" width="1.11" height="9.32" rx="0.15"/><rect class="cls-26" x="648.53" y="471.48" width="1.11" height="9.32" rx="0.15"/><rect class="cls-26" x="651.85" y="471.48" width="1.11" height="9.32" rx="0.15"/><rect class="cls-26" x="655.17" y="471.48" width="1.11" height="9.32" rx="0.15"/><rect class="cls-26" x="614.26" y="471.48" width="1.11" height="9.32" rx="0.15"/><rect class="cls-26" x="658.48" y="471.48" width="1.11" height="9.32" rx="0.15"/><rect class="cls-26" x="661.8" y="471.48" width="1.11" height="9.32" rx="0.15"/><path class="cls-21" d="M853.81,658.31H806.69a3,3,0,0,1-3-3v-5.63a3,3,0,0,1,3-3h47.12a3,3,0,0,1,3,3v5.63A3,3,0,0,1,853.81,658.31Z" transform="translate(-194.98 -188)"/><path class="cls-22" d="M806.67,658.31h23.58V646.66H806.67a3,3,0,0,0-3,3v5.63A3,3,0,0,0,806.67,658.31Z" transform="translate(-194.98 -188)"/><path class="cls-23" d="M807,646.66h-1c-1.29,0-2.35,1.35-2.35,3v5.63c0,1.67,1.06,3,2.35,3h1Z" transform="translate(-194.98 -188)"/><rect class="cls-24" x="649.64" y="458.66" width="4.42" height="11.65"/><path class="cls-25" d="M804.15,657.15a1.94,1.94,0,0,0,2.42,1.16h46.69a1.94,1.94,0,0,0,2.42-1.16Z" transform="translate(-194.98 -188)"/><rect class="cls-26" x="613.15" y="459.83" width="1.11" height="9.32" rx="0.15"/><rect class="cls-26" x="616.47" y="459.83" width="1.11" height="9.32" rx="0.15"/><rect class="cls-26" x="619.79" y="459.83" width="1.11" height="9.32" rx="0.15"/><rect class="cls-26" x="623.1" y="459.83" width="1.11" height="9.32" rx="0.15"/><rect class="cls-26" x="626.42" y="459.83" width="1.11" height="9.32" rx="0.15"/><rect class="cls-26" x="629.74" y="459.83" width="1.11" height="9.32" rx="0.15"/><rect class="cls-26" x="633.06" y="459.83" width="1.11" height="9.32" rx="0.15"/><rect class="cls-26" x="636.37" y="459.83" width="1.11" height="9.32" rx="0.15"/><rect class="cls-26" x="639.69" y="459.83" width="1.11" height="9.32" rx="0.15"/><rect class="cls-26" x="641.9" y="459.83" width="1.11" height="9.32" rx="0.15"/><rect class="cls-26" x="645.22" y="459.83" width="1.11" height="9.32" rx="0.15"/><rect class="cls-26" x="648.53" y="459.83" width="1.11" height="9.32" rx="0.15"/><rect class="cls-26" x="651.85" y="459.83" width="1.11" height="9.32" rx="0.15"/><rect class="cls-26" x="609.84" y="459.83" width="1.11" height="9.32" rx="0.15"/><rect class="cls-26" x="655.17" y="459.83" width="1.11" height="9.32" rx="0.15"/><rect class="cls-26" x="658.48" y="459.83" width="1.11" height="9.32" rx="0.15"/><path class="cls-21" d="M857.13,647.83H810a3,3,0,0,1-3-3v-5.63a3,3,0,0,1,3-3h47.13a3,3,0,0,1,3,3v5.63A3,3,0,0,1,857.13,647.83Z" transform="translate(-194.98 -188)"/><path class="cls-22" d="M810,647.83h23.58V636.17H810a3,3,0,0,0-3,3v5.63A3,3,0,0,0,810,647.83Z" transform="translate(-194.98 -188)"/><path class="cls-23" d="M810.35,636.17h-1c-1.3,0-2.35,1.35-2.35,3v5.63c0,1.67,1.05,3,2.35,3h1Z" transform="translate(-194.98 -188)"/><rect class="cls-24" x="652.96" y="448.17" width="4.42" height="11.65"/><path class="cls-25" d="M807.59,646.66a25.74,25.74,0,0,0,2.42,1.17H856.7c1-.46,1.89-.84,2.42-1.17Z" transform="translate(-194.98 -188)"/><rect class="cls-26" x="616.47" y="449.34" width="1.11" height="9.32" rx="0.15"/><rect class="cls-26" x="619.79" y="449.34" width="1.11" height="9.32" rx="0.15"/><rect class="cls-26" x="623.1" y="449.34" width="1.11" height="9.32" rx="0.15"/><rect class="cls-26" x="626.42" y="449.34" width="1.11" height="9.32" rx="0.15"/><rect class="cls-26" x="629.74" y="449.34" width="1.11" height="9.32" rx="0.15"/><rect class="cls-26" x="633.06" y="449.34" width="1.11" height="9.32" rx="0.15"/><rect class="cls-26" x="636.37" y="449.34" width="1.11" height="9.32" rx="0.15"/><rect class="cls-26" x="639.69" y="449.34" width="1.11" height="9.32" rx="0.15"/><rect class="cls-26" x="643.01" y="449.34" width="1.11" height="9.32" rx="0.15"/><rect class="cls-26" x="646.32" y="449.34" width="1.11" height="9.32" rx="0.15"/><rect class="cls-26" x="648.53" y="449.34" width="1.11" height="9.32" rx="0.15"/><rect class="cls-26" x="651.85" y="449.34" width="1.11" height="9.32" rx="0.15"/><rect class="cls-26" x="655.17" y="449.34" width="1.11" height="9.32" rx="0.15"/><rect class="cls-26" x="614.26" y="449.34" width="1.11" height="9.32" rx="0.15"/><rect class="cls-26" x="658.48" y="449.34" width="1.11" height="9.32" rx="0.15"/><rect class="cls-26" x="661.8" y="449.34" width="1.11" height="9.32" rx="0.15"/><path class="cls-21" d="M864.87,636.17H817.74a3,3,0,0,1-3-3v-5.63a3,3,0,0,1,3-3h47.13a3,3,0,0,1,3,3v5.63A3,3,0,0,1,864.87,636.17Z" transform="translate(-194.98 -188)"/><path class="cls-22" d="M817.72,636.17H841.3V624.52H817.72a3,3,0,0,0-3,3v5.63A3,3,0,0,0,817.72,636.17Z" transform="translate(-194.98 -188)"/><path class="cls-23" d="M818.09,624.52h-1c-1.3,0-2.35,1.35-2.35,3v5.63c0,1.66,1.05,3,2.35,3h1Z" transform="translate(-194.98 -188)"/><rect class="cls-24" x="660.7" y="436.52" width="4.42" height="11.65"/><path class="cls-25" d="M815.36,635a2.32,2.32,0,0,0,2.42,1.16h46.69a2.31,2.31,0,0,0,2.42-1.16Z" transform="translate(-194.98 -188)"/><rect class="cls-26" x="624.21" y="437.68" width="1.11" height="9.32" rx="0.15"/><rect class="cls-26" x="627.53" y="437.68" width="1.11" height="9.32" rx="0.15"/><rect class="cls-26" x="630.84" y="437.68" width="1.11" height="9.32" rx="0.15"/><rect class="cls-26" x="634.16" y="437.68" width="1.11" height="9.32" rx="0.15"/><rect class="cls-26" x="637.48" y="437.68" width="1.11" height="9.32" rx="0.15"/><rect class="cls-26" x="640.79" y="437.68" width="1.11" height="9.32" rx="0.15"/><rect class="cls-26" x="644.11" y="437.68" width="1.11" height="9.32" rx="0.15"/><rect class="cls-26" x="647.43" y="437.68" width="1.11" height="9.32" rx="0.15"/><rect class="cls-26" x="650.75" y="437.68" width="1.11" height="9.32" rx="0.15"/><rect class="cls-26" x="654.06" y="437.68" width="1.11" height="9.32" rx="0.15"/><rect class="cls-26" x="656.27" y="437.68" width="1.11" height="9.32" rx="0.15"/><rect class="cls-26" x="659.59" y="437.68" width="1.11" height="9.32" rx="0.15"/><rect class="cls-26" x="662.91" y="437.68" width="1.11" height="9.32" rx="0.15"/><rect class="cls-26" x="622" y="437.68" width="1.11" height="9.32" rx="0.15"/><rect class="cls-26" x="666.22" y="437.68" width="1.11" height="9.32" rx="0.15"/><rect class="cls-26" x="669.54" y="437.68" width="1.11" height="9.32" rx="0.15"/><path class="cls-7" d="M829.14,692.11H814.73l1.11-44.28H817l10.34,6.08a3.92,3.92,0,0,1,1.85,3.38Z" transform="translate(-194.98 -188)"/><path class="cls-21" d="M816.22,692.11H769.09a3,3,0,0,1-3-3v-5.63a3,3,0,0,1,3-3h47.13a3,3,0,0,1,3,3v5.63A3,3,0,0,1,816.22,692.11Z" transform="translate(-194.98 -188)"/><path class="cls-22" d="M769.07,692.11h23.59V680.46H769.07a3,3,0,0,0-3,3v5.63A3,3,0,0,0,769.07,692.11Z" transform="translate(-194.98 -188)"/><path class="cls-23" d="M770.54,680.46h-1c-1.3,0-2.35,1.35-2.35,3v5.63c0,1.66,1,3,2.35,3h1Z" transform="translate(-194.98 -188)"/><rect class="cls-24" x="612.05" y="492.46" width="4.42" height="11.65"/><path class="cls-25" d="M767.45,691a6.58,6.58,0,0,0,2.42,1.16h46.69A6.58,6.58,0,0,0,819,691Z" transform="translate(-194.98 -188)"/><rect class="cls-26" x="576.67" y="493.62" width="1.11" height="9.32" rx="0.15"/><rect class="cls-26" x="579.99" y="493.62" width="1.11" height="9.32" rx="0.15"/><rect class="cls-26" x="583.3" y="493.62" width="1.11" height="9.32" rx="0.15"/><rect class="cls-26" x="586.62" y="493.62" width="1.11" height="9.32" rx="0.15"/><rect class="cls-26" x="588.83" y="493.62" width="1.11" height="9.32" rx="0.15"/><rect class="cls-26" x="592.15" y="493.62" width="1.11" height="9.32" rx="0.15"/><rect class="cls-26" x="595.46" y="493.62" width="1.11" height="9.32" rx="0.15"/><rect class="cls-26" x="598.78" y="493.62" width="1.11" height="9.32" rx="0.15"/><rect class="cls-26" x="602.1" y="493.62" width="1.11" height="9.32" rx="0.15"/><rect class="cls-26" x="605.41" y="493.62" width="1.11" height="9.32" rx="0.15"/><rect class="cls-26" x="608.73" y="493.62" width="1.11" height="9.32" rx="0.15"/><rect class="cls-26" x="612.05" y="493.62" width="1.11" height="9.32" rx="0.15"/><rect class="cls-26" x="615.37" y="493.62" width="1.11" height="9.32" rx="0.15"/><rect class="cls-26" x="573.35" y="493.62" width="1.11" height="9.32" rx="0.15"/><rect class="cls-26" x="618.68" y="493.62" width="1.11" height="9.32" rx="0.15"/><rect class="cls-26" x="620.89" y="493.62" width="1.11" height="9.32" rx="0.15"/><path class="cls-21" d="M811.8,680.46H764.67a3,3,0,0,1-3-3v-5.63a3,3,0,0,1,3-3H811.8a3,3,0,0,1,3,3v5.63A3,3,0,0,1,811.8,680.46Z" transform="translate(-194.98 -188)"/><path class="cls-22" d="M765.76,680.46h23.58V668.8H765.76a3,3,0,0,0-3,3v5.63A3,3,0,0,0,765.76,680.46Z" transform="translate(-194.98 -188)"/><path class="cls-23" d="M766.12,668.8h-1c-1.3,0-2.35,1.35-2.35,3v5.63c0,1.66,1.05,3,2.35,3h1Z" transform="translate(-194.98 -188)"/><rect class="cls-24" x="607.63" y="480.8" width="4.42" height="11.65"/><path class="cls-25" d="M763.15,679.29a2.35,2.35,0,0,0,2.42,1.17h46.69a2.36,2.36,0,0,0,2.42-1.17Z" transform="translate(-194.98 -188)"/><rect class="cls-26" x="572.25" y="481.97" width="1.11" height="9.32" rx="0.15"/><rect class="cls-26" x="575.56" y="481.97" width="1.11" height="9.32" rx="0.15"/><rect class="cls-26" x="578.88" y="481.97" width="1.11" height="9.32" rx="0.15"/><rect class="cls-26" x="582.2" y="481.97" width="1.11" height="9.32" rx="0.15"/><rect class="cls-26" x="585.51" y="481.97" width="1.11" height="9.32" rx="0.15"/><rect class="cls-26" x="587.72" y="481.97" width="1.11" height="9.32" rx="0.15"/><rect class="cls-26" x="591.04" y="481.97" width="1.11" height="9.32" rx="0.15"/><rect class="cls-26" x="594.36" y="481.97" width="1.11" height="9.32" rx="0.15"/><rect class="cls-26" x="597.68" y="481.97" width="1.11" height="9.32" rx="0.15"/><rect class="cls-26" x="600.99" y="481.97" width="1.11" height="9.32" rx="0.15"/><rect class="cls-26" x="604.31" y="481.97" width="1.11" height="9.32" rx="0.15"/><rect class="cls-26" x="607.63" y="481.97" width="1.11" height="9.32" rx="0.15"/><rect class="cls-26" x="610.94" y="481.97" width="1.11" height="9.32" rx="0.15"/><rect class="cls-26" x="568.93" y="481.97" width="1.11" height="9.32" rx="0.15"/><rect class="cls-26" x="614.26" y="481.97" width="1.11" height="9.32" rx="0.15"/><rect class="cls-26" x="617.58" y="481.97" width="1.11" height="9.32" rx="0.15"/><path class="cls-21" d="M817.32,670H770.2a3,3,0,0,1-3-3v-5.63a3,3,0,0,1,3-3h47.12a3,3,0,0,1,3,3V667A3,3,0,0,1,817.32,670Z" transform="translate(-194.98 -188)"/><path class="cls-22" d="M771.29,670h23.58V658.31H771.29a3,3,0,0,0-3,3V667A3,3,0,0,0,771.29,670Z" transform="translate(-194.98 -188)"/><path class="cls-23" d="M771.65,658.31h-1c-1.29,0-2.35,1.35-2.35,3V667c0,1.66,1.06,3,2.35,3h1Z" transform="translate(-194.98 -188)"/><rect class="cls-24" x="613.15" y="470.31" width="4.42" height="11.65"/><path class="cls-25" d="M768.71,668.8a25.74,25.74,0,0,0,2.42,1.17h46.69c1-.46,1.89-.84,2.42-1.17Z" transform="translate(-194.98 -188)"/><rect class="cls-26" x="577.77" y="471.48" width="1.11" height="9.32" rx="0.15"/><rect class="cls-26" x="581.09" y="471.48" width="1.11" height="9.32" rx="0.15"/><rect class="cls-26" x="584.41" y="471.48" width="1.11" height="9.32" rx="0.15"/><rect class="cls-26" x="587.72" y="471.48" width="1.11" height="9.32" rx="0.15"/><rect class="cls-26" x="591.04" y="471.48" width="1.11" height="9.32" rx="0.15"/><rect class="cls-26" x="593.25" y="471.48" width="1.11" height="9.32" rx="0.15"/><rect class="cls-26" x="596.57" y="471.48" width="1.11" height="9.32" rx="0.15"/><rect class="cls-26" x="599.89" y="471.48" width="1.11" height="9.32" rx="0.15"/><rect class="cls-26" x="603.2" y="471.48" width="1.11" height="9.32" rx="0.15"/><rect class="cls-26" x="606.52" y="471.48" width="1.11" height="9.32" rx="0.15"/><rect class="cls-26" x="609.84" y="471.48" width="1.11" height="9.32" rx="0.15"/><rect class="cls-26" x="613.15" y="471.48" width="1.11" height="9.32" rx="0.15"/><rect class="cls-26" x="616.47" y="471.48" width="1.11" height="9.32" rx="0.15"/><rect class="cls-26" x="574.46" y="471.48" width="1.11" height="9.32" rx="0.15"/><rect class="cls-26" x="619.79" y="471.48" width="1.11" height="9.32" rx="0.15"/><rect class="cls-26" x="623.1" y="471.48" width="1.11" height="9.32" rx="0.15"/><path class="cls-21" d="M814,658.31H766.88a3,3,0,0,1-3-3v-5.63a3,3,0,0,1,3-3H814a3,3,0,0,1,3,3v5.63A3,3,0,0,1,814,658.31Z" transform="translate(-194.98 -188)"/><path class="cls-22" d="M766.86,658.31h23.59V646.66H766.86a3,3,0,0,0-3,3v5.63A3,3,0,0,0,766.86,658.31Z" transform="translate(-194.98 -188)"/><path class="cls-23" d="M767.23,646.66h-1c-1.3,0-2.35,1.35-2.35,3v5.63c0,1.67,1.05,3,2.35,3h1Z" transform="translate(-194.98 -188)"/><rect class="cls-24" x="609.84" y="458.66" width="4.42" height="11.65"/><path class="cls-25" d="M764.4,657.15a3.05,3.05,0,0,0,2.43,1.16h46.69a3,3,0,0,0,2.42-1.16Z" transform="translate(-194.98 -188)"/><rect class="cls-26" x="573.35" y="459.83" width="1.11" height="9.32" rx="0.15"/><rect class="cls-26" x="576.67" y="459.83" width="1.11" height="9.32" rx="0.15"/><rect class="cls-26" x="579.99" y="459.83" width="1.11" height="9.32" rx="0.15"/><rect class="cls-26" x="583.3" y="459.83" width="1.11" height="9.32" rx="0.15"/><rect class="cls-26" x="586.62" y="459.83" width="1.11" height="9.32" rx="0.15"/><rect class="cls-26" x="589.94" y="459.83" width="1.11" height="9.32" rx="0.15"/><rect class="cls-26" x="592.15" y="459.83" width="1.11" height="9.32" rx="0.15"/><rect class="cls-26" x="595.46" y="459.83" width="1.11" height="9.32" rx="0.15"/><rect class="cls-26" x="598.78" y="459.83" width="1.11" height="9.32" rx="0.15"/><rect class="cls-26" x="602.1" y="459.83" width="1.11" height="9.32" rx="0.15"/><rect class="cls-26" x="605.41" y="459.83" width="1.11" height="9.32" rx="0.15"/><rect class="cls-26" x="608.73" y="459.83" width="1.11" height="9.32" rx="0.15"/><rect class="cls-26" x="612.05" y="459.83" width="1.11" height="9.32" rx="0.15"/><rect class="cls-26" x="570.03" y="459.83" width="1.11" height="9.32" rx="0.15"/><rect class="cls-26" x="615.37" y="459.83" width="1.11" height="9.32" rx="0.15"/><rect class="cls-26" x="618.68" y="459.83" width="1.11" height="9.32" rx="0.15"/><path class="cls-7" d="M1247.14,1045.26h-3l0,0h-35.28v44.68h33.39s.09,0,.15,0a4.16,4.16,0,0,0,.88-.18l.14,0a2.85,2.85,0,0,0,1.06-.7h-.1a3,3,0,0,0,.8-2v-5.56a3,3,0,0,0-2.93-3h-5a2.63,2.63,0,0,0,.8-.57h-.1a3,3,0,0,0,.8-2v-5.56a2.93,2.93,0,0,0-1.39-2.47h5.32l.15,0a4,4,0,0,0,.88-.18l.14,0a2.87,2.87,0,0,0,1.06-.71h-.1a3,3,0,0,0,.8-2v-5.56a2.93,2.93,0,0,0-1.39-2.47h3s.09,0,.15,0a3.45,3.45,0,0,0,.87-.18l.14,0a2.83,2.83,0,0,0,1.07-.71h-.1a3,3,0,0,0,.8-2v-5.57A3,3,0,0,0,1247.14,1045.26Z" transform="translate(-194.98 -188)"/><path class="cls-21" d="M1225.08,1090h-46.52a3,3,0,0,1-2.94-3v-5.56a3,3,0,0,1,2.94-3h46.52a3,3,0,0,1,2.94,3v5.56A3,3,0,0,1,1225.08,1090Z" transform="translate(-194.98 -188)"/><path class="cls-22" d="M1178.56,1090H1202v-11.52h-23.46a3,3,0,0,0-2.94,3v5.56A3,3,0,0,0,1178.56,1090Z" transform="translate(-194.98 -188)"/><path class="cls-23" d="M1179.27,1078.51h-1.07a2.8,2.8,0,0,0-2.58,3v5.56a2.81,2.81,0,0,0,2.58,3h1.07Z" transform="translate(-194.98 -188)"/><rect class="cls-24" x="1021.3" y="890.51" width="4.05" height="11.51"/><path class="cls-25" d="M1176.12,1089.07a3.27,3.27,0,0,0,2.41,1h46.38a3.23,3.23,0,0,0,2.4-1Z" transform="translate(-194.98 -188)"/><rect class="cls-26" x="985.5" y="891.36" width="0.81" height="9.81" rx="0.11"/><rect class="cls-26" x="988.73" y="891.36" width="0.81" height="9.81" rx="0.11"/><rect class="cls-26" x="991.97" y="891.36" width="0.81" height="9.81" rx="0.11"/><rect class="cls-26" x="995.11" y="891.36" width="0.81" height="9.81" rx="0.11"/><rect class="cls-26" x="998.34" y="891.36" width="0.81" height="9.81" rx="0.11"/><rect class="cls-26" x="1001.48" y="891.36" width="0.81" height="9.81" rx="0.11"/><rect class="cls-26" x="1004.72" y="891.36" width="0.81" height="9.81" rx="0.11"/><rect class="cls-26" x="1007.95" y="891.36" width="0.81" height="9.81" rx="0.11"/><rect class="cls-26" x="1011.09" y="891.36" width="0.81" height="9.81" rx="0.11"/><rect class="cls-26" x="1014.32" y="891.36" width="0.81" height="9.81" rx="0.11"/><rect class="cls-26" x="1017.46" y="891.36" width="0.81" height="9.81" rx="0.11"/><rect class="cls-26" x="1020.7" y="891.36" width="0.81" height="9.81" rx="0.11"/><rect class="cls-26" x="1023.93" y="891.36" width="0.81" height="9.81" rx="0.11"/><rect class="cls-26" x="982.36" y="891.36" width="0.81" height="9.81" rx="0.11"/><rect class="cls-26" x="1027.07" y="891.26" width="0.81" height="9.81" rx="0.11"/><rect class="cls-26" x="1030.31" y="891.26" width="0.81" height="9.81" rx="0.11"/><path class="cls-21" d="M1218.62,1078.89H1172.1a3,3,0,0,1-2.94-3v-5.56a3,3,0,0,1,2.94-3h46.52a3,3,0,0,1,2.94,3v5.56A3,3,0,0,1,1218.62,1078.89Z" transform="translate(-194.98 -188)"/><path class="cls-22" d="M1172.1,1078.89h23.46v-11.51H1172.1a3,3,0,0,0-2.94,3v5.56A3,3,0,0,0,1172.1,1078.89Z" transform="translate(-194.98 -188)"/><path class="cls-23" d="M1172.8,1067.38h-1.06a2.8,2.8,0,0,0-2.58,3v5.56a2.8,2.8,0,0,0,2.58,3h1.06Z" transform="translate(-194.98 -188)"/><rect class="cls-24" x="1014.84" y="879.38" width="4.05" height="11.51"/><path class="cls-25" d="M1169.66,1077.93a3.27,3.27,0,0,0,2.41,1h46.38a3.26,3.26,0,0,0,2.4-1Z" transform="translate(-194.98 -188)"/><rect class="cls-26" x="979.04" y="880.23" width="0.81" height="9.81" rx="0.11"/><rect class="cls-26" x="982.27" y="880.23" width="0.81" height="9.81" rx="0.11"/><rect class="cls-26" x="985.51" y="880.23" width="0.81" height="9.81" rx="0.11"/><rect class="cls-26" x="988.64" y="880.23" width="0.81" height="9.81" rx="0.11"/><rect class="cls-26" x="991.88" y="880.23" width="0.81" height="9.81" rx="0.11"/><rect class="cls-26" x="995.02" y="880.23" width="0.81" height="9.81" rx="0.11"/><rect class="cls-26" x="998.25" y="880.23" width="0.81" height="9.81" rx="0.11"/><rect class="cls-26" x="1001.49" y="880.23" width="0.81" height="9.81" rx="0.11"/><rect class="cls-26" x="1004.63" y="880.23" width="0.81" height="9.81" rx="0.11"/><rect class="cls-26" x="1007.86" y="880.23" width="0.81" height="9.81" rx="0.11"/><rect class="cls-26" x="1011" y="880.23" width="0.81" height="9.81" rx="0.11"/><rect class="cls-26" x="1014.23" y="880.23" width="0.81" height="9.81" rx="0.11"/><rect class="cls-26" x="1017.47" y="880.23" width="0.81" height="9.81" rx="0.11"/><rect class="cls-26" x="975.9" y="880.23" width="0.81" height="9.81" rx="0.11"/><rect class="cls-26" x="1020.61" y="880.13" width="0.81" height="9.81" rx="0.11"/><rect class="cls-26" x="1023.84" y="880.13" width="0.81" height="9.81" rx="0.11"/><path class="cls-21" d="M1225.49,1067.89H1179a3,3,0,0,1-2.93-3v-5.56a3,3,0,0,1,2.93-3h46.53a3,3,0,0,1,2.93,3v5.56A3,3,0,0,1,1225.49,1067.89Z" transform="translate(-194.98 -188)"/><path class="cls-22" d="M1179,1067.89h23.47v-11.52H1179a3,3,0,0,0-2.93,3v5.56A3,3,0,0,0,1179,1067.89Z" transform="translate(-194.98 -188)"/><path class="cls-23" d="M1179.67,1056.37h-1.06a2.8,2.8,0,0,0-2.58,3v5.56a2.8,2.8,0,0,0,2.58,3h1.06Z" transform="translate(-194.98 -188)"/><rect class="cls-24" x="1021.71" y="868.37" width="4.05" height="11.51"/><path class="cls-25" d="M1176.53,1066.93a3.26,3.26,0,0,0,2.4,1h46.38a3.27,3.27,0,0,0,2.41-1Z" transform="translate(-194.98 -188)"/><rect class="cls-26" x="985.9" y="869.23" width="0.81" height="9.81" rx="0.11"/><rect class="cls-26" x="989.14" y="869.23" width="0.81" height="9.81" rx="0.11"/><rect class="cls-26" x="992.37" y="869.23" width="0.81" height="9.81" rx="0.11"/><rect class="cls-26" x="995.51" y="869.23" width="0.81" height="9.81" rx="0.11"/><rect class="cls-26" x="998.75" y="869.23" width="0.81" height="9.81" rx="0.11"/><rect class="cls-26" x="1001.88" y="869.23" width="0.81" height="9.81" rx="0.11"/><rect class="cls-26" x="1005.12" y="869.23" width="0.81" height="9.81" rx="0.11"/><rect class="cls-26" x="1008.35" y="869.23" width="0.81" height="9.81" rx="0.11"/><rect class="cls-26" x="1011.49" y="869.23" width="0.81" height="9.81" rx="0.11"/><rect class="cls-26" x="1014.73" y="869.23" width="0.81" height="9.81" rx="0.11"/><rect class="cls-26" x="1017.86" y="869.23" width="0.81" height="9.81" rx="0.11"/><rect class="cls-26" x="1021.1" y="869.23" width="0.81" height="9.81" rx="0.11"/><rect class="cls-26" x="1024.34" y="869.23" width="0.81" height="9.81" rx="0.11"/><rect class="cls-26" x="982.76" y="869.23" width="0.81" height="9.81" rx="0.11"/><rect class="cls-26" x="1027.47" y="869.12" width="0.81" height="9.81" rx="0.11"/><rect class="cls-26" x="1030.71" y="869.12" width="0.81" height="9.81" rx="0.11"/><path class="cls-21" d="M1230,1056.88h-46.52a3,3,0,0,1-2.94-3v-5.56a3,3,0,0,1,2.94-3H1230a3,3,0,0,1,2.94,3v5.56A3,3,0,0,1,1230,1056.88Z" transform="translate(-194.98 -188)"/><path class="cls-22" d="M1183.46,1056.88h23.46v-11.51h-23.46a3,3,0,0,0-2.94,3v5.56A3,3,0,0,0,1183.46,1056.88Z" transform="translate(-194.98 -188)"/><path class="cls-23" d="M1184.16,1045.37h-1.06a2.8,2.8,0,0,0-2.58,3v5.56a2.8,2.8,0,0,0,2.58,3h1.06Z" transform="translate(-194.98 -188)"/><rect class="cls-24" x="1026.2" y="857.37" width="4.05" height="11.51"/><path class="cls-25" d="M1181,1055.92a3.27,3.27,0,0,0,2.41,1h46.38a3.26,3.26,0,0,0,2.4-1Z" transform="translate(-194.98 -188)"/><rect class="cls-26" x="990.4" y="858.22" width="0.81" height="9.81" rx="0.11"/><rect class="cls-26" x="993.63" y="858.22" width="0.81" height="9.81" rx="0.11"/><rect class="cls-26" x="996.87" y="858.22" width="0.81" height="9.81" rx="0.11"/><rect class="cls-26" x="1000" y="858.22" width="0.81" height="9.81" rx="0.11"/><rect class="cls-26" x="1003.24" y="858.22" width="0.81" height="9.81" rx="0.11"/><rect class="cls-26" x="1006.38" y="858.22" width="0.81" height="9.81" rx="0.11"/><rect class="cls-26" x="1009.61" y="858.22" width="0.81" height="9.81" rx="0.11"/><rect class="cls-26" x="1012.85" y="858.22" width="0.81" height="9.81" rx="0.11"/><rect class="cls-26" x="1015.99" y="858.22" width="0.81" height="9.81" rx="0.11"/><rect class="cls-26" x="1019.22" y="858.22" width="0.81" height="9.81" rx="0.11"/><rect class="cls-26" x="1022.36" y="858.22" width="0.81" height="9.81" rx="0.11"/><rect class="cls-26" x="1025.6" y="858.22" width="0.81" height="9.81" rx="0.11"/><rect class="cls-26" x="1028.83" y="858.22" width="0.81" height="9.81" rx="0.11"/><rect class="cls-26" x="987.26" y="858.22" width="0.81" height="9.81" rx="0.11"/><rect class="cls-26" x="1031.97" y="858.11" width="0.81" height="9.81" rx="0.11"/><rect class="cls-26" x="1035.2" y="858.11" width="0.81" height="9.81" rx="0.11"/><path class="cls-21" d="M1225.73,1045.64H1179.2a3,3,0,0,1-2.93-3v-5.56a3,3,0,0,1,2.93-3h46.53a3,3,0,0,1,2.93,3v5.56A3,3,0,0,1,1225.73,1045.64Z" transform="translate(-194.98 -188)"/><path class="cls-22" d="M1179.2,1045.64h23.47v-11.52H1179.2a3,3,0,0,0-2.93,3v5.56A3,3,0,0,0,1179.2,1045.64Z" transform="translate(-194.98 -188)"/><path class="cls-23" d="M1179.91,1034.12h-1.06a2.8,2.8,0,0,0-2.58,3v5.56a2.8,2.8,0,0,0,2.58,3h1.06Z" transform="translate(-194.98 -188)"/><rect class="cls-24" x="1021.95" y="846.12" width="4.05" height="11.51"/><path class="cls-25" d="M1176.77,1044.68a3.26,3.26,0,0,0,2.4,1h46.38a3.27,3.27,0,0,0,2.41-1Z" transform="translate(-194.98 -188)"/><rect class="cls-26" x="986.14" y="846.98" width="0.81" height="9.81" rx="0.11"/><rect class="cls-26" x="989.38" y="846.98" width="0.81" height="9.81" rx="0.11"/><rect class="cls-26" x="992.61" y="846.98" width="0.81" height="9.81" rx="0.11"/><rect class="cls-26" x="995.75" y="846.98" width="0.81" height="9.81" rx="0.11"/><rect class="cls-26" x="998.99" y="846.98" width="0.81" height="9.81" rx="0.11"/><rect class="cls-26" x="1002.12" y="846.98" width="0.81" height="9.81" rx="0.11"/><rect class="cls-26" x="1005.36" y="846.98" width="0.81" height="9.81" rx="0.11"/><rect class="cls-26" x="1008.59" y="846.98" width="0.81" height="9.81" rx="0.11"/><rect class="cls-26" x="1011.73" y="846.98" width="0.81" height="9.81" rx="0.11"/><rect class="cls-26" x="1014.97" y="846.98" width="0.81" height="9.81" rx="0.11"/><rect class="cls-26" x="1018.1" y="846.98" width="0.81" height="9.81" rx="0.11"/><rect class="cls-26" x="1021.34" y="846.98" width="0.81" height="9.81" rx="0.11"/><rect class="cls-26" x="1024.58" y="846.98" width="0.81" height="9.81" rx="0.11"/><rect class="cls-26" x="983" y="846.98" width="0.81" height="9.81" rx="0.11"/><rect class="cls-26" x="1027.71" y="846.87" width="0.81" height="9.81" rx="0.11"/><rect class="cls-26" x="1030.95" y="846.87" width="0.81" height="9.81" rx="0.11"/></svg>